<svg xmlns="http://www.w3.org/2000/svg" xmlns:xlink="http://www.w3.org/1999/xlink" width="440.105" height="441.114" viewBox="0 0 440.105 441.114"><defs><filter id="a" x="10.938" y="0" width="402.056" height="384" filterUnits="userSpaceOnUse"><feOffset dy="13" input="SourceAlpha"/><feGaussianBlur stdDeviation="8" result="b"/><feFlood flood-color="#fff" flood-opacity="0.212"/><feComposite operator="in" in2="b"/><feComposite in="SourceGraphic"/></filter></defs><g transform="translate(-518.063 -2354.274)"><g transform="translate(674.063 2361.16) rotate(30)" fill="none"><path d="M152.272,8.541a20,20,0,0,1,23.511,0L316.3,110.632a20,20,0,0,1,7.265,22.361L269.893,298.18A20,20,0,0,1,250.872,312H77.184a20,20,0,0,1-19.021-13.82L4.49,132.993a20,20,0,0,1,7.265-22.361Z" stroke="none"/><path d="M 164.0281066894531 10.72140502929688 C 161.0521545410156 10.72140502929688 158.2066040039062 11.64593505859375 155.7991027832031 13.39511108398438 L 15.28240966796875 115.4864807128906 C 10.36038208007812 119.0625305175781 8.316558837890625 125.3527984619141 10.19659423828125 131.1389770507812 L 63.86920166015625 296.3262634277344 C 65.74923706054688 302.1123962402344 71.10006713867188 306 77.18402099609375 306 L 250.8721923828125 306 C 256.9561462402344 306 262.3069763183594 302.1123962402344 264.18701171875 296.3262634277344 L 317.859619140625 131.1389465332031 C 319.7396545410156 125.3527526855469 317.69580078125 119.0625305175781 312.7738037109375 115.4864349365234 L 172.2571563720703 13.39511108398438 C 169.8495635986328 11.64593505859375 167.0040130615234 10.72140502929688 164.0281066894531 10.72140502929688 M 164.0281066894531 4.72137451171875 C 168.1535339355469 4.72137451171875 172.2789459228516 5.994598388671875 175.7838287353516 8.541015625 L 316.3005065917969 110.6323547363281 C 323.3102416992188 115.7252502441406 326.2434387207031 124.7525787353516 323.56591796875 132.9930267333984 L 269.8933410644531 298.1803588867188 C 267.2158203125 306.4208068847656 259.5367431640625 311.9999694824219 250.8721923828125 311.9999694824219 L 77.18402099609375 311.9999694824219 C 68.51950073242188 311.9999694824219 60.84039306640625 306.4208068847656 58.16287231445312 298.1803588867188 L 4.49029541015625 132.9930725097656 C 1.812774658203125 124.7526245117188 4.7459716796875 115.7252502441406 11.75570678710938 110.6324005126953 L 152.2723846435547 8.541015625 C 155.7772674560547 5.994598388671875 159.9026794433594 4.72137451171875 164.0281066894531 4.72137451171875 Z" stroke="none" fill="#064578"/></g><g transform="translate(1 -230)"><g transform="matrix(1, 0, 0, 1, 517.06, 2584.27)" filter="url(#a)"><path d="M165.289,8.511a20,20,0,0,1,23.478,0L342.271,119.8a20,20,0,0,1,7.278,22.385L290.934,322.192A20,20,0,0,1,271.916,336H82.14a20,20,0,0,1-19.017-13.808L4.507,142.182A20,20,0,0,1,11.785,119.8Z" transform="translate(34.94 11)" fill="#fff"/></g><path d="M46.952,19.336a8.4,8.4,0,0,1-6.264-2.52A8.531,8.531,0,0,1,38.216,10.6a8.52,8.52,0,0,1,2.472-6.228,8.424,8.424,0,0,1,6.264-2.508,8.563,8.563,0,0,1,4.212,1.068,7.819,7.819,0,0,1,3.012,2.892L51.32,7.48a4.434,4.434,0,0,0-1.776-1.764,5.748,5.748,0,0,0-6.54.9A5.461,5.461,0,0,0,41.5,10.6,5.43,5.43,0,0,0,43,14.56,5.27,5.27,0,0,0,46.952,16.1a5.341,5.341,0,0,0,2.6-.636,4.3,4.3,0,0,0,1.764-1.74l2.856,1.656a7.842,7.842,0,0,1-3,2.892A8.543,8.543,0,0,1,46.952,19.336ZM65.864,2.2,63.2,5.488H60.224L62.144,2.2Zm-.6,4.8h3.1V19h-3.1V17.584a4.712,4.712,0,0,1-3.912,1.752A5.437,5.437,0,0,1,57.236,17.5,6.345,6.345,0,0,1,55.52,13a6.345,6.345,0,0,1,1.716-4.5,5.437,5.437,0,0,1,4.116-1.836,4.712,4.712,0,0,1,3.912,1.752Zm-5.712,8.448a3.483,3.483,0,0,0,4.764-.012A3.3,3.3,0,0,0,65.264,13a3.3,3.3,0,0,0-.948-2.436,3.238,3.238,0,0,0-2.388-.948,3.2,3.2,0,0,0-2.376.948A3.32,3.32,0,0,0,58.616,13,3.361,3.361,0,0,0,59.552,15.448ZM71.168,19V1.48h3.1V19Zm11.64.336A6.211,6.211,0,0,1,76.472,13a6.211,6.211,0,0,1,6.336-6.336A6.219,6.219,0,0,1,86,7.5,5.585,5.585,0,0,1,88.184,9.76L85.52,11.32a2.716,2.716,0,0,0-1.092-1.176,3.173,3.173,0,0,0-1.644-.432,3.1,3.1,0,0,0-2.3.924A3.224,3.224,0,0,0,79.568,13a3.193,3.193,0,0,0,.912,2.34,3.1,3.1,0,0,0,2.3.924,3.291,3.291,0,0,0,1.668-.42,2.645,2.645,0,0,0,1.092-1.164l2.688,1.536A6.011,6.011,0,0,1,86,18.484,6.151,6.151,0,0,1,82.808,19.336ZM97.88,7h3.1V19h-3.1V17.656a4,4,0,0,1-3.576,1.68,4.344,4.344,0,0,1-3.252-1.32,5.01,5.01,0,0,1-1.284-3.648V7h3.1v6.984a2.458,2.458,0,0,0,.648,1.836,2.36,2.36,0,0,0,1.728.636,2.549,2.549,0,0,0,1.92-.744,3.094,3.094,0,0,0,.72-2.232Zm5.928,12V1.48h3.1V19Zm16.152-1.488A6.348,6.348,0,0,1,109.112,13a6.348,6.348,0,1,1,12.7,0A6.138,6.138,0,0,1,119.96,17.512Zm-6.84-2.136a3.363,3.363,0,0,0,4.656,0A3.219,3.219,0,0,0,118.712,13a3.219,3.219,0,0,0-.936-2.376,3.16,3.16,0,0,0-2.328-.936,3.121,3.121,0,0,0-2.316.936A3.242,3.242,0,0,0,112.208,13,3.265,3.265,0,0,0,113.12,15.376ZM59.5,30.2V47H56.216V36.1l-4.728,7.8H51.1l-4.728-7.776V47H43.064V30.2h3.408L51.3,38.144,56.1,30.2ZM65.1,42.272q.624,2.256,3.384,2.256a3.166,3.166,0,0,0,2.688-1.2l2.5,1.44a5.952,5.952,0,0,1-5.232,2.568,6.456,6.456,0,0,1-4.776-1.8,6.633,6.633,0,0,1-.024-9.06,6.108,6.108,0,0,1,4.56-1.812,5.722,5.722,0,0,1,4.356,1.824A6.333,6.333,0,0,1,74.264,41a7.249,7.249,0,0,1-.12,1.272Zm-.048-2.4h6.12a2.9,2.9,0,0,0-1.092-1.824,3.13,3.13,0,0,0-1.884-.6,3.257,3.257,0,0,0-2.064.636A3.04,3.04,0,0,0,65.048,39.872ZM83.1,34.664a4.344,4.344,0,0,1,3.252,1.32,5.01,5.01,0,0,1,1.284,3.648V47h-3.1V40.016a2.458,2.458,0,0,0-.648-1.836,2.36,2.36,0,0,0-1.728-.636,2.549,2.549,0,0,0-1.92.744,3.094,3.094,0,0,0-.72,2.232V47h-3.1V35h3.1v1.344A4,4,0,0,1,83.1,34.664Zm14.04,3.312H94.424v4.992a1.187,1.187,0,0,0,.312.912,1.432,1.432,0,0,0,.912.324,13.437,13.437,0,0,0,1.488-.012V47q-3.192.36-4.5-.6a3.994,3.994,0,0,1-1.308-3.432V37.976H89.24V35h2.088V32.576l3.1-.936V35h2.712ZM108.08,35h3.1V47h-3.1V45.584a4.712,4.712,0,0,1-3.912,1.752,5.437,5.437,0,0,1-4.116-1.836,6.758,6.758,0,0,1,0-9,5.437,5.437,0,0,1,4.116-1.836,4.712,4.712,0,0,1,3.912,1.752Zm-5.712,8.448a3.483,3.483,0,0,0,4.764-.012,3.6,3.6,0,0,0,0-4.872,3.238,3.238,0,0,0-2.388-.948,3.2,3.2,0,0,0-2.376.948A3.32,3.32,0,0,0,101.432,41,3.361,3.361,0,0,0,102.368,43.448ZM113.984,47V29.48h3.1V47Z" transform="translate(648 2834)" fill="#064578"/><rect width="36" height="155" rx="18" transform="translate(711 2661)" fill="#f2f4f8"/><g transform="translate(679 2691.295)"><path d="M26.168,12.36l2.589,1.727,1.817-2.726v11.2h3.112V7H29.742Z" transform="translate(13.992 3.336)" fill="#fd8023"/><path d="M30.668,62.559a4.674,4.674,0,0,0,4.668-4.668V57.21A4.661,4.661,0,0,0,31.8,52.682l-2.689-.674v-1.9h6.224V47H26v7.439l5.044,1.26a1.556,1.556,0,0,1,1.179,1.511v.682a1.556,1.556,0,1,1-3.112,0V56.336H26v1.556A4.674,4.674,0,0,0,30.668,62.559Z" transform="translate(13.899 25.574)" fill="#fd8023"/><path d="M34.224,39.448V36.336a3.078,3.078,0,0,0-.433-1.556,3.078,3.078,0,0,0,.433-1.556V30.112A3.115,3.115,0,0,0,31.112,27H28v3.112h3.112v3.112H28v3.112h3.112v3.112H28v3.112h3.112A3.115,3.115,0,0,0,34.224,39.448Z" transform="translate(15.011 14.455)" fill="#fd8023"/><path d="M74.13,32.119H92.8a4.674,4.674,0,0,0,4.668-4.668V8.78A4.674,4.674,0,0,0,92.8,4.112H74.13A4.674,4.674,0,0,0,69.462,8.78v7.78H60.126V8.78a4.674,4.674,0,0,0-4.668-4.668H36.787A4.674,4.674,0,0,0,32.119,8.78v7.78H22.783V11.892A10.892,10.892,0,1,0,1,11.892v72.02L8.192,95.42a4.365,4.365,0,0,0,7.4,0l7.192-11.508v-2h9.336v7.78a4.674,4.674,0,0,0,4.668,4.668H55.458a4.674,4.674,0,0,0,4.668-4.668v-7.78h9.336v7.78a4.674,4.674,0,0,0,4.668,4.668H92.8a4.674,4.674,0,0,0,4.668-4.668V71.018A4.674,4.674,0,0,0,92.8,66.35H74.13a4.674,4.674,0,0,0-4.668,4.668V78.8H60.126v-7.78a4.674,4.674,0,0,0-4.668-4.668H36.787a4.674,4.674,0,0,0-4.668,4.668V78.8H22.783V50.79h9.336v7.78a4.674,4.674,0,0,0,4.668,4.668H55.458a4.674,4.674,0,0,0,4.668-4.668V50.79h9.336v7.78a4.674,4.674,0,0,0,4.668,4.668H92.8a4.674,4.674,0,0,0,4.668-4.668V39.9A4.674,4.674,0,0,0,92.8,35.231H74.13A4.674,4.674,0,0,0,69.462,39.9v7.78H60.126V39.9a4.674,4.674,0,0,0-4.668-4.668H36.787A4.674,4.674,0,0,0,32.119,39.9v7.78H22.783V19.671h9.336v7.78a4.674,4.674,0,0,0,4.668,4.668H55.458a4.674,4.674,0,0,0,4.668-4.668v-7.78h9.336v7.78A4.674,4.674,0,0,0,74.13,32.119Zm-1.556,38.9a1.558,1.558,0,0,1,1.556-1.556H92.8a1.558,1.558,0,0,1,1.556,1.556V89.689A1.558,1.558,0,0,1,92.8,91.245H74.13a1.558,1.558,0,0,1-1.556-1.556Zm-37.343,0a1.558,1.558,0,0,1,1.556-1.556H55.458a1.558,1.558,0,0,1,1.556,1.556V89.689a1.558,1.558,0,0,1-1.556,1.556H36.787a1.558,1.558,0,0,1-1.556-1.556ZM72.574,39.9a1.558,1.558,0,0,1,1.556-1.556H92.8A1.558,1.558,0,0,1,94.357,39.9V58.57A1.558,1.558,0,0,1,92.8,60.126H74.13a1.558,1.558,0,0,1-1.556-1.556Zm-37.343,0a1.558,1.558,0,0,1,1.556-1.556H55.458A1.558,1.558,0,0,1,57.014,39.9V58.57a1.558,1.558,0,0,1-1.556,1.556H36.787a1.558,1.558,0,0,1-1.556-1.556ZM16.559,79.392V16.559h3.112V80.948Zm-9.336,0L4.112,80.948V16.559H7.224Zm3.112-62.832h3.112v63.15l-1.556,1.556-1.556-1.556ZM11.892,4.112a7.789,7.789,0,0,1,7.78,7.78v1.556H4.112V11.892A7.789,7.789,0,0,1,11.892,4.112Zm1.061,89.657a1.3,1.3,0,0,1-2.121,0L4.784,84.092l3.691-1.845,3.417,3.418,3.418-3.418L19,84.092ZM57.014,27.451a1.558,1.558,0,0,1-1.556,1.556H36.787a1.558,1.558,0,0,1-1.556-1.556V8.78a1.558,1.558,0,0,1,1.556-1.556H55.458A1.558,1.558,0,0,1,57.014,8.78ZM72.574,8.78A1.558,1.558,0,0,1,74.13,7.224H92.8A1.558,1.558,0,0,1,94.357,8.78V27.451A1.558,1.558,0,0,1,92.8,29.007H74.13a1.558,1.558,0,0,1-1.556-1.556Z" transform="translate(0 0)" fill="#fd8023"/><path d="M60.336,19.448h-5.58l4.212-4.212a4.633,4.633,0,0,0,1.368-3.3v-.268a4.668,4.668,0,0,0-9.336,0v1.556h3.112V11.668a1.556,1.556,0,0,1,3.112,0v.268a1.568,1.568,0,0,1-.456,1.1L51,18.8v3.756h9.336Z" transform="translate(27.797 3.336)" fill="#fd8023"/><path d="M57.224,42.559h3.112V27H57.224v6.224H54.112V27H51v9.336h6.224Z" transform="translate(27.797 14.455)" fill="#fd8023"/><path d="M55.668,62.559a4.668,4.668,0,0,0,0-9.336,4.615,4.615,0,0,0-1.556.286V51.668a1.556,1.556,0,0,1,3.112,0h3.112a4.668,4.668,0,0,0-9.336,0v6.224A4.674,4.674,0,0,0,55.668,62.559Zm0-6.224a1.556,1.556,0,1,1-1.556,1.556A1.558,1.558,0,0,1,55.668,56.336Z" transform="translate(27.797 25.574)" fill="#fd8023"/></g></g></g></svg>