<svg xmlns="http://www.w3.org/2000/svg" xmlns:xlink="http://www.w3.org/1999/xlink" width="430" height="459" viewBox="0 0 430 459"><defs><filter id="a" x="0" y="29" width="430" height="430" filterUnits="userSpaceOnUse"><feOffset dy="13" input="SourceAlpha"/><feGaussianBlur stdDeviation="8" result="b"/><feFlood flood-color="#fff" flood-opacity="0.212"/><feComposite operator="in" in2="b"/><feComposite in="SourceGraphic"/></filter></defs><g transform="translate(-1344 -2316.274)"><g transform="translate(1378 2316.274)" fill="none"><path d="M176.858,14.142a20,20,0,0,1,28.284,0L367.858,176.858a20,20,0,0,1,0,28.284L205.142,367.858a20,20,0,0,1-28.284,0L14.142,205.142a20,20,0,0,1,0-28.284Z" stroke="none"/><path d="M 190.9999847412109 14.28424072265625 C 187.2604064941406 14.28424072265625 183.7447204589844 15.74044799804688 181.1005096435547 18.38473510742188 L 18.38473510742188 181.1005096435547 C 12.9261474609375 186.5590972900391 12.9261474609375 195.4408721923828 18.38473510742188 200.8995056152344 L 181.1005706787109 363.6152038574219 C 183.7447814941406 366.2594604492188 187.2604522705078 367.7157287597656 190.9999847412109 367.7157287597656 C 194.7395172119141 367.7157287597656 198.2552490234375 366.2594604492188 200.8995056152344 363.6152038574219 L 363.6152038574219 200.8995056152344 C 366.2594604492188 198.2552490234375 367.7157287597656 194.7395629882812 367.7157287597656 190.9999847412109 C 367.7157287597656 187.2604522705078 366.2594604492188 183.7447814941406 363.6152038574219 181.1005096435547 L 200.8995056152344 18.38473510742188 C 198.2552490234375 15.74050903320312 194.7395629882812 14.28424072265625 190.9999847412109 14.28424072265625 M 190.9999847412109 8.28424072265625 C 196.1184387207031 8.28424072265625 201.2368774414062 10.23684692382812 205.1421356201172 14.14208984375 L 367.8578186035156 176.8578796386719 C 375.6683654785156 184.6683502197266 375.6683654785156 197.3316650390625 367.8578186035156 205.1421356201172 L 205.1421356201172 367.8578186035156 C 201.2368774414062 371.7630920410156 196.1184387207031 373.7157287597656 190.9999847412109 373.7157287597656 C 185.8815460205078 373.7157287597656 180.7631225585938 371.7630920410156 176.8578796386719 367.8578186035156 L 14.14208984375 205.1421356201172 C 6.33160400390625 197.3316192626953 6.33160400390625 184.6683502197266 14.14208984375 176.8578796386719 L 176.8578796386719 14.14208984375 C 180.7631225585938 10.23684692382812 185.8815460205078 8.28424072265625 190.9999847412109 8.28424072265625 Z" stroke="none" fill="#064578"/></g><g transform="matrix(1, 0, 0, 1, 1344, 2316.27)" filter="url(#a)"><path d="M176.858,14.142a20,20,0,0,1,28.284,0L367.858,176.858a20,20,0,0,1,0,28.284L205.142,367.858a20,20,0,0,1-28.284,0L14.142,205.142a20,20,0,0,1,0-28.284Z" transform="translate(24 40)" fill="#fff"/></g><path d="M46.952,19.336a8.4,8.4,0,0,1-6.264-2.52A8.531,8.531,0,0,1,38.216,10.6a8.52,8.52,0,0,1,2.472-6.228,8.424,8.424,0,0,1,6.264-2.508,8.563,8.563,0,0,1,4.212,1.068,7.819,7.819,0,0,1,3.012,2.892L51.32,7.48a4.434,4.434,0,0,0-1.776-1.764,5.748,5.748,0,0,0-6.54.9A5.461,5.461,0,0,0,41.5,10.6,5.43,5.43,0,0,0,43,14.56,5.27,5.27,0,0,0,46.952,16.1a5.341,5.341,0,0,0,2.6-.636,4.3,4.3,0,0,0,1.764-1.74l2.856,1.656a7.842,7.842,0,0,1-3,2.892A8.543,8.543,0,0,1,46.952,19.336ZM65.864,2.2,63.2,5.488H60.224L62.144,2.2Zm-.6,4.8h3.1V19h-3.1V17.584a4.712,4.712,0,0,1-3.912,1.752A5.437,5.437,0,0,1,57.236,17.5,6.345,6.345,0,0,1,55.52,13a6.345,6.345,0,0,1,1.716-4.5,5.437,5.437,0,0,1,4.116-1.836,4.712,4.712,0,0,1,3.912,1.752Zm-5.712,8.448a3.483,3.483,0,0,0,4.764-.012A3.3,3.3,0,0,0,65.264,13a3.3,3.3,0,0,0-.948-2.436,3.238,3.238,0,0,0-2.388-.948,3.2,3.2,0,0,0-2.376.948A3.32,3.32,0,0,0,58.616,13,3.361,3.361,0,0,0,59.552,15.448ZM71.168,19V1.48h3.1V19Zm11.64.336A6.211,6.211,0,0,1,76.472,13a6.211,6.211,0,0,1,6.336-6.336A6.219,6.219,0,0,1,86,7.5,5.585,5.585,0,0,1,88.184,9.76L85.52,11.32a2.716,2.716,0,0,0-1.092-1.176,3.173,3.173,0,0,0-1.644-.432,3.1,3.1,0,0,0-2.3.924A3.224,3.224,0,0,0,79.568,13a3.193,3.193,0,0,0,.912,2.34,3.1,3.1,0,0,0,2.3.924,3.291,3.291,0,0,0,1.668-.42,2.645,2.645,0,0,0,1.092-1.164l2.688,1.536A6.011,6.011,0,0,1,86,18.484,6.151,6.151,0,0,1,82.808,19.336ZM97.88,7h3.1V19h-3.1V17.656a4,4,0,0,1-3.576,1.68,4.344,4.344,0,0,1-3.252-1.32,5.01,5.01,0,0,1-1.284-3.648V7h3.1v6.984a2.458,2.458,0,0,0,.648,1.836,2.36,2.36,0,0,0,1.728.636,2.549,2.549,0,0,0,1.92-.744,3.094,3.094,0,0,0,.72-2.232Zm5.928,12V1.48h3.1V19Zm16.152-1.488A6.348,6.348,0,0,1,109.112,13a6.348,6.348,0,1,1,12.7,0A6.138,6.138,0,0,1,119.96,17.512Zm-6.84-2.136a3.363,3.363,0,0,0,4.656,0A3.219,3.219,0,0,0,118.712,13a3.219,3.219,0,0,0-.936-2.376,3.16,3.16,0,0,0-2.328-.936,3.121,3.121,0,0,0-2.316.936A3.242,3.242,0,0,0,112.208,13,3.265,3.265,0,0,0,113.12,15.376ZM59.5,30.2V47H56.216V36.1l-4.728,7.8H51.1l-4.728-7.776V47H43.064V30.2h3.408L51.3,38.144,56.1,30.2ZM65.1,42.272q.624,2.256,3.384,2.256a3.166,3.166,0,0,0,2.688-1.2l2.5,1.44a5.952,5.952,0,0,1-5.232,2.568,6.456,6.456,0,0,1-4.776-1.8,6.633,6.633,0,0,1-.024-9.06,6.108,6.108,0,0,1,4.56-1.812,5.722,5.722,0,0,1,4.356,1.824A6.333,6.333,0,0,1,74.264,41a7.249,7.249,0,0,1-.12,1.272Zm-.048-2.4h6.12a2.9,2.9,0,0,0-1.092-1.824,3.13,3.13,0,0,0-1.884-.6,3.257,3.257,0,0,0-2.064.636A3.04,3.04,0,0,0,65.048,39.872ZM83.1,34.664a4.344,4.344,0,0,1,3.252,1.32,5.01,5.01,0,0,1,1.284,3.648V47h-3.1V40.016a2.458,2.458,0,0,0-.648-1.836,2.36,2.36,0,0,0-1.728-.636,2.549,2.549,0,0,0-1.92.744,3.094,3.094,0,0,0-.72,2.232V47h-3.1V35h3.1v1.344A4,4,0,0,1,83.1,34.664Zm14.04,3.312H94.424v4.992a1.187,1.187,0,0,0,.312.912,1.432,1.432,0,0,0,.912.324,13.437,13.437,0,0,0,1.488-.012V47q-3.192.36-4.5-.6a3.994,3.994,0,0,1-1.308-3.432V37.976H89.24V35h2.088V32.576l3.1-.936V35h2.712ZM108.08,35h3.1V47h-3.1V45.584a4.712,4.712,0,0,1-3.912,1.752,5.437,5.437,0,0,1-4.116-1.836,6.758,6.758,0,0,1,0-9,5.437,5.437,0,0,1,4.116-1.836,4.712,4.712,0,0,1,3.912,1.752Zm-5.712,8.448a3.483,3.483,0,0,0,4.764-.012,3.6,3.6,0,0,0,0-4.872,3.238,3.238,0,0,0-2.388-.948,3.2,3.2,0,0,0-2.376.948A3.32,3.32,0,0,0,101.432,41,3.361,3.361,0,0,0,102.368,43.448ZM113.984,47V29.48h3.1V47Z" transform="translate(1477.972 2604)" fill="#064578"/><rect width="36" height="155" rx="18" transform="translate(1540.972 2431)" fill="#f2f4f8"/><g transform="translate(1503.386 2453.141)"><path d="M38,33.993A14,14,0,1,0,24,20,14.013,14.013,0,0,0,38,33.993ZM38,9.5A10.5,10.5,0,1,1,27.5,20,10.508,10.508,0,0,1,38,9.5Z" transform="translate(17.24 3.748)" fill="#fd8023"/><path d="M35,24a7,7,0,1,0-7-7A7.005,7.005,0,0,0,35,24Zm0-10.5A3.5,3.5,0,1,1,31.5,17,3.5,3.5,0,0,1,35,13.5Z" transform="translate(20.239 6.746)" fill="#fd8023"/><path d="M68.986,20.182V17.257L65.792,16.13q-.163-.412-.343-.824l1.463-3.06L57.74,3.075,54.68,4.538c-.273-.121-.548-.236-.824-.343L52.729,1H39.754L38.628,4.195q-.412.163-.824.343l-3.06-1.463-9.171,9.171,1.463,3.06c-.121.273-.236.548-.343.824L23.5,17.257V20.21a32.469,32.469,0,0,0-2.948,44.721l5.87,7.042a17.643,17.643,0,0,1,4.014,9.848,5.221,5.221,0,0,0,.448,9.953,5.2,5.2,0,0,0,3.209,6.909,12.239,12.239,0,0,0,24.305,0A5.2,5.2,0,0,0,61.6,91.775a5.221,5.221,0,0,0,.446-9.953,17.607,17.607,0,0,1,4.014-9.847l5.431-6.517a33.45,33.45,0,0,0,7.831-18.143A32.291,32.291,0,0,0,68.986,20.182ZM27,19.734l2.437-.859.273-.8a16.871,16.871,0,0,1,.835-2l.374-.763L29.8,12.971,35.47,7.3l2.336,1.118.763-.374a16.872,16.872,0,0,1,2-.835l.8-.273L42.232,4.5h8.02l.859,2.437.8.273a16.872,16.872,0,0,1,2,.835l.763.374L57.016,7.3l5.672,5.672L61.57,15.308l.374.763a16.872,16.872,0,0,1,.835,2l.273.8,2.435.857v8.02l-2.437.859-.273.8a16.872,16.872,0,0,1-.835,2l-.374.763,1.118,2.336L57.014,40.19l-2.336-1.118-.763.374a16.871,16.871,0,0,1-2,.835l-.8.273-.857,2.435h-8.02l-.859-2.437-.8-.273a16.871,16.871,0,0,1-2-.835l-.763-.374-2.336,1.118L29.8,34.517l1.118-2.336-.374-.763a16.871,16.871,0,0,1-.835-2l-.273-.8L27,27.754ZM42.528,46.489H47.9l-2.334,7H53.9L43.357,74.438l5.236-17.452H38.33Zm3.714,59.486a8.764,8.764,0,0,1-8.571-7H54.813A8.764,8.764,0,0,1,46.242,105.974Zm10.5-10.5H35.744a1.75,1.75,0,1,1,0-3.5H56.739a1.75,1.75,0,0,1,0,3.5Zm3.5-7H32.245a1.75,1.75,0,0,1,0-3.5H60.239a1.75,1.75,0,0,1,0,3.5Zm15.6-41.5a29.954,29.954,0,0,1-7.037,16.24l-5.431,6.519A21.133,21.133,0,0,0,58.568,81.48H33.918A21.144,21.144,0,0,0,29.11,69.734L23.24,62.69A28.933,28.933,0,0,1,23.5,25.258v4.974l3.195,1.127q.163.412.343.824l-1.463,3.06,9.171,9.171,3.06-1.463c.273.121.548.236.824.343l.66,1.872L33.159,60.486H43.89L40,73.432a3.534,3.534,0,0,0,6.545,2.6L59.57,49.988H50.42l1.165-3.5h1.144l1.127-3.195q.412-.163.824-.343l3.06,1.463,9.171-9.171-1.463-3.06c.121-.273.236-.548.343-.824l3.195-1.127V25.205a28.808,28.808,0,0,1,6.857,21.772Z" transform="translate(8.995)" fill="#fd8023"/><path d="M53,24H70.5v3.5H53Z" transform="translate(38.978 17.24)" fill="#fd8023"/><path d="M0,0H17.5V3.5H0Z" transform="translate(88.532 27.302) rotate(-22.514)" fill="#fd8023"/><path d="M0,0H3.5V17.5H0Z" transform="translate(4.464 23.854) rotate(-67.486)" fill="#fd8023"/><path d="M1,24H18.5v3.5H1Z" transform="translate(0 17.24)" fill="#fd8023"/><path d="M0,0H17.5V3.5H0Z" transform="translate(4.472 62.14) rotate(-22.514)" fill="#fd8023"/><path d="M0,0H3.5V17.5H0Z" transform="translate(88.547 58.67) rotate(-67.486)" fill="#fd8023"/></g></g></svg>