<svg xmlns="http://www.w3.org/2000/svg" xmlns:xlink="http://www.w3.org/1999/xlink" width="413.431" height="442.428" viewBox="0 0 413.431 442.428"><defs><style>.a{fill:none;}.b{fill:#064578;}.c{fill:#fff;}.d{fill:#f2f4f8;}.e{fill:#fd8023;}.f{filter:url(#a);}</style><filter id="a" x="0" y="28.996" width="413.431" height="413.431" filterUnits="userSpaceOnUse"><feOffset dy="13" input="SourceAlpha"/><feGaussianBlur stdDeviation="8" result="b"/><feFlood flood-color="#fff" flood-opacity="0.212"/><feComposite operator="in" in2="b"/><feComposite in="SourceGraphic"/></filter></defs><g transform="translate(-674 -240)"><g transform="translate(-31 -60)"><g transform="translate(608 -193)"><g transform="translate(-1255.284 -1831.558)"><g transform="translate(1378 2316.274)"><path class="a" d="M176.858,14.142a20,20,0,0,1,28.284,0L367.858,176.858a20,20,0,0,1,0,28.284L205.142,367.858a20,20,0,0,1-28.284,0L14.142,205.142a20,20,0,0,1,0-28.284Z"/><path class="b" d="M191,14.284a13.908,13.908,0,0,0-9.9,4.1L18.385,181.1a14.016,14.016,0,0,0,0,19.8L181.1,363.615a14,14,0,0,0,19.8,0L363.615,200.9a14,14,0,0,0,0-19.8L200.9,18.385a13.908,13.908,0,0,0-9.9-4.1m0-6a19.937,19.937,0,0,1,14.142,5.858L367.858,176.858a20,20,0,0,1,0,28.284L205.142,367.858a20,20,0,0,1-28.284,0L14.142,205.142a20,20,0,0,1,0-28.284L176.858,14.142A19.937,19.937,0,0,1,191,8.284Z"/></g><g class="f" transform="matrix(1, 0, 0, 1, 1352.28, 2324.56)"><path class="c" d="M176.858,14.142a20,20,0,0,1,28.284,0L367.858,176.858a20,20,0,0,1,0,28.284L205.142,367.858a20,20,0,0,1-28.284,0L14.142,205.142a20,20,0,0,1,0-28.284Z" transform="translate(15.72 31.71)"/></g><rect class="d" width="36" height="155" rx="18" transform="translate(1540.972 2431)"/><g transform="translate(1503.386 2453.141)"><path class="e" d="M38,33.993A14,14,0,1,0,24,20,14,14,0,0,0,38,33.993ZM38,9.5A10.5,10.5,0,1,1,27.5,20,10.5,10.5,0,0,1,38,9.5Z" transform="translate(17.24 3.748)"/><path class="e" d="M35,24a7,7,0,1,0-7-7,7,7,0,0,0,7,7Zm0-10.5A3.5,3.5,0,1,1,31.5,17,3.5,3.5,0,0,1,35,13.5Z" transform="translate(20.239 6.746)"/><path class="e" d="M68.986,20.182V17.257L65.792,16.13q-.163-.412-.343-.824l1.463-3.06L57.74,3.075,54.68,4.538c-.273-.121-.548-.236-.824-.343L52.729,1H39.754L38.628,4.2q-.412.163-.824.343L34.744,3.08l-9.171,9.171,1.463,3.06c-.121.273-.236.548-.343.824L23.5,17.257V20.21a32.469,32.469,0,0,0-2.948,44.721l5.87,7.042a17.643,17.643,0,0,1,4.014,9.848,5.221,5.221,0,0,0,.448,9.953,5.2,5.2,0,0,0,3.209,6.909,12.239,12.239,0,0,0,24.305,0,5.2,5.2,0,0,0,3.2-6.908,5.221,5.221,0,0,0,.446-9.953,17.607,17.607,0,0,1,4.014-9.847l5.431-6.517A33.45,33.45,0,0,0,79.32,47.315,32.291,32.291,0,0,0,68.986,20.182ZM27,19.734l2.437-.859.273-.8a16.871,16.871,0,0,1,.835-2l.374-.763L29.8,12.971,35.47,7.3l2.336,1.118.763-.374a16.872,16.872,0,0,1,2-.835l.8-.273L42.232,4.5h8.02l.859,2.437.8.273a16.872,16.872,0,0,1,2,.835l.763.374L57.016,7.3l5.672,5.672L61.57,15.308l.374.763a16.872,16.872,0,0,1,.835,2l.273.8,2.435.857v8.02l-2.437.859-.273.8a16.872,16.872,0,0,1-.835,2l-.374.763,1.118,2.336L57.014,40.19l-2.336-1.118-.763.374a16.869,16.869,0,0,1-2,.835l-.8.273-.857,2.435h-8.02l-.859-2.437-.8-.273a16.871,16.871,0,0,1-2-.835l-.763-.374L35.48,40.188,29.8,34.517l1.118-2.336-.374-.763a16.871,16.871,0,0,1-.835-2l-.273-.8L27,27.754ZM42.528,46.489H47.9l-2.334,7H53.9L43.357,74.438l5.236-17.452H38.33Zm3.714,59.486a8.764,8.764,0,0,1-8.571-7H54.813a8.764,8.764,0,0,1-8.571,7Zm10.5-10.5h-21a1.75,1.75,0,1,1,0-3.5h21a1.75,1.75,0,0,1,0,3.5Zm3.5-7h-28a1.75,1.75,0,1,1,0-3.5h28a1.75,1.75,0,0,1,0,3.5Zm15.6-41.5a29.954,29.954,0,0,1-7.037,16.24l-5.431,6.519A21.133,21.133,0,0,0,58.568,81.48H33.918A21.144,21.144,0,0,0,29.11,69.734L23.24,62.69a28.933,28.933,0,0,1,.26-37.432v4.974l3.195,1.127q.163.412.343.824l-1.463,3.06,9.171,9.171,3.06-1.463c.273.121.548.236.824.343l.66,1.872-6.131,15.32H43.89L40,73.432a3.534,3.534,0,0,0,6.545,2.6L59.57,49.988H50.42l1.165-3.5h1.144l1.127-3.195q.412-.163.824-.343l3.06,1.463,9.171-9.171-1.463-3.06c.121-.273.236-.548.343-.824l3.195-1.127V25.2a28.808,28.808,0,0,1,6.857,21.772Z" transform="translate(8.995)"/><path class="e" d="M53,24H70.5v3.5H53Z" transform="translate(38.978 17.24)"/><path class="e" d="M0,0H17.5V3.5H0Z" transform="translate(88.532 27.302) rotate(-22.514)"/><path class="e" d="M0,0H3.5V17.5H0Z" transform="translate(4.464 23.854) rotate(-67.486)"/><path class="e" d="M1,24H18.5v3.5H1Z" transform="translate(0 17.24)"/><path class="e" d="M0,0H17.5V3.5H0Z" transform="translate(4.472 62.14) rotate(-22.514)"/><path class="e" d="M0,0H3.5V17.5H0Z" transform="translate(88.547 58.67) rotate(-67.486)"/></g></g><g transform="translate(231.726 789.292)"><g transform="translate(0 0)"><g transform="translate(0)"><path class="b" d="M8.734.308A7.7,7.7,0,0,1,2.992-2,7.82,7.82,0,0,1,.726-7.7a7.81,7.81,0,0,1,2.266-5.709,7.722,7.722,0,0,1,5.742-2.3,7.849,7.849,0,0,1,3.861.979,7.168,7.168,0,0,1,2.761,2.651L12.738-10.56a4.065,4.065,0,0,0-1.628-1.617,4.833,4.833,0,0,0-2.376-.583,4.831,4.831,0,0,0-3.619,1.408A5.006,5.006,0,0,0,3.74-7.7,4.977,4.977,0,0,0,5.115-4.07,4.831,4.831,0,0,0,8.734-2.662a4.9,4.9,0,0,0,2.387-.583,3.941,3.941,0,0,0,1.617-1.6l2.618,1.518a7.188,7.188,0,0,1-2.75,2.651A7.831,7.831,0,0,1,8.734.308ZM26.752-1.364A5.665,5.665,0,0,1,22.616.308a5.609,5.609,0,0,1-4.125-1.683A5.609,5.609,0,0,1,16.808-5.5a5.609,5.609,0,0,1,1.683-4.125,5.609,5.609,0,0,1,4.125-1.683,5.646,5.646,0,0,1,4.136,1.683A5.591,5.591,0,0,1,28.446-5.5,5.627,5.627,0,0,1,26.752-1.364Zm-6.27-1.958a2.9,2.9,0,0,0,2.134.858,2.9,2.9,0,0,0,2.134-.858A2.951,2.951,0,0,0,25.608-5.5a2.951,2.951,0,0,0-.858-2.178,2.9,2.9,0,0,0-2.134-.858,2.86,2.86,0,0,0-2.123.858A2.971,2.971,0,0,0,19.646-5.5,2.993,2.993,0,0,0,20.482-3.322Zm16.3-7.986a3.982,3.982,0,0,1,2.981,1.21,4.593,4.593,0,0,1,1.177,3.344V0H38.1V-6.4a2.254,2.254,0,0,0-.594-1.683,2.163,2.163,0,0,0-1.584-.583,2.336,2.336,0,0,0-1.76.682,2.836,2.836,0,0,0-.66,2.046V0H30.668V-11h2.838v1.232A3.664,3.664,0,0,1,36.784-11.308ZM48.818.308a5.608,5.608,0,0,1-4.147-1.672A5.637,5.637,0,0,1,43.01-5.5a5.637,5.637,0,0,1,1.661-4.136,5.608,5.608,0,0,1,4.147-1.672,5.7,5.7,0,0,1,2.926.77,5.12,5.12,0,0,1,2,2.068L51.3-7.04a2.49,2.49,0,0,0-1-1.078,2.909,2.909,0,0,0-1.507-.4,2.843,2.843,0,0,0-2.112.847A2.955,2.955,0,0,0,45.848-5.5a2.927,2.927,0,0,0,.836,2.145,2.843,2.843,0,0,0,2.112.847,3.017,3.017,0,0,0,1.529-.385,2.425,2.425,0,0,0,1-1.067L53.79-2.552A5.51,5.51,0,0,1,51.744-.473,5.639,5.639,0,0,1,48.818.308Zm8.91-4.642q.572,2.068,3.1,2.068a2.9,2.9,0,0,0,2.464-1.1l2.288,1.32a5.456,5.456,0,0,1-4.8,2.354,5.918,5.918,0,0,1-4.378-1.65A5.637,5.637,0,0,1,54.758-5.5a5.687,5.687,0,0,1,1.628-4.147,5.6,5.6,0,0,1,4.18-1.661,5.245,5.245,0,0,1,3.993,1.672A5.806,5.806,0,0,1,66.132-5.5a6.644,6.644,0,0,1-.11,1.166Zm-.044-2.2h5.61a2.659,2.659,0,0,0-1-1.672,2.869,2.869,0,0,0-1.727-.55,2.985,2.985,0,0,0-1.892.583A2.786,2.786,0,0,0,57.684-6.534Zm16.764-4.774a3.982,3.982,0,0,1,2.981,1.21,4.593,4.593,0,0,1,1.177,3.344V0H75.768V-6.4a2.253,2.253,0,0,0-.594-1.683,2.163,2.163,0,0,0-1.584-.583,2.336,2.336,0,0,0-1.76.682,2.836,2.836,0,0,0-.66,2.046V0H68.332V-11H71.17v1.232A3.664,3.664,0,0,1,74.448-11.308Zm13.09,3.036H85.052V-3.7a1.088,1.088,0,0,0,.286.836,1.313,1.313,0,0,0,.836.3,12.318,12.318,0,0,0,1.364-.011V0q-2.926.33-4.125-.55a3.661,3.661,0,0,1-1.2-3.146V-8.272H80.3V-11h1.914v-2.222l2.838-.858V-11h2.486Zm5.236-.836a2.964,2.964,0,0,1,1.309-1.584,3.991,3.991,0,0,1,2.035-.528v3.168a3.342,3.342,0,0,0-2.321.528,2.52,2.52,0,0,0-1.023,2.266V0H89.936V-11h2.838ZM105.93-11h2.838V0H105.93V-1.3A4.319,4.319,0,0,1,102.344.308a4.984,4.984,0,0,1-3.773-1.683A5.816,5.816,0,0,1,97-5.5a5.816,5.816,0,0,1,1.573-4.125,4.984,4.984,0,0,1,3.773-1.683A4.319,4.319,0,0,1,105.93-9.7Zm-5.236,7.744a2.951,2.951,0,0,0,2.178.858,2.968,2.968,0,0,0,2.189-.869A3.023,3.023,0,0,0,105.93-5.5a3.023,3.023,0,0,0-.869-2.233,2.968,2.968,0,0,0-2.189-.869,2.931,2.931,0,0,0-2.178.869A3.044,3.044,0,0,0,99.836-5.5,3.081,3.081,0,0,0,100.694-3.256Zm21.076.7A5.408,5.408,0,0,1,120.23-.8a5.651,5.651,0,0,1-2.156.979v.836a2.348,2.348,0,0,1,1.089.583,1.491,1.491,0,0,1,.451,1.133q0,2.31-4.84,2.024v-2q2.376.154,2.376-.44,0-.44-1.386-.55V.22a5.537,5.537,0,0,1-3.443-1.936A5.691,5.691,0,0,1,110.99-5.5a5.637,5.637,0,0,1,1.661-4.136,5.608,5.608,0,0,1,4.147-1.672,5.7,5.7,0,0,1,2.926.77,5.12,5.12,0,0,1,2,2.068l-2.442,1.43a2.49,2.49,0,0,0-1-1.078,2.909,2.909,0,0,0-1.507-.4,2.843,2.843,0,0,0-2.112.847,2.955,2.955,0,0,0-.836,2.167,2.927,2.927,0,0,0,.836,2.145,2.843,2.843,0,0,0,2.112.847,3.017,3.017,0,0,0,1.529-.385,2.425,2.425,0,0,0,1-1.067Zm6.754-10.3q-.638-.44-.9-.352t-.264.88H125.07a5.658,5.658,0,0,1,.231-1.727,2.369,2.369,0,0,1,.627-1.067,1.884,1.884,0,0,1,.913-.451,2.408,2.408,0,0,1,1.089.055,3.993,3.993,0,0,1,1.144.528q.638.44.891.352t.253-.88h2.31a5.019,5.019,0,0,1-.363,2.057,1.944,1.944,0,0,1-.946,1.056,2.193,2.193,0,0,1-1.276.132A3.913,3.913,0,0,1,128.524-12.848ZM131.67-11h2.838V0H131.67V-1.3A4.319,4.319,0,0,1,128.084.308a4.984,4.984,0,0,1-3.773-1.683A5.816,5.816,0,0,1,122.738-5.5a5.816,5.816,0,0,1,1.573-4.125,4.984,4.984,0,0,1,3.773-1.683A4.319,4.319,0,0,1,131.67-9.7Zm-5.236,7.744a2.951,2.951,0,0,0,2.178.858,2.968,2.968,0,0,0,2.189-.869A3.023,3.023,0,0,0,131.67-5.5a3.023,3.023,0,0,0-.869-2.233,2.968,2.968,0,0,0-2.189-.869,2.931,2.931,0,0,0-2.178.869,3.044,3.044,0,0,0-.858,2.233A3.081,3.081,0,0,0,126.434-3.256Zm20.24,1.892A5.665,5.665,0,0,1,142.538.308a5.609,5.609,0,0,1-4.125-1.683A5.609,5.609,0,0,1,136.73-5.5a5.609,5.609,0,0,1,1.683-4.125,5.609,5.609,0,0,1,4.125-1.683,5.646,5.646,0,0,1,4.136,1.683A5.591,5.591,0,0,1,148.368-5.5,5.627,5.627,0,0,1,146.674-1.364ZM140.4-3.322a2.9,2.9,0,0,0,2.134.858,2.9,2.9,0,0,0,2.134-.858A2.951,2.951,0,0,0,145.53-5.5a2.951,2.951,0,0,0-.858-2.178,2.9,2.9,0,0,0-2.134-.858,2.86,2.86,0,0,0-2.123.858,2.971,2.971,0,0,0-.847,2.178A2.993,2.993,0,0,0,140.4-3.322Z" transform="translate(-0.726 15.708)"/></g></g></g></g></g></g></svg>