<svg xmlns="http://www.w3.org/2000/svg" width="175.8" height="141.706" viewBox="0 0 175.8 141.706"><g transform="translate(-842.112 -4422.094)"><path d="M-79.152.336a8.4,8.4,0,0,1-6.264-2.52A8.531,8.531,0,0,1-87.888-8.4a8.52,8.52,0,0,1,2.472-6.228,8.424,8.424,0,0,1,6.264-2.508,8.563,8.563,0,0,1,4.212,1.068,7.819,7.819,0,0,1,3.012,2.892l-2.856,1.656a4.434,4.434,0,0,0-1.776-1.764,5.272,5.272,0,0,0-2.592-.636A5.27,5.27,0,0,0-83.1-12.384,5.461,5.461,0,0,0-84.6-8.4a5.43,5.43,0,0,0,1.5,3.96A5.27,5.27,0,0,0-79.152-2.9a5.341,5.341,0,0,0,2.6-.636,4.3,4.3,0,0,0,1.764-1.74l2.856,1.656a7.842,7.842,0,0,1-3,2.892A8.543,8.543,0,0,1-79.152.336Zm19.416-1.824A6.18,6.18,0,0,1-64.248.336a6.119,6.119,0,0,1-4.5-1.836A6.119,6.119,0,0,1-70.584-6a6.119,6.119,0,0,1,1.836-4.5,6.119,6.119,0,0,1,4.5-1.836A6.159,6.159,0,0,1-59.736-10.5,6.1,6.1,0,0,1-57.888-6,6.138,6.138,0,0,1-59.736-1.488Zm-6.84-2.136a3.16,3.16,0,0,0,2.328.936,3.16,3.16,0,0,0,2.328-.936A3.219,3.219,0,0,0-60.984-6a3.219,3.219,0,0,0-.936-2.376,3.16,3.16,0,0,0-2.328-.936,3.121,3.121,0,0,0-2.316.936A3.242,3.242,0,0,0-67.488-6,3.265,3.265,0,0,0-66.576-3.624Zm21.1,2.136A6.18,6.18,0,0,1-49.992.336a6.119,6.119,0,0,1-4.5-1.836A6.119,6.119,0,0,1-56.328-6a6.119,6.119,0,0,1,1.836-4.5,6.119,6.119,0,0,1,4.5-1.836A6.159,6.159,0,0,1-45.48-10.5,6.1,6.1,0,0,1-43.632-6,6.138,6.138,0,0,1-45.48-1.488Zm-6.84-2.136a3.16,3.16,0,0,0,2.328.936,3.16,3.16,0,0,0,2.328-.936A3.219,3.219,0,0,0-46.728-6a3.219,3.219,0,0,0-.936-2.376,3.16,3.16,0,0,0-2.328-.936,3.121,3.121,0,0,0-2.316.936A3.242,3.242,0,0,0-53.232-6,3.265,3.265,0,0,0-52.32-3.624Zm17.856-8.712a5.463,5.463,0,0,1,4.14,1.836A6.345,6.345,0,0,1-28.608-6a6.345,6.345,0,0,1-1.716,4.5A5.463,5.463,0,0,1-34.464.336a4.644,4.644,0,0,1-3.888-1.752V4.8h-3.1V-12h3.1v1.416A4.644,4.644,0,0,1-34.464-12.336Zm-2.952,8.784a3.219,3.219,0,0,0,2.376.936,3.238,3.238,0,0,0,2.388-.948A3.3,3.3,0,0,0-31.7-6a3.3,3.3,0,0,0-.948-2.436,3.238,3.238,0,0,0-2.388-.948,3.2,3.2,0,0,0-2.376.948A3.32,3.32,0,0,0-38.352-6,3.361,3.361,0,0,0-37.416-3.552Zm13.608-1.176q.624,2.256,3.384,2.256a3.166,3.166,0,0,0,2.688-1.2l2.5,1.44A5.952,5.952,0,0,1-20.472.336a6.456,6.456,0,0,1-4.776-1.8A6.15,6.15,0,0,1-27.048-6a6.2,6.2,0,0,1,1.776-4.524,6.108,6.108,0,0,1,4.56-1.812,5.722,5.722,0,0,1,4.356,1.824A6.333,6.333,0,0,1-14.64-6a7.248,7.248,0,0,1-.12,1.272Zm-.048-2.4h6.12a2.9,2.9,0,0,0-1.092-1.824,3.13,3.13,0,0,0-1.884-.6,3.257,3.257,0,0,0-2.064.636A3.04,3.04,0,0,0-23.856-7.128ZM-9.384-9.936a3.233,3.233,0,0,1,1.428-1.728,4.354,4.354,0,0,1,2.22-.576v3.456a3.646,3.646,0,0,0-2.532.576A2.75,2.75,0,0,0-9.384-5.736V0h-3.1V-12h3.1ZM4.728-12h3.1V0h-3.1V-1.416A4.712,4.712,0,0,1,.816.336,5.437,5.437,0,0,1-3.3-1.5,6.345,6.345,0,0,1-5.016-6,6.345,6.345,0,0,1-3.3-10.5,5.437,5.437,0,0,1,.816-12.336a4.712,4.712,0,0,1,3.912,1.752ZM-.984-3.552a3.219,3.219,0,0,0,2.376.936A3.238,3.238,0,0,0,3.78-3.564,3.3,3.3,0,0,0,4.728-6,3.3,3.3,0,0,0,3.78-8.436a3.238,3.238,0,0,0-2.388-.948,3.2,3.2,0,0,0-2.376.948A3.32,3.32,0,0,0-1.92-6,3.361,3.361,0,0,0-.984-3.552ZM17.5-9.024H14.784v4.992a1.187,1.187,0,0,0,.312.912,1.432,1.432,0,0,0,.912.324A13.438,13.438,0,0,0,17.5-2.808V0Q14.3.36,13-.6a3.994,3.994,0,0,1-1.308-3.432V-9.024H9.6V-12h2.088v-2.424l3.1-.936V-12H17.5Zm3.72-4.416A1.821,1.821,0,0,1,19.884-14a1.821,1.821,0,0,1-.564-1.332,1.861,1.861,0,0,1,.564-1.344,1.8,1.8,0,0,1,1.332-.576,1.83,1.83,0,0,1,1.356.576,1.861,1.861,0,0,1,.564,1.344A1.821,1.821,0,0,1,22.572-14,1.849,1.849,0,0,1,21.216-13.44ZM19.68,0V-12h3.1V0ZM33.5-12h3.408L32.352,0H28.824l-4.56-12h3.408l2.9,8.4Zm6.432-1.44A1.821,1.821,0,0,1,38.6-14a1.821,1.821,0,0,1-.564-1.332A1.861,1.861,0,0,1,38.6-16.68a1.8,1.8,0,0,1,1.332-.576,1.83,1.83,0,0,1,1.356.576,1.861,1.861,0,0,1,.564,1.344A1.821,1.821,0,0,1,41.292-14,1.849,1.849,0,0,1,39.936-13.44ZM38.4,0V-12h3.1V0Zm8.688-8.592q0,.48.636.78a8.481,8.481,0,0,0,1.548.528,16,16,0,0,1,1.824.576,3.54,3.54,0,0,1,1.548,1.164A3.218,3.218,0,0,1,53.28-3.5,3.3,3.3,0,0,1,51.9-.66a5.732,5.732,0,0,1-3.444,1q-3.7,0-5.04-2.856L46.1-4.032a2.225,2.225,0,0,0,2.352,1.56q1.656,0,1.656-1.032,0-.48-.636-.78a9.077,9.077,0,0,0-1.548-.54,16.185,16.185,0,0,1-1.824-.6,3.745,3.745,0,0,1-1.548-1.14A2.994,2.994,0,0,1,43.92-8.52a3.352,3.352,0,0,1,1.308-2.8,5.128,5.128,0,0,1,3.252-1.02,5.435,5.435,0,0,1,2.664.66,4.823,4.823,0,0,1,1.9,1.884L50.4-8.352a1.975,1.975,0,0,0-1.92-1.224,1.759,1.759,0,0,0-1,.264A.823.823,0,0,0,47.088-8.592Zm21.576-3.744a4.267,4.267,0,0,1,3.3,1.344,5.11,5.11,0,0,1,1.236,3.6V0H70.1V-7.176a2.459,2.459,0,0,0-.528-1.68,1.877,1.877,0,0,0-1.488-.6,2.035,2.035,0,0,0-1.644.7,3.045,3.045,0,0,0-.588,2.016V0h-3.1V-7.176a2.459,2.459,0,0,0-.528-1.68,1.877,1.877,0,0,0-1.488-.6,2.079,2.079,0,0,0-1.644.7,2.963,2.963,0,0,0-.612,2.016V0h-3.1V-12h3.1v1.272a3.738,3.738,0,0,1,3.336-1.608,3.557,3.557,0,0,1,3.264,1.728A4.068,4.068,0,0,1,68.664-12.336Zm17.4,10.848A6.18,6.18,0,0,1,81.552.336a6.119,6.119,0,0,1-4.5-1.836A6.119,6.119,0,0,1,75.216-6a6.119,6.119,0,0,1,1.836-4.5,6.119,6.119,0,0,1,4.5-1.836A6.159,6.159,0,0,1,86.064-10.5,6.1,6.1,0,0,1,87.912-6,6.138,6.138,0,0,1,86.064-1.488Zm-6.84-2.136a3.16,3.16,0,0,0,2.328.936,3.16,3.16,0,0,0,2.328-.936A3.219,3.219,0,0,0,84.816-6a3.219,3.219,0,0,0-.936-2.376,3.16,3.16,0,0,0-2.328-.936,3.121,3.121,0,0,0-2.316.936A3.242,3.242,0,0,0,78.312-6,3.265,3.265,0,0,0,79.224-3.624Z" transform="translate(930 4559)" fill="#fff"/><g transform="translate(888.094 4422.094)"><g transform="translate(0 0)"><path d="M41.754,18.509A8.754,8.754,0,1,0,33,9.755,8.763,8.763,0,0,0,41.754,18.509Zm0-14.59a5.836,5.836,0,1,1,0,11.672c-.171,0-.33-.036-.5-.05a5.8,5.8,0,0,0,1.955-4.327H40.295a2.918,2.918,0,0,1-2.422,2.868A5.814,5.814,0,0,1,41.754,3.919Z" transform="translate(15.147 0.459)" fill="#fff"/><path d="M10.754,30.509A8.754,8.754,0,1,0,2,21.755,8.763,8.763,0,0,0,10.754,30.509Zm0-14.59a5.814,5.814,0,0,1,3.881,10.163,2.918,2.918,0,0,1-2.422-2.868H9.295a5.8,5.8,0,0,0,1.955,4.327c-.166.013-.325.05-.5.05a5.836,5.836,0,1,1,0-11.672Z" transform="translate(0.918 5.967)" fill="#fff"/><path d="M82.164,3,73.41.077A1.456,1.456,0,0,0,71.49,1.46V20.427H51.064a1.468,1.468,0,0,0-.935.337l-8.754,7.295a1.5,1.5,0,0,0-.371.468L36.867,36.8l-9.212,3.947-8.227-2.741a1.5,1.5,0,0,0-.461-.074H7.295A7.3,7.3,0,0,0,0,45.23V61.279a1.458,1.458,0,0,0,1.459,1.459H5.836V80.246H0v2.918H20.426A1.458,1.458,0,0,0,21.885,81.7V74.41H42.311a1.458,1.458,0,0,0,1.459-1.459V65.656H59.818A1.458,1.458,0,0,0,61.277,64.2V56.9H81.7V53.984H78.785V42.312a7.3,7.3,0,0,0-7.295-7.295H65.654V29.181h7.295a7.3,7.3,0,0,0,7.295-7.295V13.132a1.458,1.458,0,0,0-1.459-1.459H74.408V8.348l7.756-2.585a1.458,1.458,0,0,0,0-2.768ZM59.122,23.345l-.763,1.908L57.6,23.345Zm-38.7,48.147a1.458,1.458,0,0,0-1.459,1.459v7.295H16.049V62.738h7.295v8.754Zm5.836,0V61.279A1.458,1.458,0,0,0,24.8,59.82H14.59a1.458,1.458,0,0,0-1.459,1.459V80.246H8.754V46.689H5.836V59.82H2.918V45.23a4.382,4.382,0,0,1,4.377-4.377h4.377V51.066H14.59V40.853H18.73L27.26,43.7a1.457,1.457,0,0,0,1.036-.042l9.1-3.9.886,1.328.442.664-9.787,4.892-9.761-1.395a1.456,1.456,0,0,0-1.665,1.446v7.295a1.458,1.458,0,0,0,1.459,1.459h7.295a4.382,4.382,0,0,1,4.377,4.377V71.492Zm16.049-8.754A1.458,1.458,0,0,0,40.852,64.2v7.295H33.557V59.82a7.3,7.3,0,0,0-7.295-7.295H20.426V48.371l8.547,1.221a1.459,1.459,0,0,0,.859-.14L41.5,43.616a1.43,1.43,0,0,0,.516-.457c.012-.016.034-.022.045-.038l5.7-8.545,3.3-2.477V62.738Zm26.262-8.754H61.277V45.23h7.295Zm8.754-32.1a4.382,4.382,0,0,1-4.377,4.377H64.2a1.458,1.458,0,0,0-1.459,1.459v8.754A1.458,1.458,0,0,0,64.2,37.935H71.49a4.382,4.382,0,0,1,4.377,4.377V53.984H71.49V43.771a1.458,1.458,0,0,0-1.459-1.459H59.818a1.458,1.458,0,0,0-1.459,1.459V62.738H53.982V29.181a1.458,1.458,0,0,0-2.334-1.167l-5.836,4.377a1.385,1.385,0,0,0-.338.357l-4.622,6.933-1.234-1.853,3.86-7.722,8.115-6.761h2.861L57,29.722a1.46,1.46,0,0,0,2.711,0l2.55-6.377H72.949a1.458,1.458,0,0,0,1.459-1.459V14.591h2.918ZM74.408,5.271V3.485l2.682.893Z" transform="translate(0 0)" fill="#fff"/><rect width="2.935" height="2.935" transform="translate(34.739 7.337)" fill="#fff"/><rect width="2.935" height="2.935" transform="translate(28.87 7.337)" fill="#fff"/><rect width="2.935" height="2.935" transform="translate(23.001 7.337)" fill="#fff"/></g></g></g></svg>