<svg xmlns="http://www.w3.org/2000/svg" width="111.312" height="149.136" viewBox="0 0 111.312 149.136"><g transform="translate(-1106.428 -4415)"><path d="M-52.26-3.168h7.08V0H-55.572V-16.8H-45.3v3.168h-6.96v3.576h6.36v3.12h-6.36Zm12.12-5.424q0,.48.636.78a8.481,8.481,0,0,0,1.548.528,16,16,0,0,1,1.824.576,3.541,3.541,0,0,1,1.548,1.164,3.218,3.218,0,0,1,.636,2.04A3.3,3.3,0,0,1-35.328-.66a5.732,5.732,0,0,1-3.444,1q-3.7,0-5.04-2.856l2.688-1.512a2.225,2.225,0,0,0,2.352,1.56q1.656,0,1.656-1.032,0-.48-.636-.78a9.077,9.077,0,0,0-1.548-.54,16.185,16.185,0,0,1-1.824-.6,3.745,3.745,0,0,1-1.548-1.14,2.994,2.994,0,0,1-.636-1.956A3.352,3.352,0,0,1-42-11.316a5.128,5.128,0,0,1,3.252-1.02,5.435,5.435,0,0,1,2.664.66,4.823,4.823,0,0,1,1.9,1.884l-2.64,1.44a1.975,1.975,0,0,0-1.92-1.224,1.759,1.759,0,0,0-1,.264A.823.823,0,0,0-40.14-8.592Zm14.688-.432h-2.712v4.992a1.187,1.187,0,0,0,.312.912,1.432,1.432,0,0,0,.912.324,13.438,13.438,0,0,0,1.488-.012V0q-3.192.36-4.5-.6A3.994,3.994,0,0,1-31.26-4.032V-9.024h-2.088V-12h2.088v-2.424l3.1-.936V-12h2.712Zm5.472-.912a3.233,3.233,0,0,1,1.428-1.728,4.354,4.354,0,0,1,2.22-.576v3.456a3.646,3.646,0,0,0-2.532.576A2.75,2.75,0,0,0-19.98-5.736V0h-3.1V-12h3.1ZM-5.868-12h3.1V0h-3.1V-1.416A4.712,4.712,0,0,1-9.78.336,5.437,5.437,0,0,1-13.9-1.5,6.345,6.345,0,0,1-15.612-6,6.345,6.345,0,0,1-13.9-10.5,5.437,5.437,0,0,1-9.78-12.336a4.712,4.712,0,0,1,3.912,1.752ZM-11.58-3.552A3.219,3.219,0,0,0-9.2-2.616a3.238,3.238,0,0,0,2.388-.948A3.3,3.3,0,0,0-5.868-6a3.3,3.3,0,0,0-.948-2.436A3.238,3.238,0,0,0-9.2-9.384a3.2,3.2,0,0,0-2.376.948A3.32,3.32,0,0,0-12.516-6,3.361,3.361,0,0,0-11.58-3.552ZM6.9-9.024H4.188v4.992A1.187,1.187,0,0,0,4.5-3.12a1.432,1.432,0,0,0,.912.324A13.438,13.438,0,0,0,6.9-2.808V0Q3.708.36,2.4-.6A3.994,3.994,0,0,1,1.092-4.032V-9.024H-1V-12H1.092v-2.424l3.1-.936V-12H6.9ZM18.012-16.9l-2.664,3.288H12.372l1.92-3.288ZM11.34-4.728q.624,2.256,3.384,2.256a3.166,3.166,0,0,0,2.688-1.2l2.5,1.44A5.952,5.952,0,0,1,14.676.336,6.456,6.456,0,0,1,9.9-1.464,6.15,6.15,0,0,1,8.1-6a6.2,6.2,0,0,1,1.776-4.524,6.108,6.108,0,0,1,4.56-1.812,5.722,5.722,0,0,1,4.356,1.824A6.333,6.333,0,0,1,20.508-6a7.248,7.248,0,0,1-.12,1.272Zm-.048-2.4h6.12A2.9,2.9,0,0,0,16.32-8.952a3.13,3.13,0,0,0-1.884-.6,3.257,3.257,0,0,0-2.064.636A3.04,3.04,0,0,0,11.292-7.128ZM31.764-12h3.024V-.576a5.112,5.112,0,0,1-1.836,4.248,6.882,6.882,0,0,1-4.428,1.464,7.5,7.5,0,0,1-3.42-.744,5.2,5.2,0,0,1-2.268-2.184L25.476.7a3.276,3.276,0,0,0,3.144,1.68,3.286,3.286,0,0,0,2.3-.768,2.81,2.81,0,0,0,.84-2.184v-1.3a4.523,4.523,0,0,1-3.84,1.824,5.666,5.666,0,0,1-4.26-1.788,6.057,6.057,0,0,1-1.716-4.356,6.046,6.046,0,0,1,1.728-4.344,5.658,5.658,0,0,1,4.248-1.8,4.523,4.523,0,0,1,3.84,1.824ZM25.98-3.816A3.379,3.379,0,0,0,28.4-2.9a3.313,3.313,0,0,0,2.412-.924,3.158,3.158,0,0,0,.948-2.364,3.129,3.129,0,0,0-.948-2.34A3.313,3.313,0,0,0,28.4-9.456a3.313,3.313,0,0,0-2.412.924,3.129,3.129,0,0,0-.948,2.34A3.219,3.219,0,0,0,25.98-3.816ZM39.132-13.44A1.821,1.821,0,0,1,37.8-14a1.821,1.821,0,0,1-.564-1.332A1.861,1.861,0,0,1,37.8-16.68a1.8,1.8,0,0,1,1.332-.576,1.83,1.83,0,0,1,1.356.576,1.861,1.861,0,0,1,.564,1.344A1.821,1.821,0,0,1,40.488-14,1.849,1.849,0,0,1,39.132-13.44ZM37.6,0V-12h3.1V0ZM52.644-12h3.1V0h-3.1V-1.416A4.712,4.712,0,0,1,48.732.336,5.437,5.437,0,0,1,44.616-1.5,6.345,6.345,0,0,1,42.9-6a6.345,6.345,0,0,1,1.716-4.5,5.437,5.437,0,0,1,4.116-1.836,4.712,4.712,0,0,1,3.912,1.752ZM46.932-3.552a3.219,3.219,0,0,0,2.376.936A3.238,3.238,0,0,0,51.7-3.564,3.3,3.3,0,0,0,52.644-6,3.3,3.3,0,0,0,51.7-8.436a3.238,3.238,0,0,0-2.388-.948,3.2,3.2,0,0,0-2.376.948A3.32,3.32,0,0,0,46-6,3.361,3.361,0,0,0,46.932-3.552Z" transform="translate(1162 4559)" fill="#fff"/><g transform="translate(1113 4414.999)"><g transform="translate(18.48 0.001)"><path d="M174.636,47.736h-23.2V44.458H157.7a1.441,1.441,0,1,0,0-2.881h-6.259V38.3h4.345a6.02,6.02,0,0,0,4.285-1.775l9.475-9.475a4.518,4.518,0,1,0-2.038-2.038l-9.475,9.475a3.158,3.158,0,0,1-2.248.931h-4.345V32.239a7.609,7.609,0,0,0-7.6-7.6H140.66V11.885a4.52,4.52,0,1,0-2.881,0V24.638H134.5V18.38a1.441,1.441,0,0,0-2.881,0v6.259h-3.278V1.442a1.441,1.441,0,1,0-2.881,0v23.2h-3.278V18.38a1.441,1.441,0,1,0-2.881,0v6.259h-3.278V20.293a6.02,6.02,0,0,0-1.775-4.285L104.77,6.53a4.523,4.523,0,1,0-2.037,2.037l9.478,9.479a3.157,3.157,0,0,1,.931,2.248v4.345h-3.179a7.632,7.632,0,0,0-1.9.24,1.441,1.441,0,0,0,.718,2.791,4.745,4.745,0,0,1,1.181-.149h33.876a4.724,4.724,0,0,1,4.719,4.719V66.115a4.745,4.745,0,0,1-.148,1.18,1.441,1.441,0,1,0,2.791.717,7.625,7.625,0,0,0,.239-1.9V62.936h12.754a4.52,4.52,0,1,0,0-2.881H151.439V56.776H157.7a1.441,1.441,0,1,0,0-2.881h-6.259V50.617h23.2a1.441,1.441,0,0,0,0-2.881Zm-4.239-25.9a1.639,1.639,0,1,1-.48,1.159A1.628,1.628,0,0,1,170.4,21.841ZM101.883,5.681a1.638,1.638,0,1,1,0-2.318A1.641,1.641,0,0,1,101.883,5.681ZM139.22,9.24A1.639,1.639,0,1,1,140.859,7.6,1.641,1.641,0,0,1,139.22,9.24Zm29.257,50.617a1.639,1.639,0,1,1-1.639,1.639A1.641,1.641,0,0,1,168.477,59.856Z" transform="translate(-96.206 -0.001)" fill="#fff"/></g><g transform="translate(0 29.258)"><path d="M78.549,213.684a4.525,4.525,0,0,0-5.2-.849l-9.478-9.479a3.157,3.157,0,0,1-.931-2.248v-4.345h3.179a7.628,7.628,0,0,0,1.9-.24,1.441,1.441,0,1,0-.718-2.791,4.743,4.743,0,0,1-1.181.148H32.238a4.724,4.724,0,0,1-4.719-4.719V155.287a4.739,4.739,0,0,1,.148-1.181,1.441,1.441,0,0,0-2.79-.718,7.617,7.617,0,0,0-.24,1.9v3.179H11.884a4.52,4.52,0,1,0,0,2.881H24.637v3.278H18.379a1.441,1.441,0,1,0,0,2.881h6.259v3.278H1.441a1.441,1.441,0,1,0,0,2.881h23.2v3.278H18.379a1.441,1.441,0,0,0,0,2.881h6.259V183.1H20.292a6.02,6.02,0,0,0-4.285,1.775l-9.475,9.475a4.517,4.517,0,1,0,2.038,2.037l9.475-9.475a3.158,3.158,0,0,1,2.248-.931h4.345v3.179a7.609,7.609,0,0,0,7.6,7.6h3.179v12.754a4.52,4.52,0,1,0,2.881,0V196.763h3.278v6.259a1.441,1.441,0,1,0,2.881,0v-6.259h3.278v23.2a1.441,1.441,0,1,0,2.881,0v-23.2h3.278v6.259a1.441,1.441,0,1,0,2.881,0v-6.259h3.278v4.345a6.02,6.02,0,0,0,1.775,4.285l9.478,9.478a4.519,4.519,0,1,0,7.242-1.188ZM7.6,161.545a1.639,1.639,0,1,1,1.639-1.639A1.641,1.641,0,0,1,7.6,161.545ZM5.679,199.561a1.639,1.639,0,1,1,.48-1.159A1.628,1.628,0,0,1,5.679,199.561ZM38.5,213.8a1.639,1.639,0,1,1-1.639-1.639A1.641,1.641,0,0,1,38.5,213.8Zm38.016,4.239a1.638,1.638,0,1,1,0-2.318A1.641,1.641,0,0,1,76.512,218.039Z" transform="translate(0 -152.306)" fill="#fff"/></g><g transform="translate(33.877 32.338)"><path d="M206.955,181.33a6.959,6.959,0,0,0-5.339-6.539,4.918,4.918,0,0,0,.142-1.16,5.553,5.553,0,0,0-5.771-5.29,5.993,5.993,0,0,0-4.331,1.8,5.993,5.993,0,0,0-4.331-1.8,5.553,5.553,0,0,0-5.771,5.29,4.918,4.918,0,0,0,.142,1.16,6.958,6.958,0,0,0-5.339,6.539,6.328,6.328,0,0,0,1.517,4.1,7.124,7.124,0,0,0-1.517,4.369,7.42,7.42,0,0,0,3.464,6.156v0c0,3.342,2.978,6.06,6.638,6.06a6.874,6.874,0,0,0,5.2-2.3,6.874,6.874,0,0,0,5.2,2.3,6.42,6.42,0,0,0,6.624-5.686,6.734,6.734,0,0,0,3.478-5.763,6.494,6.494,0,0,0-2-4.619A6.5,6.5,0,0,0,206.955,181.33Zm-5.1,5.893a3.844,3.844,0,0,1,2.217,3.345,3.685,3.685,0,0,1-1.269,2.709,6.468,6.468,0,0,0-3.787-3.05,1.441,1.441,0,1,0-.864,2.749,3.268,3.268,0,0,1,2.456,2.982,3.809,3.809,0,0,1-7.513,0v-9.239a3.508,3.508,0,0,1,3.756-3.179,1.441,1.441,0,1,0,0-2.881,7.043,7.043,0,0,0-3.756,1.067v-1.84a1.441,1.441,0,0,0-2.881,0v8a6.863,6.863,0,0,0-1.592-.737,1.441,1.441,0,0,0-.864,2.749,3.268,3.268,0,0,1,2.456,2.982v3.08a3.809,3.809,0,0,1-7.513,0,2.9,2.9,0,0,1,.9-2.056,1.441,1.441,0,0,0-2.031-2.044,6.127,6.127,0,0,0-.889,1.117,4.395,4.395,0,0,1-1.441-3.176,4.906,4.906,0,0,1,4.074-4.56,1.441,1.441,0,1,0-.644-2.808,8.776,8.776,0,0,0-2.643,1.077,3.476,3.476,0,0,1-.786-2.177c0-2.167,2.055-3.931,4.587-3.948l.038,0a1.439,1.439,0,0,0,1.222-2.2c-.011-.018-.021-.036-.032-.053l-.019-.026c-.022-.031-.045-.062-.07-.092l0,0a2.139,2.139,0,0,1-.527-1.382,2.938,2.938,0,0,1,5.78,0,1.441,1.441,0,0,0,2.881,0,2.938,2.938,0,0,1,5.78,0,2.026,2.026,0,0,1-.216.907,8,8,0,0,0-2.364.593,1.441,1.441,0,0,0,1.12,2.655,5.2,5.2,0,0,1,1.992-.4l.041,0,.038,0c2.532.017,4.587,1.781,4.587,3.948a3.844,3.844,0,0,1-2.217,3.345,1.441,1.441,0,0,0,0,2.548Z" transform="translate(-176.357 -168.34)" fill="#fff"/></g></g></g></svg>