<svg xmlns="http://www.w3.org/2000/svg" width="108.096" height="152.166" viewBox="0 0 108.096 152.166"><g transform="translate(-393.036 -4412.053)"><g transform="translate(381.73 4412.053)"><path d="M124.6,197.583a6.656,6.656,0,0,0,5.986-3.786,1.611,1.611,0,0,0-2.91-1.381,3.4,3.4,0,0,1-6.153,0,1.611,1.611,0,1,0-2.91,1.381A6.658,6.658,0,0,0,124.6,197.583Z" transform="translate(-82.597 -150.373)" fill="#fff"/><path d="M93.664,147.825c0-1.659-.908-3.009-2.024-3.009s-2.024,1.35-2.024,3.009.908,3.009,2.024,3.009S93.664,149.484,93.664,147.825Z" transform="translate(-59.952 -113.717)" fill="#fff"/><path d="M187.679,150.833c1.116,0,2.024-1.35,2.024-3.009s-.908-3.009-2.024-3.009-2.024,1.35-2.024,3.009S186.563,150.833,187.679,150.833Z" transform="translate(-135.366 -113.717)" fill="#fff"/><path d="M116.671,22.22a1.61,1.61,0,0,0-1.65.074c-5.695,3.756-11.5,1.842-17.644-.184-5.814-1.917-11.8-3.889-17.928-1.182v-.842a1.611,1.611,0,1,0-3.221,0V57.26a11.28,11.28,0,0,0-3.339,1.654c-1.908-.406-7.383-1.623-13.22-3.4a13.961,13.961,0,0,0,6.038-10.834c.044-.866.079-1.734.108-2.6a6.45,6.45,0,0,0,2.5-11.3,61.438,61.438,0,0,0,1.816-8.7c.956-7.4-.041-12.634-2.962-15.556-3.638-3.638-8.238-2.195-11.031-.39-2.691-2.9-10.844-8.756-30.833-4.8C19.411,2.5,15.828,6.06,14.654,11.917c-.973,4.853-.241,10.54.466,16.041.132,1.03.259,2.016.373,2.982a6.449,6.449,0,0,0,2.693,11.135c.029.87.064,1.738.108,2.6a13.962,13.962,0,0,0,7.385,11.647c-2.974,3.2-7.761,10.69-7.823,25.771-.485,1.353-1.7,5.45.471,7.619a5.626,5.626,0,0,0,4.036,1.308,14.2,14.2,0,0,0,2.323-.209,45.979,45.979,0,0,0,2.128,12.022,6.634,6.634,0,0,0-2.927,5.5,1.611,1.611,0,0,0,1.611,1.611H39.373a1.611,1.611,0,0,0,1.611-1.611v-5.025c0-.028,0-.055,0-.082s0-.065-.006-.1a1.524,1.524,0,0,0-.024-.151s0-.006,0-.009a34.653,34.653,0,0,1-.6-5.024,1.611,1.611,0,1,0-3.218.154c.067,1.4.205,2.645.339,3.6h-7.64c-2.7-7.954-1.829-20.556-1.767-21.218H55.882s1.083,13-1.708,21.218H46.536c.551-3.912,1.166-12.679-3.4-17.24a1.61,1.61,0,0,0-2.278,0,12.359,12.359,0,0,0-3.082,5.783,1.611,1.611,0,1,0,3.12.8A11.153,11.153,0,0,1,42,88.249c2.481,4.347,1.665,11.876,1.055,14.723l0,.01c-.007.033-.011.067-.016.1a1.63,1.63,0,0,0-.016.193c0,.012,0,.023,0,.035v0c0,.008,0,.016,0,.024v5a1.611,1.611,0,0,0,1.611,1.611H58.5a1.611,1.611,0,0,0,1.611-1.611,6.635,6.635,0,0,0-2.926-5.5c3.048-8.864,2.109-20.1,2.067-20.577l-.281-3.515c0-.011,0-.022,0-.034a32.172,32.172,0,0,0-2.709-9.872c1.43.084,3.273.157,5.264.146,5.338-.029,9.35-.643,11.955-1.824a9.035,9.035,0,0,0,2.746,1.21v39.965a1.611,1.611,0,0,0,3.221,0V68.491a8.058,8.058,0,0,0,.817-.179c1.757-.492,2.936-3.785,3.08-5.873.163-2.38-.78-4.2-2.587-4.982a6.027,6.027,0,0,0-1.309-.4V51.01c5.462-3.146,11.035-1.313,16.921.628a49,49,0,0,0,8.83,2.316,1.634,1.634,0,0,0,.211.014,1.611,1.611,0,0,0,.207-3.208,45.96,45.96,0,0,1-8.239-2.181c-5.815-1.917-11.8-3.892-17.929-1.185V24.536c5.462-3.145,11.034-1.308,16.918.632,5.815,1.917,11.8,3.892,17.929,1.185V49.21a12.865,12.865,0,0,1-2.071.967,1.611,1.611,0,0,0,1.089,3.031,16.456,16.456,0,0,0,3.479-1.756,1.611,1.611,0,0,0,.724-1.345V23.638a1.61,1.61,0,0,0-.847-1.418ZM27.513,106.726a3.418,3.418,0,0,1,3-1.8h7.248v1.8Zm18.727,0v-1.8h7.248a3.418,3.418,0,0,1,3,1.8ZM65.893,38.6q.031-2.815-.042-5.618a3.228,3.228,0,0,1,.042,5.618Zm-49.4-2.8a3.235,3.235,0,0,1,1.658-2.822q-.073,2.8-.042,5.618A3.232,3.232,0,0,1,16.491,35.809Zm2.994-6.449a6.448,6.448,0,0,0-.927.1c-.078-.626-.159-1.261-.243-1.914-.674-5.242-1.371-10.663-.5-15,.919-4.583,3.5-7.144,8.116-8.059,6.641-1.316,16.03-2.268,23.048.664,4.087,1.708,5.447,3.974,5.451,3.98a1.611,1.611,0,0,0,2.474.433,10.509,10.509,0,0,1,2.934-1.694,4.425,4.425,0,0,1,5.055.921c4.045,4.045,2.005,15.139.461,20.65a6.452,6.452,0,0,0-.833-.085c-1.916-.874-3.033-3.606-3.636-5.791a7.991,7.991,0,0,0-12.968-3.9,9.005,9.005,0,0,1-11.826,0,7.991,7.991,0,0,0-12.968,3.9c-.6,2.185-1.719,4.918-3.635,5.791ZM21.51,44.514c-.212-4.145-.249-8.35-.11-12.514,2.161-1.25,3.782-3.791,4.826-7.575a4.77,4.77,0,0,1,7.741-2.334,12.237,12.237,0,0,0,16.069,0,4.77,4.77,0,0,1,7.741,2.334C58.82,28.208,60.44,30.75,62.6,32c.139,4.148.1,8.353-.111,12.515A10.757,10.757,0,0,1,52.215,54.74c-6.777.32-13.651.32-20.43,0A10.76,10.76,0,0,1,21.51,44.514ZM42,71.917l-2.919-2.093.871-5.911h4.1l.871,5.911Zm2.048-11.226h-4.1l-.369-2.5Q40.792,58.2,42,58.2t2.417-.014ZM29,57.586a14.229,14.229,0,0,0,2.635.372q2.337.11,4.686.168l.615,4.175-1.183,8.024a1.611,1.611,0,0,0,.655,1.544l3.985,2.857v2.535H28.567a29.085,29.085,0,0,1,1-3.561,1.611,1.611,0,0,0-3.017-1.13,32.936,32.936,0,0,0-1.512,6.063c-.11.735-.187,1.45-.236,2.144h-3.71c.37-15.318,5.973-21.507,7.9-23.192ZM20.6,87.438c-.451-.451-.353-2,.032-3.439h4c-.04.912-.072,2.135-.06,3.563-1.9.379-3.564.288-3.976-.124ZM53.673,65.409a1.611,1.611,0,0,0-1.534,2.458,28.762,28.762,0,0,1,3.384,9.4H43.612V74.726L47.6,71.87a1.611,1.611,0,0,0,.655-1.544L47.068,62.3l.615-4.177q2.347-.06,4.684-.168A14.2,14.2,0,0,0,55.32,57.5a163.188,163.188,0,0,0,16.452,4.466l.18,2.352c-4.623,1.972-14.6,1.478-18.28,1.089ZM80.1,61.325a6.4,6.4,0,0,1-.676,3.457,1.057,1.057,0,0,1-.85.583,5.223,5.223,0,0,1-3.378-.927L74.959,61.4c.96-.651,2.881-1.7,4.514-.985a1.053,1.053,0,0,1,.621.914Z" transform="translate(0 0)" fill="#fff"/></g><path d="M-50.652-3.168h6.408V0h-9.72V-16.8h3.312ZM-40.98-13.44A1.821,1.821,0,0,1-42.312-14a1.821,1.821,0,0,1-.564-1.332,1.861,1.861,0,0,1,.564-1.344,1.8,1.8,0,0,1,1.332-.576,1.83,1.83,0,0,1,1.356.576,1.861,1.861,0,0,1,.564,1.344A1.821,1.821,0,0,1-39.624-14,1.849,1.849,0,0,1-40.98-13.44ZM-42.516,0V-12h3.1V0Zm15.024-16.8h3.1V0h-3.1V-1.416A4.644,4.644,0,0,1-31.38.336,5.463,5.463,0,0,1-35.52-1.5,6.345,6.345,0,0,1-37.236-6a6.345,6.345,0,0,1,1.716-4.5,5.463,5.463,0,0,1,4.14-1.836,4.644,4.644,0,0,1,3.888,1.752ZM-33.2-3.552a3.3,3.3,0,0,0,2.4.936,3.2,3.2,0,0,0,2.376-.948A3.32,3.32,0,0,0-27.492-6a3.32,3.32,0,0,0-.936-2.436A3.2,3.2,0,0,0-30.8-9.384a3.238,3.238,0,0,0-2.388.948A3.3,3.3,0,0,0-34.14-6,3.361,3.361,0,0,0-33.2-3.552Zm14.256-1.176q.624,2.256,3.384,2.256a3.166,3.166,0,0,0,2.688-1.2l2.5,1.44A5.952,5.952,0,0,1-15.612.336a6.456,6.456,0,0,1-4.776-1.8A6.15,6.15,0,0,1-22.188-6a6.2,6.2,0,0,1,1.776-4.524,6.108,6.108,0,0,1,4.56-1.812A5.722,5.722,0,0,1-11.5-10.512,6.333,6.333,0,0,1-9.78-6,7.248,7.248,0,0,1-9.9-4.728ZM-19-7.128h6.12a2.9,2.9,0,0,0-1.092-1.824,3.13,3.13,0,0,0-1.884-.6,3.257,3.257,0,0,0-2.064.636A3.04,3.04,0,0,0-19-7.128ZM-4.524-9.936A3.233,3.233,0,0,1-3.1-11.664a4.354,4.354,0,0,1,2.22-.576v3.456a3.646,3.646,0,0,0-2.532.576A2.75,2.75,0,0,0-4.524-5.736V0h-3.1V-12h3.1ZM9.588-12h3.1V0h-3.1V-1.416A4.712,4.712,0,0,1,5.676.336,5.437,5.437,0,0,1,1.56-1.5,6.345,6.345,0,0,1-.156-6,6.345,6.345,0,0,1,1.56-10.5a5.437,5.437,0,0,1,4.116-1.836,4.712,4.712,0,0,1,3.912,1.752ZM3.876-3.552a3.219,3.219,0,0,0,2.376.936A3.238,3.238,0,0,0,8.64-3.564,3.3,3.3,0,0,0,9.588-6,3.3,3.3,0,0,0,8.64-8.436a3.238,3.238,0,0,0-2.388-.948,3.2,3.2,0,0,0-2.376.948A3.32,3.32,0,0,0,2.94-6,3.361,3.361,0,0,0,3.876-3.552Zm18.288-8.784a4.344,4.344,0,0,1,3.252,1.32A5.01,5.01,0,0,1,26.7-7.368V0H23.6V-6.984a2.458,2.458,0,0,0-.648-1.836,2.36,2.36,0,0,0-1.728-.636,2.549,2.549,0,0,0-1.92.744,3.094,3.094,0,0,0-.72,2.232V0h-3.1V-12h3.1v1.344A4,4,0,0,1,22.164-12.336ZM40.476-2.784A5.9,5.9,0,0,1,38.8-.876,6.165,6.165,0,0,1,36.444.192V1.1a2.561,2.561,0,0,1,1.188.636,1.627,1.627,0,0,1,.492,1.236q0,2.52-5.28,2.208V3q2.592.168,2.592-.48,0-.48-1.512-.6V.24a6.04,6.04,0,0,1-3.756-2.112A6.209,6.209,0,0,1,28.716-6a6.15,6.15,0,0,1,1.812-4.512,6.118,6.118,0,0,1,4.524-1.824,6.219,6.219,0,0,1,3.192.84A5.585,5.585,0,0,1,40.428-9.24L37.764-7.68a2.716,2.716,0,0,0-1.092-1.176,3.173,3.173,0,0,0-1.644-.432,3.1,3.1,0,0,0-2.3.924A3.224,3.224,0,0,0,31.812-6a3.193,3.193,0,0,0,.912,2.34,3.1,3.1,0,0,0,2.3.924,3.291,3.291,0,0,0,1.668-.42A2.645,2.645,0,0,0,37.788-4.32ZM51.036-12h3.1V0h-3.1V-1.416A4.712,4.712,0,0,1,47.124.336,5.437,5.437,0,0,1,43.008-1.5,6.345,6.345,0,0,1,41.292-6a6.345,6.345,0,0,1,1.716-4.5,5.437,5.437,0,0,1,4.116-1.836,4.712,4.712,0,0,1,3.912,1.752ZM45.324-3.552a3.219,3.219,0,0,0,2.376.936,3.238,3.238,0,0,0,2.388-.948A3.3,3.3,0,0,0,51.036-6a3.3,3.3,0,0,0-.948-2.436A3.238,3.238,0,0,0,47.7-9.384a3.2,3.2,0,0,0-2.376.948A3.32,3.32,0,0,0,44.388-6,3.361,3.361,0,0,0,45.324-3.552Z" transform="translate(447 4559)" fill="#fff"/></g></svg>