<svg xmlns="http://www.w3.org/2000/svg" xmlns:xlink="http://www.w3.org/1999/xlink" width="390" height="400" viewBox="0 0 390 400"><defs><filter id="a" x="0" y="10" width="390" height="390" filterUnits="userSpaceOnUse"><feOffset dy="13" input="SourceAlpha"/><feGaussianBlur stdDeviation="8" result="b"/><feFlood flood-color="#fff" flood-opacity="0.212"/><feComposite operator="in" in2="b"/><feComposite in="SourceGraphic"/></filter></defs><g transform="translate(-943 -2356)"><g transform="translate(950 2356)" fill="none" stroke="#064578" stroke-width="6"><rect width="342" height="342" rx="171" stroke="none"/><rect x="3" y="3" width="336" height="336" rx="168" fill="none"/></g><g transform="matrix(1, 0, 0, 1, 943, 2356)" filter="url(#a)"><rect width="342" height="342" rx="171" transform="translate(24 21)" fill="#fff"/></g><path d="M71.148,2.2V19H67.86V8.1l-4.728,7.8h-.384L58.02,8.128V19H54.708V2.2h3.408l4.824,7.944L67.74,2.2ZM76.74,14.272q.624,2.256,3.384,2.256a3.166,3.166,0,0,0,2.688-1.2l2.5,1.44a5.952,5.952,0,0,1-5.232,2.568,6.456,6.456,0,0,1-4.776-1.8A6.15,6.15,0,0,1,73.5,13a6.2,6.2,0,0,1,1.776-4.524,6.108,6.108,0,0,1,4.56-1.812,5.722,5.722,0,0,1,4.356,1.824A6.333,6.333,0,0,1,85.908,13a7.248,7.248,0,0,1-.12,1.272Zm-.048-2.4h6.12a2.9,2.9,0,0,0-1.092-1.824,3.13,3.13,0,0,0-1.884-.6,3.257,3.257,0,0,0-2.064.636A3.04,3.04,0,0,0,76.692,11.872ZM101.34,6.664a4.267,4.267,0,0,1,3.3,1.344,5.11,5.11,0,0,1,1.236,3.6V19h-3.1V11.824a2.459,2.459,0,0,0-.528-1.68,1.877,1.877,0,0,0-1.488-.6,2.035,2.035,0,0,0-1.644.7,3.045,3.045,0,0,0-.588,2.016V19h-3.1V11.824a2.459,2.459,0,0,0-.528-1.68,1.877,1.877,0,0,0-1.488-.6,2.079,2.079,0,0,0-1.644.7,2.963,2.963,0,0,0-.612,2.016V19h-3.1V7h3.1V8.272A3.738,3.738,0,0,1,94.5,6.664a3.557,3.557,0,0,1,3.264,1.728A4.068,4.068,0,0,1,101.34,6.664Zm12.888-4.656h3.72L115.284,5.3h-2.976Zm4.512,15.5A6.348,6.348,0,0,1,107.892,13a6.348,6.348,0,1,1,12.7,0A6.138,6.138,0,0,1,118.74,17.512Zm-6.84-2.136a3.363,3.363,0,0,0,4.656,0A3.219,3.219,0,0,0,117.492,13a3.219,3.219,0,0,0-.936-2.376,3.16,3.16,0,0,0-2.328-.936,3.121,3.121,0,0,0-2.316.936A3.242,3.242,0,0,0,110.988,13,3.265,3.265,0,0,0,111.9,15.376Zm13.968-6.312A3.233,3.233,0,0,1,127.3,7.336a4.354,4.354,0,0,1,2.22-.576v3.456a3.646,3.646,0,0,0-2.532.576,2.75,2.75,0,0,0-1.116,2.472V19h-3.1V7h3.1Zm6.984-3.5A1.821,1.821,0,0,1,131.52,5a1.821,1.821,0,0,1-.564-1.332,1.861,1.861,0,0,1,.564-1.344,1.8,1.8,0,0,1,1.332-.576,1.83,1.83,0,0,1,1.356.576,1.861,1.861,0,0,1,.564,1.344A1.821,1.821,0,0,1,134.208,5,1.849,1.849,0,0,1,132.852,5.56ZM131.316,19V7h3.1V19ZM146.364,7h3.1V19h-3.1V17.584a4.712,4.712,0,0,1-3.912,1.752,5.437,5.437,0,0,1-4.116-1.836A6.345,6.345,0,0,1,136.62,13a6.345,6.345,0,0,1,1.716-4.5,5.437,5.437,0,0,1,4.116-1.836,4.712,4.712,0,0,1,3.912,1.752Zm-5.712,8.448a3.483,3.483,0,0,0,4.764-.012A3.3,3.3,0,0,0,146.364,13a3.3,3.3,0,0,0-.948-2.436,3.238,3.238,0,0,0-2.388-.948,3.2,3.2,0,0,0-2.376.948A3.32,3.32,0,0,0,139.716,13,3.361,3.361,0,0,0,140.652,15.448Z" transform="translate(1036 2604)" fill="#064578"/><rect width="36" height="155" rx="18" transform="translate(1120 2431)" fill="#f2f4f8"/><g transform="translate(1089 2456)"><path d="M68.7,1H44.9a5.106,5.106,0,0,0-5.1,5.1V9.5a6.8,6.8,0,1,0,0,13.6v8.5H53.4V28.2a3.4,3.4,0,0,1,6.8,0v3.4h8.5a5.106,5.106,0,0,0,5.1-5.1V6.1A5.106,5.106,0,0,0,68.7,1Zm1.7,25.5a1.7,1.7,0,0,1-1.7,1.7H63.6a6.8,6.8,0,0,0-13.6,0H43.2V19.7H39.8a3.4,3.4,0,1,1,0-6.8h3.4V6.1a1.7,1.7,0,0,1,1.7-1.7H68.7a1.7,1.7,0,0,1,1.7,1.7Z" transform="translate(18.2)" fill="#fd8023"/><path d="M58,30.8a6.807,6.807,0,0,0-6.8,6.8H44.4V29.1H41a3.4,3.4,0,1,1,0-6.8h3.4V7H39.842a32.842,32.842,0,0,0-20.8,58.261L25.7,70.706v4.609A5.071,5.071,0,0,0,26.074,85a5.051,5.051,0,0,0,3.118,6.712,11.892,11.892,0,0,0,23.616,0A5.053,5.053,0,0,0,55.926,85a5.071,5.071,0,0,0,.374-9.69V70.7l6.654-5.445A32.716,32.716,0,0,0,75,39.842V37.6H64.8A6.807,6.807,0,0,0,58,30.8ZM39.842,10.4H41v8.5a6.8,6.8,0,1,0,0,13.6v5.1H34.2a6.8,6.8,0,0,0-13.6,0H10.485A29.481,29.481,0,0,1,39.842,10.4ZM21.2,62.629A29.316,29.316,0,0,1,10.424,41H24V37.6a3.4,3.4,0,0,1,6.8,0V41H41v6.8a6.8,6.8,0,0,0,0,13.6V75H29.1V69.094ZM41,98.8A8.516,8.516,0,0,1,32.672,92H49.328A8.516,8.516,0,0,1,41,98.8ZM51.2,88.6H30.8a1.7,1.7,0,1,1,0-3.4H51.2a1.7,1.7,0,1,1,0,3.4Zm3.4-6.8H27.4a1.7,1.7,0,0,1,0-3.4H54.6a1.7,1.7,0,1,1,0,3.4Zm6.2-19.171-7.9,6.465V75H44.4V58H41a3.4,3.4,0,1,1,0-6.8h3.4V41H54.6V37.6a3.4,3.4,0,0,1,6.8,0V41H71.576A29.316,29.316,0,0,1,60.8,62.629Z" transform="translate(0 4.2)" fill="#fd8023"/></g></g></svg>