<svg xmlns="http://www.w3.org/2000/svg" xmlns:xlink="http://www.w3.org/1999/xlink" width="515.769" height="517.2" viewBox="0 0 515.769 517.2"><defs><filter id="a" x="0" y="19" width="515.769" height="498.2" filterUnits="userSpaceOnUse"><feOffset dy="13" input="SourceAlpha"/><feGaussianBlur stdDeviation="8" result="b"/><feFlood flood-color="#fff" flood-opacity="0.212"/><feComposite operator="in" in2="b"/><feComposite in="SourceGraphic"/></filter></defs><g transform="translate(-78.23 -2290.174)"><g transform="translate(238.23 2290.174) rotate(30)" fill="none"><path d="M258.449,0a20,20,0,0,1,17.324,10.006l78.462,136a20,20,0,0,1,0,19.989l-78.462,136A20,20,0,0,1,258.449,312h-156.9a20,20,0,0,1-17.324-10.006l-78.462-136a20,20,0,0,1,0-19.989l78.462-136A20,20,0,0,1,101.551,0Z" stroke="none"/><path d="M 101.5513000488281 6 C 96.56375122070312 6 91.9171142578125 8.683746337890625 89.42471313476562 13.00390625 L 10.963134765625 149.0038452148438 C 8.4735107421875 153.3192443847656 8.4735107421875 158.6807556152344 10.96310424804688 162.99609375 L 89.42465209960938 298.99609375 C 91.91705322265625 303.3162536621094 96.56369018554688 306 101.5512390136719 306 L 258.4487609863281 306 C 263.4362487792969 306 268.0828857421875 303.3162536621094 270.5753479003906 298.99609375 L 349.036865234375 162.9961547851562 C 351.5264892578125 158.6807556152344 351.5264892578125 153.3192443847656 349.0368957519531 149.00390625 L 270.5753479003906 13.00384521484375 C 268.0829467773438 8.683746337890625 263.4363098144531 6 258.4487609863281 6 L 101.5513000488281 6 M 101.5513000488281 0 L 258.4487609863281 0 C 265.5963439941406 0 272.2006530761719 3.81439208984375 275.7724609375 10.00555419921875 L 354.2340087890625 146.0055541992188 C 357.8023376464844 152.1907501220703 357.8023376464844 159.8092498779297 354.2340087890625 165.9944458007812 L 275.7724609375 301.9944458007812 C 272.2005920410156 308.185546875 265.5963439941406 312 258.4487609863281 312 L 101.5512390136719 312 C 94.4036865234375 312 87.79934692382812 308.185546875 84.2275390625 301.9944458007812 L 5.7659912109375 165.9944458007812 C 2.197662353515625 159.8092498779297 2.197662353515625 152.1907501220703 5.7659912109375 146.0055541992188 L 84.22760009765625 10.00555419921875 C 87.79940795898438 3.81439208984375 94.4036865234375 0 101.5513000488281 0 Z" stroke="none" fill="#064578"/></g><g transform="matrix(1, 0, 0, 1, 78.23, 2290.17)" filter="url(#a)"><path d="M258.449,0a20,20,0,0,1,17.324,10.006l78.462,136a20,20,0,0,1,0,19.989l-78.462,136A20,20,0,0,1,258.449,312h-156.9a20,20,0,0,1-17.324-10.006l-78.462-136a20,20,0,0,1,0-19.989l78.462-136A20,20,0,0,1,101.551,0Z" transform="translate(180 30) rotate(30)" fill="#fff"/></g><path d="M33.356,19l-3.384-5.832h-2.52V19H24.14V2.2h6.72a5.392,5.392,0,0,1,3.96,1.632,5.364,5.364,0,0,1,1.632,3.936,5.111,5.111,0,0,1-.888,2.892,5.56,5.56,0,0,1-2.352,2L36.932,19Zm-5.9-13.7v4.968H30.86a2.109,2.109,0,0,0,1.608-.732,2.516,2.516,0,0,0,.672-1.764,2.474,2.474,0,0,0-.672-1.752A2.124,2.124,0,0,0,30.86,5.3ZM47.252,7h3.1V19h-3.1V17.584a4.712,4.712,0,0,1-3.912,1.752A5.437,5.437,0,0,1,39.224,17.5,6.345,6.345,0,0,1,37.508,13a6.345,6.345,0,0,1,1.716-4.5A5.437,5.437,0,0,1,43.34,6.664a4.712,4.712,0,0,1,3.912,1.752ZM41.54,15.448a3.483,3.483,0,0,0,4.764-.012A3.3,3.3,0,0,0,47.252,13a3.3,3.3,0,0,0-.948-2.436,3.238,3.238,0,0,0-2.388-.948,3.2,3.2,0,0,0-2.376.948A3.32,3.32,0,0,0,40.6,13,3.361,3.361,0,0,0,41.54,15.448Zm17.328,3.888A6.211,6.211,0,0,1,52.532,13a6.211,6.211,0,0,1,6.336-6.336,6.219,6.219,0,0,1,3.192.84A5.585,5.585,0,0,1,64.244,9.76L61.58,11.32a2.716,2.716,0,0,0-1.092-1.176,3.173,3.173,0,0,0-1.644-.432,3.1,3.1,0,0,0-2.3.924A3.224,3.224,0,0,0,55.628,13a3.193,3.193,0,0,0,.912,2.34,3.1,3.1,0,0,0,2.3.924,3.291,3.291,0,0,0,1.668-.42A2.645,2.645,0,0,0,61.6,14.68l2.688,1.536a6.011,6.011,0,0,1-2.232,2.268A6.151,6.151,0,0,1,58.868,19.336ZM67.46,5.56A1.821,1.821,0,0,1,66.128,5a1.821,1.821,0,0,1-.564-1.332,1.861,1.861,0,0,1,.564-1.344,1.8,1.8,0,0,1,1.332-.576,1.83,1.83,0,0,1,1.356.576,1.861,1.861,0,0,1,.564,1.344A1.821,1.821,0,0,1,68.816,5,1.849,1.849,0,0,1,67.46,5.56ZM65.924,19V7h3.1V19Zm16.152-1.488A6.348,6.348,0,0,1,71.228,13a6.348,6.348,0,1,1,12.7,0A6.138,6.138,0,0,1,82.076,17.512Zm-6.84-2.136a3.363,3.363,0,0,0,4.656,0A3.219,3.219,0,0,0,80.828,13a3.219,3.219,0,0,0-.936-2.376,3.16,3.16,0,0,0-2.328-.936,3.121,3.121,0,0,0-2.316.936A3.242,3.242,0,0,0,74.324,13,3.265,3.265,0,0,0,75.236,15.376Zm16.584,3.96A6.211,6.211,0,0,1,85.484,13,6.211,6.211,0,0,1,91.82,6.664a6.219,6.219,0,0,1,3.192.84A5.585,5.585,0,0,1,97.2,9.76l-2.664,1.56a2.716,2.716,0,0,0-1.092-1.176A3.173,3.173,0,0,0,91.8,9.712a3.1,3.1,0,0,0-2.3.924A3.224,3.224,0,0,0,88.58,13a3.193,3.193,0,0,0,.912,2.34,3.1,3.1,0,0,0,2.3.924,3.291,3.291,0,0,0,1.668-.42,2.645,2.645,0,0,0,1.092-1.164l2.688,1.536a6.011,6.011,0,0,1-2.232,2.268A6.151,6.151,0,0,1,91.82,19.336ZM99.908,2.2h3.552l-1.584,3.48H98.9ZM98.876,19V7h3.1V19Zm12.6-12.336a4.344,4.344,0,0,1,3.252,1.32,5.01,5.01,0,0,1,1.284,3.648V19h-3.1V12.016a2.458,2.458,0,0,0-.648-1.836,2.36,2.36,0,0,0-1.728-.636,2.549,2.549,0,0,0-1.92.744,3.094,3.094,0,0,0-.72,2.232V19h-3.1V7h3.1V8.344A4,4,0,0,1,111.476,6.664Zm8.712-1.1A1.821,1.821,0,0,1,118.856,5a1.821,1.821,0,0,1-.564-1.332,1.861,1.861,0,0,1,.564-1.344,1.8,1.8,0,0,1,1.332-.576,1.83,1.83,0,0,1,1.356.576,1.861,1.861,0,0,1,.564,1.344A1.821,1.821,0,0,1,121.544,5,1.849,1.849,0,0,1,120.188,5.56ZM118.652,19V7h3.1V19ZM134.8,17.512A6.348,6.348,0,0,1,123.956,13a6.348,6.348,0,1,1,12.7,0A6.138,6.138,0,0,1,134.8,17.512Zm-6.84-2.136a3.363,3.363,0,0,0,4.656,0A3.219,3.219,0,0,0,133.556,13a3.219,3.219,0,0,0-.936-2.376,3.16,3.16,0,0,0-2.328-.936,3.121,3.121,0,0,0-2.316.936A3.242,3.242,0,0,0,127.052,13,3.265,3.265,0,0,0,127.964,15.376ZM48.176,43.832h6.408V47h-9.72V30.2h3.312ZM61.784,30.008H65.5L62.84,33.3H59.864Zm4.512,15.5a6.342,6.342,0,1,1,0-9.012,6.418,6.418,0,0,1,0,9.012Zm-6.84-2.136a3.363,3.363,0,0,0,4.656,0,3.484,3.484,0,0,0,0-4.752,3.16,3.16,0,0,0-2.328-.936,3.121,3.121,0,0,0-2.316.936,3.534,3.534,0,0,0-.012,4.752ZM79.52,35h3.024V46.424a5.112,5.112,0,0,1-1.836,4.248,6.882,6.882,0,0,1-4.428,1.464,7.5,7.5,0,0,1-3.42-.744,5.2,5.2,0,0,1-2.268-2.184l2.64-1.512a3.8,3.8,0,0,0,5.448.912,2.81,2.81,0,0,0,.84-2.184v-1.3a4.523,4.523,0,0,1-3.84,1.824,5.666,5.666,0,0,1-4.26-1.788,6.355,6.355,0,0,1,.012-8.7,5.658,5.658,0,0,1,4.248-1.8,4.523,4.523,0,0,1,3.84,1.824Zm-5.784,8.184a3.379,3.379,0,0,0,2.424.912,3.313,3.313,0,0,0,2.412-.924,3.392,3.392,0,0,0,0-4.7,3.61,3.61,0,0,0-4.824,0,3.129,3.129,0,0,0-.948,2.34A3.219,3.219,0,0,0,73.736,43.184ZM86.888,33.56a1.926,1.926,0,0,1-1.9-1.9,1.861,1.861,0,0,1,.564-1.344,1.8,1.8,0,0,1,1.332-.576,1.83,1.83,0,0,1,1.356.576,1.861,1.861,0,0,1,.564,1.344A1.821,1.821,0,0,1,88.244,33,1.849,1.849,0,0,1,86.888,33.56ZM85.352,47V35h3.1V47Zm11.64.336a6.39,6.39,0,0,1-4.524-10.848,6.118,6.118,0,0,1,4.524-1.824,6.219,6.219,0,0,1,3.192.84,5.585,5.585,0,0,1,2.184,2.256L99.7,39.32a2.716,2.716,0,0,0-1.092-1.176,3.173,3.173,0,0,0-1.644-.432,3.1,3.1,0,0,0-2.3.924,3.489,3.489,0,0,0,0,4.7,3.1,3.1,0,0,0,2.3.924,3.291,3.291,0,0,0,1.668-.42,2.645,2.645,0,0,0,1.092-1.164l2.688,1.536a6.011,6.011,0,0,1-2.232,2.268A6.151,6.151,0,0,1,96.992,47.336Zm17.088-1.824a6.342,6.342,0,1,1,0-9.012,6.418,6.418,0,0,1,0,9.012Zm-6.84-2.136a3.363,3.363,0,0,0,4.656,0,3.484,3.484,0,0,0,0-4.752,3.16,3.16,0,0,0-2.328-.936,3.121,3.121,0,0,0-2.316.936,3.534,3.534,0,0,0-.012,4.752Z" transform="translate(255.537 2604)" fill="#064578"/><rect width="36" height="155" rx="18" transform="translate(317.537 2431)" fill="#f2f4f8"/><g transform="translate(287.537 2453)"><path d="M108.577,39.817a16.409,16.409,0,0,0-26.933,8.594H77.167a16.405,16.405,0,0,0-31.994,0H19.235a1.824,1.824,0,1,1,0-3.647H30.176a5.471,5.471,0,1,0,0-10.941H12.333a7.567,7.567,0,0,1-7.652-6.572,7.278,7.278,0,0,1,5.848-7.872l1.639-.323L11.992,17.4a8.525,8.525,0,0,1-.051-.9A8.2,8.2,0,0,1,23.42,8.978l1.238.538.877-1.027a10.915,10.915,0,0,1,19.229,7.1,11.021,11.021,0,0,1-.148,1.709l-.274,1.754,1.747.321a7.31,7.31,0,0,1,5.961,7.551,7.6,7.6,0,0,1-7.686,6.9H39.294v3.647h5.071A11.147,11.147,0,0,0,55.689,27.111a10.97,10.97,0,0,0-7.3-10.888c.013-.217.018-.427.018-.635A14.561,14.561,0,0,0,23.644,5.176a11.733,11.733,0,0,0-3.5-.529A11.867,11.867,0,0,0,8.3,16.215,10.917,10.917,0,0,0,1.051,27.6a11.239,11.239,0,0,0,11.282,9.873H30.176a1.824,1.824,0,1,1,0,3.647H19.235a5.471,5.471,0,1,0,0,10.941H44.779A16.281,16.281,0,0,0,52.35,65.887a3.587,3.587,0,0,1,1.532,3.04v3.191a7.294,7.294,0,1,0,14.588,0V68.852a3.512,3.512,0,0,1,1.572-2.991,16.349,16.349,0,0,0,7.546-13.8H81.25a16.281,16.281,0,0,0,7.571,13.828,3.587,3.587,0,0,1,1.532,3.04v3.191a7.286,7.286,0,0,0,5.471,7.035v7.553A1.825,1.825,0,0,1,94,88.529H81.99l4.181-4.181-2.578-2.578L75.01,90.353l8.583,8.583,2.578-2.578L81.99,92.176H94a5.477,5.477,0,0,0,5.471-5.471V79.153a7.286,7.286,0,0,0,5.471-7.035V68.852a3.512,3.512,0,0,1,1.572-2.991,16.4,16.4,0,0,0,2.064-26.044Zm-47.4,35.947a3.651,3.651,0,0,1-3.647-3.647h7.294A3.651,3.651,0,0,1,61.176,75.765ZM68.069,62.8a7.115,7.115,0,0,0-3.224,5.675H57.5a7.111,7.111,0,0,0-3.189-5.658,12.76,12.76,0,0,1,5.367-23.434,13.728,13.728,0,0,1,1.514-.084,12.619,12.619,0,0,1,8.485,3.242A12.757,12.757,0,0,1,68.069,62.8ZM97.647,75.765A3.651,3.651,0,0,1,94,72.117h7.294A3.651,3.651,0,0,1,97.647,75.765ZM104.54,62.8a7.115,7.115,0,0,0-3.224,5.675H93.971a7.111,7.111,0,0,0-3.189-5.658,12.76,12.76,0,0,1,5.367-23.434,13.728,13.728,0,0,1,1.514-.084,12.619,12.619,0,0,1,8.485,3.242A12.757,12.757,0,0,1,104.54,62.8Z" transform="translate(0 0)" fill="#fd8023"/><path d="M20.588,42A14.588,14.588,0,1,0,35.176,56.588,14.605,14.605,0,0,0,20.588,42Zm0,25.529A10.941,10.941,0,1,1,31.529,56.588,10.952,10.952,0,0,1,20.588,67.529Z" transform="translate(4.118 33.765)" fill="#fd8023"/><path d="M17.294,46a7.294,7.294,0,1,0,7.294,7.294A7.3,7.3,0,0,0,17.294,46Zm0,10.941a3.647,3.647,0,1,1,3.647-3.647A3.651,3.651,0,0,1,17.294,56.941Z" transform="translate(7.412 37.059)" fill="#fd8023"/><path d="M44.724,51.913l1.524-3.189-9.563-9.559L33.5,40.689c-.286-.126-.573-.246-.859-.357L31.467,37H17.946L16.77,40.33q-.429.17-.859.357l-3.186-1.523L3.163,48.723l1.524,3.189c-.126.283-.244.571-.357.859L1,53.944V67.467l3.33,1.174q.17.432.357.859L3.163,72.69l9.563,9.559,3.188-1.524c.286.126.573.246.859.357l1.173,3.33H31.466l1.176-3.33q.429-.17.859-.357l3.188,1.524,9.563-9.559L44.726,69.5c.126-.283.244-.571.357-.859l3.328-1.174V53.944l-3.33-1.174q-.17-.432-.357-.857Zm.04,12.973-2.538.9-.286.835a17.766,17.766,0,0,1-.87,2.09l-.39.8,1.163,2.434-5.912,5.912L33.5,76.682l-.793.39a17.944,17.944,0,0,1-2.09.87l-.835.284-.9,2.538H20.524l-.9-2.54-.835-.284a17.944,17.944,0,0,1-2.09-.87l-.793-.39-2.433,1.165L7.567,71.933,8.73,69.5l-.39-.8a17.765,17.765,0,0,1-.87-2.09l-.286-.835-2.537-.894V56.526l2.538-.9.286-.835a17.764,17.764,0,0,1,.87-2.09l.39-.8L7.568,49.477l5.912-5.912,2.433,1.165.793-.39a17.943,17.943,0,0,1,2.09-.87l.835-.284.9-2.538h8.361l.9,2.54.835.284a17.943,17.943,0,0,1,2.09.87l.793.39,2.433-1.165,5.912,5.912-1.163,2.434.39.8a17.765,17.765,0,0,1,.87,2.09l.286.835,2.537.894Z" transform="translate(0 29.647)" fill="#fd8023"/><path d="M29,49h3.647v3.647H29Z" transform="translate(23.059 39.529)" fill="#fd8023"/><path d="M33,49h3.647v3.647H33Z" transform="translate(26.353 39.529)" fill="#fd8023"/><path d="M37,49h3.647v3.647H37Z" transform="translate(29.647 39.529)" fill="#fd8023"/><path d="M30.168,30.282,33.2,32.306l2.13-3.195V42.235h3.647V24H34.357Z" transform="translate(24.021 18.941)" fill="#fd8023"/><path d="M56.471,24A5.477,5.477,0,0,0,51,29.471v1.824h3.647V29.471a1.824,1.824,0,1,1,3.647,0v.312a1.815,1.815,0,0,1-.534,1.291L51,37.833v4.4H61.941V38.588H55.4l4.936-4.936a5.431,5.431,0,0,0,1.6-3.87v-.312A5.477,5.477,0,0,0,56.471,24Z" transform="translate(41.176 18.941)" fill="#fd8023"/></g></g></svg>