<svg xmlns="http://www.w3.org/2000/svg" width="152.688" height="147.336" viewBox="0 0 152.688 147.336"><g transform="translate(-624.632 -4412)"><path d="M-69.768.336a7.5,7.5,0,0,1-4.2-1.116,5.969,5.969,0,0,1-2.4-3.036l2.832-1.656A3.774,3.774,0,0,0-69.672-2.9a3.326,3.326,0,0,0,2.04-.5,1.548,1.548,0,0,0,.648-1.272,1.542,1.542,0,0,0-.792-1.38,12.215,12.215,0,0,0-2.832-1.068A17.6,17.6,0,0,1-72.516-7.8a8.229,8.229,0,0,1-1.56-.9,3.67,3.67,0,0,1-1.188-1.428,4.675,4.675,0,0,1-.408-2.016,4.5,4.5,0,0,1,1.62-3.636,5.877,5.877,0,0,1,3.9-1.356,6.484,6.484,0,0,1,3.588,1,6.693,6.693,0,0,1,2.412,2.772l-2.784,1.608a3.354,3.354,0,0,0-3.216-2.16,2.535,2.535,0,0,0-1.62.468,1.478,1.478,0,0,0-.588,1.212,1.529,1.529,0,0,0,.66,1.284,9.226,9.226,0,0,0,2.532,1.068q.768.24,1.164.372t1.08.408a6.51,6.51,0,0,1,1.056.516,8.328,8.328,0,0,1,.852.648,3.32,3.32,0,0,1,.732.84,4.715,4.715,0,0,1,.432,1.044,4.7,4.7,0,0,1,.18,1.332,4.5,4.5,0,0,1-1.692,3.7A6.786,6.786,0,0,1-69.768.336ZM-51.1-1.488A6.18,6.18,0,0,1-55.608.336a6.119,6.119,0,0,1-4.5-1.836A6.119,6.119,0,0,1-61.944-6a6.119,6.119,0,0,1,1.836-4.5,6.119,6.119,0,0,1,4.5-1.836A6.159,6.159,0,0,1-51.1-10.5,6.1,6.1,0,0,1-49.248-6,6.138,6.138,0,0,1-51.1-1.488Zm-6.84-2.136a3.16,3.16,0,0,0,2.328.936,3.16,3.16,0,0,0,2.328-.936A3.219,3.219,0,0,0-52.344-6a3.219,3.219,0,0,0-.936-2.376,3.16,3.16,0,0,0-2.328-.936,3.121,3.121,0,0,0-2.316.936A3.242,3.242,0,0,0-58.848-6,3.265,3.265,0,0,0-57.936-3.624ZM-41.352.336a6.118,6.118,0,0,1-4.524-1.824A6.15,6.15,0,0,1-47.688-6a6.15,6.15,0,0,1,1.812-4.512,6.118,6.118,0,0,1,4.524-1.824,6.219,6.219,0,0,1,3.192.84A5.585,5.585,0,0,1-35.976-9.24L-38.64-7.68a2.716,2.716,0,0,0-1.092-1.176,3.173,3.173,0,0,0-1.644-.432,3.1,3.1,0,0,0-2.3.924A3.224,3.224,0,0,0-44.592-6a3.193,3.193,0,0,0,.912,2.34,3.1,3.1,0,0,0,2.3.924,3.291,3.291,0,0,0,1.668-.42A2.645,2.645,0,0,0-38.616-4.32l2.688,1.536A6.011,6.011,0,0,1-38.16-.516,6.151,6.151,0,0,1-41.352.336ZM-32.76-13.44A1.821,1.821,0,0,1-34.092-14a1.821,1.821,0,0,1-.564-1.332,1.861,1.861,0,0,1,.564-1.344,1.8,1.8,0,0,1,1.332-.576,1.83,1.83,0,0,1,1.356.576,1.861,1.861,0,0,1,.564,1.344A1.821,1.821,0,0,1-31.4-14,1.849,1.849,0,0,1-32.76-13.44ZM-34.3,0V-12h3.1V0Zm15.048-12h3.1V0h-3.1V-1.416A4.712,4.712,0,0,1-23.16.336,5.437,5.437,0,0,1-27.276-1.5,6.345,6.345,0,0,1-28.992-6a6.345,6.345,0,0,1,1.716-4.5,5.437,5.437,0,0,1,4.116-1.836,4.712,4.712,0,0,1,3.912,1.752ZM-24.96-3.552a3.219,3.219,0,0,0,2.376.936A3.238,3.238,0,0,0-20.2-3.564,3.3,3.3,0,0,0-19.248-6,3.3,3.3,0,0,0-20.2-8.436a3.238,3.238,0,0,0-2.388-.948,3.2,3.2,0,0,0-2.376.948A3.32,3.32,0,0,0-25.9-6,3.361,3.361,0,0,0-24.96-3.552Zm18.6-8.784A5.463,5.463,0,0,1-2.22-10.5,6.345,6.345,0,0,1-.5-6,6.345,6.345,0,0,1-2.22-1.5,5.463,5.463,0,0,1-6.36.336a4.644,4.644,0,0,1-3.888-1.752V0h-3.1V-16.8h3.1v6.216A4.644,4.644,0,0,1-6.36-12.336ZM-9.312-3.552a3.219,3.219,0,0,0,2.376.936,3.238,3.238,0,0,0,2.388-.948A3.3,3.3,0,0,0-3.6-6a3.3,3.3,0,0,0-.948-2.436,3.238,3.238,0,0,0-2.388-.948,3.2,3.2,0,0,0-2.376.948A3.32,3.32,0,0,0-10.248-6,3.361,3.361,0,0,0-9.312-3.552ZM3.216-13.44A1.821,1.821,0,0,1,1.884-14a1.821,1.821,0,0,1-.564-1.332,1.861,1.861,0,0,1,.564-1.344,1.8,1.8,0,0,1,1.332-.576,1.83,1.83,0,0,1,1.356.576,1.861,1.861,0,0,1,.564,1.344A1.821,1.821,0,0,1,4.572-14,1.849,1.849,0,0,1,3.216-13.44ZM1.68,0V-12h3.1V0ZM7.608,0V-17.52h3.1V0Zm7.464-13.44A1.821,1.821,0,0,1,13.74-14a1.821,1.821,0,0,1-.564-1.332,1.861,1.861,0,0,1,.564-1.344,1.8,1.8,0,0,1,1.332-.576,1.83,1.83,0,0,1,1.356.576,1.861,1.861,0,0,1,.564,1.344A1.821,1.821,0,0,1,16.428-14,1.849,1.849,0,0,1,15.072-13.44ZM13.536,0V-12h3.1V0ZM28.56-16.8h3.1V0h-3.1V-1.416A4.644,4.644,0,0,1,24.672.336,5.463,5.463,0,0,1,20.532-1.5,6.345,6.345,0,0,1,18.816-6a6.345,6.345,0,0,1,1.716-4.5,5.463,5.463,0,0,1,4.14-1.836,4.644,4.644,0,0,1,3.888,1.752ZM22.848-3.552a3.3,3.3,0,0,0,2.4.936,3.2,3.2,0,0,0,2.376-.948A3.32,3.32,0,0,0,28.56-6a3.32,3.32,0,0,0-.936-2.436,3.2,3.2,0,0,0-2.376-.948,3.238,3.238,0,0,0-2.388.948A3.3,3.3,0,0,0,21.912-6,3.361,3.361,0,0,0,22.848-3.552ZM43.608-12h3.1V0h-3.1V-1.416A4.712,4.712,0,0,1,39.7.336,5.437,5.437,0,0,1,35.58-1.5,6.345,6.345,0,0,1,33.864-6a6.345,6.345,0,0,1,1.716-4.5A5.437,5.437,0,0,1,39.7-12.336a4.712,4.712,0,0,1,3.912,1.752ZM37.9-3.552a3.219,3.219,0,0,0,2.376.936,3.238,3.238,0,0,0,2.388-.948A3.3,3.3,0,0,0,43.608-6a3.3,3.3,0,0,0-.948-2.436,3.238,3.238,0,0,0-2.388-.948,3.2,3.2,0,0,0-2.376.948A3.32,3.32,0,0,0,36.96-6,3.361,3.361,0,0,0,37.9-3.552ZM58.608-16.8h3.1V0h-3.1V-1.416A4.644,4.644,0,0,1,54.72.336,5.463,5.463,0,0,1,50.58-1.5,6.345,6.345,0,0,1,48.864-6a6.345,6.345,0,0,1,1.716-4.5,5.463,5.463,0,0,1,4.14-1.836,4.644,4.644,0,0,1,3.888,1.752ZM52.9-3.552a3.3,3.3,0,0,0,2.4.936,3.2,3.2,0,0,0,2.376-.948A3.32,3.32,0,0,0,58.608-6a3.32,3.32,0,0,0-.936-2.436A3.2,3.2,0,0,0,55.3-9.384a3.238,3.238,0,0,0-2.388.948A3.3,3.3,0,0,0,51.96-6,3.361,3.361,0,0,0,52.9-3.552ZM67.152-4.728q.624,2.256,3.384,2.256a3.166,3.166,0,0,0,2.688-1.2l2.5,1.44A5.952,5.952,0,0,1,70.488.336a6.456,6.456,0,0,1-4.776-1.8A6.15,6.15,0,0,1,63.912-6a6.2,6.2,0,0,1,1.776-4.524,6.108,6.108,0,0,1,4.56-1.812A5.722,5.722,0,0,1,74.6-10.512,6.333,6.333,0,0,1,76.32-6a7.248,7.248,0,0,1-.12,1.272Zm-.048-2.4h6.12a2.9,2.9,0,0,0-1.092-1.824,3.13,3.13,0,0,0-1.884-.6,3.257,3.257,0,0,0-2.064.636A3.04,3.04,0,0,0,67.1-7.128Z" transform="translate(701 4559)" fill="#fff"/><g transform="translate(649 4397.519)"><path d="M106.7,431.008a1.527,1.527,0,0,0-2.035.725,2.832,2.832,0,0,1-5.117,0,1.527,1.527,0,1,0-2.759,1.309,5.886,5.886,0,0,0,10.636,0A1.527,1.527,0,0,0,106.7,431.008Z" transform="translate(-76.966 -331.596)" fill="#fff"/><path d="M46.986,276.383c3.8-6.006,4.377-14.029-2.554-20.042-5.548-4.813-13.247-6.451-22.264-4.737a47.773,47.773,0,0,0-11,3.564,7.467,7.467,0,0,0-7.873-.077C-1.2,257.584-.244,264.025,1.2,273.775c.177,1.2.359,2.428.541,3.712A5.733,5.733,0,0,0,4.321,287.1c.025.724.054,1.448.091,2.169a12.268,12.268,0,0,0,11.715,11.662c2.992.141,6,.212,9.017.212s6.025-.071,9.016-.212a12.266,12.266,0,0,0,11.715-11.662c.037-.721.066-1.445.091-2.168a5.737,5.737,0,0,0,1.02-10.72ZM4.223,273.327c-1.213-8.186-2.09-14.1.551-15.566a4.24,4.24,0,0,1,5.126.279,1.529,1.529,0,0,0,1.793.271,44.188,44.188,0,0,1,11.12-3.721c8.147-1.531,14.747-.166,19.617,4.058,6.314,5.477,4.7,12.52,1.25,17.156-10.837-.4-28.707-9.2-28.891-9.293a1.528,1.528,0,0,0-2.1.81c-.816,2.076-3.61,7.533-6.89,8.469a1.5,1.5,0,0,0-.253.034,5.721,5.721,0,0,0-.939.116q-.194-1.34-.384-2.613ZM3.1,281.556a2.683,2.683,0,0,1,1.181-2.223q-.054,2.205-.034,4.419a2.679,2.679,0,0,1-1.147-2.2Zm30.915,16.327c-5.886.278-11.857.278-17.744,0a9.224,9.224,0,0,1-8.809-8.768q-.086-1.668-.126-3.348v0s0,0,0-.006c-.061-2.428-.053-4.864.024-7.283,2.034-.823,3.97-2.642,5.769-5.432a29.344,29.344,0,0,0,1.735-3.109c1.874.881,5.414,2.484,9.639,4.1,7.55,2.9,13.737,4.5,18.435,4.784.1,3.415.061,6.87-.114,10.293a9.222,9.222,0,0,1-8.809,8.767Zm12.024-14.13q.02-2.215-.034-4.421a2.679,2.679,0,0,1,.034,4.421Z" transform="translate(0 -188.314)" fill="#fff"/><path d="M72.577,381.161c-.972,0-1.763,1.175-1.763,2.619s.791,2.619,1.763,2.619,1.763-1.175,1.763-2.619S73.549,381.161,72.577,381.161Z" transform="translate(-56.395 -292.017)" fill="#fff"/><path d="M160.607,381.161c-.972,0-1.763,1.175-1.763,2.619s.791,2.619,1.763,2.619,1.763-1.175,1.763-2.619S161.579,381.161,160.607,381.161Z" transform="translate(-126.5 -292.017)" fill="#fff"/><path d="M369.9,424.217a2.832,2.832,0,0,1-5.117,0,1.527,1.527,0,1,0-2.759,1.31,5.886,5.886,0,0,0,10.636,0,1.527,1.527,0,1,0-2.759-1.31Z" transform="translate(-288.188 -325.611)" fill="#fff"/><path d="M315.65,279.07a5.729,5.729,0,0,0-2.084-4.421,53.575,53.575,0,0,0,1.559-7.5c.836-6.473-.042-11.058-2.611-13.627-3.181-3.181-7.186-1.977-9.659-.412-2.44-2.572-9.6-7.544-26.842-4.13-5.176,1.025-8.324,4.154-9.355,9.3-.85,4.238-.213,9.192.4,13.983.112.871.219,1.707.316,2.524a5.733,5.733,0,0,0,2.35,9.83c.025.724.054,1.448.09,2.168a12.271,12.271,0,0,0,11.715,11.663c3,.141,6.013.212,9.022.212q2.744,0,5.47-.079a1.527,1.527,0,0,0-.088-3.053c-4.721.136-9.519.092-14.259-.131a9.227,9.227,0,0,1-8.81-8.768c-.182-3.566-.215-7.193-.1-10.8,1.878-1.116,3.285-3.338,4.192-6.625a4.018,4.018,0,0,1,6.521-1.964,10.736,10.736,0,0,0,14.134,0,3.937,3.937,0,0,1,2.623-1,4.007,4.007,0,0,1,3.9,2.964c.907,3.287,2.315,5.51,4.192,6.625.117,3.57.084,7.2-.1,10.8a9.262,9.262,0,0,1-5.856,8.137,1.527,1.527,0,0,0,1.115,2.844,12.324,12.324,0,0,0,7.791-10.824c.037-.721.066-1.444.091-2.167A5.746,5.746,0,0,0,315.65,279.07Zm-47.142,0a2.683,2.683,0,0,1,1.182-2.223q-.053,2.209-.034,4.42A2.68,2.68,0,0,1,268.509,279.07Zm31.734-15.879a7.042,7.042,0,0,0-4.633,1.753,7.682,7.682,0,0,1-10.113,0,7.072,7.072,0,0,0-11.476,3.451c-.515,1.865-1.461,4.192-3.068,4.942a5.732,5.732,0,0,0-.666.066c-.063-.5-.128-1.009-.195-1.531-.585-4.546-1.189-9.247-.438-12.993.787-3.926,3-6.12,6.954-6.9,10.406-2.062,16.582-.834,19.932.559a10.109,10.109,0,0,1,4.705,3.423,1.487,1.487,0,0,0,1.059.772,1.518,1.518,0,0,0,1.282-.372,8.98,8.98,0,0,1,2.509-1.449,3.729,3.729,0,0,1,4.26.77c1.833,1.833,2.437,5.648,1.747,11.032a50.538,50.538,0,0,1-1.358,6.679,5.733,5.733,0,0,0-.593-.055c-1.606-.75-2.553-3.077-3.067-4.941a7.113,7.113,0,0,0-6.842-5.206Zm11.2,18.076q.021-2.216-.033-4.42a2.679,2.679,0,0,1,.033,4.42Z" transform="translate(-211.402 -185.828)" fill="#fff"/><path d="M336.041,383.779c0,1.444.791,2.619,1.763,2.619s1.763-1.175,1.763-2.619-.791-2.619-1.763-2.619S336.041,382.335,336.041,383.779Z" transform="translate(-267.616 -292.016)" fill="#fff"/><path d="M425.834,381.161c-.972,0-1.763,1.175-1.763,2.619s.791,2.619,1.763,2.619,1.763-1.175,1.763-2.619S426.806,381.161,425.834,381.161Z" transform="translate(-337.722 -292.017)" fill="#fff"/><path d="M38.747,50.85h3.8L47.073,58.1a1.527,1.527,0,0,0,1.3.719h0a1.527,1.527,0,0,0,1.3-.718l4.528-7.253H93.873L98.4,58.1a1.527,1.527,0,0,0,2.591,0l4.526-7.253h3.8A10.945,10.945,0,0,0,120.25,39.917v-14.5a10.945,10.945,0,0,0-10.932-10.932H49.38a1.527,1.527,0,0,0,0,3.054h59.938a7.887,7.887,0,0,1,7.878,7.878v14.5a7.887,7.887,0,0,1-7.878,7.878h-4.647a1.527,1.527,0,0,0-1.3.719L99.7,54.41l-3.681-5.9a1.527,1.527,0,0,0-1.3-.718H53.345a1.527,1.527,0,0,0-1.3.718l-3.681,5.9-3.679-5.9a1.527,1.527,0,0,0-1.3-.719H38.747a7.887,7.887,0,0,1-7.878-7.878v-14.5a7.887,7.887,0,0,1,7.878-7.878h3.6a1.527,1.527,0,0,0,0-3.054h-3.6A10.945,10.945,0,0,0,27.815,25.413v14.5A10.944,10.944,0,0,0,38.747,50.85Z" transform="translate(-22.151)" fill="#fff"/><path d="M177.187,87.508A5.184,5.184,0,1,0,172,92.691,5.189,5.189,0,0,0,177.187,87.508Zm-7.313,0A2.129,2.129,0,1,1,172,89.637,2.132,2.132,0,0,1,169.874,87.508Z" transform="translate(-132.852 -54.029)" fill="#fff"/><path d="M239.7,87.508a5.184,5.184,0,1,0-5.184,5.184A5.189,5.189,0,0,0,239.7,87.508Zm-7.313,0a2.129,2.129,0,1,1,2.129,2.129A2.132,2.132,0,0,1,232.391,87.508Z" transform="translate(-182.639 -54.029)" fill="#fff"/><path d="M302.222,87.508a5.184,5.184,0,1,0-5.184,5.184A5.19,5.19,0,0,0,302.222,87.508Zm-7.313,0a2.129,2.129,0,1,1,2.129,2.129A2.132,2.132,0,0,1,294.909,87.508Z" transform="translate(-232.428 -54.029)" fill="#fff"/></g></g></svg>