<svg xmlns="http://www.w3.org/2000/svg" width="1084.339" height="740.989" viewBox="0 0 1084.339 740.989"><g transform="translate(-64 -183)"><g transform="translate(64 183)" fill="none" stroke="#22cde4" stroke-width="40"><circle cx="178" cy="178" r="178" stroke="none"/><circle cx="178" cy="178" r="158" fill="none"/></g><g transform="translate(821.683 1767.986) rotate(-90)"><g transform="translate(843.997 168.755)"><path d="M849.943,80.4a2.973,2.973,0,1,1-2.974-2.974A2.973,2.973,0,0,1,849.943,80.4Z" transform="translate(-843.997 -77.426)" fill="#064578"/></g><g transform="translate(868.183 168.756)"><path d="M858.8,83.357a2.973,2.973,0,1,1,2.649-3.266A2.974,2.974,0,0,1,858.8,83.357Z" transform="translate(-855.52 -77.426)" fill="#064578"/></g><g transform="translate(892.371 168.756)"><path d="M870.326,83.357a2.973,2.973,0,1,1,2.651-3.266A2.975,2.975,0,0,1,870.326,83.357Z" transform="translate(-867.044 -77.426)" fill="#064578"/></g><g transform="translate(940.749 168.756)"><path d="M893.375,83.357a2.973,2.973,0,1,1,2.649-3.266A2.973,2.973,0,0,1,893.375,83.357Z" transform="translate(-890.093 -77.426)" fill="#064578"/></g><g transform="translate(916.561 168.756)"><path d="M881.849,83.357a2.973,2.973,0,1,1,2.651-3.266A2.972,2.972,0,0,1,881.849,83.357Z" transform="translate(-878.569 -77.426)" fill="#064578"/></g><g transform="translate(843.997 189.879)"><path d="M849.943,90.464a2.973,2.973,0,1,1-2.974-2.974A2.973,2.973,0,0,1,849.943,90.464Z" transform="translate(-843.997 -87.49)" fill="#064578"/></g><g transform="translate(868.183 189.879)"><path d="M858.8,93.421a2.973,2.973,0,1,1,2.649-3.266A2.974,2.974,0,0,1,858.8,93.421Z" transform="translate(-855.52 -87.49)" fill="#064578"/></g><g transform="translate(892.371 189.879)"><path d="M870.326,93.421a2.973,2.973,0,1,1,2.651-3.266A2.975,2.975,0,0,1,870.326,93.421Z" transform="translate(-867.044 -87.49)" fill="#064578"/></g><g transform="translate(940.749 189.879)"><path d="M893.375,93.421a2.973,2.973,0,1,1,2.649-3.266A2.973,2.973,0,0,1,893.375,93.421Z" transform="translate(-890.093 -87.49)" fill="#064578"/></g><g transform="translate(916.561 189.879)"><path d="M881.849,93.421a2.973,2.973,0,1,1,2.651-3.266A2.972,2.972,0,0,1,881.849,93.421Z" transform="translate(-878.569 -87.49)" fill="#064578"/></g><g transform="translate(843.997 212.366)"><path d="M849.943,101.178a2.973,2.973,0,1,1-2.974-2.974A2.973,2.973,0,0,1,849.943,101.178Z" transform="translate(-843.997 -98.204)" fill="#064578"/></g><g transform="translate(868.183 212.366)"><path d="M858.8,104.135a2.973,2.973,0,1,1,2.649-3.266A2.974,2.974,0,0,1,858.8,104.135Z" transform="translate(-855.52 -98.204)" fill="#064578"/></g><g transform="translate(892.371 212.366)"><path d="M870.326,104.135a2.973,2.973,0,1,1,2.651-3.266A2.975,2.975,0,0,1,870.326,104.135Z" transform="translate(-867.044 -98.204)" fill="#064578"/></g><g transform="translate(940.749 212.366)"><path d="M893.375,104.135a2.973,2.973,0,1,1,2.649-3.266A2.973,2.973,0,0,1,893.375,104.135Z" transform="translate(-890.093 -98.204)" fill="#064578"/></g><g transform="translate(916.561 212.366)"><path d="M881.849,104.135a2.973,2.973,0,1,1,2.651-3.266A2.972,2.972,0,0,1,881.849,104.135Z" transform="translate(-878.569 -98.204)" fill="#064578"/></g><g transform="translate(843.997 233.488)"><path d="M849.943,111.241a2.973,2.973,0,1,1-2.974-2.974A2.973,2.973,0,0,1,849.943,111.241Z" transform="translate(-843.997 -108.267)" fill="#064578"/></g><g transform="translate(868.183 233.488)"><path d="M858.8,114.2a2.973,2.973,0,1,1,2.649-3.266A2.974,2.974,0,0,1,858.8,114.2Z" transform="translate(-855.52 -108.267)" fill="#064578"/></g><g transform="translate(892.371 233.488)"><path d="M870.326,114.2a2.973,2.973,0,1,1,2.651-3.266A2.975,2.975,0,0,1,870.326,114.2Z" transform="translate(-867.044 -108.267)" fill="#064578"/></g><g transform="translate(940.749 233.488)"><path d="M893.375,114.2a2.973,2.973,0,1,1,2.649-3.266A2.973,2.973,0,0,1,893.375,114.2Z" transform="translate(-890.093 -108.267)" fill="#064578"/></g><g transform="translate(916.561 233.488)"><path d="M881.849,114.2a2.973,2.973,0,1,1,2.651-3.266A2.972,2.972,0,0,1,881.849,114.2Z" transform="translate(-878.569 -108.267)" fill="#064578"/></g><g transform="translate(843.997 255.975)"><path d="M849.943,121.955a2.973,2.973,0,1,1-2.974-2.974A2.974,2.974,0,0,1,849.943,121.955Z" transform="translate(-843.997 -118.981)" fill="#064578"/></g><g transform="translate(868.183 255.976)"><path d="M858.8,124.912a2.973,2.973,0,1,1,2.649-3.266A2.974,2.974,0,0,1,858.8,124.912Z" transform="translate(-855.52 -118.981)" fill="#064578"/></g><g transform="translate(892.371 255.976)"><path d="M870.326,124.912a2.973,2.973,0,1,1,2.651-3.266A2.975,2.975,0,0,1,870.326,124.912Z" transform="translate(-867.044 -118.981)" fill="#064578"/></g><g transform="translate(940.749 255.976)"><path d="M893.375,124.912a2.973,2.973,0,1,1,2.649-3.266A2.973,2.973,0,0,1,893.375,124.912Z" transform="translate(-890.093 -118.981)" fill="#064578"/></g><g transform="translate(916.561 255.976)"><path d="M881.849,124.912a2.973,2.973,0,1,1,2.651-3.266A2.972,2.972,0,0,1,881.849,124.912Z" transform="translate(-878.569 -118.981)" fill="#064578"/></g><g transform="translate(843.997 277.099)"><path d="M849.943,132.017a2.973,2.973,0,1,1-2.974-2.972A2.973,2.973,0,0,1,849.943,132.017Z" transform="translate(-843.997 -129.045)" fill="#064578"/></g><g transform="translate(868.183 277.097)"><path d="M858.8,134.977a2.974,2.974,0,1,1,2.649-3.266A2.974,2.974,0,0,1,858.8,134.977Z" transform="translate(-855.52 -129.044)" fill="#064578"/></g><g transform="translate(892.371 277.097)"><path d="M870.326,134.977a2.974,2.974,0,1,1,2.651-3.266A2.975,2.975,0,0,1,870.326,134.977Z" transform="translate(-867.044 -129.044)" fill="#064578"/></g><g transform="translate(940.749 277.097)"><path d="M893.375,134.977a2.974,2.974,0,1,1,2.649-3.266A2.973,2.973,0,0,1,893.375,134.977Z" transform="translate(-890.093 -129.044)" fill="#064578"/></g><g transform="translate(916.561 277.097)"><path d="M881.849,134.977a2.974,2.974,0,1,1,2.651-3.266A2.972,2.972,0,0,1,881.849,134.977Z" transform="translate(-878.569 -129.044)" fill="#064578"/></g><g transform="translate(843.997 299.586)"><path d="M849.943,142.731a2.973,2.973,0,1,1-2.974-2.972A2.973,2.973,0,0,1,849.943,142.731Z" transform="translate(-843.997 -139.759)" fill="#064578"/></g><g transform="translate(868.183 299.585)"><path d="M858.8,145.689a2.973,2.973,0,1,1,2.649-3.266A2.972,2.972,0,0,1,858.8,145.689Z" transform="translate(-855.52 -139.758)" fill="#064578"/></g><g transform="translate(892.371 299.585)"><path d="M870.326,145.689a2.973,2.973,0,1,1,2.651-3.266A2.974,2.974,0,0,1,870.326,145.689Z" transform="translate(-867.044 -139.758)" fill="#064578"/></g><g transform="translate(940.749 299.585)"><path d="M893.375,145.689a2.973,2.973,0,1,1,2.649-3.266A2.971,2.971,0,0,1,893.375,145.689Z" transform="translate(-890.093 -139.758)" fill="#064578"/></g><g transform="translate(916.561 299.585)"><path d="M881.849,145.689a2.973,2.973,0,1,1,2.651-3.266A2.97,2.97,0,0,1,881.849,145.689Z" transform="translate(-878.569 -139.758)" fill="#064578"/></g><g transform="translate(843.997 320.708)"><path d="M849.943,152.8a2.973,2.973,0,1,1-2.974-2.974A2.974,2.974,0,0,1,849.943,152.8Z" transform="translate(-843.997 -149.822)" fill="#064578"/></g><g transform="translate(868.183 320.708)"><path d="M858.8,155.753a2.973,2.973,0,1,1,2.649-3.266A2.974,2.974,0,0,1,858.8,155.753Z" transform="translate(-855.52 -149.822)" fill="#064578"/></g><g transform="translate(892.371 320.708)"><path d="M870.326,155.753a2.973,2.973,0,1,1,2.651-3.266A2.975,2.975,0,0,1,870.326,155.753Z" transform="translate(-867.044 -149.822)" fill="#064578"/></g><g transform="translate(940.749 320.708)"><path d="M893.375,155.753a2.973,2.973,0,1,1,2.649-3.266A2.973,2.973,0,0,1,893.375,155.753Z" transform="translate(-890.093 -149.822)" fill="#064578"/></g><g transform="translate(916.561 320.708)"><path d="M881.849,155.753a2.973,2.973,0,1,1,2.651-3.266A2.972,2.972,0,0,1,881.849,155.753Z" transform="translate(-878.569 -149.822)" fill="#064578"/></g><g transform="translate(843.997 -5.683)"><path d="M849.943-2.709A2.973,2.973,0,0,1,846.969.263,2.972,2.972,0,0,1,844-2.709a2.973,2.973,0,0,1,2.972-2.974A2.973,2.973,0,0,1,849.943-2.709Z" transform="translate(-843.997 5.683)" fill="#064578"/></g><g transform="translate(868.183 -5.683)"><path d="M858.8.248A2.974,2.974,0,0,1,855.537-2.4a2.972,2.972,0,0,1,2.651-3.264,2.969,2.969,0,0,1,3.264,2.649A2.974,2.974,0,0,1,858.8.248Z" transform="translate(-855.52 5.683)" fill="#064578"/></g><g transform="translate(892.371 -5.683)"><path d="M870.326.248A2.975,2.975,0,0,1,867.061-2.4a2.972,2.972,0,0,1,2.651-3.264,2.972,2.972,0,0,1,3.266,2.649A2.975,2.975,0,0,1,870.326.248Z" transform="translate(-867.044 5.683)" fill="#064578"/></g><g transform="translate(940.749 -5.683)"><path d="M893.375.248A2.973,2.973,0,0,1,890.11-2.4a2.972,2.972,0,0,1,2.649-3.264,2.971,2.971,0,0,1,3.266,2.649A2.975,2.975,0,0,1,893.375.248Z" transform="translate(-890.093 5.683)" fill="#064578"/></g><g transform="translate(916.561 -5.683)"><path d="M881.849.248A2.972,2.972,0,0,1,878.586-2.4a2.97,2.97,0,0,1,2.649-3.264A2.972,2.972,0,0,1,884.5-3.017,2.975,2.975,0,0,1,881.849.248Z" transform="translate(-878.569 5.683)" fill="#064578"/></g><g transform="translate(843.997 15.438)"><path d="M849.943,7.354a2.973,2.973,0,1,1-2.974-2.974A2.974,2.974,0,0,1,849.943,7.354Z" transform="translate(-843.997 -4.38)" fill="#064578"/></g><g transform="translate(868.183 15.439)"><path d="M858.8,10.311a2.973,2.973,0,1,1,2.649-3.266A2.974,2.974,0,0,1,858.8,10.311Z" transform="translate(-855.52 -4.38)" fill="#064578"/></g><g transform="translate(892.371 15.439)"><path d="M870.326,10.311a2.973,2.973,0,1,1,2.651-3.266A2.975,2.975,0,0,1,870.326,10.311Z" transform="translate(-867.044 -4.38)" fill="#064578"/></g><g transform="translate(940.749 15.439)"><path d="M893.375,10.311a2.973,2.973,0,1,1,2.649-3.266A2.973,2.973,0,0,1,893.375,10.311Z" transform="translate(-890.093 -4.38)" fill="#064578"/></g><g transform="translate(916.561 15.439)"><path d="M881.849,10.311A2.973,2.973,0,1,1,884.5,7.045,2.972,2.972,0,0,1,881.849,10.311Z" transform="translate(-878.569 -4.38)" fill="#064578"/></g><g transform="translate(843.997 37.926)"><path d="M849.943,18.068a2.973,2.973,0,1,1-2.974-2.974A2.974,2.974,0,0,1,849.943,18.068Z" transform="translate(-843.997 -15.094)" fill="#064578"/></g><g transform="translate(868.183 37.927)"><path d="M858.8,21.025a2.973,2.973,0,1,1,2.649-3.266A2.974,2.974,0,0,1,858.8,21.025Z" transform="translate(-855.52 -15.094)" fill="#064578"/></g><g transform="translate(892.371 37.927)"><path d="M870.326,21.025a2.973,2.973,0,1,1,2.651-3.266A2.975,2.975,0,0,1,870.326,21.025Z" transform="translate(-867.044 -15.094)" fill="#064578"/></g><g transform="translate(940.749 37.927)"><path d="M893.375,21.025a2.973,2.973,0,1,1,2.649-3.266A2.973,2.973,0,0,1,893.375,21.025Z" transform="translate(-890.093 -15.094)" fill="#064578"/></g><g transform="translate(916.561 37.927)"><path d="M881.849,21.025a2.973,2.973,0,1,1,2.651-3.266A2.972,2.972,0,0,1,881.849,21.025Z" transform="translate(-878.569 -15.094)" fill="#064578"/></g><g transform="translate(843.997 59.049)"><path d="M849.943,28.132a2.973,2.973,0,1,1-2.974-2.974A2.973,2.973,0,0,1,849.943,28.132Z" transform="translate(-843.997 -25.158)" fill="#064578"/></g><g transform="translate(868.183 59.048)"><path d="M858.8,31.09a2.974,2.974,0,1,1,2.649-3.266A2.974,2.974,0,0,1,858.8,31.09Z" transform="translate(-855.52 -25.157)" fill="#064578"/></g><g transform="translate(892.371 59.048)"><path d="M870.326,31.09a2.974,2.974,0,1,1,2.651-3.266A2.975,2.975,0,0,1,870.326,31.09Z" transform="translate(-867.044 -25.157)" fill="#064578"/></g><g transform="translate(940.749 59.048)"><path d="M893.375,31.09a2.974,2.974,0,1,1,2.649-3.266A2.973,2.973,0,0,1,893.375,31.09Z" transform="translate(-890.093 -25.157)" fill="#064578"/></g><g transform="translate(916.561 59.048)"><path d="M881.849,31.09a2.974,2.974,0,1,1,2.651-3.266A2.972,2.972,0,0,1,881.849,31.09Z" transform="translate(-878.569 -25.157)" fill="#064578"/></g><g transform="translate(843.997 81.537)"><path d="M849.943,38.844a2.973,2.973,0,1,1-2.974-2.972A2.973,2.973,0,0,1,849.943,38.844Z" transform="translate(-843.997 -35.872)" fill="#064578"/></g><g transform="translate(868.183 81.536)"><path d="M858.8,41.8a2.973,2.973,0,1,1,2.649-3.266A2.974,2.974,0,0,1,858.8,41.8Z" transform="translate(-855.52 -35.871)" fill="#064578"/></g><g transform="translate(892.371 81.536)"><path d="M870.326,41.8a2.973,2.973,0,1,1,2.651-3.266A2.975,2.975,0,0,1,870.326,41.8Z" transform="translate(-867.044 -35.871)" fill="#064578"/></g><g transform="translate(940.749 81.536)"><path d="M893.375,41.8a2.973,2.973,0,1,1,2.649-3.266A2.973,2.973,0,0,1,893.375,41.8Z" transform="translate(-890.093 -35.871)" fill="#064578"/></g><g transform="translate(916.561 81.536)"><path d="M881.849,41.8a2.973,2.973,0,1,1,2.651-3.266A2.972,2.972,0,0,1,881.849,41.8Z" transform="translate(-878.569 -35.871)" fill="#064578"/></g><g transform="translate(843.997 102.658)"><path d="M849.943,48.909a2.973,2.973,0,1,1-2.974-2.974A2.974,2.974,0,0,1,849.943,48.909Z" transform="translate(-843.997 -45.935)" fill="#064578"/></g><g transform="translate(868.183 102.659)"><path d="M858.8,51.866a2.973,2.973,0,1,1,2.649-3.266A2.974,2.974,0,0,1,858.8,51.866Z" transform="translate(-855.52 -45.935)" fill="#064578"/></g><g transform="translate(892.371 102.659)"><path d="M870.326,51.866a2.973,2.973,0,1,1,2.651-3.266A2.975,2.975,0,0,1,870.326,51.866Z" transform="translate(-867.044 -45.935)" fill="#064578"/></g><g transform="translate(940.749 102.659)"><path d="M893.375,51.866a2.973,2.973,0,1,1,2.649-3.266A2.973,2.973,0,0,1,893.375,51.866Z" transform="translate(-890.093 -45.935)" fill="#064578"/></g><g transform="translate(916.561 102.659)"><path d="M881.849,51.866A2.973,2.973,0,1,1,884.5,48.6,2.972,2.972,0,0,1,881.849,51.866Z" transform="translate(-878.569 -45.935)" fill="#064578"/></g><g transform="translate(843.997 125.146)"><path d="M849.943,59.623a2.973,2.973,0,1,1-2.974-2.974A2.973,2.973,0,0,1,849.943,59.623Z" transform="translate(-843.997 -56.649)" fill="#064578"/></g><g transform="translate(868.183 125.147)"><path d="M858.8,62.58a2.973,2.973,0,1,1,2.649-3.266A2.974,2.974,0,0,1,858.8,62.58Z" transform="translate(-855.52 -56.649)" fill="#064578"/></g><g transform="translate(892.371 125.147)"><path d="M870.326,62.58a2.973,2.973,0,1,1,2.651-3.266A2.975,2.975,0,0,1,870.326,62.58Z" transform="translate(-867.044 -56.649)" fill="#064578"/></g><g transform="translate(940.749 125.147)"><path d="M893.375,62.58a2.973,2.973,0,1,1,2.649-3.266A2.973,2.973,0,0,1,893.375,62.58Z" transform="translate(-890.093 -56.649)" fill="#064578"/></g><g transform="translate(916.561 125.147)"><path d="M881.849,62.58a2.973,2.973,0,1,1,2.651-3.266A2.972,2.972,0,0,1,881.849,62.58Z" transform="translate(-878.569 -56.649)" fill="#064578"/></g><g transform="translate(843.997 146.27)"><path d="M849.943,69.685a2.973,2.973,0,1,1-2.974-2.972A2.973,2.973,0,0,1,849.943,69.685Z" transform="translate(-843.997 -66.713)" fill="#064578"/></g><g transform="translate(868.183 146.268)"><path d="M858.8,72.643a2.973,2.973,0,1,1,2.649-3.266A2.974,2.974,0,0,1,858.8,72.643Z" transform="translate(-855.52 -66.712)" fill="#064578"/></g><g transform="translate(892.371 146.268)"><path d="M870.326,72.643a2.973,2.973,0,1,1,2.651-3.266A2.975,2.975,0,0,1,870.326,72.643Z" transform="translate(-867.044 -66.712)" fill="#064578"/></g><g transform="translate(940.749 146.268)"><path d="M893.375,72.643a2.973,2.973,0,1,1,2.649-3.266A2.973,2.973,0,0,1,893.375,72.643Z" transform="translate(-890.093 -66.712)" fill="#064578"/></g><g transform="translate(916.561 146.268)"><path d="M881.849,72.643a2.973,2.973,0,1,1,2.651-3.266A2.972,2.972,0,0,1,881.849,72.643Z" transform="translate(-878.569 -66.712)" fill="#064578"/></g><g transform="translate(964.936 168.755)"><path d="M907.563,80.4a2.973,2.973,0,1,1-2.972-2.974A2.973,2.973,0,0,1,907.563,80.4Z" transform="translate(-901.617 -77.426)" fill="#064578"/></g><g transform="translate(989.124 168.756)"><path d="M916.423,83.357a2.973,2.973,0,1,1,2.649-3.266A2.973,2.973,0,0,1,916.423,83.357Z" transform="translate(-913.141 -77.426)" fill="#064578"/></g><g transform="translate(1013.312 168.756)"><path d="M927.948,83.357a2.973,2.973,0,1,1,2.649-3.266A2.973,2.973,0,0,1,927.948,83.357Z" transform="translate(-924.665 -77.426)" fill="#064578"/></g><g transform="translate(1061.688 168.756)"><path d="M951,83.357a2.973,2.973,0,1,1,2.649-3.266A2.974,2.974,0,0,1,951,83.357Z" transform="translate(-947.713 -77.426)" fill="#064578"/></g><g transform="translate(1037.5 168.756)"><path d="M939.471,83.357a2.973,2.973,0,1,1,2.649-3.266A2.974,2.974,0,0,1,939.471,83.357Z" transform="translate(-936.189 -77.426)" fill="#064578"/></g><g transform="translate(964.936 189.879)"><path d="M907.563,90.464a2.973,2.973,0,1,1-2.972-2.974A2.972,2.972,0,0,1,907.563,90.464Z" transform="translate(-901.617 -87.49)" fill="#064578"/></g><g transform="translate(989.124 189.879)"><path d="M916.423,93.421a2.973,2.973,0,1,1,2.649-3.266A2.973,2.973,0,0,1,916.423,93.421Z" transform="translate(-913.141 -87.49)" fill="#064578"/></g><g transform="translate(1013.312 189.879)"><path d="M927.948,93.421a2.973,2.973,0,1,1,2.649-3.266A2.973,2.973,0,0,1,927.948,93.421Z" transform="translate(-924.665 -87.49)" fill="#064578"/></g><g transform="translate(1061.688 189.879)"><path d="M951,93.421a2.973,2.973,0,1,1,2.649-3.266A2.974,2.974,0,0,1,951,93.421Z" transform="translate(-947.713 -87.49)" fill="#064578"/></g><g transform="translate(1037.5 189.879)"><path d="M939.471,93.421a2.973,2.973,0,1,1,2.649-3.266A2.974,2.974,0,0,1,939.471,93.421Z" transform="translate(-936.189 -87.49)" fill="#064578"/></g><g transform="translate(964.936 212.366)"><path d="M907.563,101.178a2.973,2.973,0,1,1-2.972-2.974A2.972,2.972,0,0,1,907.563,101.178Z" transform="translate(-901.617 -98.204)" fill="#064578"/></g><g transform="translate(989.124 212.366)"><path d="M916.423,104.135a2.973,2.973,0,1,1,2.649-3.266A2.973,2.973,0,0,1,916.423,104.135Z" transform="translate(-913.141 -98.204)" fill="#064578"/></g><g transform="translate(1013.312 212.366)"><path d="M927.948,104.135a2.973,2.973,0,1,1,2.649-3.266A2.973,2.973,0,0,1,927.948,104.135Z" transform="translate(-924.665 -98.204)" fill="#064578"/></g><g transform="translate(1061.688 212.366)"><path d="M951,104.135a2.973,2.973,0,1,1,2.649-3.266A2.974,2.974,0,0,1,951,104.135Z" transform="translate(-947.713 -98.204)" fill="#064578"/></g><g transform="translate(1037.5 212.366)"><path d="M939.471,104.135a2.973,2.973,0,1,1,2.649-3.266A2.974,2.974,0,0,1,939.471,104.135Z" transform="translate(-936.189 -98.204)" fill="#064578"/></g><g transform="translate(964.936 233.488)"><path d="M907.563,111.241a2.973,2.973,0,1,1-2.972-2.974A2.973,2.973,0,0,1,907.563,111.241Z" transform="translate(-901.617 -108.267)" fill="#064578"/></g><g transform="translate(989.124 233.488)"><path d="M916.423,114.2a2.973,2.973,0,1,1,2.649-3.266A2.973,2.973,0,0,1,916.423,114.2Z" transform="translate(-913.141 -108.267)" fill="#064578"/></g><g transform="translate(1013.312 233.488)"><path d="M927.948,114.2a2.973,2.973,0,1,1,2.649-3.266A2.973,2.973,0,0,1,927.948,114.2Z" transform="translate(-924.665 -108.267)" fill="#064578"/></g><g transform="translate(1061.688 233.488)"><path d="M951,114.2a2.973,2.973,0,1,1,2.649-3.266A2.974,2.974,0,0,1,951,114.2Z" transform="translate(-947.713 -108.267)" fill="#064578"/></g><g transform="translate(1037.5 233.488)"><path d="M939.471,114.2a2.973,2.973,0,1,1,2.649-3.266A2.974,2.974,0,0,1,939.471,114.2Z" transform="translate(-936.189 -108.267)" fill="#064578"/></g><g transform="translate(964.936 255.975)"><path d="M907.563,121.955a2.973,2.973,0,1,1-2.972-2.974A2.974,2.974,0,0,1,907.563,121.955Z" transform="translate(-901.617 -118.981)" fill="#064578"/></g><g transform="translate(989.124 255.976)"><path d="M916.423,124.912a2.973,2.973,0,1,1,2.649-3.266A2.973,2.973,0,0,1,916.423,124.912Z" transform="translate(-913.141 -118.981)" fill="#064578"/></g><g transform="translate(1013.312 255.976)"><path d="M927.948,124.912a2.973,2.973,0,1,1,2.649-3.266A2.973,2.973,0,0,1,927.948,124.912Z" transform="translate(-924.665 -118.981)" fill="#064578"/></g><g transform="translate(1061.688 255.976)"><path d="M951,124.912a2.973,2.973,0,1,1,2.649-3.266A2.974,2.974,0,0,1,951,124.912Z" transform="translate(-947.713 -118.981)" fill="#064578"/></g><g transform="translate(1037.5 255.976)"><path d="M939.471,124.912a2.973,2.973,0,1,1,2.649-3.266A2.974,2.974,0,0,1,939.471,124.912Z" transform="translate(-936.189 -118.981)" fill="#064578"/></g><g transform="translate(964.936 277.099)"><path d="M907.563,132.017a2.973,2.973,0,1,1-2.972-2.972A2.973,2.973,0,0,1,907.563,132.017Z" transform="translate(-901.617 -129.045)" fill="#064578"/></g><g transform="translate(989.124 277.097)"><path d="M916.423,134.977a2.974,2.974,0,1,1,2.649-3.266A2.973,2.973,0,0,1,916.423,134.977Z" transform="translate(-913.141 -129.044)" fill="#064578"/></g><g transform="translate(1013.312 277.097)"><path d="M927.948,134.977a2.974,2.974,0,1,1,2.649-3.266A2.973,2.973,0,0,1,927.948,134.977Z" transform="translate(-924.665 -129.044)" fill="#064578"/></g><g transform="translate(1061.688 277.097)"><path d="M951,134.977a2.974,2.974,0,1,1,2.649-3.266A2.974,2.974,0,0,1,951,134.977Z" transform="translate(-947.713 -129.044)" fill="#064578"/></g><g transform="translate(1037.5 277.097)"><path d="M939.471,134.977a2.974,2.974,0,1,1,2.649-3.266A2.974,2.974,0,0,1,939.471,134.977Z" transform="translate(-936.189 -129.044)" fill="#064578"/></g><g transform="translate(964.936 299.586)"><path d="M907.563,142.731a2.973,2.973,0,1,1-2.972-2.972A2.973,2.973,0,0,1,907.563,142.731Z" transform="translate(-901.617 -139.759)" fill="#064578"/></g><g transform="translate(989.124 299.585)"><path d="M916.423,145.689a2.973,2.973,0,1,1,2.649-3.266A2.971,2.971,0,0,1,916.423,145.689Z" transform="translate(-913.141 -139.758)" fill="#064578"/></g><g transform="translate(1013.312 299.585)"><path d="M927.948,145.689a2.973,2.973,0,1,1,2.649-3.266A2.971,2.971,0,0,1,927.948,145.689Z" transform="translate(-924.665 -139.758)" fill="#064578"/></g><g transform="translate(1061.688 299.585)"><path d="M951,145.689a2.973,2.973,0,1,1,2.649-3.266A2.972,2.972,0,0,1,951,145.689Z" transform="translate(-947.713 -139.758)" fill="#064578"/></g><g transform="translate(1037.5 299.585)"><path d="M939.471,145.689a2.973,2.973,0,1,1,2.649-3.266A2.972,2.972,0,0,1,939.471,145.689Z" transform="translate(-936.189 -139.758)" fill="#064578"/></g><g transform="translate(964.936 320.708)"><path d="M907.563,152.8a2.973,2.973,0,1,1-2.972-2.974A2.974,2.974,0,0,1,907.563,152.8Z" transform="translate(-901.617 -149.822)" fill="#064578"/></g><g transform="translate(989.124 320.708)"><path d="M916.423,155.753a2.973,2.973,0,1,1,2.649-3.266A2.973,2.973,0,0,1,916.423,155.753Z" transform="translate(-913.141 -149.822)" fill="#064578"/></g><g transform="translate(1013.312 320.708)"><path d="M927.948,155.753a2.973,2.973,0,1,1,2.649-3.266A2.973,2.973,0,0,1,927.948,155.753Z" transform="translate(-924.665 -149.822)" fill="#064578"/></g><g transform="translate(1061.688 320.708)"><path d="M951,155.753a2.973,2.973,0,1,1,2.649-3.266A2.974,2.974,0,0,1,951,155.753Z" transform="translate(-947.713 -149.822)" fill="#064578"/></g><g transform="translate(1037.5 320.708)"><path d="M939.471,155.753a2.973,2.973,0,1,1,2.649-3.266A2.974,2.974,0,0,1,939.471,155.753Z" transform="translate(-936.189 -149.822)" fill="#064578"/></g><g transform="translate(964.936 -5.683)"><path d="M907.563-2.709A2.972,2.972,0,0,1,904.591.263a2.973,2.973,0,0,1-2.974-2.972,2.973,2.973,0,0,1,2.974-2.974A2.973,2.973,0,0,1,907.563-2.709Z" transform="translate(-901.617 5.683)" fill="#064578"/></g><g transform="translate(989.124 -5.683)"><path d="M916.423.248A2.973,2.973,0,0,1,913.158-2.4a2.972,2.972,0,0,1,2.649-3.264,2.971,2.971,0,0,1,3.266,2.649A2.975,2.975,0,0,1,916.423.248Z" transform="translate(-913.141 5.683)" fill="#064578"/></g><g transform="translate(1013.312 -5.683)"><path d="M927.948.248A2.973,2.973,0,0,1,924.682-2.4a2.972,2.972,0,0,1,2.649-3.264A2.971,2.971,0,0,1,930.6-3.017,2.975,2.975,0,0,1,927.948.248Z" transform="translate(-924.665 5.683)" fill="#064578"/></g><g transform="translate(1061.688 -5.683)"><path d="M951,.248A2.974,2.974,0,0,1,947.73-2.4a2.972,2.972,0,0,1,2.649-3.264,2.971,2.971,0,0,1,3.266,2.649A2.975,2.975,0,0,1,951,.248Z" transform="translate(-947.713 5.683)" fill="#064578"/></g><g transform="translate(1037.5 -5.683)"><path d="M939.471.248A2.974,2.974,0,0,1,936.206-2.4a2.972,2.972,0,0,1,2.649-3.264,2.971,2.971,0,0,1,3.266,2.649A2.975,2.975,0,0,1,939.471.248Z" transform="translate(-936.189 5.683)" fill="#064578"/></g><g transform="translate(964.936 15.438)"><path d="M907.563,7.354a2.973,2.973,0,1,1-2.972-2.974A2.974,2.974,0,0,1,907.563,7.354Z" transform="translate(-901.617 -4.38)" fill="#064578"/></g><g transform="translate(989.124 15.439)"><path d="M916.423,10.311a2.973,2.973,0,1,1,2.649-3.266A2.973,2.973,0,0,1,916.423,10.311Z" transform="translate(-913.141 -4.38)" fill="#064578"/></g><g transform="translate(1013.312 15.439)"><path d="M927.948,10.311A2.973,2.973,0,1,1,930.6,7.045,2.973,2.973,0,0,1,927.948,10.311Z" transform="translate(-924.665 -4.38)" fill="#064578"/></g><g transform="translate(1061.688 15.439)"><path d="M951,10.311a2.973,2.973,0,1,1,2.649-3.266A2.974,2.974,0,0,1,951,10.311Z" transform="translate(-947.713 -4.38)" fill="#064578"/></g><g transform="translate(1037.5 15.439)"><path d="M939.471,10.311a2.973,2.973,0,1,1,2.649-3.266A2.974,2.974,0,0,1,939.471,10.311Z" transform="translate(-936.189 -4.38)" fill="#064578"/></g><g transform="translate(964.936 37.926)"><path d="M907.563,18.068a2.973,2.973,0,1,1-2.972-2.974A2.974,2.974,0,0,1,907.563,18.068Z" transform="translate(-901.617 -15.094)" fill="#064578"/></g><g transform="translate(989.124 37.927)"><path d="M916.423,21.025a2.973,2.973,0,1,1,2.649-3.266A2.973,2.973,0,0,1,916.423,21.025Z" transform="translate(-913.141 -15.094)" fill="#064578"/></g><g transform="translate(1013.312 37.927)"><path d="M927.948,21.025a2.973,2.973,0,1,1,2.649-3.266A2.973,2.973,0,0,1,927.948,21.025Z" transform="translate(-924.665 -15.094)" fill="#064578"/></g><g transform="translate(1061.688 37.927)"><path d="M951,21.025a2.973,2.973,0,1,1,2.649-3.266A2.974,2.974,0,0,1,951,21.025Z" transform="translate(-947.713 -15.094)" fill="#064578"/></g><g transform="translate(1037.5 37.927)"><path d="M939.471,21.025a2.973,2.973,0,1,1,2.649-3.266A2.974,2.974,0,0,1,939.471,21.025Z" transform="translate(-936.189 -15.094)" fill="#064578"/></g><g transform="translate(964.936 59.049)"><path d="M907.563,28.132a2.973,2.973,0,1,1-2.972-2.974A2.972,2.972,0,0,1,907.563,28.132Z" transform="translate(-901.617 -25.158)" fill="#064578"/></g><g transform="translate(989.124 59.048)"><path d="M916.423,31.09a2.974,2.974,0,1,1,2.649-3.266A2.973,2.973,0,0,1,916.423,31.09Z" transform="translate(-913.141 -25.157)" fill="#064578"/></g><g transform="translate(1013.312 59.048)"><path d="M927.948,31.09a2.974,2.974,0,1,1,2.649-3.266A2.973,2.973,0,0,1,927.948,31.09Z" transform="translate(-924.665 -25.157)" fill="#064578"/></g><g transform="translate(1061.688 59.048)"><path d="M951,31.09a2.974,2.974,0,1,1,2.649-3.266A2.974,2.974,0,0,1,951,31.09Z" transform="translate(-947.713 -25.157)" fill="#064578"/></g><g transform="translate(1037.5 59.048)"><path d="M939.471,31.09a2.974,2.974,0,1,1,2.649-3.266A2.974,2.974,0,0,1,939.471,31.09Z" transform="translate(-936.189 -25.157)" fill="#064578"/></g><g transform="translate(964.936 81.537)"><path d="M907.563,38.844a2.973,2.973,0,1,1-2.972-2.972A2.973,2.973,0,0,1,907.563,38.844Z" transform="translate(-901.617 -35.872)" fill="#064578"/></g><g transform="translate(989.124 81.536)"><path d="M916.423,41.8a2.973,2.973,0,1,1,2.649-3.266A2.973,2.973,0,0,1,916.423,41.8Z" transform="translate(-913.141 -35.871)" fill="#064578"/></g><g transform="translate(1013.312 81.536)"><path d="M927.948,41.8a2.973,2.973,0,1,1,2.649-3.266A2.973,2.973,0,0,1,927.948,41.8Z" transform="translate(-924.665 -35.871)" fill="#064578"/></g><g transform="translate(1061.688 81.536)"><path d="M951,41.8a2.973,2.973,0,1,1,2.649-3.266A2.974,2.974,0,0,1,951,41.8Z" transform="translate(-947.713 -35.871)" fill="#064578"/></g><g transform="translate(1037.5 81.536)"><path d="M939.471,41.8a2.973,2.973,0,1,1,2.649-3.266A2.974,2.974,0,0,1,939.471,41.8Z" transform="translate(-936.189 -35.871)" fill="#064578"/></g><g transform="translate(964.936 102.658)"><path d="M907.563,48.909a2.973,2.973,0,1,1-2.972-2.974A2.974,2.974,0,0,1,907.563,48.909Z" transform="translate(-901.617 -45.935)" fill="#064578"/></g><g transform="translate(989.124 102.659)"><path d="M916.423,51.866a2.973,2.973,0,1,1,2.649-3.266A2.973,2.973,0,0,1,916.423,51.866Z" transform="translate(-913.141 -45.935)" fill="#064578"/></g><g transform="translate(1013.312 102.659)"><path d="M927.948,51.866A2.973,2.973,0,1,1,930.6,48.6,2.973,2.973,0,0,1,927.948,51.866Z" transform="translate(-924.665 -45.935)" fill="#064578"/></g><g transform="translate(1061.688 102.659)"><path d="M951,51.866a2.973,2.973,0,1,1,2.649-3.266A2.974,2.974,0,0,1,951,51.866Z" transform="translate(-947.713 -45.935)" fill="#064578"/></g><g transform="translate(1037.5 102.659)"><path d="M939.471,51.866A2.973,2.973,0,1,1,942.12,48.6,2.974,2.974,0,0,1,939.471,51.866Z" transform="translate(-936.189 -45.935)" fill="#064578"/></g><g transform="translate(964.936 125.146)"><path d="M907.563,59.623a2.973,2.973,0,1,1-2.972-2.974A2.972,2.972,0,0,1,907.563,59.623Z" transform="translate(-901.617 -56.649)" fill="#064578"/></g><g transform="translate(989.124 125.147)"><path d="M916.423,62.58a2.973,2.973,0,1,1,2.649-3.266A2.973,2.973,0,0,1,916.423,62.58Z" transform="translate(-913.141 -56.649)" fill="#064578"/></g><g transform="translate(1013.312 125.147)"><path d="M927.948,62.58a2.973,2.973,0,1,1,2.649-3.266A2.973,2.973,0,0,1,927.948,62.58Z" transform="translate(-924.665 -56.649)" fill="#064578"/></g><g transform="translate(1061.688 125.147)"><path d="M951,62.58a2.973,2.973,0,1,1,2.649-3.266A2.974,2.974,0,0,1,951,62.58Z" transform="translate(-947.713 -56.649)" fill="#064578"/></g><g transform="translate(1037.5 125.147)"><path d="M939.471,62.58a2.973,2.973,0,1,1,2.649-3.266A2.974,2.974,0,0,1,939.471,62.58Z" transform="translate(-936.189 -56.649)" fill="#064578"/></g><g transform="translate(964.936 146.27)"><path d="M907.563,69.685a2.973,2.973,0,1,1-2.972-2.972A2.973,2.973,0,0,1,907.563,69.685Z" transform="translate(-901.617 -66.713)" fill="#064578"/></g><g transform="translate(989.124 146.268)"><path d="M916.423,72.643a2.973,2.973,0,1,1,2.649-3.266A2.973,2.973,0,0,1,916.423,72.643Z" transform="translate(-913.141 -66.712)" fill="#064578"/></g><g transform="translate(1013.312 146.268)"><path d="M927.948,72.643a2.973,2.973,0,1,1,2.649-3.266A2.973,2.973,0,0,1,927.948,72.643Z" transform="translate(-924.665 -66.712)" fill="#064578"/></g><g transform="translate(1061.688 146.268)"><path d="M951,72.643a2.973,2.973,0,1,1,2.649-3.266A2.974,2.974,0,0,1,951,72.643Z" transform="translate(-947.713 -66.712)" fill="#064578"/></g><g transform="translate(1037.5 146.268)"><path d="M939.471,72.643a2.973,2.973,0,1,1,2.649-3.266A2.974,2.974,0,0,1,939.471,72.643Z" transform="translate(-936.189 -66.712)" fill="#064578"/></g></g></g></svg>