<svg xmlns="http://www.w3.org/2000/svg" xmlns:xlink="http://www.w3.org/1999/xlink" width="891.537" height="316.227" viewBox="0 0 891.537 316.227"><defs><clipPath id="a"><rect width="204.144" height="204.144" transform="matrix(0.677, 0.736, -0.736, 0.677, 150.253, 0)" fill="none"/></clipPath></defs><g transform="translate(-881.599 -667.774)"><g transform="translate(611.534 428.74)"><g transform="translate(983.035 298.091)"><rect width="126.266" height="126.266" transform="matrix(0.707, 0.707, -0.707, 0.707, 89.283, 0)" fill="#064578"/></g><g transform="translate(872.118 239.033)"><g transform="translate(0 0)" clip-path="url(#a)"><g transform="translate(-36.5 -50.322)"><g transform="translate(115.481 107.751)"><path d="M900.431,467.764l-5.928-.977,2.452-14.865a24.8,24.8,0,0,1,20.584-20.478l3.027-.487a18.835,18.835,0,0,0,15.57-15.316A24.8,24.8,0,0,1,956.9,395.4l2.622-.4a18.852,18.852,0,0,0,15.708-15.147l.092-.494a24.822,24.822,0,0,1,20.951-20.009l2.2-.307a18.846,18.846,0,0,0,15.846-14.974l.19-.97a24.822,24.822,0,0,1,21.142-19.783l1.768-.233a18.834,18.834,0,0,0,15.983-14.808l.3-1.429a24.813,24.813,0,0,1,21.332-19.565l1.316-.159a18.847,18.847,0,0,0,16.135-14.65l3.771-17.169,5.868,1.291-3.772,17.165a24.852,24.852,0,0,1-21.286,19.325l-1.313.159a18.813,18.813,0,0,0-16.174,14.833l-.3,1.429a24.865,24.865,0,0,1-21.089,19.536l-1.768.229a18.81,18.81,0,0,0-16.026,15l-.19.967A24.859,24.859,0,0,1,999.312,365l-2.2.307a18.823,18.823,0,0,0-15.884,15.172l-.092.494a24.855,24.855,0,0,1-20.718,19.974l-2.622.4a18.809,18.809,0,0,0-15.743,15.345,24.836,24.836,0,0,1-20.538,20.2l-3.024.483A18.81,18.81,0,0,0,902.883,452.9Z" transform="translate(-894.503 -255.31)" fill="#fd8023"/><g transform="translate(26.473 28.784)"><path d="M907.933,475.922l-5.928-.977,2.452-14.865A24.81,24.81,0,0,1,925.046,439.6l3.027-.48A18.84,18.84,0,0,0,943.64,423.8,24.806,24.806,0,0,1,964.4,403.556l2.625-.4a18.837,18.837,0,0,0,15.7-15.143l.092-.49a24.809,24.809,0,0,1,20.951-20.009l2.2-.314a18.834,18.834,0,0,0,15.846-14.974l.19-.963a24.818,24.818,0,0,1,21.142-19.787l1.768-.233a18.842,18.842,0,0,0,15.987-14.808l.3-1.425a24.82,24.82,0,0,1,21.339-19.568l1.316-.159a18.842,18.842,0,0,0,16.132-14.649l3.772-17.169,5.867,1.288-3.772,17.169a24.851,24.851,0,0,1-21.283,19.325l-1.316.159a18.816,18.816,0,0,0-16.174,14.836l-.3,1.422A24.864,24.864,0,0,1,1045.7,337.2l-1.764.233a18.813,18.813,0,0,0-16.029,15l-.19.967a24.855,24.855,0,0,1-20.9,19.751l-2.2.31a18.806,18.806,0,0,0-15.881,15.172l-.092.49A24.858,24.858,0,0,1,967.922,409.1l-2.625.4a18.81,18.81,0,0,0-15.74,15.345,24.844,24.844,0,0,1-20.538,20.2l-3.027.483a18.806,18.806,0,0,0-15.606,15.525Z" transform="translate(-902.006 -263.468)" fill="#fd8023"/></g><g transform="translate(52.946 57.568)"><path d="M915.437,484.08l-5.928-.981,2.452-14.865a24.806,24.806,0,0,1,20.588-20.478l3.027-.483a18.828,18.828,0,0,0,15.567-15.316,24.814,24.814,0,0,1,20.764-20.242l2.625-.4a18.836,18.836,0,0,0,15.7-15.143l.092-.49a24.825,24.825,0,0,1,20.951-20.013l2.205-.307a18.847,18.847,0,0,0,15.842-14.978l.194-.967a24.822,24.822,0,0,1,21.138-19.787l1.768-.229a18.842,18.842,0,0,0,15.987-14.808l.3-1.429a24.809,24.809,0,0,1,21.336-19.565l1.312-.159a18.847,18.847,0,0,0,16.139-14.653l3.772-17.165,5.864,1.288-3.772,17.169a24.855,24.855,0,0,1-21.283,19.325l-1.312.159a18.813,18.813,0,0,0-16.177,14.833l-.3,1.429a24.853,24.853,0,0,1-21.089,19.533l-1.764.233a18.809,18.809,0,0,0-16.026,15l-.194.967a24.855,24.855,0,0,1-20.9,19.752l-2.205.31a18.815,18.815,0,0,0-15.881,15.168l-.092.494a24.85,24.85,0,0,1-20.718,19.974l-2.622.4A18.809,18.809,0,0,0,957.06,433,24.843,24.843,0,0,1,936.522,453.2l-3.027.483a18.806,18.806,0,0,0-15.606,15.525Z" transform="translate(-909.509 -271.626)" fill="#fd8023"/></g><g transform="translate(79.419 86.352)"><path d="M922.94,492.238l-5.928-.981,2.456-14.865a24.8,24.8,0,0,1,20.584-20.478l3.031-.483a18.844,18.844,0,0,0,15.567-15.32,24.807,24.807,0,0,1,20.764-20.238l2.621-.4a18.844,18.844,0,0,0,15.708-15.143l.092-.494a24.809,24.809,0,0,1,20.948-20.009l2.205-.31a18.846,18.846,0,0,0,15.845-14.974l.191-.967a24.822,24.822,0,0,1,21.142-19.787l1.768-.229a18.842,18.842,0,0,0,15.983-14.812l.3-1.425a24.813,24.813,0,0,1,21.336-19.565l1.316-.159A18.846,18.846,0,0,0,1115,296.949l3.772-17.165,5.868,1.288-3.772,17.165a24.863,24.863,0,0,1-21.286,19.328l-1.313.159a18.8,18.8,0,0,0-16.174,14.833l-.3,1.425a24.86,24.86,0,0,1-21.089,19.536l-1.768.229a18.813,18.813,0,0,0-16.026,15l-.19.963a24.862,24.862,0,0,1-20.9,19.755l-2.205.311a18.815,18.815,0,0,0-15.881,15.168l-.092.494a24.846,24.846,0,0,1-20.718,19.974l-2.622.4a18.81,18.81,0,0,0-15.743,15.345,24.848,24.848,0,0,1-20.538,20.207l-3.027.48a18.814,18.814,0,0,0-15.6,15.528Z" transform="translate(-917.012 -279.784)" fill="#fd8023"/></g></g><path d="M867.7,437.225l-5.927-.977,2.452-14.865A24.806,24.806,0,0,1,884.809,400.9l3.031-.484a18.835,18.835,0,0,0,15.567-15.32,24.819,24.819,0,0,1,20.764-20.242l2.629-.392a18.841,18.841,0,0,0,15.7-15.147l.092-.49a24.818,24.818,0,0,1,20.951-20.009l2.205-.31a18.838,18.838,0,0,0,15.842-14.974l.191-.963a24.822,24.822,0,0,1,21.142-19.79l1.768-.229a18.85,18.85,0,0,0,15.987-14.812l.3-1.425a24.812,24.812,0,0,1,21.335-19.568l1.312-.159a18.843,18.843,0,0,0,16.139-14.65l3.771-17.169,5.864,1.288-3.772,17.169a24.851,24.851,0,0,1-21.283,19.325l-1.316.159a18.818,18.818,0,0,0-16.174,14.833l-.3,1.426a24.864,24.864,0,0,1-21.092,19.54l-1.768.229a18.817,18.817,0,0,0-16.025,15l-.191.963a24.853,24.853,0,0,1-20.9,19.759l-2.205.307A18.818,18.818,0,0,0,948.5,349.938l-.092.494a24.854,24.854,0,0,1-20.718,19.974l-2.625.4a18.81,18.81,0,0,0-15.74,15.345,24.844,24.844,0,0,1-20.538,20.2l-3.027.487a18.8,18.8,0,0,0-15.606,15.525Z" transform="translate(-861.773 -224.771)" fill="#fd8023"/><g transform="translate(26.473 28.784)"><path d="M875.2,445.383l-5.927-.977,2.455-14.865a24.807,24.807,0,0,1,20.585-20.482l3.027-.48a18.848,18.848,0,0,0,15.571-15.32,24.806,24.806,0,0,1,20.764-20.242l2.622-.392a18.853,18.853,0,0,0,15.708-15.147l.092-.49a24.805,24.805,0,0,1,20.948-20.009l2.2-.311a18.842,18.842,0,0,0,15.845-14.974l.194-.97a24.823,24.823,0,0,1,21.142-19.783l1.764-.233A18.838,18.838,0,0,0,1028.18,285.9l.3-1.429a24.814,24.814,0,0,1,21.332-19.564l1.316-.159a18.842,18.842,0,0,0,16.135-14.65l3.772-17.169,5.864,1.288-3.772,17.169a24.851,24.851,0,0,1-21.283,19.325l-1.312.159a18.813,18.813,0,0,0-16.174,14.833l-.3,1.429a24.865,24.865,0,0,1-21.089,19.536l-1.768.229a18.809,18.809,0,0,0-16.026,15l-.194.967a24.85,24.85,0,0,1-20.9,19.751l-2.2.314A18.806,18.806,0,0,0,956,358.1l-.091.49a24.855,24.855,0,0,1-20.718,19.977l-2.622.4A18.806,18.806,0,0,0,916.827,394.3a24.848,24.848,0,0,1-20.538,20.207l-3.027.48a18.806,18.806,0,0,0-15.6,15.528Z" transform="translate(-869.276 -232.929)" fill="#fd8023"/></g><g transform="translate(52.949 57.568)"><path d="M882.708,453.541l-5.928-.977,2.452-14.865a24.8,24.8,0,0,1,20.585-20.478l3.027-.487a18.832,18.832,0,0,0,15.571-15.316,24.807,24.807,0,0,1,20.764-20.242l2.625-.4a18.844,18.844,0,0,0,15.7-15.144l.092-.49a24.818,24.818,0,0,1,20.951-20.013l2.2-.307A18.854,18.854,0,0,0,996.6,329.849l.191-.967A24.814,24.814,0,0,1,1017.93,309.1l1.764-.233a18.842,18.842,0,0,0,15.99-14.812l.3-1.422a24.816,24.816,0,0,1,21.339-19.568l1.313-.159a18.846,18.846,0,0,0,16.135-14.65l3.772-17.169,5.867,1.288-3.771,17.165a24.855,24.855,0,0,1-21.286,19.328l-1.312.159a18.813,18.813,0,0,0-16.174,14.837l-.3,1.422a24.856,24.856,0,0,1-21.089,19.536l-1.768.233a18.813,18.813,0,0,0-16.026,15l-.19.967a24.87,24.87,0,0,1-20.9,19.755l-2.2.307A18.814,18.814,0,0,0,963.5,366.254l-.092.49A24.851,24.851,0,0,1,942.7,386.721l-2.625.392a18.805,18.805,0,0,0-15.74,15.348,24.848,24.848,0,0,1-20.538,20.2l-3.027.483a18.806,18.806,0,0,0-15.606,15.525Z" transform="translate(-876.78 -241.087)" fill="#fd8023"/></g><g transform="translate(79.422 86.352)"><path d="M890.21,461.7l-5.927-.977,2.452-14.865a24.8,24.8,0,0,1,20.584-20.478l3.027-.483a18.835,18.835,0,0,0,15.571-15.32,24.814,24.814,0,0,1,20.768-20.238l2.621-.4a18.836,18.836,0,0,0,15.7-15.143l.092-.494a24.821,24.821,0,0,1,20.951-20.009l2.2-.311a18.838,18.838,0,0,0,15.846-14.974l.191-.967a24.826,24.826,0,0,1,21.142-19.787l1.768-.229a18.841,18.841,0,0,0,15.987-14.808l.3-1.429a24.8,24.8,0,0,1,21.336-19.564l1.312-.159a18.846,18.846,0,0,0,16.135-14.653l3.772-17.165,5.868,1.288-3.772,17.169a24.856,24.856,0,0,1-21.283,19.325l-1.316.159a18.813,18.813,0,0,0-16.174,14.833l-.3,1.429a24.857,24.857,0,0,1-21.089,19.533l-1.764.233a18.813,18.813,0,0,0-16.029,15l-.19.967a24.855,24.855,0,0,1-20.9,19.751l-2.2.311a18.806,18.806,0,0,0-15.881,15.172l-.092.49A24.851,24.851,0,0,1,950.2,394.876l-2.622.4a18.809,18.809,0,0,0-15.743,15.345A24.848,24.848,0,0,1,911.3,430.822l-3.027.483a18.806,18.806,0,0,0-15.606,15.525Z" transform="translate(-884.283 -249.245)" fill="#fd8023"/></g></g></g></g></g><g transform="translate(848.335 661.354)"><g transform="translate(33.264 114.929)"><path d="M53.5,130.873l-5.826-5.826,5.826-5.826-4.293-4.293-5.826,5.826-5.826-5.826-4.292,4.293,5.826,5.826-5.826,5.826,4.292,4.293,5.826-5.826,5.826,5.826Z" transform="translate(-33.264 -114.929)" fill="#064578"/></g><g transform="translate(79.101 114.929)"><path d="M69.511,130.873l-5.826-5.826,5.826-5.826-4.293-4.293-5.826,5.826-5.826-5.826-4.293,4.293,5.826,5.826-5.826,5.826,4.293,4.293,5.826-5.826,5.826,5.826Z" transform="translate(-49.274 -114.929)" fill="#064578"/></g><g transform="translate(124.938 114.929)"><path d="M85.521,130.873,79.7,125.048l5.826-5.826-4.293-4.293L75.4,120.755l-5.826-5.826-4.293,4.293,5.826,5.826-5.826,5.826,4.293,4.293,5.826-5.826,5.826,5.826Z" transform="translate(-65.284 -114.929)" fill="#064578"/></g><g transform="translate(170.776 114.929)"><path d="M101.532,130.873l-5.826-5.826,5.826-5.826-4.293-4.293-5.826,5.826-5.826-5.826-4.293,4.293,5.826,5.826-5.826,5.826,4.293,4.293,5.826-5.826,5.826,5.826Z" transform="translate(-81.295 -114.929)" fill="#064578"/></g><g transform="translate(33.264 164.871)"><path d="M53.5,148.318l-5.826-5.826,5.826-5.826-4.293-4.293L43.382,138.2l-5.826-5.826-4.292,4.293,5.826,5.826-5.826,5.826,4.292,4.293,5.826-5.826,5.826,5.826Z" transform="translate(-33.264 -132.373)" fill="#064578"/></g><g transform="translate(79.101 164.871)"><path d="M69.511,148.318l-5.826-5.826,5.826-5.826-4.293-4.293L59.393,138.2l-5.826-5.826-4.293,4.293,5.826,5.826-5.826,5.826,4.293,4.293,5.826-5.826,5.826,5.826Z" transform="translate(-49.274 -132.373)" fill="#064578"/></g><g transform="translate(124.938 164.871)"><path d="M85.521,148.318,79.7,142.492l5.826-5.826-4.293-4.293L75.4,138.2l-5.826-5.826-4.293,4.293,5.826,5.826-5.826,5.826,4.293,4.293,5.826-5.826,5.826,5.826Z" transform="translate(-65.284 -132.373)" fill="#064578"/></g><g transform="translate(170.776 164.871)"><path d="M101.532,148.318l-5.826-5.826,5.826-5.826-4.293-4.293L91.413,138.2l-5.826-5.826-4.293,4.293,5.826,5.826-5.826,5.826,4.293,4.293,5.826-5.826,5.826,5.826Z" transform="translate(-81.295 -132.373)" fill="#064578"/></g><g transform="translate(33.264 211.132)"><path d="M53.5,164.476l-5.826-5.826,5.826-5.826-4.293-4.293-5.826,5.826-5.826-5.826-4.292,4.293,5.826,5.826-5.826,5.826,4.292,4.293,5.826-5.826,5.826,5.826Z" transform="translate(-33.264 -148.531)" fill="#064578"/></g><g transform="translate(79.101 211.132)"><path d="M69.511,164.476l-5.826-5.826,5.826-5.826-4.293-4.293-5.826,5.826-5.826-5.826-4.293,4.293L55.1,158.65l-5.826,5.826,4.293,4.293,5.826-5.826,5.826,5.826Z" transform="translate(-49.274 -148.531)" fill="#064578"/></g><g transform="translate(124.938 211.132)"><path d="M85.521,164.476,79.7,158.65l5.826-5.826-4.293-4.293L75.4,154.357l-5.826-5.826-4.293,4.293,5.826,5.826-5.826,5.826,4.293,4.293,5.826-5.826,5.826,5.826Z" transform="translate(-65.284 -148.531)" fill="#064578"/></g><g transform="translate(170.776 211.132)"><path d="M101.532,164.476l-5.826-5.826,5.826-5.826-4.293-4.293-5.826,5.826-5.826-5.826-4.293,4.293,5.826,5.826-5.826,5.826,4.293,4.293,5.826-5.826,5.826,5.826Z" transform="translate(-81.295 -148.531)" fill="#064578"/></g><g transform="translate(33.264 261.074)"><path d="M53.5,181.92l-5.826-5.826,5.826-5.826-4.293-4.293L43.382,171.8l-5.826-5.826-4.292,4.293,5.826,5.826-5.826,5.826,4.292,4.293,5.826-5.826,5.826,5.826Z" transform="translate(-33.264 -165.975)" fill="#064578"/></g><g transform="translate(79.101 261.074)"><path d="M69.511,181.92l-5.826-5.826,5.826-5.826-4.293-4.293L59.393,171.8l-5.826-5.826-4.293,4.293,5.826,5.826-5.826,5.826,4.293,4.293,5.826-5.826,5.826,5.826Z" transform="translate(-49.274 -165.975)" fill="#064578"/></g><g transform="translate(124.938 261.074)"><path d="M85.521,181.92,79.7,176.094l5.826-5.826-4.293-4.293L75.4,171.8l-5.826-5.826-4.293,4.293,5.826,5.826-5.826,5.826,4.293,4.293,5.826-5.826,5.826,5.826Z" transform="translate(-65.284 -165.975)" fill="#064578"/></g><g transform="translate(170.776 261.074)"><path d="M101.532,181.92l-5.826-5.826,5.826-5.826-4.293-4.293L91.413,171.8l-5.826-5.826-4.293,4.293,5.826,5.826-5.826,5.826,4.293,4.293,5.826-5.826,5.826,5.826Z" transform="translate(-81.295 -165.975)" fill="#064578"/></g><g transform="translate(33.264 302.409)"><path d="M53.5,196.358l-5.826-5.826,5.826-5.826-4.293-4.293-5.826,5.826-5.826-5.826-4.292,4.293,5.826,5.826-5.826,5.826,4.292,4.293,5.826-5.826,5.826,5.826Z" transform="translate(-33.264 -180.413)" fill="#064578"/></g><g transform="translate(79.101 302.409)"><path d="M69.511,196.358l-5.826-5.826,5.826-5.826-4.293-4.293-5.826,5.826-5.826-5.826-4.293,4.293,5.826,5.826-5.826,5.826,4.293,4.293,5.826-5.826,5.826,5.826Z" transform="translate(-49.274 -180.413)" fill="#064578"/></g><g transform="translate(124.938 302.409)"><path d="M85.521,196.358,79.7,190.532l5.826-5.826-4.293-4.293L75.4,186.239l-5.826-5.826-4.293,4.293,5.826,5.826-5.826,5.826,4.293,4.293,5.826-5.826,5.826,5.826Z" transform="translate(-65.284 -180.413)" fill="#064578"/></g><g transform="translate(170.776 302.409)"><path d="M101.532,196.358l-5.826-5.826,5.826-5.826-4.293-4.293-5.826,5.826-5.826-5.826-4.293,4.293,5.826,5.826-5.826,5.826,4.293,4.293,5.826-5.826,5.826,5.826Z" transform="translate(-81.295 -180.413)" fill="#064578"/></g></g></g></svg>