<?xml version="1.0" encoding="utf-8"?>
<!-- Generator: Adobe Illustrator 24.0.1, SVG Export Plug-In . SVG Version: 6.00 Build 0)  -->
<svg version="1.1" id="Camada_1" xmlns="http://www.w3.org/2000/svg" xmlns:xlink="http://www.w3.org/1999/xlink" x="0px" y="0px"
	 viewBox="0 0 313.4 122.2" style="enable-background:new 0 0 313.4 122.2;" xml:space="preserve">
<style type="text/css">
	.st0{fill-rule:evenodd;clip-rule:evenodd;fill:#004E8B;}
	.st1{fill-rule:evenodd;clip-rule:evenodd;fill:#919191;}
	.st2{fill:#919191;}
</style>
<g>
	<g>
		<g>
			<g>
				<polygon class="st0" points="31.6,43.7 31.6,28.7 46.6,28.7 58.7,55.8 31.6,43.7 				"/>
			</g>
			<g>
				<path class="st0" d="M24,21.1c1.7-1.7,4.3-1.7,6,0c1.7,1.7,1.7,4.3,0,6c-1.7,1.7-4.3,1.7-6,0C22.3,25.4,22.3,22.7,24,21.1
					L24,21.1z"/>
			</g>
			<g>
				<polygon class="st0" points="46.6,93.5 31.6,93.5 31.6,78.5 58.7,66.4 46.6,93.5 				"/>
			</g>
			<g>
				<path class="st0" d="M24,101.2c-1.7-1.7-1.7-4.3,0-6c1.7-1.7,4.3-1.7,6,0c1.7,1.7,1.7,4.3,0,6C28.3,102.8,25.6,102.8,24,101.2
					L24,101.2z"/>
			</g>
		</g>
		<g>
			<g>
				<polygon class="st1" points="63.4,92.3 52.1,107.3 40.9,122.2 52.1,94.8 63.4,67.4 74.7,94.8 85.9,122.2 74.7,107.3 63.4,92.3 
									"/>
			</g>
			<g>
				<path class="st1" d="M63.4,116.6c3.7,0,6.7-3,6.7-6.7c0-3.7-3-6.7-6.7-6.7c-3.7,0-6.7,3-6.7,6.7
					C56.7,113.6,59.7,116.6,63.4,116.6L63.4,116.6z"/>
			</g>
		</g>
		<g>
			<g>
				<polygon class="st1" points="63.4,29.9 52.1,15 40.9,0 52.1,27.4 63.4,54.9 74.7,27.4 85.9,0 74.7,15 63.4,29.9 				"/>
			</g>
			<g>
				<path class="st1" d="M63.4,19.8c3.7,0,6.7-3,6.7-6.7c0-3.7-3-6.7-6.7-6.7c-3.7,0-6.7,3-6.7,6.7C56.7,16.8,59.7,19.8,63.4,19.8
					L63.4,19.8z"/>
			</g>
		</g>
		<g>
			<g>
				<polygon class="st1" points="32.4,61.1 17.4,72.4 2.5,83.6 29.9,72.4 57.3,61.1 29.9,49.9 2.5,38.6 17.4,49.9 32.4,61.1 				"/>
			</g>
			<g>
				<path class="st1" d="M12.8,67.8c3.7,0,6.7-3,6.7-6.7c0-3.7-3-6.7-6.7-6.7c-3.7,0-6.7,3-6.7,6.7C6.1,64.8,9.1,67.8,12.8,67.8
					L12.8,67.8z"/>
			</g>
		</g>
	</g>
	<g>
		<g>
			<defs>
				<path id="SVGID_1_" d="M85.6,82h10.1c0.2,4,1.4,7.2,3.6,9.6c2.2,2.4,5.1,3.6,8.6,3.6c3.9,0,7-1.2,9.3-3.6
					c2.3-2.4,3.5-5.6,3.5-9.6c0-3.5-0.9-6.2-2.6-8.2c-1.7-1.9-5.3-3.7-10.7-5.4c-0.3-0.1-0.8-0.2-1.4-0.4
					c-6.5-1.7-11.2-4.6-14.1-8.6c-1.3-1.7-2.3-3.6-3-5.6c-0.7-2-1-4.1-1-6.3c0-6.7,2-12,5.9-16.2c4-4.1,9.1-6.2,15.5-6.2
					c5.9,0,10.7,1.8,14.4,5.5c3.7,3.7,5.7,8.7,6.1,15.1h-10.5c-0.2-3.1-1.2-5.6-3.1-7.5c-1.9-1.9-4.3-2.9-7.2-2.9
					c-3.1,0-5.6,1.1-7.5,3.2c-1.9,2.1-2.9,4.9-2.9,8.2c0,1.2,0.2,2.3,0.5,3.3c0.4,1,0.9,2,1.7,2.9c1.5,1.8,4.8,3.4,9.8,4.7
					c2.3,0.6,4.1,1.1,5.3,1.5c5.1,1.9,9,4.7,11.7,8.4c2.6,3.7,4,8.1,4,13.2c0,7.5-2.1,13.6-6.4,18.1c-4.3,4.6-9.9,6.9-17,6.9
					c-6.6,0-12-2.2-16.2-6.6C87.8,95,85.7,89.2,85.6,82L85.6,82L85.6,82z"/>
			</defs>
			<use xlink:href="#SVGID_1_"  style="overflow:visible;fill-rule:evenodd;clip-rule:evenodd;fill:#004F88;"/>
			<clipPath id="SVGID_2_">
				<use xlink:href="#SVGID_1_"  style="overflow:visible;"/>
			</clipPath>
		</g>
		<g>
			<defs>
				<path id="SVGID_3_" d="M294.5,104.8h8.4V78.8c0-4.3,0.8-7.4,2.4-9.3c1.6-1.9,4.3-3,8.1-3.3v-8.8c-2.4,0-4.5,0.5-6.2,1.5
					c-1.8,1-3.4,2.5-4.8,4.6v-5.4h-7.9V104.8L294.5,104.8z"/>
			</defs>
			<use xlink:href="#SVGID_3_"  style="overflow:visible;fill-rule:evenodd;clip-rule:evenodd;fill:#004F88;"/>
			<clipPath id="SVGID_4_">
				<use xlink:href="#SVGID_3_"  style="overflow:visible;"/>
			</clipPath>
		</g>
		<g>
			<defs>
				<path id="SVGID_5_" d="M280.6,76.9c-1-3.8-2.8-6.8-5.4-8.9c-2.6-2.1-5.6-3.2-9.2-3.2c-3.7,0-6.9,1.1-9.6,3.2
					c-2.7,2.2-4.6,5.1-5.6,8.9H280.6L280.6,76.9z M250.6,84.4c0.7,3.9,2.5,7.1,5.3,9.5c2.8,2.4,6.1,3.6,10,3.6c2.8,0,5.3-0.7,7.6-2
					c2.3-1.3,4.1-3.2,5.4-5.6h9.4c-2.1,5.2-5.1,9.1-9,11.9c-3.9,2.7-8.3,4.1-13.5,4.1c-3.5,0-6.6-0.6-9.5-1.8
					c-2.8-1.2-5.4-3-7.8-5.5c-2.2-2.3-3.9-4.9-5.1-8c-1.2-3-1.8-6.1-1.8-9.3c0-3.3,0.6-6.4,1.7-9.2c1.1-2.9,2.8-5.5,4.9-7.8
					c2.3-2.5,4.9-4.5,7.8-5.7c2.9-1.3,6.1-1.9,9.5-1.9c4.1,0,7.9,1,11.4,2.9c3.5,1.9,6.4,4.6,8.7,8c1.3,2.1,2.4,4.4,3,7
					c0.7,2.5,1,5.4,1,8.7v1.3H250.6L250.6,84.4z"/>
			</defs>
			<use xlink:href="#SVGID_5_"  style="overflow:visible;fill-rule:evenodd;clip-rule:evenodd;fill:#004F88;"/>
			<clipPath id="SVGID_6_">
				<use xlink:href="#SVGID_5_"  style="overflow:visible;"/>
			</clipPath>
		</g>
		<g>
			<defs>
				<path id="SVGID_7_" d="M197.2,81.8c0,4.3,1.6,8,4.7,11.3c3.2,3.2,6.8,4.8,10.9,4.8c4.5,0,8.3-1.6,11.4-4.8
					c3.1-3.2,4.7-7.1,4.7-11.9c0-4.5-1.6-8.3-4.7-11.4c-3.1-3.1-6.9-4.7-11.3-4.7c-4.3,0-8,1.6-11.1,4.9
					C198.7,73.2,197.2,77.2,197.2,81.8L197.2,81.8z M197.4,43.1h-8.4v61.7h8.5v-5.7l0,0c2.1,2.2,4.5,3.9,7.2,5.1
					c2.6,1.1,5.5,1.7,8.5,1.7c7,0,12.9-2.3,17.5-7c4.6-4.7,6.9-10.5,6.9-17.6c0-3.3-0.6-6.4-1.7-9.3c-1.2-2.9-2.8-5.5-5-7.8
					c-2.3-2.5-4.9-4.3-7.7-5.4c-2.8-1.2-6-1.8-9.5-1.8c-3.2,0-6.1,0.6-8.8,1.7c-2.7,1.1-5.2,2.9-7.4,5.1V43.1L197.4,43.1z"/>
			</defs>
			<use xlink:href="#SVGID_7_"  style="overflow:visible;fill-rule:evenodd;clip-rule:evenodd;fill:#004F88;"/>
			<clipPath id="SVGID_8_">
				<use xlink:href="#SVGID_7_"  style="overflow:visible;"/>
			</clipPath>
		</g>
		<g>
			<defs>
				<path id="SVGID_9_" d="M144.4,81.2c0,4.7,1.6,8.7,4.7,11.9c3.1,3.2,6.9,4.8,11.5,4.8c4.1,0,7.8-1.6,10.9-4.8
					c3.1-3.2,4.7-7,4.7-11.3c0-4.6-1.6-8.5-4.7-11.8c-3.1-3.3-6.8-4.9-11.1-4.9c-4.4,0-8.2,1.5-11.3,4.7
					C146,72.9,144.4,76.7,144.4,81.2L144.4,81.2z M175.8,104.8v-5.7c-2.1,2.2-4.5,3.9-7.2,5.1c-2.6,1.1-5.5,1.7-8.5,1.7
					c-7,0-12.8-2.3-17.5-7c-4.6-4.7-6.9-10.5-6.9-17.6c0-3.3,0.6-6.4,1.7-9.3c1.2-2.9,2.8-5.5,5-7.8c2.3-2.5,4.9-4.3,7.7-5.4
					c2.8-1.2,6-1.8,9.5-1.8c3.2,0,6.1,0.6,8.8,1.7c2.7,1.1,5.1,2.9,7.3,5.1v-5.6h8.5v46.6H175.8L175.8,104.8z"/>
			</defs>
			<use xlink:href="#SVGID_9_"  style="overflow:visible;fill-rule:evenodd;clip-rule:evenodd;fill:#004F88;"/>
			<clipPath id="SVGID_10_">
				<use xlink:href="#SVGID_9_"  style="overflow:visible;"/>
			</clipPath>
		</g>
	</g>
</g>
<g>
	<path class="st2" d="M144.6,32.6c0,0.1,0,0.2,0,0.3c0,0.1,0,0.2,0,0.4c0,1.2-0.3,2.1-0.9,2.6c-0.6,0.6-1.5,0.8-2.8,0.8h-1.5
		c-0.7,0-1.3-0.1-1.8-0.3c-0.5-0.2-0.9-0.4-1.2-0.8c-0.2-0.3-0.4-0.6-0.5-1c-0.1-0.4-0.2-1-0.2-1.7v-0.4v-4c0-1.4,0.3-2.5,1-3.1
		c0.7-0.6,1.7-1,3.1-1h0.8c1.4,0,2.5,0.3,3.1,0.8c0.6,0.5,0.9,1.4,0.9,2.6c0,0.1,0,0.3,0,0.3c0,0.1,0,0.1,0,0.2h-1.7v-0.1
		c0-1-0.2-1.7-0.5-2.1c-0.3-0.4-1-0.6-1.8-0.6h-0.8c-0.9,0-1.5,0.2-1.8,0.6c-0.3,0.4-0.5,1.2-0.5,2.3v4c0,1.4,0.2,2.2,0.5,2.5
		c0.3,0.3,1,0.5,1.9,0.5h0.8c1,0,1.6-0.2,1.9-0.5c0.3-0.3,0.5-1.1,0.5-2.2v-0.3L144.6,32.6L144.6,32.6z"/>
	<polygon class="st2" points="155.5,35.5 155.5,36.7 148.4,36.7 148.4,24.7 155.5,24.7 155.5,25.9 150,25.9 150,29.9 155.1,29.9 
		155.1,31 150,31 150,35.5 155.5,35.5 	"/>
	<polygon class="st2" points="159.2,36.7 159.2,24.7 161.5,24.7 167.4,35.3 167.4,24.7 168.9,24.7 168.9,36.7 166.5,36.7 
		160.7,26.2 160.7,36.7 159.2,36.7 	"/>
	<polygon class="st2" points="175.6,36.7 175.6,25.9 172.2,25.9 172.2,24.7 180.5,24.7 180.5,25.9 177.1,25.9 177.1,36.7 
		175.6,36.7 	"/>
	<path class="st2" d="M185.4,31.9v4.8h-1.6v-12h4.4c1.8,0,3,0.2,3.6,0.6c0.6,0.4,0.9,1.2,0.9,2.3v1.1c0,0.8-0.2,1.4-0.6,1.7
		c-0.4,0.4-1,0.6-1.8,0.7c0.8,0.1,1.3,0.4,1.7,0.8c0.4,0.4,0.5,1,0.5,1.7v2.9H191v-2.4c0-1-0.2-1.6-0.6-1.9
		c-0.4-0.3-1.2-0.5-2.3-0.5H185.4L185.4,31.9z M188,25.8h-2.6v4.9h2.6c1.3,0,2.1-0.1,2.5-0.4c0.4-0.3,0.5-0.7,0.5-1.5v-1.6
		c0-0.6-0.2-1-0.5-1.2C190.2,25.9,189.3,25.8,188,25.8L188,25.8z"/>
	<path class="st2" d="M202.1,25.8h-1c-1,0-1.7,0.2-2,0.6c-0.4,0.4-0.6,1.2-0.6,2.3v4.2c0,1.1,0.2,1.9,0.6,2.3c0.4,0.4,1,0.6,2,0.6h1
		c1,0,1.7-0.2,2-0.6c0.4-0.4,0.6-1.2,0.6-2.3v-4.2c0-1.1-0.2-1.9-0.6-2.3C203.7,26,203.1,25.8,202.1,25.8L202.1,25.8z M202.3,24.6
		c1.4,0,2.5,0.3,3.1,1c0.6,0.6,1,1.7,1,3.1v4.2c0,1.4-0.3,2.5-1,3.1c-0.7,0.6-1.7,0.9-3.1,0.9h-1.3c-1.4,0-2.5-0.3-3.1-0.9
		c-0.6-0.6-1-1.7-1-3.1v-4.2c0-1.4,0.3-2.5,1-3.1c0.7-0.6,1.7-1,3.1-1H202.3L202.3,24.6z"/>
	<path class="st2" d="M217.7,35.6h2.1c0.9,0,1.7-0.1,2.2-0.2c0.5-0.1,0.9-0.3,1.2-0.5c0.3-0.2,0.5-0.5,0.6-0.9
		c0.1-0.4,0.2-0.9,0.2-1.7v-3.2c0-0.8-0.1-1.3-0.2-1.7c-0.1-0.4-0.3-0.7-0.6-0.9c-0.3-0.2-0.7-0.4-1.2-0.5c-0.5-0.1-1.2-0.2-2.2-0.2
		h-2.1V35.6L217.7,35.6z M216.1,36.7v-12h4c2,0,3.5,0.3,4.3,1c0.8,0.6,1.2,1.7,1.2,3.4v3.3c0,1.6-0.4,2.8-1.2,3.4
		c-0.8,0.6-2.2,0.9-4.3,0.9H216.1L216.1,36.7z"/>
	<polygon class="st2" points="236.9,35.5 236.9,36.7 229.8,36.7 229.8,24.7 236.9,24.7 236.9,25.9 231.4,25.9 231.4,29.9 
		236.5,29.9 236.5,31 231.4,31 231.4,35.5 236.9,35.5 	"/>
	<polygon class="st2" points="253.1,35.5 253.1,36.7 246.1,36.7 246.1,24.7 253.1,24.7 253.1,25.9 247.6,25.9 247.6,29.9 
		252.7,29.9 252.7,31 247.6,31 247.6,35.5 253.1,35.5 	"/>
	<polygon class="st2" points="256.8,36.7 256.8,24.7 259.1,24.7 265,35.3 265,24.7 266.5,24.7 266.5,36.7 264.1,36.7 258.4,26.2 
		258.4,36.7 256.8,36.7 	"/>
	<path class="st2" d="M279.5,32.5v1.7c0,0.9-0.3,1.5-0.9,2c-0.6,0.4-1.6,0.6-2.8,0.6h-1.4c-1.4,0-2.4-0.2-3-0.7
		c-0.5-0.5-0.8-1.4-0.8-2.7v-0.6h1.6v1c0,0.7,0.2,1.2,0.5,1.5c0.3,0.3,0.9,0.4,1.7,0.4h1.5c0.8,0,1.3-0.1,1.6-0.3
		c0.3-0.2,0.4-0.6,0.4-1.3v-1c0-0.3,0-0.6,0-0.7c0-0.1-0.1-0.3-0.2-0.4c-0.2-0.3-1.1-0.6-2.7-0.8c-0.3,0-0.6-0.1-0.8-0.1
		c-0.1,0-0.1,0-0.2,0c-1-0.1-1.7-0.3-1.9-0.4c-0.4-0.2-0.7-0.5-0.9-0.8c-0.2-0.3-0.3-0.7-0.3-1.2v-1.5c0-0.9,0.3-1.5,0.9-2
		c0.6-0.4,1.6-0.6,2.8-0.6h1.1c1.4,0,2.3,0.2,2.9,0.7c0.6,0.5,0.9,1.3,0.9,2.4V28h-1.6v-0.4c0-0.7-0.2-1.2-0.5-1.4
		c-0.3-0.3-0.9-0.4-1.7-0.4h-1.3c-0.7,0-1.3,0.1-1.6,0.3c-0.3,0.2-0.4,0.6-0.4,1.3v1.3c0,0.7,0.7,1.1,2.2,1.2c0.3,0,0.6,0.1,0.8,0.1
		c1.7,0.2,2.7,0.5,3.3,0.8C279.3,31.1,279.5,31.7,279.5,32.5L279.5,32.5z"/>
	<polygon class="st2" points="283.8,36.7 283.8,24.7 285.3,24.7 285.3,36.7 283.8,36.7 	"/>
	<polygon class="st2" points="289.9,36.7 289.9,24.7 292.2,24.7 298,35.3 298,24.7 299.6,24.7 299.6,36.7 297.2,36.7 291.4,26.2 
		291.4,36.7 289.9,36.7 	"/>
	<path class="st2" d="M309.1,25.8h-1c-1,0-1.7,0.2-2,0.6c-0.4,0.4-0.6,1.2-0.6,2.3v4.2c0,1.1,0.2,1.9,0.6,2.3c0.4,0.4,1,0.6,2,0.6h1
		c1,0,1.7-0.2,2-0.6c0.4-0.4,0.6-1.2,0.6-2.3v-4.2c0-1.1-0.2-1.9-0.6-2.3C310.8,26,310.1,25.8,309.1,25.8L309.1,25.8z M309.3,24.6
		c1.4,0,2.5,0.3,3.1,1c0.6,0.6,1,1.7,1,3.1v4.2c0,1.4-0.3,2.5-1,3.1c-0.7,0.6-1.7,0.9-3.1,0.9H308c-1.4,0-2.5-0.3-3.1-0.9
		c-0.6-0.6-1-1.7-1-3.1v-4.2c0-1.4,0.3-2.5,1-3.1c0.7-0.6,1.7-1,3.1-1H309.3L309.3,24.6z"/>
</g>
</svg>
