<svg xmlns="http://www.w3.org/2000/svg" width="781.292" height="510.247" viewBox="0 0 781.292 510.247"><g transform="translate(-988.708 -870.753)"><g transform="translate(1270 881)" fill="none" stroke="#fd7c23" stroke-width="60"><circle cx="250" cy="250" r="250" stroke="none"/><circle cx="250" cy="250" r="220" fill="none"/></g><g transform="translate(994.391 1969.984) rotate(-90)"><g transform="translate(843.997 193.4)"><path d="M850.783,80.82a3.393,3.393,0,1,1-3.394-3.394A3.393,3.393,0,0,1,850.783,80.82Z" transform="translate(-843.997 -77.426)" fill="#707070"/></g><g transform="translate(871.6 193.401)"><path d="M859.266,84.2a3.393,3.393,0,1,1,3.023-3.727A3.394,3.394,0,0,1,859.266,84.2Z" transform="translate(-855.52 -77.426)" fill="#707070"/></g><g transform="translate(899.205 193.401)"><path d="M870.79,84.2a3.393,3.393,0,1,1,3.025-3.727A3.4,3.4,0,0,1,870.79,84.2Z" transform="translate(-867.044 -77.426)" fill="#707070"/></g><g transform="translate(954.418 193.401)"><path d="M893.839,84.2a3.394,3.394,0,1,1,3.023-3.727A3.393,3.393,0,0,1,893.839,84.2Z" transform="translate(-890.093 -77.426)" fill="#707070"/></g><g transform="translate(926.813 193.401)"><path d="M882.313,84.2a3.393,3.393,0,1,1,3.026-3.727A3.392,3.392,0,0,1,882.313,84.2Z" transform="translate(-878.569 -77.426)" fill="#707070"/></g><g transform="translate(843.997 217.508)"><path d="M850.783,90.884a3.393,3.393,0,1,1-3.394-3.394A3.393,3.393,0,0,1,850.783,90.884Z" transform="translate(-843.997 -87.49)" fill="#707070"/></g><g transform="translate(871.6 217.509)"><path d="M859.266,94.259a3.393,3.393,0,1,1,3.023-3.727A3.394,3.394,0,0,1,859.266,94.259Z" transform="translate(-855.52 -87.49)" fill="#707070"/></g><g transform="translate(899.205 217.509)"><path d="M870.79,94.259a3.393,3.393,0,1,1,3.025-3.727A3.4,3.4,0,0,1,870.79,94.259Z" transform="translate(-867.044 -87.49)" fill="#707070"/></g><g transform="translate(954.418 217.509)"><path d="M893.839,94.259a3.394,3.394,0,1,1,3.023-3.727A3.393,3.393,0,0,1,893.839,94.259Z" transform="translate(-890.093 -87.49)" fill="#707070"/></g><g transform="translate(926.813 217.509)"><path d="M882.313,94.259a3.393,3.393,0,1,1,3.026-3.727A3.392,3.392,0,0,1,882.313,94.259Z" transform="translate(-878.569 -87.49)" fill="#707070"/></g><g transform="translate(843.997 243.173)"><path d="M850.783,101.6a3.393,3.393,0,1,1-3.394-3.394A3.393,3.393,0,0,1,850.783,101.6Z" transform="translate(-843.997 -98.204)" fill="#707070"/></g><g transform="translate(871.6 243.173)"><path d="M859.266,104.973a3.393,3.393,0,1,1,3.023-3.727A3.394,3.394,0,0,1,859.266,104.973Z" transform="translate(-855.52 -98.204)" fill="#707070"/></g><g transform="translate(899.205 243.173)"><path d="M870.79,104.973a3.393,3.393,0,1,1,3.025-3.727A3.4,3.4,0,0,1,870.79,104.973Z" transform="translate(-867.044 -98.204)" fill="#707070"/></g><g transform="translate(954.418 243.173)"><path d="M893.839,104.973a3.394,3.394,0,1,1,3.023-3.727A3.393,3.393,0,0,1,893.839,104.973Z" transform="translate(-890.093 -98.204)" fill="#707070"/></g><g transform="translate(926.813 243.173)"><path d="M882.313,104.973a3.393,3.393,0,1,1,3.026-3.727A3.392,3.392,0,0,1,882.313,104.973Z" transform="translate(-878.569 -98.204)" fill="#707070"/></g><g transform="translate(843.997 267.278)"><path d="M850.783,111.661a3.393,3.393,0,1,1-3.394-3.394A3.393,3.393,0,0,1,850.783,111.661Z" transform="translate(-843.997 -108.267)" fill="#707070"/></g><g transform="translate(871.6 267.279)"><path d="M859.266,115.036a3.393,3.393,0,1,1,3.023-3.727A3.394,3.394,0,0,1,859.266,115.036Z" transform="translate(-855.52 -108.267)" fill="#707070"/></g><g transform="translate(899.205 267.279)"><path d="M870.79,115.036a3.393,3.393,0,1,1,3.025-3.727A3.4,3.4,0,0,1,870.79,115.036Z" transform="translate(-867.044 -108.267)" fill="#707070"/></g><g transform="translate(954.418 267.279)"><path d="M893.839,115.036a3.394,3.394,0,1,1,3.023-3.727A3.393,3.393,0,0,1,893.839,115.036Z" transform="translate(-890.093 -108.267)" fill="#707070"/></g><g transform="translate(926.813 267.279)"><path d="M882.313,115.036a3.393,3.393,0,1,1,3.026-3.727A3.392,3.392,0,0,1,882.313,115.036Z" transform="translate(-878.569 -108.267)" fill="#707070"/></g><g transform="translate(843.997 292.943)"><path d="M850.783,122.375a3.393,3.393,0,1,1-3.394-3.394A3.395,3.395,0,0,1,850.783,122.375Z" transform="translate(-843.997 -118.981)" fill="#707070"/></g><g transform="translate(871.6 292.944)"><path d="M859.266,125.75a3.393,3.393,0,1,1,3.023-3.727A3.394,3.394,0,0,1,859.266,125.75Z" transform="translate(-855.52 -118.981)" fill="#707070"/></g><g transform="translate(899.205 292.944)"><path d="M870.79,125.75a3.393,3.393,0,1,1,3.025-3.727A3.4,3.4,0,0,1,870.79,125.75Z" transform="translate(-867.044 -118.981)" fill="#707070"/></g><g transform="translate(954.418 292.944)"><path d="M893.839,125.75a3.394,3.394,0,1,1,3.023-3.727A3.393,3.393,0,0,1,893.839,125.75Z" transform="translate(-890.093 -118.981)" fill="#707070"/></g><g transform="translate(926.813 292.944)"><path d="M882.313,125.75a3.393,3.393,0,1,1,3.026-3.727A3.392,3.392,0,0,1,882.313,125.75Z" transform="translate(-878.569 -118.981)" fill="#707070"/></g><g transform="translate(843.997 317.051)"><path d="M850.783,132.437a3.393,3.393,0,1,1-3.394-3.392A3.393,3.393,0,0,1,850.783,132.437Z" transform="translate(-843.997 -129.045)" fill="#707070"/></g><g transform="translate(871.6 317.049)"><path d="M859.266,135.816a3.395,3.395,0,1,1,3.023-3.727A3.394,3.394,0,0,1,859.266,135.816Z" transform="translate(-855.52 -129.044)" fill="#707070"/></g><g transform="translate(899.205 317.049)"><path d="M870.79,135.816a3.395,3.395,0,1,1,3.025-3.727A3.4,3.4,0,0,1,870.79,135.816Z" transform="translate(-867.044 -129.044)" fill="#707070"/></g><g transform="translate(954.418 317.049)"><path d="M893.839,135.816a3.395,3.395,0,1,1,3.023-3.727A3.393,3.393,0,0,1,893.839,135.816Z" transform="translate(-890.093 -129.044)" fill="#707070"/></g><g transform="translate(926.813 317.049)"><path d="M882.313,135.816a3.395,3.395,0,1,1,3.026-3.727A3.392,3.392,0,0,1,882.313,135.816Z" transform="translate(-878.569 -129.044)" fill="#707070"/></g><g transform="translate(843.997 342.716)"><path d="M850.783,143.151a3.393,3.393,0,1,1-3.394-3.392A3.393,3.393,0,0,1,850.783,143.151Z" transform="translate(-843.997 -139.759)" fill="#707070"/></g><g transform="translate(871.6 342.714)"><path d="M859.266,146.527a3.393,3.393,0,1,1,3.023-3.727A3.392,3.392,0,0,1,859.266,146.527Z" transform="translate(-855.52 -139.758)" fill="#707070"/></g><g transform="translate(899.205 342.714)"><path d="M870.79,146.527a3.393,3.393,0,1,1,3.025-3.727A3.394,3.394,0,0,1,870.79,146.527Z" transform="translate(-867.044 -139.758)" fill="#707070"/></g><g transform="translate(954.418 342.714)"><path d="M893.839,146.527a3.394,3.394,0,1,1,3.023-3.727A3.391,3.391,0,0,1,893.839,146.527Z" transform="translate(-890.093 -139.758)" fill="#707070"/></g><g transform="translate(926.813 342.714)"><path d="M882.313,146.527a3.393,3.393,0,1,1,3.026-3.727A3.39,3.39,0,0,1,882.313,146.527Z" transform="translate(-878.569 -139.758)" fill="#707070"/></g><g transform="translate(843.997 366.821)"><path d="M850.783,153.216a3.393,3.393,0,1,1-3.394-3.394A3.395,3.395,0,0,1,850.783,153.216Z" transform="translate(-843.997 -149.822)" fill="#707070"/></g><g transform="translate(871.6 366.822)"><path d="M859.266,156.591a3.393,3.393,0,1,1,3.023-3.727A3.394,3.394,0,0,1,859.266,156.591Z" transform="translate(-855.52 -149.822)" fill="#707070"/></g><g transform="translate(899.205 366.822)"><path d="M870.79,156.591a3.393,3.393,0,1,1,3.025-3.727A3.4,3.4,0,0,1,870.79,156.591Z" transform="translate(-867.044 -149.822)" fill="#707070"/></g><g transform="translate(954.418 366.822)"><path d="M893.839,156.591a3.394,3.394,0,1,1,3.023-3.727A3.393,3.393,0,0,1,893.839,156.591Z" transform="translate(-890.093 -149.822)" fill="#707070"/></g><g transform="translate(926.813 366.822)"><path d="M882.313,156.591a3.393,3.393,0,1,1,3.026-3.727A3.392,3.392,0,0,1,882.313,156.591Z" transform="translate(-878.569 -149.822)" fill="#707070"/></g><g transform="translate(843.997 -5.683)"><path d="M850.783-2.289A3.393,3.393,0,0,1,847.389,1.1,3.392,3.392,0,0,1,844-2.289a3.393,3.393,0,0,1,3.392-3.394A3.393,3.393,0,0,1,850.783-2.289Z" transform="translate(-843.997 5.683)" fill="#707070"/></g><g transform="translate(871.6 -5.683)"><path d="M859.266,1.086a3.394,3.394,0,0,1-3.727-3.025,3.392,3.392,0,0,1,3.025-3.725,3.388,3.388,0,0,1,3.725,3.023A3.394,3.394,0,0,1,859.266,1.086Z" transform="translate(-855.52 5.683)" fill="#707070"/></g><g transform="translate(899.205 -5.683)"><path d="M870.79,1.086a3.4,3.4,0,0,1-3.727-3.025,3.392,3.392,0,0,1,3.026-3.725,3.392,3.392,0,0,1,3.727,3.023A3.4,3.4,0,0,1,870.79,1.086Z" transform="translate(-867.044 5.683)" fill="#707070"/></g><g transform="translate(954.418 -5.683)"><path d="M893.839,1.086a3.393,3.393,0,0,1-3.727-3.025,3.392,3.392,0,0,1,3.023-3.725,3.391,3.391,0,0,1,3.727,3.023A3.4,3.4,0,0,1,893.839,1.086Z" transform="translate(-890.093 5.683)" fill="#707070"/></g><g transform="translate(926.813 -5.683)"><path d="M882.313,1.086a3.392,3.392,0,0,1-3.725-3.025,3.39,3.39,0,0,1,3.023-3.725,3.392,3.392,0,0,1,3.727,3.023A3.4,3.4,0,0,1,882.313,1.086Z" transform="translate(-878.569 5.683)" fill="#707070"/></g><g transform="translate(843.997 18.422)"><path d="M850.783,7.774a3.393,3.393,0,1,1-3.394-3.394A3.395,3.395,0,0,1,850.783,7.774Z" transform="translate(-843.997 -4.38)" fill="#707070"/></g><g transform="translate(871.6 18.423)"><path d="M859.266,11.149a3.393,3.393,0,1,1,3.023-3.727A3.394,3.394,0,0,1,859.266,11.149Z" transform="translate(-855.52 -4.38)" fill="#707070"/></g><g transform="translate(899.205 18.423)"><path d="M870.79,11.149a3.393,3.393,0,1,1,3.025-3.727A3.4,3.4,0,0,1,870.79,11.149Z" transform="translate(-867.044 -4.38)" fill="#707070"/></g><g transform="translate(954.418 18.423)"><path d="M893.839,11.149a3.394,3.394,0,1,1,3.023-3.727A3.393,3.393,0,0,1,893.839,11.149Z" transform="translate(-890.093 -4.38)" fill="#707070"/></g><g transform="translate(926.813 18.423)"><path d="M882.313,11.149a3.393,3.393,0,1,1,3.026-3.727A3.392,3.392,0,0,1,882.313,11.149Z" transform="translate(-878.569 -4.38)" fill="#707070"/></g><g transform="translate(843.997 44.087)"><path d="M850.783,18.488a3.393,3.393,0,1,1-3.394-3.394A3.395,3.395,0,0,1,850.783,18.488Z" transform="translate(-843.997 -15.094)" fill="#707070"/></g><g transform="translate(871.6 44.088)"><path d="M859.266,21.863a3.393,3.393,0,1,1,3.023-3.727A3.394,3.394,0,0,1,859.266,21.863Z" transform="translate(-855.52 -15.094)" fill="#707070"/></g><g transform="translate(899.205 44.088)"><path d="M870.79,21.863a3.393,3.393,0,1,1,3.025-3.727A3.4,3.4,0,0,1,870.79,21.863Z" transform="translate(-867.044 -15.094)" fill="#707070"/></g><g transform="translate(954.418 44.088)"><path d="M893.839,21.863a3.394,3.394,0,1,1,3.023-3.727A3.393,3.393,0,0,1,893.839,21.863Z" transform="translate(-890.093 -15.094)" fill="#707070"/></g><g transform="translate(926.813 44.088)"><path d="M882.313,21.863a3.393,3.393,0,1,1,3.026-3.727A3.392,3.392,0,0,1,882.313,21.863Z" transform="translate(-878.569 -15.094)" fill="#707070"/></g><g transform="translate(843.997 68.195)"><path d="M850.783,28.552a3.393,3.393,0,1,1-3.394-3.394A3.393,3.393,0,0,1,850.783,28.552Z" transform="translate(-843.997 -25.158)" fill="#707070"/></g><g transform="translate(871.6 68.193)"><path d="M859.266,31.929a3.395,3.395,0,1,1,3.023-3.727A3.394,3.394,0,0,1,859.266,31.929Z" transform="translate(-855.52 -25.157)" fill="#707070"/></g><g transform="translate(899.205 68.193)"><path d="M870.79,31.929a3.395,3.395,0,1,1,3.025-3.727A3.4,3.4,0,0,1,870.79,31.929Z" transform="translate(-867.044 -25.157)" fill="#707070"/></g><g transform="translate(954.418 68.193)"><path d="M893.839,31.929a3.395,3.395,0,1,1,3.023-3.727A3.393,3.393,0,0,1,893.839,31.929Z" transform="translate(-890.093 -25.157)" fill="#707070"/></g><g transform="translate(926.813 68.193)"><path d="M882.313,31.929a3.395,3.395,0,1,1,3.026-3.727A3.392,3.392,0,0,1,882.313,31.929Z" transform="translate(-878.569 -25.157)" fill="#707070"/></g><g transform="translate(843.997 93.86)"><path d="M850.783,39.264a3.393,3.393,0,1,1-3.394-3.392A3.393,3.393,0,0,1,850.783,39.264Z" transform="translate(-843.997 -35.872)" fill="#707070"/></g><g transform="translate(871.6 93.858)"><path d="M859.266,42.64a3.393,3.393,0,1,1,3.023-3.727A3.394,3.394,0,0,1,859.266,42.64Z" transform="translate(-855.52 -35.871)" fill="#707070"/></g><g transform="translate(899.205 93.858)"><path d="M870.79,42.64a3.393,3.393,0,1,1,3.025-3.727A3.4,3.4,0,0,1,870.79,42.64Z" transform="translate(-867.044 -35.871)" fill="#707070"/></g><g transform="translate(954.418 93.858)"><path d="M893.839,42.64a3.394,3.394,0,1,1,3.023-3.727A3.393,3.393,0,0,1,893.839,42.64Z" transform="translate(-890.093 -35.871)" fill="#707070"/></g><g transform="translate(926.813 93.858)"><path d="M882.313,42.64a3.393,3.393,0,1,1,3.026-3.727A3.392,3.392,0,0,1,882.313,42.64Z" transform="translate(-878.569 -35.871)" fill="#707070"/></g><g transform="translate(843.997 117.965)"><path d="M850.783,49.329a3.393,3.393,0,1,1-3.394-3.394A3.395,3.395,0,0,1,850.783,49.329Z" transform="translate(-843.997 -45.935)" fill="#707070"/></g><g transform="translate(871.6 117.966)"><path d="M859.266,52.7a3.393,3.393,0,1,1,3.023-3.727A3.394,3.394,0,0,1,859.266,52.7Z" transform="translate(-855.52 -45.935)" fill="#707070"/></g><g transform="translate(899.205 117.966)"><path d="M870.79,52.7a3.393,3.393,0,1,1,3.025-3.727A3.4,3.4,0,0,1,870.79,52.7Z" transform="translate(-867.044 -45.935)" fill="#707070"/></g><g transform="translate(954.418 117.966)"><path d="M893.839,52.7a3.394,3.394,0,1,1,3.023-3.727A3.393,3.393,0,0,1,893.839,52.7Z" transform="translate(-890.093 -45.935)" fill="#707070"/></g><g transform="translate(926.813 117.966)"><path d="M882.313,52.7a3.393,3.393,0,1,1,3.026-3.727A3.392,3.392,0,0,1,882.313,52.7Z" transform="translate(-878.569 -45.935)" fill="#707070"/></g><g transform="translate(843.997 143.63)"><path d="M850.783,60.043a3.393,3.393,0,1,1-3.394-3.394A3.393,3.393,0,0,1,850.783,60.043Z" transform="translate(-843.997 -56.649)" fill="#707070"/></g><g transform="translate(871.6 143.631)"><path d="M859.266,63.418a3.393,3.393,0,1,1,3.023-3.727A3.394,3.394,0,0,1,859.266,63.418Z" transform="translate(-855.52 -56.649)" fill="#707070"/></g><g transform="translate(899.205 143.631)"><path d="M870.79,63.418a3.393,3.393,0,1,1,3.025-3.727A3.4,3.4,0,0,1,870.79,63.418Z" transform="translate(-867.044 -56.649)" fill="#707070"/></g><g transform="translate(954.418 143.631)"><path d="M893.839,63.418a3.394,3.394,0,1,1,3.023-3.727A3.393,3.393,0,0,1,893.839,63.418Z" transform="translate(-890.093 -56.649)" fill="#707070"/></g><g transform="translate(926.813 143.631)"><path d="M882.313,63.418a3.393,3.393,0,1,1,3.026-3.727A3.392,3.392,0,0,1,882.313,63.418Z" transform="translate(-878.569 -56.649)" fill="#707070"/></g><g transform="translate(843.997 167.738)"><path d="M850.783,70.1a3.393,3.393,0,1,1-3.394-3.392A3.393,3.393,0,0,1,850.783,70.1Z" transform="translate(-843.997 -66.713)" fill="#707070"/></g><g transform="translate(871.6 167.736)"><path d="M859.266,73.481a3.393,3.393,0,1,1,3.023-3.727A3.394,3.394,0,0,1,859.266,73.481Z" transform="translate(-855.52 -66.712)" fill="#707070"/></g><g transform="translate(899.205 167.736)"><path d="M870.79,73.481a3.393,3.393,0,1,1,3.025-3.727A3.4,3.4,0,0,1,870.79,73.481Z" transform="translate(-867.044 -66.712)" fill="#707070"/></g><g transform="translate(954.418 167.736)"><path d="M893.839,73.481a3.394,3.394,0,1,1,3.023-3.727A3.393,3.393,0,0,1,893.839,73.481Z" transform="translate(-890.093 -66.712)" fill="#707070"/></g><g transform="translate(926.813 167.736)"><path d="M882.313,73.481a3.393,3.393,0,1,1,3.026-3.727A3.392,3.392,0,0,1,882.313,73.481Z" transform="translate(-878.569 -66.712)" fill="#707070"/></g><g transform="translate(982.023 193.4)"><path d="M908.4,80.82a3.393,3.393,0,1,1-3.392-3.394A3.393,3.393,0,0,1,908.4,80.82Z" transform="translate(-901.617 -77.426)" fill="#707070"/></g><g transform="translate(1009.628 193.401)"><path d="M916.887,84.2a3.394,3.394,0,1,1,3.023-3.727A3.393,3.393,0,0,1,916.887,84.2Z" transform="translate(-913.141 -77.426)" fill="#707070"/></g><g transform="translate(1037.233 193.401)"><path d="M928.411,84.2a3.394,3.394,0,1,1,3.023-3.727A3.393,3.393,0,0,1,928.411,84.2Z" transform="translate(-924.665 -77.426)" fill="#707070"/></g><g transform="translate(1092.444 193.401)"><path d="M951.459,84.2a3.394,3.394,0,1,1,3.023-3.727A3.394,3.394,0,0,1,951.459,84.2Z" transform="translate(-947.713 -77.426)" fill="#707070"/></g><g transform="translate(1064.839 193.401)"><path d="M939.935,84.2a3.394,3.394,0,1,1,3.023-3.727A3.394,3.394,0,0,1,939.935,84.2Z" transform="translate(-936.189 -77.426)" fill="#707070"/></g><g transform="translate(982.023 217.508)"><path d="M908.4,90.884a3.393,3.393,0,1,1-3.392-3.394A3.392,3.392,0,0,1,908.4,90.884Z" transform="translate(-901.617 -87.49)" fill="#707070"/></g><g transform="translate(1009.628 217.509)"><path d="M916.887,94.259a3.394,3.394,0,1,1,3.023-3.727A3.393,3.393,0,0,1,916.887,94.259Z" transform="translate(-913.141 -87.49)" fill="#707070"/></g><g transform="translate(1037.233 217.509)"><path d="M928.411,94.259a3.394,3.394,0,1,1,3.023-3.727A3.393,3.393,0,0,1,928.411,94.259Z" transform="translate(-924.665 -87.49)" fill="#707070"/></g><g transform="translate(1092.444 217.509)"><path d="M951.459,94.259a3.394,3.394,0,1,1,3.023-3.727A3.394,3.394,0,0,1,951.459,94.259Z" transform="translate(-947.713 -87.49)" fill="#707070"/></g><g transform="translate(1064.839 217.509)"><path d="M939.935,94.259a3.394,3.394,0,1,1,3.023-3.727A3.394,3.394,0,0,1,939.935,94.259Z" transform="translate(-936.189 -87.49)" fill="#707070"/></g><g transform="translate(982.023 243.173)"><path d="M908.4,101.6a3.393,3.393,0,1,1-3.392-3.394A3.392,3.392,0,0,1,908.4,101.6Z" transform="translate(-901.617 -98.204)" fill="#707070"/></g><g transform="translate(1009.628 243.173)"><path d="M916.887,104.973a3.394,3.394,0,1,1,3.023-3.727A3.393,3.393,0,0,1,916.887,104.973Z" transform="translate(-913.141 -98.204)" fill="#707070"/></g><g transform="translate(1037.233 243.173)"><path d="M928.411,104.973a3.394,3.394,0,1,1,3.023-3.727A3.393,3.393,0,0,1,928.411,104.973Z" transform="translate(-924.665 -98.204)" fill="#707070"/></g><g transform="translate(1092.444 243.173)"><path d="M951.459,104.973a3.394,3.394,0,1,1,3.023-3.727A3.394,3.394,0,0,1,951.459,104.973Z" transform="translate(-947.713 -98.204)" fill="#707070"/></g><g transform="translate(1064.839 243.173)"><path d="M939.935,104.973a3.394,3.394,0,1,1,3.023-3.727A3.394,3.394,0,0,1,939.935,104.973Z" transform="translate(-936.189 -98.204)" fill="#707070"/></g><g transform="translate(982.023 267.278)"><path d="M908.4,111.661a3.393,3.393,0,1,1-3.392-3.394A3.393,3.393,0,0,1,908.4,111.661Z" transform="translate(-901.617 -108.267)" fill="#707070"/></g><g transform="translate(1009.628 267.279)"><path d="M916.887,115.036a3.394,3.394,0,1,1,3.023-3.727A3.393,3.393,0,0,1,916.887,115.036Z" transform="translate(-913.141 -108.267)" fill="#707070"/></g><g transform="translate(1037.233 267.279)"><path d="M928.411,115.036a3.394,3.394,0,1,1,3.023-3.727A3.393,3.393,0,0,1,928.411,115.036Z" transform="translate(-924.665 -108.267)" fill="#707070"/></g><g transform="translate(1092.444 267.279)"><path d="M951.459,115.036a3.394,3.394,0,1,1,3.023-3.727A3.394,3.394,0,0,1,951.459,115.036Z" transform="translate(-947.713 -108.267)" fill="#707070"/></g><g transform="translate(1064.839 267.279)"><path d="M939.935,115.036a3.394,3.394,0,1,1,3.023-3.727A3.394,3.394,0,0,1,939.935,115.036Z" transform="translate(-936.189 -108.267)" fill="#707070"/></g><g transform="translate(982.023 292.943)"><path d="M908.4,122.375a3.393,3.393,0,1,1-3.392-3.394A3.394,3.394,0,0,1,908.4,122.375Z" transform="translate(-901.617 -118.981)" fill="#707070"/></g><g transform="translate(1009.628 292.944)"><path d="M916.887,125.75a3.394,3.394,0,1,1,3.023-3.727A3.393,3.393,0,0,1,916.887,125.75Z" transform="translate(-913.141 -118.981)" fill="#707070"/></g><g transform="translate(1037.233 292.944)"><path d="M928.411,125.75a3.394,3.394,0,1,1,3.023-3.727A3.393,3.393,0,0,1,928.411,125.75Z" transform="translate(-924.665 -118.981)" fill="#707070"/></g><g transform="translate(1092.444 292.944)"><path d="M951.459,125.75a3.394,3.394,0,1,1,3.023-3.727A3.394,3.394,0,0,1,951.459,125.75Z" transform="translate(-947.713 -118.981)" fill="#707070"/></g><g transform="translate(1064.839 292.944)"><path d="M939.935,125.75a3.394,3.394,0,1,1,3.023-3.727A3.394,3.394,0,0,1,939.935,125.75Z" transform="translate(-936.189 -118.981)" fill="#707070"/></g><g transform="translate(982.023 317.051)"><path d="M908.4,132.437a3.393,3.393,0,1,1-3.392-3.392A3.393,3.393,0,0,1,908.4,132.437Z" transform="translate(-901.617 -129.045)" fill="#707070"/></g><g transform="translate(1009.628 317.049)"><path d="M916.887,135.816a3.395,3.395,0,1,1,3.023-3.727A3.393,3.393,0,0,1,916.887,135.816Z" transform="translate(-913.141 -129.044)" fill="#707070"/></g><g transform="translate(1037.233 317.049)"><path d="M928.411,135.816a3.395,3.395,0,1,1,3.023-3.727A3.393,3.393,0,0,1,928.411,135.816Z" transform="translate(-924.665 -129.044)" fill="#707070"/></g><g transform="translate(1092.444 317.049)"><path d="M951.459,135.816a3.395,3.395,0,1,1,3.023-3.727A3.394,3.394,0,0,1,951.459,135.816Z" transform="translate(-947.713 -129.044)" fill="#707070"/></g><g transform="translate(1064.839 317.049)"><path d="M939.935,135.816a3.395,3.395,0,1,1,3.023-3.727A3.394,3.394,0,0,1,939.935,135.816Z" transform="translate(-936.189 -129.044)" fill="#707070"/></g><g transform="translate(982.023 342.716)"><path d="M908.4,143.151a3.393,3.393,0,1,1-3.392-3.392A3.393,3.393,0,0,1,908.4,143.151Z" transform="translate(-901.617 -139.759)" fill="#707070"/></g><g transform="translate(1009.628 342.714)"><path d="M916.887,146.527a3.394,3.394,0,1,1,3.023-3.727A3.391,3.391,0,0,1,916.887,146.527Z" transform="translate(-913.141 -139.758)" fill="#707070"/></g><g transform="translate(1037.233 342.714)"><path d="M928.411,146.527a3.394,3.394,0,1,1,3.023-3.727A3.391,3.391,0,0,1,928.411,146.527Z" transform="translate(-924.665 -139.758)" fill="#707070"/></g><g transform="translate(1092.444 342.714)"><path d="M951.459,146.527a3.394,3.394,0,1,1,3.023-3.727A3.392,3.392,0,0,1,951.459,146.527Z" transform="translate(-947.713 -139.758)" fill="#707070"/></g><g transform="translate(1064.839 342.714)"><path d="M939.935,146.527a3.394,3.394,0,1,1,3.023-3.727A3.392,3.392,0,0,1,939.935,146.527Z" transform="translate(-936.189 -139.758)" fill="#707070"/></g><g transform="translate(982.023 366.821)"><path d="M908.4,153.216a3.393,3.393,0,1,1-3.392-3.394A3.394,3.394,0,0,1,908.4,153.216Z" transform="translate(-901.617 -149.822)" fill="#707070"/></g><g transform="translate(1009.628 366.822)"><path d="M916.887,156.591a3.394,3.394,0,1,1,3.023-3.727A3.393,3.393,0,0,1,916.887,156.591Z" transform="translate(-913.141 -149.822)" fill="#707070"/></g><g transform="translate(1037.233 366.822)"><path d="M928.411,156.591a3.394,3.394,0,1,1,3.023-3.727A3.393,3.393,0,0,1,928.411,156.591Z" transform="translate(-924.665 -149.822)" fill="#707070"/></g><g transform="translate(1092.444 366.822)"><path d="M951.459,156.591a3.394,3.394,0,1,1,3.023-3.727A3.394,3.394,0,0,1,951.459,156.591Z" transform="translate(-947.713 -149.822)" fill="#707070"/></g><g transform="translate(1064.839 366.822)"><path d="M939.935,156.591a3.394,3.394,0,1,1,3.023-3.727A3.394,3.394,0,0,1,939.935,156.591Z" transform="translate(-936.189 -149.822)" fill="#707070"/></g><g transform="translate(982.023 -5.683)"><path d="M908.4-2.289A3.392,3.392,0,0,1,905.011,1.1a3.392,3.392,0,0,1-3.394-3.392,3.393,3.393,0,0,1,3.394-3.394A3.393,3.393,0,0,1,908.4-2.289Z" transform="translate(-901.617 5.683)" fill="#707070"/></g><g transform="translate(1009.628 -5.683)"><path d="M916.887,1.086a3.393,3.393,0,0,1-3.727-3.025,3.392,3.392,0,0,1,3.023-3.725,3.391,3.391,0,0,1,3.727,3.023A3.4,3.4,0,0,1,916.887,1.086Z" transform="translate(-913.141 5.683)" fill="#707070"/></g><g transform="translate(1037.233 -5.683)"><path d="M928.411,1.086a3.393,3.393,0,0,1-3.727-3.025,3.392,3.392,0,0,1,3.023-3.725,3.391,3.391,0,0,1,3.727,3.023A3.4,3.4,0,0,1,928.411,1.086Z" transform="translate(-924.665 5.683)" fill="#707070"/></g><g transform="translate(1092.444 -5.683)"><path d="M951.459,1.086a3.394,3.394,0,0,1-3.727-3.025,3.392,3.392,0,0,1,3.023-3.725,3.391,3.391,0,0,1,3.727,3.023A3.4,3.4,0,0,1,951.459,1.086Z" transform="translate(-947.713 5.683)" fill="#707070"/></g><g transform="translate(1064.839 -5.683)"><path d="M939.935,1.086a3.394,3.394,0,0,1-3.727-3.025,3.392,3.392,0,0,1,3.023-3.725,3.391,3.391,0,0,1,3.727,3.023A3.4,3.4,0,0,1,939.935,1.086Z" transform="translate(-936.189 5.683)" fill="#707070"/></g><g transform="translate(982.023 18.422)"><path d="M908.4,7.774a3.393,3.393,0,1,1-3.392-3.394A3.394,3.394,0,0,1,908.4,7.774Z" transform="translate(-901.617 -4.38)" fill="#707070"/></g><g transform="translate(1009.628 18.423)"><path d="M916.887,11.149a3.394,3.394,0,1,1,3.023-3.727A3.393,3.393,0,0,1,916.887,11.149Z" transform="translate(-913.141 -4.38)" fill="#707070"/></g><g transform="translate(1037.233 18.423)"><path d="M928.411,11.149a3.394,3.394,0,1,1,3.023-3.727A3.393,3.393,0,0,1,928.411,11.149Z" transform="translate(-924.665 -4.38)" fill="#707070"/></g><g transform="translate(1092.444 18.423)"><path d="M951.459,11.149a3.394,3.394,0,1,1,3.023-3.727A3.394,3.394,0,0,1,951.459,11.149Z" transform="translate(-947.713 -4.38)" fill="#707070"/></g><g transform="translate(1064.839 18.423)"><path d="M939.935,11.149a3.394,3.394,0,1,1,3.023-3.727A3.394,3.394,0,0,1,939.935,11.149Z" transform="translate(-936.189 -4.38)" fill="#707070"/></g><g transform="translate(982.023 44.087)"><path d="M908.4,18.488a3.393,3.393,0,1,1-3.392-3.394A3.394,3.394,0,0,1,908.4,18.488Z" transform="translate(-901.617 -15.094)" fill="#707070"/></g><g transform="translate(1009.628 44.088)"><path d="M916.887,21.863a3.394,3.394,0,1,1,3.023-3.727A3.393,3.393,0,0,1,916.887,21.863Z" transform="translate(-913.141 -15.094)" fill="#707070"/></g><g transform="translate(1037.233 44.088)"><path d="M928.411,21.863a3.394,3.394,0,1,1,3.023-3.727A3.393,3.393,0,0,1,928.411,21.863Z" transform="translate(-924.665 -15.094)" fill="#707070"/></g><g transform="translate(1092.444 44.088)"><path d="M951.459,21.863a3.394,3.394,0,1,1,3.023-3.727A3.394,3.394,0,0,1,951.459,21.863Z" transform="translate(-947.713 -15.094)" fill="#707070"/></g><g transform="translate(1064.839 44.088)"><path d="M939.935,21.863a3.394,3.394,0,1,1,3.023-3.727A3.394,3.394,0,0,1,939.935,21.863Z" transform="translate(-936.189 -15.094)" fill="#707070"/></g><g transform="translate(982.023 68.195)"><path d="M908.4,28.552a3.393,3.393,0,1,1-3.392-3.394A3.392,3.392,0,0,1,908.4,28.552Z" transform="translate(-901.617 -25.158)" fill="#707070"/></g><g transform="translate(1009.628 68.193)"><path d="M916.887,31.929A3.395,3.395,0,1,1,919.91,28.2,3.393,3.393,0,0,1,916.887,31.929Z" transform="translate(-913.141 -25.157)" fill="#707070"/></g><g transform="translate(1037.233 68.193)"><path d="M928.411,31.929a3.395,3.395,0,1,1,3.023-3.727A3.393,3.393,0,0,1,928.411,31.929Z" transform="translate(-924.665 -25.157)" fill="#707070"/></g><g transform="translate(1092.444 68.193)"><path d="M951.459,31.929a3.395,3.395,0,1,1,3.023-3.727A3.394,3.394,0,0,1,951.459,31.929Z" transform="translate(-947.713 -25.157)" fill="#707070"/></g><g transform="translate(1064.839 68.193)"><path d="M939.935,31.929a3.395,3.395,0,1,1,3.023-3.727A3.394,3.394,0,0,1,939.935,31.929Z" transform="translate(-936.189 -25.157)" fill="#707070"/></g><g transform="translate(982.023 93.86)"><path d="M908.4,39.264a3.393,3.393,0,1,1-3.392-3.392A3.393,3.393,0,0,1,908.4,39.264Z" transform="translate(-901.617 -35.872)" fill="#707070"/></g><g transform="translate(1009.628 93.858)"><path d="M916.887,42.64a3.393,3.393,0,1,1,3.023-3.727A3.393,3.393,0,0,1,916.887,42.64Z" transform="translate(-913.141 -35.871)" fill="#707070"/></g><g transform="translate(1037.233 93.858)"><path d="M928.411,42.64a3.393,3.393,0,1,1,3.023-3.727A3.393,3.393,0,0,1,928.411,42.64Z" transform="translate(-924.665 -35.871)" fill="#707070"/></g><g transform="translate(1092.444 93.858)"><path d="M951.459,42.64a3.393,3.393,0,1,1,3.023-3.727A3.394,3.394,0,0,1,951.459,42.64Z" transform="translate(-947.713 -35.871)" fill="#707070"/></g><g transform="translate(1064.839 93.858)"><path d="M939.935,42.64a3.393,3.393,0,1,1,3.023-3.727A3.394,3.394,0,0,1,939.935,42.64Z" transform="translate(-936.189 -35.871)" fill="#707070"/></g><g transform="translate(982.023 117.965)"><path d="M908.4,49.329a3.393,3.393,0,1,1-3.392-3.394A3.394,3.394,0,0,1,908.4,49.329Z" transform="translate(-901.617 -45.935)" fill="#707070"/></g><g transform="translate(1009.628 117.966)"><path d="M916.887,52.7a3.394,3.394,0,1,1,3.023-3.727A3.393,3.393,0,0,1,916.887,52.7Z" transform="translate(-913.141 -45.935)" fill="#707070"/></g><g transform="translate(1037.233 117.966)"><path d="M928.411,52.7a3.394,3.394,0,1,1,3.023-3.727A3.393,3.393,0,0,1,928.411,52.7Z" transform="translate(-924.665 -45.935)" fill="#707070"/></g><g transform="translate(1092.444 117.966)"><path d="M951.459,52.7a3.394,3.394,0,1,1,3.023-3.727A3.394,3.394,0,0,1,951.459,52.7Z" transform="translate(-947.713 -45.935)" fill="#707070"/></g><g transform="translate(1064.839 117.966)"><path d="M939.935,52.7a3.394,3.394,0,1,1,3.023-3.727A3.394,3.394,0,0,1,939.935,52.7Z" transform="translate(-936.189 -45.935)" fill="#707070"/></g><g transform="translate(982.023 143.63)"><path d="M908.4,60.043a3.393,3.393,0,1,1-3.392-3.394A3.392,3.392,0,0,1,908.4,60.043Z" transform="translate(-901.617 -56.649)" fill="#707070"/></g><g transform="translate(1009.628 143.631)"><path d="M916.887,63.418a3.394,3.394,0,1,1,3.023-3.727A3.393,3.393,0,0,1,916.887,63.418Z" transform="translate(-913.141 -56.649)" fill="#707070"/></g><g transform="translate(1037.233 143.631)"><path d="M928.411,63.418a3.394,3.394,0,1,1,3.023-3.727A3.393,3.393,0,0,1,928.411,63.418Z" transform="translate(-924.665 -56.649)" fill="#707070"/></g><g transform="translate(1092.444 143.631)"><path d="M951.459,63.418a3.394,3.394,0,1,1,3.023-3.727A3.394,3.394,0,0,1,951.459,63.418Z" transform="translate(-947.713 -56.649)" fill="#707070"/></g><g transform="translate(1064.839 143.631)"><path d="M939.935,63.418a3.394,3.394,0,1,1,3.023-3.727A3.394,3.394,0,0,1,939.935,63.418Z" transform="translate(-936.189 -56.649)" fill="#707070"/></g><g transform="translate(982.023 167.738)"><path d="M908.4,70.1a3.393,3.393,0,1,1-3.392-3.392A3.393,3.393,0,0,1,908.4,70.1Z" transform="translate(-901.617 -66.713)" fill="#707070"/></g><g transform="translate(1009.628 167.736)"><path d="M916.887,73.481a3.394,3.394,0,1,1,3.023-3.727A3.393,3.393,0,0,1,916.887,73.481Z" transform="translate(-913.141 -66.712)" fill="#707070"/></g><g transform="translate(1037.233 167.736)"><path d="M928.411,73.481a3.394,3.394,0,1,1,3.023-3.727A3.393,3.393,0,0,1,928.411,73.481Z" transform="translate(-924.665 -66.712)" fill="#707070"/></g><g transform="translate(1092.444 167.736)"><path d="M951.459,73.481a3.394,3.394,0,1,1,3.023-3.727A3.394,3.394,0,0,1,951.459,73.481Z" transform="translate(-947.713 -66.712)" fill="#707070"/></g><g transform="translate(1064.839 167.736)"><path d="M939.935,73.481a3.394,3.394,0,1,1,3.023-3.727A3.394,3.394,0,0,1,939.935,73.481Z" transform="translate(-936.189 -66.712)" fill="#707070"/></g></g></g></svg>