<svg xmlns="http://www.w3.org/2000/svg" xmlns:xlink="http://www.w3.org/1999/xlink" width="2313.301" height="1403.795" viewBox="0 0 2313.301 1403.795"><defs><linearGradient id="a" x1="0.5" y1="0.112" x2="0.195" y2="1.042" gradientUnits="objectBoundingBox"><stop offset="0" stop-color="#2ffdbe"/><stop offset="1" stop-color="#ec5243"/></linearGradient></defs><g transform="translate(71.301 -676.205)"><circle cx="503" cy="503" r="503" transform="translate(1236 1074)" opacity="0.347" fill="url(#a)" style="mix-blend-mode:screen;isolation:isolate"/><circle cx="158.65" cy="158.65" r="158.65" transform="translate(762.699 1428.205)" fill="#fff" opacity="0.1"/><circle cx="158.65" cy="158.65" r="158.65" transform="translate(1679.699 676.205)" fill="#fff" opacity="0.1"/><circle cx="158.65" cy="158.65" r="158.65" transform="translate(-71.301 1027.205)" fill="#fff" opacity="0.1"/><path d="M223.5,0,447,387H0Z" transform="translate(582 768)" fill="#fff" opacity="0.1"/><path d="M223.5,0,447,387H0Z" transform="translate(164 1531)" fill="#fff" opacity="0.1"/><path d="M660.963,304.152l-.324-.04a3.118,3.118,0,0,0-1.278-1.222c-15.973-8.444-33.884-9.811-47.523-22.762-14.634-13.9-17.887-35.592-23.053-54.591a24.935,24.935,0,0,0-2.363-9.815c-1.4-2.913-6.728-1.622-6.287,1.7,2.145,16.273-9.925,32.452-18.8,45.015-13.659,19.339-32.416,39.257-57.452,40.641a2.694,2.694,0,0,0,0,5.385c1,.069,1.966.049,2.945.061a3.363,3.363,0,0,0,.575.3c38.687,12.215,55.546,55.68,61.514,91.757.53,3.2,4.531,3.338,6.409,1.327a2.947,2.947,0,0,0,2.808-2.5c10.673-45.286,53.5-60.466,86.262-86.962C668.132,309.424,664.588,304.613,660.963,304.152ZM575.93,380.518c-3.087-13.623-10.859-27.273-17.393-37.639-8.76-13.9-21.686-29.082-37.437-36.308,18.284-5.284,33.112-20.327,45.035-35.147,6.069-7.542,14.1-17.7,18.813-28.414,3.285,14.363,7.8,28.524,17.345,39.71,12.809,15.01,31.3,22.018,50.319,25.513a3.819,3.819,0,0,0,.308.619C623.817,329.463,589.047,347.1,575.93,380.518Z" transform="translate(376.364 656.505)" fill="#fff"/><g transform="translate(188.579 1158.403)"><path d="M747.1,355.9c-24.2,4.609-46.918,8.193-67.488-8.8a2.235,2.235,0,0,0-3.158,3.158c16.691,18.784,50.9,21.071,72.533,10.124C751.607,359.047,749.677,355.4,747.1,355.9Z" transform="translate(73.246 1.944)" fill="#fff"/><path d="M712.2,346.748c-9.018,2.275-17.321,2.82-26.034-.909-2.9-1.238-5.349,2.575-2.529,4.327a28.842,28.842,0,0,0,30.265.614A2.216,2.216,0,0,0,712.2,346.748Z" transform="translate(87.286)" fill="#fff"/><path d="M733.294,348.525c-1.231-3.255-6.385-1.974-5.3,1.463,10.547,33.533,1.225,67.369-14.767,97.537-8.3,15.657-19.483,29.183-31.192,42.369-10.493,11.819-22.312,26.031-35.428,35-1.629,1.112-1.673,4.064.592,4.528,11.258,2.313,24.581-17.794,31.264-24.662,14.573-14.971,27.764-30.988,38.468-48.945C735.722,424.273,746.733,384.019,733.294,348.525Z" transform="translate(8.433 2.234)" fill="#fff"/><path d="M714.789,353.217c-1.257,30.243-4.847,56.628-17.8,84.226-12.085,25.749-29.61,49.948-53.764,65.455-2.441,1.567-.241,5.4,2.281,3.9,52.373-31.095,77.872-94.892,76.581-153.585C721.983,348.5,714.983,348.527,714.789,353.217Z" transform="translate(1.464 8.73)" fill="#fff"/><path d="M703.209,353.836c-.238-3.149-4.969-3.234-4.957,0,.072,21.573-2.673,40.749-9.992,61.1-9.036,25.129-26.621,38.85-45.671,55.917-3.284,2.942,1.432,7.344,4.738,4.738,19.433-15.328,35.425-29.014,45.292-52.323C702.072,400.936,705.017,377.849,703.209,353.836Z" transform="translate(0 12.47)" fill="#fff"/><path d="M674.931,360.548c-.6-3.061-5.718-2.381-5.455.74.99,11.816.056,22.7-3.876,33.959-4.3,12.311-13.3,20.664-21.494,30.268-2.008,2.356.542,6.2,3.434,4.449C669.924,416.4,679.75,385.229,674.931,360.548Z" transform="translate(4.077 27.675)" fill="#fff"/><path d="M691.2,354.005c-4.318,2.435-6.154,8.864-11.932,8.623-2.319-.1-2.764,3.45-.542,4.011,6.223,1.576,14.046-4.1,15.795-10.083A2.279,2.279,0,0,0,691.2,354.005Z" transform="translate(76.365 17.32)" fill="#fff"/><path d="M717.914,355.389c-2.444,1.1-3.246,2.786-4.766,4.985-2.745,3.97-6.612,7.279-10.262,10.381a112.5,112.5,0,0,1-24.092,15.3c-1.965.943-.549,4.346,1.488,3.534a117.763,117.763,0,0,0,26.057-14.363c5.37-3.926,15.723-11.023,14.7-18.568C720.831,355.173,719.008,354.894,717.914,355.389Z" transform="translate(77.605 20.411)" fill="#fff"/><path d="M764.148,350.339q-.9.484-1.8.968a2.5,2.5,0,0,0-1.256,2.651c-21.614,30.5-49.6,52.439-83.9,67.488-2.334,1.028-.639,5.063,1.742,4.133,36.929-14.432,68.331-36.653,90.653-69.8C771.928,352.3,767.46,348.553,764.148,350.339Z" transform="translate(73.812 9.136)" fill="#fff"/><path d="M796.816,358.755c-1.855,8.413-10.91,15.247-16.842,21.009-9.472,9.2-18.543,18.085-29.362,25.812-22.751,16.246-49.735,25.681-77.082,30.446-2.5.436-1.921,4.775.6,4.44,30.725-4.076,59.21-14.072,84.706-31.875,10.813-7.551,19.856-17.092,29.365-26.135,6.257-5.947,14.081-12.856,15.967-21.67C805.194,355.992,797.875,353.949,796.816,358.755Z" transform="translate(64.945 22.221)" fill="#fff"/><path d="M821.126,364.615c-10.982,25.8-39.824,45.953-63.211,59.846-26.9,15.983-57.856,26.683-89.23,28.15a.354.354,0,0,0,0,.708c32.4,3.365,64.577-7.545,92.874-22.626,25.173-13.414,56.462-35.5,67.084-62.91C830.323,363.447,822.944,360.341,821.126,364.615Z" transform="translate(57.316 36.216)" fill="#fff"/><path d="M655.962,405.852c-1.219-1.607-4.468-.74-3.584,1.513a47.831,47.831,0,0,1,3.234,12.492c.46,4.261-.179,8.651,1.072,12.793a2.031,2.031,0,0,0,3.885,0C663.281,425.071,660.774,412.209,655.962,405.852Z" transform="translate(22.933 126.783)" fill="#fff"/><path d="M672.407,429.012c-1.4-7.285-5.364-26.257-14.868-27.523a.711.711,0,0,0-.683.9c3.6,8.645,8.031,15.626,10.008,25.185a98.964,98.964,0,0,1,1.8,18.837c.063,5.042-1.817,10.152-1.354,15.046.188,1.961,2.576,3.4,4.139,1.714C678.457,455.642,674.127,437.96,672.407,429.012Z" transform="translate(32.732 119.226)" fill="#fff"/><path d="M666.28,395.861c-.655-.733-1.78.2-1.325,1.025,7.3,13.113,13.846,25.953,18.086,40.442,4.706,16.089,4.643,32.427,6.445,48.892a3.215,3.215,0,0,0,6.427,0C698.534,454.962,687.232,419.233,666.28,395.861Z" transform="translate(49.86 106.665)" fill="#fff"/><path d="M678.878,395.742c-2.8-1.786-5.16,2.5-2.557,4.374,30.261,21.736,29.757,63.359,42.1,94.767.752,3.209,6.226,2.566,5.831-.79C720.507,462.25,707.826,414.222,678.878,395.742Z" transform="translate(71.932 106.067)" fill="#fff"/><path d="M722.483,435.046c-7.379-15.936-17.562-31.637-32.893-40.821-1.332-.8-2.9,1.141-1.683,2.184,15.685,13.454,24.816,31.007,32.141,50.039,3.544,9.2,4.146,27.235,11.051,34a3.189,3.189,0,0,0,5.392-2.234C737.322,464.2,728.229,447.457,722.483,435.046Z" transform="translate(98.116 103.341)" fill="#fff"/><path d="M780.4,376.094c-11.687-.921-23.13,6.085-33.448,10.81a121.477,121.477,0,0,0-34.087,23.287c-7.711,4.587-13.9,14.407-17.365,21.463a2.354,2.354,0,0,0,3.682,2.839c3.625-3.443,6.383-7.686,9.647-11.462,3.688-4.261,8.438-6.965,12.439-10.81a2.38,2.38,0,0,0,.671-1.454c18.145-12.22,37.919-24.352,59.46-27.291C785.851,382.868,784.332,376.4,780.4,376.094Z" transform="translate(114.669 64.885)" fill="#fff"/><path d="M771.4,382.274c-10.772.765-23.127,9.672-32.022,15.3a197.235,197.235,0,0,0-41.269,35.074c-2.215,2.469,1.31,6.06,3.66,3.66a224.144,224.144,0,0,1,41-32.934c8.673-5.468,25.164-8.8,30.819-17.29A2.547,2.547,0,0,0,771.4,382.274Z" transform="translate(119.311 78.232)" fill="#fff"/><path d="M774.266,391c-10.553-1.623-20.467,4.712-29.691,9.177-15.535,7.523-30.916,15.557-43.9,27.072-1.642,1.457.511,4.239,2.344,3.036,21.7-14.26,45.984-27.454,71.245-33.771C776.858,395.863,777.143,391.439,774.266,391Z" transform="translate(125.047 96.298)" fill="#fff"/><path d="M755.656,406.261c-13.868-10.706-41.059,7.777-51.621,16.444-1.883,1.542.558,4.609,2.572,3.337,15.181-9.6,29.785-15.432,47.73-14.908C757.207,411.218,757.539,407.715,755.656,406.261Z" transform="translate(132.014 122.491)" fill="#fff"/><path d="M725.912,413.362c-7.037-.724-13.99,1.642-20.338,4.484-2.391,1.068-.67,5.139,1.783,4.23,6.229-2.309,12.715-2.955,19.119-4.54C728.961,416.921,728.168,413.594,725.912,413.362Z" transform="translate(134.294 144.282)" fill="#fff"/></g><g transform="translate(1109.052 779.42)"><path d="M622.066,113.864c-6.4-.934-12.288,3.065-18.125,5.342-7.364,2.873-15.143,4.522-22.5,7.315-3.477,1.321-3.39,6.718.795,6.789,7.37.127,14.883-2.286,21.867-4.42,6.566-2.01,15.966-3.761,20.113-9.622C625.481,117.483,624.346,114.2,622.066,113.864Z" transform="translate(60.717 0)" fill="#fd8023"/><path d="M635.884,122.163c-6.4-.934-12.288,3.065-18.125,5.342-7.365,2.87-15.143,4.522-22.5,7.315-3.476,1.321-3.39,6.715.795,6.786,7.368.127,14.883-2.286,21.864-4.42,6.569-2.007,15.966-3.758,20.113-9.619C639.3,125.779,638.163,122.494,635.884,122.163Z" transform="translate(89.635 17.369)" fill="#fd8023"/><path d="M649.7,130.461c-6.4-.934-12.288,3.065-18.125,5.341-7.364,2.873-15.143,4.522-22.5,7.315-3.479,1.321-3.39,6.718.792,6.789,7.371.127,14.887-2.286,21.867-4.42,6.569-2.007,15.966-3.761,20.113-9.622C653.116,134.08,651.981,130.8,649.7,130.461Z" transform="translate(118.552 34.737)" fill="#fd8023"/><path d="M612.4,129.966c-6.4-.937-12.288,3.065-18.125,5.338-7.365,2.873-15.143,4.522-22.5,7.318-3.476,1.321-3.39,6.715.795,6.786,7.371.127,14.883-2.286,21.867-4.42,6.566-2.007,15.963-3.758,20.113-9.619C615.811,133.581,614.676,130.3,612.4,129.966Z" transform="translate(40.478 33.698)" fill="#fd8023"/><path d="M626.214,138.263c-6.4-.934-12.288,3.065-18.125,5.342-7.364,2.873-15.143,4.522-22.5,7.315-3.477,1.321-3.39,6.718.792,6.789,7.371.127,14.887-2.286,21.867-4.42,6.57-2.01,15.966-3.761,20.113-9.622C629.628,141.882,628.493,138.6,626.214,138.263Z" transform="translate(69.396 51.066)" fill="#fd8023"/><path d="M640.032,146.562c-6.4-.934-12.288,3.065-18.125,5.338-7.364,2.873-15.143,4.525-22.5,7.318-3.48,1.321-3.393,6.715.792,6.786,7.37.127,14.886-2.286,21.867-4.42,6.57-2.007,15.966-3.758,20.114-9.619C643.447,150.178,642.312,146.893,640.032,146.562Z" transform="translate(98.313 68.435)" fill="#fd8023"/><path d="M602.727,146.065c-6.4-.934-12.288,3.065-18.125,5.342-7.364,2.87-15.143,4.522-22.5,7.315-3.477,1.321-3.39,6.718.795,6.789,7.367.124,14.883-2.286,21.864-4.423,6.57-2.007,15.966-3.758,20.113-9.619C606.141,149.681,605.006,146.4,602.727,146.065Z" transform="translate(20.239 67.395)" fill="#fd8023"/><path d="M616.544,154.365c-6.4-.937-12.288,3.065-18.125,5.338-7.364,2.873-15.143,4.522-22.5,7.315-3.48,1.324-3.39,6.718.792,6.789,7.37.127,14.886-2.286,21.867-4.42,6.57-2.007,15.966-3.758,20.114-9.622C619.959,157.98,618.824,154.7,616.544,154.365Z" transform="translate(49.156 84.764)" fill="#fd8023"/><path d="M630.359,162.662c-6.393-.934-12.286,3.065-18.122,5.342-7.367,2.873-15.143,4.522-22.5,7.315-3.479,1.321-3.393,6.718.792,6.789,7.371.127,14.886-2.286,21.867-4.42,6.569-2.01,15.966-3.761,20.113-9.622C633.777,166.278,632.642,163,630.359,162.662Z" transform="translate(78.074 102.132)" fill="#fd8023"/><path d="M593.056,162.165c-6.4-.934-12.288,3.065-18.125,5.342-7.364,2.873-15.143,4.522-22.5,7.315-3.476,1.321-3.39,6.718.795,6.789,7.367.127,14.883-2.286,21.864-4.42,6.57-2.007,15.966-3.761,20.114-9.622C596.471,165.784,595.336,162.5,593.056,162.165Z" transform="translate(0 101.092)" fill="#fd8023"/><path d="M606.875,170.464c-6.4-.934-12.288,3.065-18.125,5.342-7.365,2.87-15.143,4.522-22.5,7.315-3.479,1.321-3.393,6.715.792,6.789,7.371.124,14.886-2.286,21.867-4.423,6.569-2.007,15.966-3.758,20.113-9.619C610.29,174.08,609.155,170.8,606.875,170.464Z" transform="translate(28.916 118.461)" fill="#fd8023"/><path d="M620.689,178.762c-6.393-.934-12.285,3.065-18.122,5.342-7.367,2.873-15.143,4.522-22.5,7.318-3.479,1.321-3.393,6.715.792,6.786,7.371.127,14.886-2.286,21.867-4.42,6.569-2.007,15.966-3.758,20.114-9.622C624.107,182.381,622.972,179.1,620.689,178.762Z" transform="translate(57.835 135.829)" fill="#fd8023"/></g><path d="M456.6,465.121a68.98,68.98,0,0,0-53.675-36.867c-21.872-2.244-39.828,9.286-56.941,21.281-7.977,5.593-15.029,10.231-20.156,18.645-1.556,2.559-10.12,31.938-7.052,31.865a76.852,76.852,0,0,0-44.248,15.383c-19.192,9.15-27.814,32.98-25.512,55.085,3.325,31.914,26.593,59.369,59.5,61.235,33.858,1.919,61.676-21.165,70.351-50.786a83.172,83.172,0,0,0,51.159-5.908C475.867,553.685,477.593,505.991,456.6,465.121Zm-87.6,100.685a60.484,60.484,0,0,1-28.74-24.79,82.789,82.789,0,0,1-9.964-26.85c18.78,2.37,31.119,17.515,36.809,36.407A46.016,46.016,0,0,1,368.993,565.806Zm-68.335,51.208c-22.72-4.357-35.825-28.207-38-49.468-2.389-23.4,9.179-39.935,31.812-45.072a4.871,4.871,0,0,0,3.324-2.418c7.013-2.68,14.128-5.084,21.94-6.01.116-.014.213,0,.329-.01a118.677,118.677,0,0,0,8.142,27.76c7.609,17.52,21.969,29.462,38.772,35.7C358.883,603.657,328.5,622.35,300.658,617.014Zm119.431-50.684A68.676,68.676,0,0,1,381.2,569.6a67.644,67.644,0,0,0-1.052-22.623c-6.247-28.3-27.349-43.6-51.208-46.507-.039-15.13,4.924-29.544,16.735-39.014a2.776,2.776,0,0,0,3.116.01c37.57-26.186,76.3-28.124,99.212,16.473C465.835,512.645,458.43,551.349,420.089,566.329Z" transform="translate(1359.35 1057.028)" fill="#fff"/></g></svg>