<?xml version="1.0" encoding="utf-8"?>
<!-- Generator: Adobe Illustrator 24.0.1, SVG Export Plug-In . SVG Version: 6.00 Build 0)  -->
<svg version="1.1" id="Camada_1" xmlns="http://www.w3.org/2000/svg" xmlns:xlink="http://www.w3.org/1999/xlink" x="0px" y="0px"
	 viewBox="0 0 274.2 97.9" style="enable-background:new 0 0 274.2 97.9;" xml:space="preserve">
<style type="text/css">
	.st0{fill-rule:evenodd;clip-rule:evenodd;fill:#E30D1D;}
</style>
<g id="cdr_x5F_layer1">
</g>
<path class="st0" d="M71.4,95.8V2.6H101v93.3L71.4,95.8L71.4,95.8z M0.3,95.8V2.6h66v22H30.1v16h30.2v21.6H30.1v33.7H0.3V95.8z
	 M169.8,29c0-7.3,0-15.4,0-22.7c-11.7-5.7-23.3-6.8-32.8-5.5c-8.5,1.2-15.9,4.9-20.5,10.1c-0.5,0.6-0.7,0.9-0.9,1.7
	c-1.1,4.5,0,9.7,4.5,13.7c5.9,5.6,15.8,9.9,26.2,14.6c12.6,5.7,21.9,9.9,27.3,19.3c-0.2-0.8-0.4-1.5-0.7-2.3c-1.3-4-3.7-7.8-7.2-11
	c-6.1-4.6-10-6-21.5-10.9c-2.8-1.1-4.3-2.4-5.2-3.5c-2.5-2.9-1.9-7.2,1.1-9.5c2.9-2.3,8.1-2.8,14.7-1.4
	C159.5,22.5,164.4,24.6,169.8,29z M114.6,13.3c-2,2.7-4.1,5.7-3.9,9.2c0.1,3.1,1.5,6.2,5,9.5c5.9,5.6,18.5,11.4,29.6,16.3
	c9.8,4.3,20,9.2,25.5,15.2c1.7,1.9,2.8,4.1,3.5,6.7c0.2-1.9,0.2-3.7,0-5.6c0-0.5-0.1-0.9-0.4-1.4c-2.8-5.6-9.5-9.2-15.6-12.3
	c-12.1-6.3-29.5-11.8-39.5-20.4c-3.3-2.8-5.7-5.8-5.9-9.9C112.7,18.1,113.2,15.7,114.6,13.3z M109.2,25.7c-0.5,2.8-1.1,6.2,0.2,8.8
	c1.5,3.3,4.6,5.7,7.2,7.4c7.4,5,20.3,10.3,29.6,14.6c9.7,4.5,15.7,7.5,21.2,13.4c2.8,3,4.8,7.2,2.4,13.4c1.6-2.4,2.7-4.9,3.5-7.5
	c0.1-0.4,0.1-0.7,0-1.2C171.1,63.1,154,56.4,144.4,52c-12-5.6-24.4-10.8-30.3-16.8C111.1,32.3,109.6,29.4,109.2,25.7z M109.2,36
	c0.3,1.5,0.7,3,1.3,4.4c2.1,5.3,5.5,9.2,10.2,12.4c3.6,2.4,7.7,4.2,13.7,6.8c3,1.2,6.9,2.3,9.1,4.8c0.9,1.1,1.5,2.4,1.6,3.7
	c0.6,4.6-3.4,9.6-10.1,9.2c-9.6,0.3-17-2.6-26.6-9.5c0,7.5,0,17,0,24.4c10.9,3.4,17.7,5.8,29.1,5.8c11.3,0,21.4-2.9,28.7-10.6
	c1.1-1.2,1.8-2,2-3.7c1-7.3-4.2-12.7-10.6-16.7c-4.5-2.9-9.5-5.1-13.6-7c-9.1-4.1-18.2-8-24.4-12.2C115.8,45.2,111.5,41.2,109.2,36z
	 M179,95.8V2.6h29.6v41.7c0,0.7,0.5,0.2,0.6-0.1L236,2.6h32.5l-28.7,42.3l34.3,51h-33.6l-31.7-47.4h-0.3v47.4L179,95.8L179,95.8z"/>
<g id="cdr_x5F_layer3">
</g>
<g id="cdr_x5F_layer4">
</g>
<g id="cdr_x5F_layer5">
</g>
</svg>
