<svg xmlns="http://www.w3.org/2000/svg" width="886.24" height="913.608" viewBox="0 0 886.24 913.608"><g transform="translate(40.607 -12751.646)"><g transform="translate(-530.414 12301.859)"><path d="M600.811,376.52a34.088,34.088,0,1,1-48.171-1.937A34.09,34.09,0,0,1,600.811,376.52Z" transform="translate(107.161 88.244)" fill="none" stroke="#d71415" stroke-linecap="round" stroke-miterlimit="10" stroke-width="8"/><path d="M555.829,415.729a34.088,34.088,0,1,1-45.243,16.65A34.085,34.085,0,0,1,555.829,415.729Z" transform="translate(30.505 193.555)" fill="none" stroke="#d71415" stroke-linecap="round" stroke-miterlimit="10" stroke-width="8"/><path d="M529.267,469.159a34.09,34.09,0,1,1-35.428,32.694A34.1,34.1,0,0,1,529.267,469.159Z" transform="translate(0 320.195)" fill="none" stroke="#d71415" stroke-linecap="round" stroke-miterlimit="10" stroke-width="8"/><path d="M525.19,528.694a34.088,34.088,0,1,1-20.22,43.766A34.1,34.1,0,0,1,525.19,528.694Z" transform="translate(20.265 448.858)" fill="none" stroke="#d71415" stroke-linecap="round" stroke-miterlimit="10" stroke-width="8"/><path d="M544.187,585.25a34.093,34.093,0,1,1-1.934,48.171A34.1,34.1,0,0,1,544.187,585.25Z" transform="translate(88.239 559.986)" fill="none" stroke="#d71415" stroke-linecap="round" stroke-miterlimit="10" stroke-width="8"/><path d="M583.4,630.243a34.09,34.09,0,1,1,16.647,45.24A34.082,34.082,0,0,1,583.4,630.243Z" transform="translate(193.552 636.628)" fill="none" stroke="#d71415" stroke-linecap="round" stroke-miterlimit="10" stroke-width="8"/><path d="M636.829,656.792a34.09,34.09,0,1,1,32.694,35.428A34.09,34.09,0,0,1,636.829,656.792Z" transform="translate(320.192 667.143)" fill="none" stroke="#d71415" stroke-linecap="round" stroke-miterlimit="10" stroke-width="8"/><path d="M696.362,660.885a34.091,34.091,0,1,1,43.763,20.22A34.094,34.094,0,0,1,696.362,660.885Z" transform="translate(448.855 646.867)" fill="none" stroke="#d71415" stroke-linecap="round" stroke-miterlimit="10" stroke-width="8"/><path d="M752.923,641.867a34.087,34.087,0,1,1,48.168,1.937A34.076,34.076,0,0,1,752.923,641.867Z" transform="translate(559.982 578.906)" fill="none" stroke="#d71415" stroke-linecap="round" stroke-miterlimit="10" stroke-width="8"/></g><g transform="translate(579.622 13306) rotate(-90)"><g transform="translate(0.005 21.273)"><path d="M112.9,214.249l-54.28,54.285L4.341,214.249a2.549,2.549,0,0,0-3.6,3.6l56.085,56.085a2.549,2.549,0,0,0,3.6,0l56.085-56.085a2.549,2.549,0,0,0-3.6-3.6Z" transform="translate(-0.021 -167.583)" fill="#d71415"/><path d="M112.9,22.051,58.622,76.336,4.341,22.051a2.549,2.549,0,0,0-3.6,3.6L56.822,81.741a2.549,2.549,0,0,0,3.6,0l56.085-56.085a2.549,2.549,0,0,0-3.542-3.667l-.063.063Z" transform="translate(-0.021 -21.273)" fill="#d71415"/></g><path d="M58.605,274.69a2.548,2.548,0,0,1-1.8-.744L.715,217.86a2.549,2.549,0,0,1,3.6-3.6l54.285,54.28,54.28-54.285a2.549,2.549,0,0,1,3.6,3.6L60.405,273.94A2.551,2.551,0,0,1,58.605,274.69Z" transform="translate(0 -146.311)" fill="#d71415"/><path d="M58.605,82.491a2.548,2.548,0,0,1-1.8-.744L.715,25.661a2.549,2.549,0,0,1,3.6-3.6l54.285,54.28,54.28-54.285a2.549,2.549,0,1,1,3.667,3.542l-.063.063L60.405,81.741A2.551,2.551,0,0,1,58.605,82.491Z" transform="translate(0)" fill="#d71415"/></g></g></svg>