<svg xmlns="http://www.w3.org/2000/svg" width="750.657" height="549.531" viewBox="0 0 750.657 549.531"><g transform="translate(42.657 -7175.158)"><line y1="259.236" x2="259.236" transform="translate(33.398 7289)" fill="none" stroke="#fd8023" stroke-linecap="round" stroke-miterlimit="10" stroke-width="8"/><line y1="300.346" x2="300.346" transform="translate(-37 7418.687)" fill="none" stroke="#22cde4" stroke-linecap="round" stroke-miterlimit="10" stroke-width="8"/><g transform="translate(536.178 7340) rotate(-90)"><g transform="translate(0.007 21.273)"><path d="M158.688,214.54l-76.3,76.3-76.3-76.3a3.583,3.583,0,0,0-5.067,5.067L79.861,298.44a3.584,3.584,0,0,0,5.067,0l78.834-78.834a3.583,3.583,0,0,0-5.067-5.067Z" transform="translate(-0.021 -148.945)" fill="#22cde4"/><path d="M158.688,22.367l-76.3,76.3-76.3-76.3a3.583,3.583,0,0,0-5.067,5.067l78.834,78.834a3.584,3.584,0,0,0,5.067,0l78.834-78.834a3.583,3.583,0,1,0-4.979-5.155c-.03.029-.059.058-.088.088Z" transform="translate(-0.021 -21.273)" fill="#22cde4"/></g><path d="M82.377,299.5a3.582,3.582,0,0,1-2.537-1.046L1.006,219.615a3.583,3.583,0,0,1,5.067-5.067l76.3,76.3,76.3-76.3a3.583,3.583,0,0,1,5.067,5.067L84.907,298.442A3.585,3.585,0,0,1,82.377,299.5Z" transform="translate(0 -127.673)" fill="#22cde4"/><path d="M82.377,107.322a3.582,3.582,0,0,1-2.537-1.046L1.006,27.441a3.583,3.583,0,0,1,5.067-5.067l76.3,76.3,76.3-76.3a3.583,3.583,0,1,1,5.155,4.979c-.029.03-.058.059-.088.088L84.907,106.268A3.586,3.586,0,0,1,82.377,107.322Z" fill="#22cde4"/></g></g></svg>