<?xml version="1.0" encoding="utf-8"?>
<!-- Generator: Adobe Illustrator 24.0.1, SVG Export Plug-In . SVG Version: 6.00 Build 0)  -->
<svg version="1.1" id="Camada_1" xmlns="http://www.w3.org/2000/svg" xmlns:xlink="http://www.w3.org/1999/xlink" x="0px" y="0px"
	 viewBox="0 0 579.8 130.6" style="enable-background:new 0 0 579.8 130.6;" xml:space="preserve">
<style type="text/css">
	.st0{fill-rule:evenodd;clip-rule:evenodd;fill:#004F88;}
	.st1{fill-rule:evenodd;clip-rule:evenodd;fill:#BD3835;}
	.st2{fill-rule:evenodd;clip-rule:evenodd;fill:#919191;}
	.st3{fill-rule:evenodd;clip-rule:evenodd;fill:#FF7C06;}
	.st4{clip-path:url(#SVGID_2_);}
	.st5{fill-rule:evenodd;clip-rule:evenodd;fill:#004578;}
	.st6{clip-path:url(#SVGID_4_);}
	.st7{clip-path:url(#SVGID_6_);}
	.st8{fill:#004578;}
	.st9{clip-path:url(#SVGID_8_);}
	.st10{fill:#919191;}
</style>
<g>
	<g>
		<g>
			<polygon class="st0" points="29.9,61.1 15,72.4 0,83.6 27.4,72.4 54.9,61.1 27.4,49.9 0,38.6 15,49.9 			"/>
		</g>
		<g>
			<polygon class="st1" points="60.9,92.3 49.7,107.3 38.4,122.2 49.7,94.8 60.9,67.4 72.2,94.8 83.4,122.2 72.2,107.3 			"/>
		</g>
		<g>
			<g>
				<polygon class="st2" points="29.1,43.7 29.1,28.7 44.1,28.7 56.3,55.8 				"/>
			</g>
			<g>
				<path class="st2" d="M21.5,21.1c1.7-1.7,4.3-1.7,6,0s1.7,4.3,0,6c-1.7,1.7-4.3,1.7-6,0S19.8,22.7,21.5,21.1L21.5,21.1z"/>
			</g>
		</g>
		<g>
			<g>
				<polygon class="st2" points="44.1,93.5 29.1,93.5 29.1,78.5 56.3,66.4 				"/>
			</g>
			<g>
				<path class="st2" d="M21.5,101.2c-1.7-1.7-1.7-4.3,0-6s4.3-1.7,6,0s1.7,4.3,0,6C25.8,102.8,23.1,102.8,21.5,101.2L21.5,101.2z"
					/>
			</g>
		</g>
		<g>
			<polygon class="st3" points="60.9,29.9 49.7,15 38.4,0 49.7,27.4 60.9,54.9 72.2,27.4 83.4,0 72.2,15 			"/>
		</g>
		<g>
			<path class="st1" d="M60.9,116.6c3.7,0,6.7-3,6.7-6.7s-3-6.7-6.7-6.7s-6.7,3-6.7,6.7C54.3,113.6,57.2,116.6,60.9,116.6
				L60.9,116.6z"/>
		</g>
		<g>
			<path class="st3" d="M60.9,19.8c3.7,0,6.7-3,6.7-6.7s-3-6.7-6.7-6.7s-6.7,3-6.7,6.7C54.3,16.8,57.2,19.8,60.9,19.8L60.9,19.8z"/>
		</g>
		<g>
			<path class="st0" d="M10.3,67.8c3.7,0,6.7-3,6.7-6.7s-3-6.7-6.7-6.7s-6.7,3-6.7,6.7C3.6,64.8,6.6,67.8,10.3,67.8L10.3,67.8z"/>
		</g>
	</g>
	<g>
		<g>
			<defs>
				<path id="SVGID_1_" d="M352,75.2h10.1c0.2,4,1.4,7.2,3.6,9.6s5.1,3.6,8.6,3.6c3.9,0,7-1.2,9.3-3.6s3.5-5.6,3.5-9.6
					c0-3.5-0.9-6.2-2.6-8.2c-1.7-1.9-5.3-3.7-10.7-5.4c-0.3-0.1-0.8-0.2-1.4-0.4c-6.5-1.7-11.2-4.6-14.1-8.6c-1.3-1.7-2.3-3.6-3-5.6
					s-1-4.1-1-6.3c0-6.7,2-12,5.9-16.2c4-4.1,9.1-6.2,15.5-6.2c5.9,0,10.7,1.8,14.4,5.5c3.7,3.7,5.7,8.7,6.1,15.1h-10.5
					c-0.2-3.1-1.2-5.6-3.1-7.5c-1.9-1.9-4.3-2.9-7.2-2.9c-3.1,0-5.6,1.1-7.5,3.2s-2.9,4.9-2.9,8.2c0,1.2,0.2,2.3,0.5,3.3
					c0.4,1,0.9,2,1.7,2.9c1.5,1.8,4.8,3.4,9.8,4.7c2.3,0.6,4.1,1.1,5.3,1.5c5.1,1.9,9,4.7,11.7,8.4c2.6,3.7,4,8.1,4,13.2
					c0,7.5-2.1,13.6-6.4,18.1c-4.3,4.6-9.9,6.9-17,6.9c-6.6,0-12-2.2-16.2-6.6C354.2,88.2,352.1,82.4,352,75.2L352,75.2L352,75.2z"
					/>
			</defs>
			<clipPath id="SVGID_2_">
				<use xlink:href="#SVGID_1_"  style="overflow:visible;"/>
			</clipPath>
			<g class="st4">
				<polygon class="st5" points="352,18.4 397.9,18.4 397.9,99.2 352,99.2 				"/>
			</g>
		</g>
	</g>
	<g>
		<g>
			<defs>
				<path id="SVGID_3_" d="M560.9,97.9h8.4V72c0-4.3,0.8-7.4,2.4-9.3c1.6-1.9,4.3-3,8.1-3.3v-8.8c-2.4,0-4.5,0.5-6.2,1.5
					c-1.8,1-3.4,2.5-4.8,4.6v-5.4h-7.9V97.9L560.9,97.9z"/>
			</defs>
			<clipPath id="SVGID_4_">
				<use xlink:href="#SVGID_3_"  style="overflow:visible;"/>
			</clipPath>
			<g class="st6">
				<polygon class="st5" points="560.9,50.6 579.8,50.6 579.8,97.9 560.9,97.9 				"/>
			</g>
		</g>
	</g>
	<g>
		<g>
			<defs>
				<path id="SVGID_5_" d="M547,70.1c-1-3.8-2.8-6.8-5.4-8.9C539,59,536,58,532.4,58c-3.7,0-6.9,1.1-9.6,3.2
					c-2.7,2.2-4.6,5.1-5.6,8.9H547L547,70.1z M517,77.6c0.7,3.9,2.5,7.1,5.3,9.5s6.1,3.6,10,3.6c2.8,0,5.3-0.7,7.6-2
					s4.1-3.2,5.4-5.6h9.4c-2.1,5.2-5.1,9.1-9,11.9c-3.9,2.7-8.3,4.1-13.5,4.1c-3.5,0-6.6-0.6-9.5-1.8c-2.8-1.2-5.4-3-7.8-5.5
					c-2.2-2.3-3.9-4.9-5.1-8c-1.2-3-1.8-6.1-1.8-9.3c0-3.3,0.6-6.4,1.7-9.2c1.1-2.9,2.8-5.5,4.9-7.8c2.3-2.5,4.9-4.5,7.8-5.7
					c2.9-1.3,6.1-1.9,9.5-1.9c4.1,0,7.9,1,11.4,2.9s6.4,4.6,8.7,8c1.3,2.1,2.4,4.4,3,7c0.7,2.5,1,5.4,1,8.7v1.3h-39V77.6z"/>
			</defs>
			<clipPath id="SVGID_6_">
				<use xlink:href="#SVGID_5_"  style="overflow:visible;"/>
			</clipPath>
			<g class="st7">
				<polygon class="st5" points="508.1,49.8 556.2,49.8 556.2,99 508.1,99 				"/>
			</g>
		</g>
	</g>
	<path class="st8" d="M504,76.8v-4.6c-0.2-2.5-0.7-4.9-1.6-7.1c-1.2-2.9-2.8-5.5-5-7.8c-2.3-2.5-4.9-4.3-7.7-5.4
		c-2.8-1.2-6-1.8-9.5-1.8c-3.2,0-6.1,0.6-8.8,1.7c-2.7,1.1-5.2,2.9-7.4,5.1V36.2h-0.1h-8.4v61.7h8.5v-5.7c2.1,2.2,4.5,3.9,7.2,5.1
		c2.6,1.1,5.5,1.7,8.5,1.7c7,0,12.9-2.3,17.5-7C501.3,87.8,503.5,82.8,504,76.8z M490.6,86.2c-3.1,3.2-6.9,4.8-11.4,4.8
		c-4.1,0-7.7-1.6-10.9-4.8c-3.1-3.3-4.7-7-4.7-11.3c0-4.6,1.6-8.5,4.6-11.8c3.1-3.3,6.8-4.9,11.1-4.9c4.4,0,8.2,1.6,11.3,4.7
		c3.1,3.1,4.7,6.9,4.7,11.4C495.3,79.1,493.7,83,490.6,86.2z"/>
	<g>
		<g>
			<defs>
				<path id="SVGID_7_" d="M410.8,74.3c0,4.7,1.6,8.7,4.7,11.9c3.1,3.2,6.9,4.8,11.5,4.8c4.1,0,7.8-1.6,10.9-4.8
					c3.1-3.2,4.7-7,4.7-11.3c0-4.6-1.6-8.5-4.7-11.8s-6.8-4.9-11.1-4.9c-4.4,0-8.2,1.5-11.3,4.7C412.4,66,410.8,69.8,410.8,74.3
					L410.8,74.3z M442.2,97.9v-5.7c-2.1,2.2-4.5,3.9-7.2,5.1c-2.6,1.1-5.5,1.7-8.5,1.7c-7,0-12.8-2.3-17.5-7
					c-4.6-4.7-6.9-10.5-6.9-17.6c0-3.3,0.6-6.4,1.7-9.3c1.2-2.9,2.8-5.5,5-7.8c2.3-2.5,4.9-4.3,7.7-5.4c2.8-1.2,6-1.8,9.5-1.8
					c3.2,0,6.1,0.6,8.8,1.7c2.7,1.1,5.1,2.9,7.3,5.1v-5.6h8.5v46.6L442.2,97.9L442.2,97.9z"/>
			</defs>
			<clipPath id="SVGID_8_">
				<use xlink:href="#SVGID_7_"  style="overflow:visible;"/>
			</clipPath>
			<g class="st9">
				<polygon class="st5" points="402.1,50.1 450.7,50.1 450.7,99 402.1,99 				"/>
			</g>
		</g>
	</g>
	<g>
		<path class="st10" d="M385.3,111.5c0-0.3,0.2-0.4,0.5-0.4h11.1c0.2,0,0.3,0,0.4,0.1s0.1,0.2,0.1,0.3v1.6c0,0.1,0,0.3-0.1,0.3
			c-0.1,0.1-0.2,0.1-0.4,0.1H388v4.9h7.1c0.2,0,0.3,0,0.4,0.1s0.1,0.2,0.1,0.3v1.6c0,0.1,0,0.2-0.1,0.3c-0.1,0.1-0.2,0.1-0.4,0.1
			H388v5.1h9c0.2,0,0.3,0,0.5,0.1c0.1,0.1,0.2,0.2,0.2,0.4v1.5c0,0.1,0,0.3-0.1,0.3c-0.1,0.1-0.2,0.1-0.4,0.1h-11.4
			c-0.3,0-0.5-0.2-0.5-0.5L385.3,111.5L385.3,111.5z"/>
		<path class="st10" d="M417.3,111.1c0.1,0.1,0.1,0.1,0.1,0.3v16.9c0,0.1,0,0.2-0.1,0.3s-0.1,0.1-0.3,0.1h-1.6c-0.1,0-0.1,0-0.2-0.1
			c-0.1,0-0.1-0.1-0.1-0.1l-0.2-1.4c-0.4,0.6-1,1.1-1.6,1.4s-1.4,0.5-2.1,0.5c-0.9,0-1.8-0.2-2.6-0.7c-0.8-0.5-1.4-1.1-1.8-2
			c-0.4-0.8-0.7-1.8-0.7-2.8s0.2-2,0.6-2.8s1-1.5,1.8-2s1.6-0.7,2.6-0.7c0.7,0,1.4,0.1,2,0.4s1.1,0.7,1.5,1.2v-8.2
			c0-0.1,0-0.2,0.1-0.3s0.1-0.1,0.2-0.1h1.9C417.2,111,417.3,111.1,417.3,111.1z M413.3,126.1c0.5-0.3,0.8-0.6,1.1-1.1
			s0.4-1,0.4-1.5s-0.1-1-0.4-1.5s-0.6-0.8-1.1-1.1s-1-0.4-1.5-0.4s-1,0.1-1.5,0.4s-0.8,0.6-1.1,1.1c-0.3,0.5-0.4,1-0.4,1.5
			c0,0.6,0.1,1.1,0.4,1.5c0.3,0.5,0.6,0.8,1.1,1.1c0.5,0.3,1,0.4,1.5,0.4S412.8,126.3,413.3,126.1z"/>
		<path class="st10" d="M437.5,118.6v9.8c0,0.1,0,0.2-0.1,0.2s-0.1,0.1-0.3,0.1h-1.5c-0.2,0-0.3-0.1-0.3-0.2l-0.2-1.1
			c-0.4,0.5-0.9,0.9-1.4,1.2c-0.6,0.3-1.2,0.4-1.9,0.4c-0.9,0-1.6-0.2-2.2-0.6c-0.6-0.4-1.1-0.9-1.5-1.7c-0.3-0.7-0.5-1.6-0.5-2.5
			v-5.7c0-0.1,0-0.2,0.1-0.3s0.1-0.1,0.3-0.1h1.9c0.1,0,0.2,0,0.3,0.1s0.1,0.1,0.1,0.3v5.7c0,0.4,0.1,0.8,0.3,1.1
			c0.2,0.3,0.5,0.6,0.8,0.8c0.3,0.2,0.7,0.3,1.1,0.3s0.8-0.1,1.2-0.3s0.7-0.5,0.9-0.9c0.2-0.4,0.3-0.8,0.3-1.2v-5.5
			c0-0.2,0.1-0.3,0.3-0.3h1.9C437.4,118.2,437.5,118.3,437.5,118.6z"/>
		<path class="st10" d="M455.1,125.6c0.1,0,0.2,0,0.3,0.1l1,1.4c0.1,0.1,0.1,0.1,0.1,0.2s-0.1,0.2-0.2,0.3c-0.5,0.4-1.1,0.8-1.7,1
			s-1.3,0.4-2,0.4c-1,0-1.9-0.2-2.8-0.7s-1.5-1.2-2-2s-0.8-1.8-0.8-2.8s0.2-1.9,0.7-2.8c0.5-0.8,1.2-1.5,2-2
			c0.9-0.5,1.8-0.7,2.8-0.7c0.7,0,1.4,0.1,2,0.4c0.6,0.2,1.2,0.6,1.7,1c0.1,0.1,0.1,0.2,0.1,0.3c0,0.1,0,0.2-0.1,0.2l-1,1.5
			c-0.1,0.1-0.2,0.2-0.3,0.2c-0.1,0-0.1,0-0.2-0.1c-0.7-0.6-1.5-0.9-2.3-0.9c-0.5,0-1,0.1-1.5,0.4s-0.8,0.6-1.1,1.1
			c-0.3,0.5-0.4,1-0.4,1.5s0.1,1,0.4,1.5s0.6,0.8,1.1,1.1s0.9,0.4,1.5,0.4c0.8,0,1.6-0.3,2.2-0.8C454.9,125.6,455,125.6,455.1,125.6
			z"/>
		<path class="st10" d="M472.9,118.4c0.7,0.3,1.3,0.8,1.7,1.4c0.4,0.6,0.6,1.3,0.6,2.2v6.4c0,0.1,0,0.2-0.1,0.3s-0.1,0.1-0.2,0.1
			h-1.5c-0.1,0-0.1,0-0.2-0.1c-0.1,0-0.1-0.1-0.1-0.1l-0.2-1.1c-0.4,0.5-0.9,0.9-1.5,1.2s-1.3,0.4-2.2,0.4c-0.7,0-1.4-0.1-2-0.4
			s-1-0.7-1.4-1.2c-0.3-0.5-0.5-1.1-0.5-1.8c0-1,0.3-1.7,0.9-2.2s1.5-0.8,2.7-0.8h3.6v-0.5c0-0.6-0.2-1.1-0.6-1.5s-0.9-0.6-1.6-0.6
			c-0.5,0-1,0.1-1.5,0.2s-1,0.3-1.3,0.5c-0.1,0-0.2,0.1-0.3,0.1c-0.2,0-0.3-0.1-0.3-0.2l-0.6-1.1c0-0.1,0-0.1,0-0.2
			c0-0.2,0.1-0.4,0.3-0.5c0.5-0.3,1.1-0.5,1.7-0.7c0.7-0.2,1.4-0.2,2-0.2C471.4,117.9,472.2,118.1,472.9,118.4z M471.3,126.6
			c0.4-0.2,0.7-0.5,0.9-0.8c0.2-0.3,0.3-0.7,0.3-1.1v-0.3h-3.2c-0.4,0-0.8,0.1-1,0.3s-0.3,0.5-0.3,0.8c0,0.4,0.2,0.7,0.6,1
			s0.8,0.4,1.4,0.4C470.4,126.9,470.9,126.8,471.3,126.6z"/>
		<path class="st10" d="M492.6,125.6c0.1,0,0.2,0,0.3,0.1l1,1.4c0.1,0.1,0.1,0.1,0.1,0.2s-0.1,0.2-0.2,0.3c-0.5,0.4-1.1,0.8-1.7,1
			s-1.3,0.4-2,0.4c-1,0-1.9-0.2-2.8-0.7s-1.5-1.2-2-2s-0.8-1.8-0.8-2.8s0.2-1.9,0.7-2.8c0.5-0.8,1.2-1.5,2-2
			c0.9-0.5,1.8-0.7,2.8-0.7c0.7,0,1.4,0.1,2,0.4c0.6,0.2,1.2,0.6,1.7,1c0.1,0.1,0.1,0.2,0.1,0.3c0,0.1,0,0.2-0.1,0.2l-1,1.5
			c-0.1,0.1-0.2,0.2-0.3,0.2c-0.1,0-0.1,0-0.2-0.1c-0.7-0.6-1.5-0.9-2.3-0.9c-0.5,0-1,0.1-1.5,0.4s-0.8,0.6-1.1,1.1
			c-0.3,0.5-0.4,1-0.4,1.5s0.1,1,0.4,1.5s0.6,0.8,1.1,1.1s0.9,0.4,1.5,0.4c0.8,0,1.6-0.3,2.2-0.8
			C492.5,125.6,492.5,125.6,492.6,125.6z"/>
		<path class="st10" d="M504.1,114.8c-0.2-0.1-0.4-0.3-0.6-0.6c-0.1-0.2-0.2-0.5-0.2-0.8s0.1-0.6,0.2-0.8c0.1-0.2,0.3-0.4,0.6-0.6
			c0.2-0.1,0.5-0.2,0.8-0.2s0.6,0.1,0.8,0.2c0.2,0.1,0.4,0.3,0.6,0.6c0.1,0.2,0.2,0.5,0.2,0.8s-0.1,0.6-0.2,0.8
			c-0.1,0.2-0.3,0.4-0.6,0.6c-0.2,0.1-0.5,0.2-0.8,0.2C504.7,115,504.4,115,504.1,114.8z M506.2,118.3c0.1,0.1,0.1,0.1,0.1,0.2v9.8
			c0,0.1,0,0.2-0.1,0.2s-0.1,0.1-0.2,0.1h-2c-0.2,0-0.3-0.1-0.3-0.3v-9.8c0-0.2,0.1-0.3,0.3-0.3h2
			C506,118.2,506.1,118.2,506.2,118.3z"/>
		<path class="st10" d="M516.5,120.7c0.5-0.8,1.2-1.5,2-2c0.9-0.5,1.8-0.7,2.8-0.7s2,0.2,2.8,0.7c0.9,0.5,1.5,1.2,2,2
			s0.7,1.8,0.7,2.8s-0.3,1.9-0.8,2.8c-0.5,0.8-1.2,1.5-2,2c-0.9,0.5-1.8,0.7-2.8,0.7s-2-0.2-2.8-0.7c-0.9-0.5-1.5-1.2-2-2
			s-0.8-1.8-0.8-2.8C515.7,122.4,516,121.5,516.5,120.7z M518.8,124.9c0.3,0.5,0.6,0.8,1.1,1.1c0.5,0.3,1,0.4,1.5,0.4
			s1.1-0.1,1.5-0.4s0.8-0.6,1.1-1.1s0.4-1,0.4-1.5s-0.1-1.1-0.4-1.5c-0.3-0.5-0.6-0.8-1.1-1.1s-1-0.4-1.5-0.4s-1,0.1-1.5,0.4
			s-0.8,0.6-1.1,1.1s-0.4,1-0.4,1.5C518.4,124,518.5,124.5,518.8,124.9z"/>
		<path class="st10" d="M544.5,118.5c0.6,0.4,1.1,0.9,1.5,1.7c0.3,0.7,0.5,1.6,0.5,2.5v5.7c0,0.1,0,0.2-0.1,0.2
			c-0.1,0.1-0.1,0.1-0.3,0.1h-1.9c-0.1,0-0.2,0-0.3-0.1s-0.1-0.1-0.1-0.2v-5.7c0-0.4-0.1-0.8-0.3-1.1c-0.2-0.3-0.5-0.6-0.8-0.8
			c-0.3-0.2-0.7-0.3-1.1-0.3c-0.4,0-0.8,0.1-1.2,0.3c-0.4,0.2-0.7,0.5-0.9,0.9s-0.3,0.8-0.3,1.2v5.5c0,0.2-0.1,0.3-0.3,0.3H537
			c-0.2,0-0.3-0.1-0.3-0.3v-9.8c0-0.1,0-0.2,0.1-0.2c0.1-0.1,0.1-0.1,0.3-0.1h1.5c0.2,0,0.3,0.1,0.3,0.2l0.2,1.1
			c0.4-0.5,0.9-0.9,1.4-1.2c0.6-0.3,1.2-0.4,1.9-0.4C543.1,117.9,543.8,118.1,544.5,118.5z"/>
		<path class="st10" d="M563.4,118.4c0.7,0.3,1.3,0.8,1.7,1.4s0.6,1.3,0.6,2.2v6.4c0,0.1,0,0.2-0.1,0.3s-0.1,0.1-0.2,0.1h-1.5
			c-0.1,0-0.1,0-0.2-0.1c-0.1,0-0.1-0.1-0.1-0.1l-0.2-1.1c-0.4,0.5-0.9,0.9-1.5,1.2s-1.3,0.4-2.2,0.4c-0.7,0-1.4-0.1-2-0.4
			s-1-0.7-1.4-1.2c-0.3-0.5-0.5-1.1-0.5-1.8c0-1,0.3-1.7,0.9-2.2c0.6-0.5,1.5-0.8,2.7-0.8h3.6v-0.5c0-0.6-0.2-1.1-0.6-1.5
			s-0.9-0.6-1.6-0.6c-0.5,0-1,0.1-1.5,0.2s-1,0.3-1.3,0.5c-0.1,0-0.2,0.1-0.3,0.1c-0.2,0-0.3-0.1-0.3-0.2l-0.6-1.1
			c0-0.1,0-0.1,0-0.2c0-0.2,0.1-0.4,0.3-0.5c0.5-0.3,1.1-0.5,1.7-0.7c0.7-0.2,1.4-0.2,2-0.2C561.8,117.9,562.7,118.1,563.4,118.4z
			 M561.7,126.6c0.4-0.2,0.7-0.5,0.9-0.8s0.3-0.7,0.3-1.1v-0.3h-3.2c-0.4,0-0.8,0.1-1,0.3s-0.3,0.5-0.3,0.8c0,0.4,0.2,0.7,0.6,1
			c0.4,0.3,0.8,0.4,1.4,0.4C560.9,126.9,561.3,126.8,561.7,126.6z"/>
		<path class="st10" d="M578.4,111.3v17c0,0.2-0.1,0.3-0.3,0.3h-2c-0.2,0-0.3-0.1-0.3-0.3v-17c0-0.2,0.1-0.3,0.3-0.3h2
			C578.3,111,578.4,111.1,578.4,111.3z"/>
	</g>
	<g>
		<path class="st10" d="M125.8,85.3c2.7-0.9,4.9-1.9,6.8-3.2V64.5c0-0.6,0.2-1.1,0.5-1.5s0.8-0.6,1.3-0.6h7.1c0.5,0,0.9,0.2,1.3,0.6
			s0.6,0.9,0.6,1.5v24c0,0.4-0.1,0.8-0.3,1.2c-0.2,0.4-0.4,0.7-0.7,0.9c-2.9,2-6.6,3.7-11.2,5.1s-8.7,2.1-12.5,2.1
			c-7,0-13.4-1.7-19.3-5c-5.8-3.4-10.5-7.9-13.8-13.7C82.2,73.4,80.5,67,80.5,60c0-6.9,1.7-13.3,5.1-19.1s8-10.3,13.8-13.7
			s12.2-5,19.3-5c3.8,0,7.8,0.7,11.9,2c4.1,1.3,7.7,3.2,10.8,5.7c0.5,0.4,0.8,1,0.8,1.6c0,0.4-0.1,0.8-0.4,1.1l-4.3,6.5
			c-0.3,0.5-0.8,0.8-1.4,0.8c-0.5,0-0.9-0.2-1.3-0.5c-2.3-1.9-4.9-3.4-7.8-4.3s-5.7-1.4-8.4-1.4c-4.9,0-9.5,1.2-13.6,3.5
			c-4.1,2.4-7.4,5.6-9.7,9.6c-2.4,4.1-3.6,8.5-3.6,13.4s1.2,9.4,3.6,13.4c2.4,4.1,5.6,7.3,9.7,9.6c4.1,2.4,8.6,3.5,13.6,3.5
			C120.7,86.6,123.1,86.2,125.8,85.3z"/>
		<path class="st10" d="M189.6,56.7c0,0.3-0.1,0.6-0.3,0.9l-3.8,5.8c-0.2,0.4-0.6,0.7-1.1,0.7c-0.3,0-0.5-0.1-0.7-0.3l-0.4-0.3
			c-0.9-0.7-2-1.3-3.3-1.7s-2.4-0.6-3.6-0.6c-2,0-3.8,0.5-5.5,1.4s-3,2.2-4,3.9c-1,1.6-1.5,3.4-1.5,5.4V95c0,1-0.5,1.5-1.4,1.5h-8
			c-0.9,0-1.4-0.5-1.4-1.5V54.5c0-0.4,0.1-0.8,0.4-1c0.3-0.3,0.6-0.4,1.1-0.4h6.4c0.8,0,1.3,0.3,1.4,0.9l0.9,4.9
			c1.5-2.2,3.5-3.9,5.9-5.2s4.9-1.9,7.5-1.9c2.1,0,4.2,0.4,6.1,1.1c1.9,0.7,3.5,1.7,4.8,3C189.4,56,189.6,56.3,189.6,56.7z"/>
		<path class="st10" d="M236.5,54.6v40.6c0,0.4-0.1,0.8-0.4,1s-0.6,0.4-1.1,0.4h-6.4c-0.8,0-1.2-0.3-1.4-1l-0.9-4.5
			c-1.6,2.1-3.6,3.8-6,5s-4.9,1.8-7.7,1.8c-3.6,0-6.7-0.8-9.3-2.4s-4.7-3.9-6.1-6.9c-1.4-3-2.1-6.5-2.1-10.5V54.6
			c0-0.5,0.1-0.8,0.4-1.1c0.3-0.2,0.6-0.4,1.1-0.4h8c0.5,0,0.8,0.1,1.1,0.4c0.2,0.3,0.4,0.6,0.4,1.1v23.7c0,1.7,0.4,3.3,1.3,4.7
			c0.9,1.4,2,2.5,3.5,3.3s3,1.2,4.7,1.2c1.8,0,3.5-0.4,5-1.3s2.7-2,3.6-3.6c0.9-1.5,1.4-3.2,1.4-5.1v-23c0-1,0.5-1.5,1.4-1.5h8.1
			C236,53.1,236.5,53.6,236.5,54.6z"/>
		<path class="st10" d="M284.7,54.8c3.2,2,5.6,4.8,7.4,8.3s2.7,7.4,2.7,11.8s-0.9,8.3-2.7,11.8c-1.8,3.5-4.3,6.3-7.4,8.3
			s-6.7,3-10.7,3c-3,0-5.8-0.6-8.3-1.8c-2.5-1.2-4.7-2.9-6.5-5.2l0.1,25.7c0,0.5-0.1,0.8-0.4,1.1s-0.6,0.4-1.1,0.4h-8.1
			c-0.4,0-0.7-0.1-1-0.4c-0.2-0.3-0.4-0.6-0.4-1.1v-62c0-0.4,0.1-0.8,0.4-1.1c0.3-0.3,0.6-0.4,1-0.4h6.6c0.7,0,1.1,0.3,1.2,0.8
			l0.9,5.8c1.8-2.5,4-4.5,6.6-5.9c2.7-1.4,5.6-2.1,8.8-2.1C278,51.8,281.6,52.8,284.7,54.8z M278.2,85.6c1.9-1.1,3.4-2.6,4.5-4.5
			s1.7-4,1.7-6.2c0-2.3-0.6-4.4-1.7-6.3s-2.6-3.4-4.5-4.6c-1.9-1.1-3.9-1.7-6.2-1.7c-2.3,0-4.4,0.6-6.3,1.7
			c-1.9,1.1-3.4,2.6-4.6,4.6c-1.1,1.9-1.7,4-1.7,6.3s0.6,4.3,1.7,6.2c1.1,1.9,2.6,3.4,4.6,4.5s4.1,1.7,6.4,1.7
			C274.3,87.2,276.4,86.7,278.2,85.6z"/>
		<path class="st10" d="M303.4,63.3c2.1-3.5,4.9-6.3,8.5-8.4s7.5-3.1,11.8-3.1c4.2,0,8.1,1,11.7,3.1s6.4,4.8,8.5,8.4
			c2.1,3.5,3.1,7.4,3.1,11.6s-1,8.1-3.1,11.6s-4.9,6.3-8.5,8.3s-7.5,3.1-11.7,3.1c-4.3,0-8.2-1-11.8-3.1c-3.6-2-6.4-4.8-8.5-8.3
			s-3.1-7.4-3.1-11.6S301.3,66.8,303.4,63.3z M312.8,81.1c1.1,1.9,2.6,3.4,4.5,4.5s4,1.7,6.3,1.7s4.4-0.6,6.3-1.7s3.4-2.6,4.5-4.5
			s1.7-4,1.7-6.2c0-2.3-0.6-4.4-1.7-6.3s-2.6-3.4-4.5-4.6c-1.9-1.1-4-1.7-6.3-1.7s-4.4,0.6-6.3,1.7c-1.9,1.1-3.4,2.6-4.5,4.6
			c-1.1,1.9-1.7,4-1.7,6.3C311.2,77.1,311.7,79.2,312.8,81.1z"/>
	</g>
</g>
</svg>
