<svg xmlns="http://www.w3.org/2000/svg" xmlns:xlink="http://www.w3.org/1999/xlink" width="2432" height="1024.913" viewBox="0 0 2432 1024.913"><defs><clipPath id="a"><path d="M488.325,135.449,278.847,498.277H697.8L488.325,135.449,278.847,498.277H697.8Z" transform="translate(-278.847 -135.449)" fill="#064578"/></clipPath></defs><g transform="translate(333 -6692)"><g transform="translate(-333 6692)" fill="none" stroke="#fd8023" stroke-width="60"><circle cx="333.5" cy="333.5" r="333.5" stroke="none"/><circle cx="333.5" cy="333.5" r="303.5" fill="none"/></g><g transform="translate(1554.448 7269.45)"><path d="M477.7,119.956,588.624,312.08,699.547,504.2H255.855L366.778,312.08Z" transform="translate(-255.855 -119.956)" fill="#fd8023"/></g><g transform="translate(1680.042 7354.084)"><g clip-path="url(#a)"><g transform="translate(208.068 356.923)"><g transform="translate(0 146.633)"><path d="M321.443,227.63a4.507,4.507,0,1,1-4.507,4.507A4.508,4.508,0,0,1,321.443,227.63Z" transform="translate(-316.936 -227.63)" fill="#064578"/></g><g transform="translate(0.002 109.975)"><path d="M325.926,224.959a4.506,4.506,0,1,1-4.949-4.015A4.508,4.508,0,0,1,325.926,224.959Z" transform="translate(-316.936 -220.92)" fill="#064578"/></g><g transform="translate(0.002 73.315)"><path d="M325.926,218.248a4.506,4.506,0,1,1-4.949-4.015A4.508,4.508,0,0,1,325.926,218.248Z" transform="translate(-316.936 -214.209)" fill="#064578"/></g><g transform="translate(0.002)"><path d="M325.926,204.822a4.507,4.507,0,1,1-4.949-4.01A4.5,4.5,0,0,1,325.926,204.822Z" transform="translate(-316.936 -200.787)" fill="#064578"/></g><g transform="translate(0.002 36.655)"><path d="M325.926,211.537a4.506,4.506,0,1,1-4.949-4.015A4.508,4.508,0,0,1,325.926,211.537Z" transform="translate(-316.936 -207.498)" fill="#064578"/></g><g transform="translate(32.011 146.633)"><path d="M327.3,227.63a4.507,4.507,0,1,1-4.507,4.507A4.508,4.508,0,0,1,327.3,227.63Z" transform="translate(-322.796 -227.63)" fill="#064578"/></g><g transform="translate(32.014 109.975)"><path d="M331.785,224.959a4.506,4.506,0,1,1-4.949-4.015A4.508,4.508,0,0,1,331.785,224.959Z" transform="translate(-322.796 -220.92)" fill="#064578"/></g><g transform="translate(32.014 73.315)"><path d="M331.785,218.248a4.506,4.506,0,1,1-4.949-4.015A4.508,4.508,0,0,1,331.785,218.248Z" transform="translate(-322.796 -214.209)" fill="#064578"/></g><g transform="translate(32.014)"><path d="M331.785,204.822a4.507,4.507,0,1,1-4.949-4.01A4.5,4.5,0,0,1,331.785,204.822Z" transform="translate(-322.796 -200.787)" fill="#064578"/></g><g transform="translate(32.014 36.655)"><path d="M331.785,211.537a4.506,4.506,0,1,1-4.949-4.015A4.508,4.508,0,0,1,331.785,211.537Z" transform="translate(-322.796 -207.498)" fill="#064578"/></g><g transform="translate(66.093)"><g transform="translate(0 146.633)"><path d="M333.542,227.63a4.507,4.507,0,1,1-4.507,4.507A4.508,4.508,0,0,1,333.542,227.63Z" transform="translate(-329.035 -227.63)" fill="#064578"/></g><g transform="translate(0.003 109.975)"><path d="M338.024,224.959a4.506,4.506,0,1,1-4.949-4.015A4.508,4.508,0,0,1,338.024,224.959Z" transform="translate(-329.036 -220.92)" fill="#064578"/></g><g transform="translate(0.003 73.315)"><path d="M338.024,218.248a4.506,4.506,0,1,1-4.949-4.015A4.508,4.508,0,0,1,338.024,218.248Z" transform="translate(-329.036 -214.209)" fill="#064578"/></g><g transform="translate(0.003)"><path d="M338.024,204.822a4.507,4.507,0,1,1-4.949-4.01A4.5,4.5,0,0,1,338.024,204.822Z" transform="translate(-329.036 -200.787)" fill="#064578"/></g><g transform="translate(0.003 36.655)"><path d="M338.024,211.537a4.506,4.506,0,1,1-4.949-4.015A4.508,4.508,0,0,1,338.024,211.537Z" transform="translate(-329.036 -207.498)" fill="#064578"/></g><g transform="translate(32.017 146.633)"><path d="M339.4,227.63a4.507,4.507,0,1,1-4.507,4.507A4.511,4.511,0,0,1,339.4,227.63Z" transform="translate(-334.896 -227.63)" fill="#064578"/></g><g transform="translate(32.014 109.975)"><path d="M343.884,224.959a4.506,4.506,0,1,1-4.949-4.015A4.507,4.507,0,0,1,343.884,224.959Z" transform="translate(-334.896 -220.92)" fill="#064578"/></g><g transform="translate(32.014 73.315)"><path d="M343.884,218.248a4.506,4.506,0,1,1-4.949-4.015A4.507,4.507,0,0,1,343.884,218.248Z" transform="translate(-334.896 -214.209)" fill="#064578"/></g><g transform="translate(32.014)"><path d="M343.884,204.822a4.507,4.507,0,1,1-4.949-4.01A4.5,4.5,0,0,1,343.884,204.822Z" transform="translate(-334.896 -200.787)" fill="#064578"/></g><g transform="translate(32.014 36.655)"><path d="M343.884,211.537a4.506,4.506,0,1,1-4.949-4.015A4.507,4.507,0,0,1,343.884,211.537Z" transform="translate(-334.896 -207.498)" fill="#064578"/></g></g><g transform="translate(126.308)"><g transform="translate(0 146.633)"><path d="M344.565,227.63a4.507,4.507,0,1,1-4.507,4.507A4.508,4.508,0,0,1,344.565,227.63Z" transform="translate(-340.058 -227.63)" fill="#064578"/></g><g transform="translate(0.002 109.975)"><path d="M349.048,224.959a4.506,4.506,0,1,1-4.949-4.015A4.508,4.508,0,0,1,349.048,224.959Z" transform="translate(-340.058 -220.92)" fill="#064578"/></g><g transform="translate(0.002 73.315)"><path d="M349.048,218.248a4.506,4.506,0,1,1-4.949-4.015A4.508,4.508,0,0,1,349.048,218.248Z" transform="translate(-340.058 -214.209)" fill="#064578"/></g><g transform="translate(0.002)"><path d="M349.048,204.822a4.507,4.507,0,1,1-4.949-4.01A4.5,4.5,0,0,1,349.048,204.822Z" transform="translate(-340.058 -200.787)" fill="#064578"/></g><g transform="translate(0.002 36.655)"><path d="M349.048,211.537a4.506,4.506,0,1,1-4.949-4.015A4.508,4.508,0,0,1,349.048,211.537Z" transform="translate(-340.058 -207.498)" fill="#064578"/></g><g transform="translate(32.011 146.633)"><path d="M350.425,227.63a4.507,4.507,0,1,1-4.507,4.507A4.508,4.508,0,0,1,350.425,227.63Z" transform="translate(-345.918 -227.63)" fill="#064578"/></g><g transform="translate(32.014 109.975)"><path d="M354.907,224.959a4.506,4.506,0,1,1-4.949-4.015A4.508,4.508,0,0,1,354.907,224.959Z" transform="translate(-345.918 -220.92)" fill="#064578"/></g><g transform="translate(32.014 73.315)"><path d="M354.907,218.248a4.506,4.506,0,1,1-4.949-4.015A4.508,4.508,0,0,1,354.907,218.248Z" transform="translate(-345.918 -214.209)" fill="#064578"/></g><g transform="translate(32.014)"><path d="M354.907,204.822a4.507,4.507,0,1,1-4.949-4.01A4.5,4.5,0,0,1,354.907,204.822Z" transform="translate(-345.918 -200.787)" fill="#064578"/></g><g transform="translate(32.014 36.655)"><path d="M354.907,211.537a4.506,4.506,0,1,1-4.949-4.015A4.508,4.508,0,0,1,354.907,211.537Z" transform="translate(-345.918 -207.498)" fill="#064578"/></g></g><g transform="translate(192.401)"><g transform="translate(0 146.633)"><path d="M356.664,227.63a4.507,4.507,0,1,1-4.507,4.507A4.508,4.508,0,0,1,356.664,227.63Z" transform="translate(-352.157 -227.63)" fill="#064578"/></g><g transform="translate(0.003 109.975)"><path d="M361.146,224.959a4.507,4.507,0,1,1-4.949-4.015A4.508,4.508,0,0,1,361.146,224.959Z" transform="translate(-352.157 -220.92)" fill="#064578"/></g><g transform="translate(0.003 73.315)"><path d="M361.146,218.248a4.507,4.507,0,1,1-4.949-4.015A4.508,4.508,0,0,1,361.146,218.248Z" transform="translate(-352.157 -214.209)" fill="#064578"/></g><g transform="translate(0.003)"><path d="M361.146,204.822a4.507,4.507,0,1,1-4.949-4.01A4.5,4.5,0,0,1,361.146,204.822Z" transform="translate(-352.157 -200.787)" fill="#064578"/></g><g transform="translate(0.003 36.655)"><path d="M361.146,211.537a4.507,4.507,0,1,1-4.949-4.015A4.508,4.508,0,0,1,361.146,211.537Z" transform="translate(-352.157 -207.498)" fill="#064578"/></g><g transform="translate(32.017 146.633)"><path d="M362.525,227.63a4.507,4.507,0,1,1-4.507,4.507A4.511,4.511,0,0,1,362.525,227.63Z" transform="translate(-358.018 -227.63)" fill="#064578"/></g><g transform="translate(32.014 109.975)"><path d="M367.006,224.959a4.506,4.506,0,1,1-4.949-4.015A4.507,4.507,0,0,1,367.006,224.959Z" transform="translate(-358.017 -220.92)" fill="#064578"/></g><g transform="translate(32.014 73.315)"><path d="M367.006,218.248a4.506,4.506,0,1,1-4.949-4.015A4.507,4.507,0,0,1,367.006,218.248Z" transform="translate(-358.017 -214.209)" fill="#064578"/></g><g transform="translate(32.014)"><path d="M367.006,204.822a4.507,4.507,0,1,1-4.949-4.01A4.5,4.5,0,0,1,367.006,204.822Z" transform="translate(-358.017 -200.787)" fill="#064578"/></g><g transform="translate(32.014 36.655)"><path d="M367.006,211.537a4.506,4.506,0,1,1-4.949-4.015A4.508,4.508,0,0,1,367.006,211.537Z" transform="translate(-358.017 -207.498)" fill="#064578"/></g></g></g><g transform="translate(-56.167 356.923)"><g transform="translate(0 146.633)"><path d="M273.072,227.63a4.507,4.507,0,1,1-4.507,4.507A4.508,4.508,0,0,1,273.072,227.63Z" transform="translate(-268.565 -227.63)" fill="#064578"/></g><g transform="translate(0.002 109.975)"><path d="M277.555,224.959a4.506,4.506,0,1,1-4.949-4.015A4.508,4.508,0,0,1,277.555,224.959Z" transform="translate(-268.565 -220.92)" fill="#064578"/></g><g transform="translate(0.002 73.315)"><path d="M277.555,218.248a4.506,4.506,0,1,1-4.949-4.015A4.508,4.508,0,0,1,277.555,218.248Z" transform="translate(-268.565 -214.209)" fill="#064578"/></g><g transform="translate(0.002)"><path d="M277.555,204.822a4.507,4.507,0,1,1-4.949-4.01A4.5,4.5,0,0,1,277.555,204.822Z" transform="translate(-268.565 -200.787)" fill="#064578"/></g><g transform="translate(0.002 36.655)"><path d="M277.555,211.537a4.506,4.506,0,1,1-4.949-4.015A4.508,4.508,0,0,1,277.555,211.537Z" transform="translate(-268.565 -207.498)" fill="#064578"/></g><g transform="translate(32.017 146.633)"><path d="M278.927,227.63a4.507,4.507,0,1,1-4.5,4.507A4.508,4.508,0,0,1,278.927,227.63Z" transform="translate(-274.426 -227.63)" fill="#064578"/></g><g transform="translate(32.014 109.975)"><path d="M283.414,224.959a4.506,4.506,0,1,1-4.949-4.015A4.508,4.508,0,0,1,283.414,224.959Z" transform="translate(-274.425 -220.92)" fill="#064578"/></g><g transform="translate(32.014 73.315)"><path d="M283.414,218.248a4.506,4.506,0,1,1-4.949-4.015A4.508,4.508,0,0,1,283.414,218.248Z" transform="translate(-274.425 -214.209)" fill="#064578"/></g><g transform="translate(32.014)"><path d="M283.414,204.822a4.507,4.507,0,1,1-4.949-4.01A4.5,4.5,0,0,1,283.414,204.822Z" transform="translate(-274.425 -200.787)" fill="#064578"/></g><g transform="translate(32.014 36.655)"><path d="M283.414,211.537a4.506,4.506,0,1,1-4.949-4.015A4.508,4.508,0,0,1,283.414,211.537Z" transform="translate(-274.425 -207.498)" fill="#064578"/></g><g transform="translate(66.096)"><g transform="translate(0.003 146.633)"><path d="M285.166,227.63a4.507,4.507,0,1,1-4.5,4.507A4.508,4.508,0,0,1,285.166,227.63Z" transform="translate(-280.665 -227.63)" fill="#064578"/></g><g transform="translate(0 109.975)"><path d="M289.653,224.959a4.506,4.506,0,1,1-4.949-4.015A4.507,4.507,0,0,1,289.653,224.959Z" transform="translate(-280.665 -220.92)" fill="#064578"/></g><g transform="translate(0 73.315)"><path d="M289.653,218.248a4.506,4.506,0,1,1-4.949-4.015A4.507,4.507,0,0,1,289.653,218.248Z" transform="translate(-280.665 -214.209)" fill="#064578"/></g><path d="M289.653,204.822a4.507,4.507,0,1,1-4.949-4.01A4.5,4.5,0,0,1,289.653,204.822Z" transform="translate(-280.665 -200.787)" fill="#064578"/><g transform="translate(0 36.655)"><path d="M289.653,211.537a4.506,4.506,0,1,1-4.949-4.015A4.507,4.507,0,0,1,289.653,211.537Z" transform="translate(-280.665 -207.498)" fill="#064578"/></g><g transform="translate(32.014 146.633)"><path d="M291.032,227.63a4.507,4.507,0,1,1-4.507,4.507A4.511,4.511,0,0,1,291.032,227.63Z" transform="translate(-286.525 -227.63)" fill="#064578"/></g><g transform="translate(32.011 109.975)"><path d="M295.513,224.959a4.507,4.507,0,1,1-4.949-4.015A4.5,4.5,0,0,1,295.513,224.959Z" transform="translate(-286.524 -220.92)" fill="#064578"/></g><g transform="translate(32.011 73.315)"><path d="M295.513,218.248a4.507,4.507,0,1,1-4.949-4.015A4.5,4.5,0,0,1,295.513,218.248Z" transform="translate(-286.524 -214.209)" fill="#064578"/></g><g transform="translate(32.011)"><path d="M295.513,204.822a4.507,4.507,0,1,1-4.949-4.01A4.5,4.5,0,0,1,295.513,204.822Z" transform="translate(-286.524 -200.787)" fill="#064578"/></g><g transform="translate(32.011 36.655)"><path d="M295.513,211.537a4.507,4.507,0,1,1-4.949-4.015A4.5,4.5,0,0,1,295.513,211.537Z" transform="translate(-286.524 -207.498)" fill="#064578"/></g></g><g transform="translate(126.308)"><g transform="translate(0 146.633)"><path d="M296.194,227.63a4.507,4.507,0,1,1-4.507,4.507A4.508,4.508,0,0,1,296.194,227.63Z" transform="translate(-291.687 -227.63)" fill="#064578"/></g><g transform="translate(0.002 109.975)"><path d="M300.677,224.959a4.507,4.507,0,1,1-4.949-4.015A4.508,4.508,0,0,1,300.677,224.959Z" transform="translate(-291.687 -220.92)" fill="#064578"/></g><g transform="translate(0.002 73.315)"><path d="M300.677,218.248a4.507,4.507,0,1,1-4.949-4.015A4.508,4.508,0,0,1,300.677,218.248Z" transform="translate(-291.687 -214.209)" fill="#064578"/></g><g transform="translate(0.002)"><path d="M300.677,204.822a4.507,4.507,0,1,1-4.949-4.01A4.5,4.5,0,0,1,300.677,204.822Z" transform="translate(-291.687 -200.787)" fill="#064578"/></g><g transform="translate(0.002 36.655)"><path d="M300.677,211.537a4.507,4.507,0,1,1-4.949-4.015A4.508,4.508,0,0,1,300.677,211.537Z" transform="translate(-291.687 -207.498)" fill="#064578"/></g><g transform="translate(32.017 146.633)"><path d="M302.049,227.63a4.507,4.507,0,1,1-4.5,4.507A4.508,4.508,0,0,1,302.049,227.63Z" transform="translate(-297.548 -227.63)" fill="#064578"/></g><g transform="translate(32.014 109.975)"><path d="M306.536,224.959a4.506,4.506,0,1,1-4.949-4.015A4.507,4.507,0,0,1,306.536,224.959Z" transform="translate(-297.547 -220.92)" fill="#064578"/></g><g transform="translate(32.014 73.315)"><path d="M306.536,218.248a4.506,4.506,0,1,1-4.949-4.015A4.507,4.507,0,0,1,306.536,218.248Z" transform="translate(-297.547 -214.209)" fill="#064578"/></g><g transform="translate(32.014)"><path d="M306.536,204.822a4.507,4.507,0,1,1-4.949-4.01A4.5,4.5,0,0,1,306.536,204.822Z" transform="translate(-297.547 -200.787)" fill="#064578"/></g><g transform="translate(32.014 36.655)"><path d="M306.536,211.537a4.506,4.506,0,1,1-4.949-4.015A4.507,4.507,0,0,1,306.536,211.537Z" transform="translate(-297.547 -207.498)" fill="#064578"/></g></g><g transform="translate(192.404)"><g transform="translate(0.003 146.633)"><path d="M308.288,227.63a4.507,4.507,0,1,1-4.5,4.507A4.508,4.508,0,0,1,308.288,227.63Z" transform="translate(-303.787 -227.63)" fill="#064578"/></g><g transform="translate(0 109.975)"><path d="M312.775,224.959a4.506,4.506,0,1,1-4.949-4.015A4.508,4.508,0,0,1,312.775,224.959Z" transform="translate(-303.786 -220.92)" fill="#064578"/></g><g transform="translate(0 73.315)"><path d="M312.775,218.248a4.506,4.506,0,1,1-4.949-4.015A4.508,4.508,0,0,1,312.775,218.248Z" transform="translate(-303.786 -214.209)" fill="#064578"/></g><path d="M312.775,204.822a4.507,4.507,0,1,1-4.949-4.01A4.5,4.5,0,0,1,312.775,204.822Z" transform="translate(-303.786 -200.787)" fill="#064578"/><g transform="translate(0 36.655)"><path d="M312.775,211.537a4.506,4.506,0,1,1-4.949-4.015A4.508,4.508,0,0,1,312.775,211.537Z" transform="translate(-303.786 -207.498)" fill="#064578"/></g><g transform="translate(32.014 146.633)"><path d="M314.154,227.63a4.507,4.507,0,1,1-4.507,4.507A4.511,4.511,0,0,1,314.154,227.63Z" transform="translate(-309.647 -227.63)" fill="#064578"/></g><g transform="translate(32.011 109.975)"><path d="M318.635,224.959a4.506,4.506,0,1,1-4.949-4.015A4.5,4.5,0,0,1,318.635,224.959Z" transform="translate(-309.647 -220.92)" fill="#064578"/></g><g transform="translate(32.011 73.315)"><path d="M318.635,218.248a4.506,4.506,0,1,1-4.949-4.015A4.5,4.5,0,0,1,318.635,218.248Z" transform="translate(-309.647 -214.209)" fill="#064578"/></g><g transform="translate(32.011)"><path d="M318.635,204.822a4.507,4.507,0,1,1-4.949-4.01A4.5,4.5,0,0,1,318.635,204.822Z" transform="translate(-309.647 -200.787)" fill="#064578"/></g><g transform="translate(32.011 36.655)"><path d="M318.635,211.537a4.506,4.506,0,1,1-4.949-4.015A4.5,4.5,0,0,1,318.635,211.537Z" transform="translate(-309.647 -207.498)" fill="#064578"/></g></g></g><g transform="translate(208.068 175.361)"><g transform="translate(0 146.637)"><path d="M321.443,194.394a4.507,4.507,0,1,1-4.507,4.5A4.5,4.5,0,0,1,321.443,194.394Z" transform="translate(-316.936 -194.394)" fill="#064578"/></g><g transform="translate(0.002 109.974)"><path d="M325.926,191.722a4.506,4.506,0,1,1-4.949-4.015A4.508,4.508,0,0,1,325.926,191.722Z" transform="translate(-316.936 -187.682)" fill="#064578"/></g><g transform="translate(0.002 73.314)"><path d="M325.926,185.011A4.506,4.506,0,1,1,320.977,181,4.5,4.5,0,0,1,325.926,185.011Z" transform="translate(-316.936 -180.972)" fill="#064578"/></g><g transform="translate(0.002)"><path d="M325.926,171.59a4.506,4.506,0,1,1-4.949-4.015A4.508,4.508,0,0,1,325.926,171.59Z" transform="translate(-316.936 -167.551)" fill="#064578"/></g><g transform="translate(0.002 36.659)"><path d="M325.926,178.3a4.506,4.506,0,1,1-4.949-4.015A4.511,4.511,0,0,1,325.926,178.3Z" transform="translate(-316.936 -174.261)" fill="#064578"/></g><g transform="translate(32.014 146.634)"><circle cx="4.507" cy="4.507" r="4.507" fill="#064578"/></g><g transform="translate(32.014 109.974)"><path d="M331.785,191.722a4.506,4.506,0,1,1-4.949-4.015A4.508,4.508,0,0,1,331.785,191.722Z" transform="translate(-322.796 -187.682)" fill="#064578"/></g><g transform="translate(32.014 73.314)"><path d="M331.785,185.011A4.506,4.506,0,1,1,326.836,181,4.5,4.5,0,0,1,331.785,185.011Z" transform="translate(-322.796 -180.972)" fill="#064578"/></g><g transform="translate(32.014)"><path d="M331.785,171.59a4.506,4.506,0,1,1-4.949-4.015A4.508,4.508,0,0,1,331.785,171.59Z" transform="translate(-322.796 -167.551)" fill="#064578"/></g><g transform="translate(32.014 36.659)"><path d="M331.785,178.3a4.506,4.506,0,1,1-4.949-4.015A4.511,4.511,0,0,1,331.785,178.3Z" transform="translate(-322.796 -174.261)" fill="#064578"/></g><g transform="translate(66.095)"><g transform="translate(0 146.634)"><circle cx="4.507" cy="4.507" r="4.507" fill="#064578"/></g><g transform="translate(0 109.974)"><path d="M338.024,191.722a4.506,4.506,0,1,1-4.949-4.015A4.508,4.508,0,0,1,338.024,191.722Z" transform="translate(-329.036 -187.682)" fill="#064578"/></g><g transform="translate(0 73.314)"><path d="M338.024,185.011A4.506,4.506,0,1,1,333.075,181,4.5,4.5,0,0,1,338.024,185.011Z" transform="translate(-329.036 -180.972)" fill="#064578"/></g><g transform="translate(0)"><path d="M338.024,171.59a4.506,4.506,0,1,1-4.949-4.015A4.508,4.508,0,0,1,338.024,171.59Z" transform="translate(-329.036 -167.551)" fill="#064578"/></g><g transform="translate(0 36.659)"><path d="M338.024,178.3a4.506,4.506,0,1,1-4.949-4.015A4.511,4.511,0,0,1,338.024,178.3Z" transform="translate(-329.036 -174.261)" fill="#064578"/></g><g transform="translate(32.014 146.637)"><path d="M339.4,194.394a4.507,4.507,0,1,1-4.507,4.5A4.507,4.507,0,0,1,339.4,194.394Z" transform="translate(-334.896 -194.394)" fill="#064578"/></g><g transform="translate(32.011 109.974)"><path d="M343.884,191.722a4.506,4.506,0,1,1-4.949-4.015A4.507,4.507,0,0,1,343.884,191.722Z" transform="translate(-334.896 -187.682)" fill="#064578"/></g><g transform="translate(32.011 73.314)"><path d="M343.884,185.011A4.506,4.506,0,1,1,338.935,181,4.5,4.5,0,0,1,343.884,185.011Z" transform="translate(-334.896 -180.972)" fill="#064578"/></g><g transform="translate(32.011)"><path d="M343.884,171.59a4.506,4.506,0,1,1-4.949-4.015A4.507,4.507,0,0,1,343.884,171.59Z" transform="translate(-334.896 -167.551)" fill="#064578"/></g><g transform="translate(32.011 36.659)"><path d="M343.884,178.3a4.506,4.506,0,1,1-4.949-4.015A4.51,4.51,0,0,1,343.884,178.3Z" transform="translate(-334.896 -174.261)" fill="#064578"/></g></g><g transform="translate(126.308)"><g transform="translate(0 146.637)"><path d="M344.565,194.394a4.507,4.507,0,1,1-4.507,4.5A4.5,4.5,0,0,1,344.565,194.394Z" transform="translate(-340.058 -194.394)" fill="#064578"/></g><g transform="translate(0.002 109.974)"><path d="M349.048,191.722a4.506,4.506,0,1,1-4.949-4.015A4.508,4.508,0,0,1,349.048,191.722Z" transform="translate(-340.058 -187.682)" fill="#064578"/></g><g transform="translate(0.002 73.314)"><path d="M349.048,185.011A4.506,4.506,0,1,1,344.1,181,4.5,4.5,0,0,1,349.048,185.011Z" transform="translate(-340.058 -180.972)" fill="#064578"/></g><g transform="translate(0.002)"><path d="M349.048,171.59a4.506,4.506,0,1,1-4.949-4.015A4.508,4.508,0,0,1,349.048,171.59Z" transform="translate(-340.058 -167.551)" fill="#064578"/></g><g transform="translate(0.002 36.659)"><path d="M349.048,178.3a4.506,4.506,0,1,1-4.949-4.015A4.511,4.511,0,0,1,349.048,178.3Z" transform="translate(-340.058 -174.261)" fill="#064578"/></g><g transform="translate(32.014 146.634)"><circle cx="4.507" cy="4.507" r="4.507" fill="#064578"/></g><g transform="translate(32.014 109.974)"><path d="M354.907,191.722a4.506,4.506,0,1,1-4.949-4.015A4.508,4.508,0,0,1,354.907,191.722Z" transform="translate(-345.918 -187.682)" fill="#064578"/></g><g transform="translate(32.014 73.314)"><path d="M354.907,185.011A4.506,4.506,0,1,1,349.958,181,4.5,4.5,0,0,1,354.907,185.011Z" transform="translate(-345.918 -180.972)" fill="#064578"/></g><g transform="translate(32.014)"><path d="M354.907,171.59a4.506,4.506,0,1,1-4.949-4.015A4.508,4.508,0,0,1,354.907,171.59Z" transform="translate(-345.918 -167.551)" fill="#064578"/></g><g transform="translate(32.014 36.659)"><path d="M354.907,178.3a4.506,4.506,0,1,1-4.949-4.015A4.511,4.511,0,0,1,354.907,178.3Z" transform="translate(-345.918 -174.261)" fill="#064578"/></g></g><g transform="translate(192.403)"><g transform="translate(0 146.634)"><circle cx="4.507" cy="4.507" r="4.507" fill="#064578"/></g><g transform="translate(0 109.974)"><path d="M361.146,191.722a4.507,4.507,0,1,1-4.949-4.015A4.508,4.508,0,0,1,361.146,191.722Z" transform="translate(-352.157 -187.682)" fill="#064578"/></g><g transform="translate(0 73.314)"><path d="M361.146,185.011A4.507,4.507,0,1,1,356.2,181,4.5,4.5,0,0,1,361.146,185.011Z" transform="translate(-352.157 -180.972)" fill="#064578"/></g><g transform="translate(0)"><path d="M361.146,171.59a4.507,4.507,0,1,1-4.949-4.015A4.508,4.508,0,0,1,361.146,171.59Z" transform="translate(-352.157 -167.551)" fill="#064578"/></g><g transform="translate(0 36.659)"><path d="M361.146,178.3a4.507,4.507,0,1,1-4.949-4.015A4.511,4.511,0,0,1,361.146,178.3Z" transform="translate(-352.157 -174.261)" fill="#064578"/></g><g transform="translate(32.014 146.637)"><path d="M362.525,194.394a4.507,4.507,0,1,1-4.507,4.5A4.506,4.506,0,0,1,362.525,194.394Z" transform="translate(-358.018 -194.394)" fill="#064578"/></g><g transform="translate(32.011 109.974)"><path d="M367.006,191.722a4.506,4.506,0,1,1-4.949-4.015A4.507,4.507,0,0,1,367.006,191.722Z" transform="translate(-358.017 -187.682)" fill="#064578"/></g><g transform="translate(32.011 73.314)"><path d="M367.006,185.011A4.506,4.506,0,1,1,362.057,181,4.5,4.5,0,0,1,367.006,185.011Z" transform="translate(-358.017 -180.972)" fill="#064578"/></g><g transform="translate(32.011)"><path d="M367.006,171.59a4.506,4.506,0,1,1-4.949-4.015A4.507,4.507,0,0,1,367.006,171.59Z" transform="translate(-358.017 -167.551)" fill="#064578"/></g><g transform="translate(32.011 36.659)"><path d="M367.006,178.3a4.506,4.506,0,1,1-4.949-4.015A4.511,4.511,0,0,1,367.006,178.3Z" transform="translate(-358.017 -174.261)" fill="#064578"/></g></g></g><g transform="translate(-56.167 175.361)"><g transform="translate(0 146.637)"><path d="M273.072,194.394a4.507,4.507,0,1,1-4.507,4.5A4.5,4.5,0,0,1,273.072,194.394Z" transform="translate(-268.565 -194.394)" fill="#064578"/></g><g transform="translate(0.002 109.974)"><path d="M277.555,191.722a4.506,4.506,0,1,1-4.949-4.015A4.508,4.508,0,0,1,277.555,191.722Z" transform="translate(-268.565 -187.682)" fill="#064578"/></g><g transform="translate(0.002 73.314)"><path d="M277.555,185.011A4.506,4.506,0,1,1,272.606,181,4.5,4.5,0,0,1,277.555,185.011Z" transform="translate(-268.565 -180.972)" fill="#064578"/></g><g transform="translate(0.002)"><path d="M277.555,171.59a4.506,4.506,0,1,1-4.949-4.015A4.508,4.508,0,0,1,277.555,171.59Z" transform="translate(-268.565 -167.551)" fill="#064578"/></g><g transform="translate(0.002 36.659)"><path d="M277.555,178.3a4.506,4.506,0,1,1-4.949-4.015A4.511,4.511,0,0,1,277.555,178.3Z" transform="translate(-268.565 -174.261)" fill="#064578"/></g><g transform="translate(32.017 146.637)"><path d="M278.927,194.394a4.507,4.507,0,1,1-4.5,4.5A4.5,4.5,0,0,1,278.927,194.394Z" transform="translate(-274.426 -194.394)" fill="#064578"/></g><g transform="translate(32.014 109.974)"><path d="M283.414,191.722a4.506,4.506,0,1,1-4.949-4.015A4.508,4.508,0,0,1,283.414,191.722Z" transform="translate(-274.425 -187.682)" fill="#064578"/></g><g transform="translate(32.014 73.314)"><path d="M283.414,185.011A4.506,4.506,0,1,1,278.465,181,4.5,4.5,0,0,1,283.414,185.011Z" transform="translate(-274.425 -180.972)" fill="#064578"/></g><g transform="translate(32.014)"><path d="M283.414,171.59a4.506,4.506,0,1,1-4.949-4.015A4.508,4.508,0,0,1,283.414,171.59Z" transform="translate(-274.425 -167.551)" fill="#064578"/></g><g transform="translate(32.014 36.659)"><path d="M283.414,178.3a4.506,4.506,0,1,1-4.949-4.015A4.511,4.511,0,0,1,283.414,178.3Z" transform="translate(-274.425 -174.261)" fill="#064578"/></g><g transform="translate(66.096)"><g transform="translate(0.003 146.637)"><path d="M285.166,194.394a4.507,4.507,0,1,1-4.5,4.5A4.5,4.5,0,0,1,285.166,194.394Z" transform="translate(-280.665 -194.394)" fill="#064578"/></g><g transform="translate(0 109.974)"><path d="M289.653,191.722a4.506,4.506,0,1,1-4.949-4.015A4.507,4.507,0,0,1,289.653,191.722Z" transform="translate(-280.665 -187.682)" fill="#064578"/></g><g transform="translate(0 73.314)"><path d="M289.653,185.011A4.506,4.506,0,1,1,284.7,181,4.5,4.5,0,0,1,289.653,185.011Z" transform="translate(-280.665 -180.972)" fill="#064578"/></g><path d="M289.653,171.59a4.506,4.506,0,1,1-4.949-4.015A4.507,4.507,0,0,1,289.653,171.59Z" transform="translate(-280.665 -167.551)" fill="#064578"/><g transform="translate(0 36.659)"><path d="M289.653,178.3a4.506,4.506,0,1,1-4.949-4.015A4.511,4.511,0,0,1,289.653,178.3Z" transform="translate(-280.665 -174.261)" fill="#064578"/></g><g transform="translate(32.012 146.634)"><circle cx="4.507" cy="4.507" r="4.507" fill="#064578"/></g><g transform="translate(32.011 109.974)"><path d="M295.513,191.722a4.507,4.507,0,1,1-4.949-4.015A4.5,4.5,0,0,1,295.513,191.722Z" transform="translate(-286.524 -187.682)" fill="#064578"/></g><g transform="translate(32.011 73.314)"><path d="M295.513,185.011A4.507,4.507,0,1,1,290.564,181,4.5,4.5,0,0,1,295.513,185.011Z" transform="translate(-286.524 -180.972)" fill="#064578"/></g><g transform="translate(32.011)"><path d="M295.513,171.59a4.507,4.507,0,1,1-4.949-4.015A4.5,4.5,0,0,1,295.513,171.59Z" transform="translate(-286.524 -167.551)" fill="#064578"/></g><g transform="translate(32.011 36.659)"><path d="M295.513,178.3a4.507,4.507,0,1,1-4.949-4.015A4.507,4.507,0,0,1,295.513,178.3Z" transform="translate(-286.524 -174.261)" fill="#064578"/></g></g><g transform="translate(126.308)"><g transform="translate(0 146.637)"><path d="M296.194,194.394a4.507,4.507,0,1,1-4.507,4.5A4.5,4.5,0,0,1,296.194,194.394Z" transform="translate(-291.687 -194.394)" fill="#064578"/></g><g transform="translate(0.002 109.974)"><path d="M300.677,191.722a4.507,4.507,0,1,1-4.949-4.015A4.508,4.508,0,0,1,300.677,191.722Z" transform="translate(-291.687 -187.682)" fill="#064578"/></g><g transform="translate(0.002 73.314)"><path d="M300.677,185.011A4.507,4.507,0,1,1,295.728,181,4.5,4.5,0,0,1,300.677,185.011Z" transform="translate(-291.687 -180.972)" fill="#064578"/></g><g transform="translate(0.002)"><path d="M300.677,171.59a4.507,4.507,0,1,1-4.949-4.015A4.508,4.508,0,0,1,300.677,171.59Z" transform="translate(-291.687 -167.551)" fill="#064578"/></g><g transform="translate(0.002 36.659)"><path d="M300.677,178.3a4.507,4.507,0,1,1-4.949-4.015A4.511,4.511,0,0,1,300.677,178.3Z" transform="translate(-291.687 -174.261)" fill="#064578"/></g><g transform="translate(32.017 146.637)"><path d="M302.049,194.394a4.507,4.507,0,1,1-4.5,4.5A4.5,4.5,0,0,1,302.049,194.394Z" transform="translate(-297.548 -194.394)" fill="#064578"/></g><g transform="translate(32.014 109.974)"><path d="M306.536,191.722a4.506,4.506,0,1,1-4.949-4.015A4.507,4.507,0,0,1,306.536,191.722Z" transform="translate(-297.547 -187.682)" fill="#064578"/></g><g transform="translate(32.014 73.314)"><path d="M306.536,185.011A4.506,4.506,0,1,1,301.587,181,4.5,4.5,0,0,1,306.536,185.011Z" transform="translate(-297.547 -180.972)" fill="#064578"/></g><g transform="translate(32.014)"><path d="M306.536,171.59a4.506,4.506,0,1,1-4.949-4.015A4.507,4.507,0,0,1,306.536,171.59Z" transform="translate(-297.547 -167.551)" fill="#064578"/></g><g transform="translate(32.014 36.659)"><path d="M306.536,178.3a4.506,4.506,0,1,1-4.949-4.015A4.511,4.511,0,0,1,306.536,178.3Z" transform="translate(-297.547 -174.261)" fill="#064578"/></g></g><g transform="translate(192.404)"><g transform="translate(0.003 146.637)"><path d="M308.288,194.394a4.507,4.507,0,1,1-4.5,4.5A4.5,4.5,0,0,1,308.288,194.394Z" transform="translate(-303.787 -194.394)" fill="#064578"/></g><g transform="translate(0 109.974)"><path d="M312.775,191.722a4.506,4.506,0,1,1-4.949-4.015A4.508,4.508,0,0,1,312.775,191.722Z" transform="translate(-303.786 -187.682)" fill="#064578"/></g><g transform="translate(0 73.314)"><path d="M312.775,185.011A4.506,4.506,0,1,1,307.826,181,4.5,4.5,0,0,1,312.775,185.011Z" transform="translate(-303.786 -180.972)" fill="#064578"/></g><path d="M312.775,171.59a4.506,4.506,0,1,1-4.949-4.015A4.508,4.508,0,0,1,312.775,171.59Z" transform="translate(-303.786 -167.551)" fill="#064578"/><g transform="translate(0 36.659)"><path d="M312.775,178.3a4.506,4.506,0,1,1-4.949-4.015A4.511,4.511,0,0,1,312.775,178.3Z" transform="translate(-303.786 -174.261)" fill="#064578"/></g><g transform="translate(32.013 146.634)"><circle cx="4.507" cy="4.507" r="4.507" fill="#064578"/></g><g transform="translate(32.011 109.974)"><path d="M318.635,191.722a4.506,4.506,0,1,1-4.949-4.015A4.5,4.5,0,0,1,318.635,191.722Z" transform="translate(-309.647 -187.682)" fill="#064578"/></g><g transform="translate(32.011 73.314)"><path d="M318.635,185.011A4.506,4.506,0,1,1,313.686,181,4.5,4.5,0,0,1,318.635,185.011Z" transform="translate(-309.647 -180.972)" fill="#064578"/></g><g transform="translate(32.011)"><path d="M318.635,171.59a4.506,4.506,0,1,1-4.949-4.015A4.5,4.5,0,0,1,318.635,171.59Z" transform="translate(-309.647 -167.551)" fill="#064578"/></g><g transform="translate(32.011 36.659)"><path d="M318.635,178.3a4.506,4.506,0,1,1-4.949-4.015A4.507,4.507,0,0,1,318.635,178.3Z" transform="translate(-309.647 -174.261)" fill="#064578"/></g></g></g><g transform="translate(208.068 -4.635)"><g transform="translate(0 146.633)"><path d="M321.443,161.443a4.507,4.507,0,1,1-4.507,4.507A4.508,4.508,0,0,1,321.443,161.443Z" transform="translate(-316.936 -161.443)" fill="#064578"/></g><g transform="translate(0.002 109.975)"><path d="M325.926,158.772a4.506,4.506,0,1,1-4.949-4.015A4.508,4.508,0,0,1,325.926,158.772Z" transform="translate(-316.936 -154.733)" fill="#064578"/></g><g transform="translate(0.002 73.316)"><path d="M325.926,152.061a4.506,4.506,0,1,1-4.949-4.015A4.508,4.508,0,0,1,325.926,152.061Z" transform="translate(-316.936 -148.021)" fill="#064578"/></g><g transform="translate(0.002)"><path d="M325.926,138.641a4.506,4.506,0,1,1-4.949-4.015A4.511,4.511,0,0,1,325.926,138.641Z" transform="translate(-316.936 -134.6)" fill="#064578"/></g><g transform="translate(0.002 36.656)"><path d="M325.926,145.35a4.506,4.506,0,1,1-4.949-4.015A4.508,4.508,0,0,1,325.926,145.35Z" transform="translate(-316.936 -141.311)" fill="#064578"/></g><g transform="translate(32.014 146.634)"><circle cx="4.507" cy="4.507" r="4.507" fill="#064578"/></g><g transform="translate(32.014 109.975)"><path d="M331.785,158.772a4.506,4.506,0,1,1-4.949-4.015A4.508,4.508,0,0,1,331.785,158.772Z" transform="translate(-322.796 -154.733)" fill="#064578"/></g><g transform="translate(32.014 73.316)"><path d="M331.785,152.061a4.506,4.506,0,1,1-4.949-4.015A4.508,4.508,0,0,1,331.785,152.061Z" transform="translate(-322.796 -148.021)" fill="#064578"/></g><g transform="translate(32.014)"><path d="M331.785,138.641a4.506,4.506,0,1,1-4.949-4.015A4.511,4.511,0,0,1,331.785,138.641Z" transform="translate(-322.796 -134.6)" fill="#064578"/></g><g transform="translate(32.014 36.656)"><path d="M331.785,145.35a4.506,4.506,0,1,1-4.949-4.015A4.508,4.508,0,0,1,331.785,145.35Z" transform="translate(-322.796 -141.311)" fill="#064578"/></g><g transform="translate(66.095)"><g transform="translate(0 146.634)"><circle cx="4.507" cy="4.507" r="4.507" fill="#064578"/></g><g transform="translate(0 109.975)"><path d="M338.024,158.772a4.506,4.506,0,1,1-4.949-4.015A4.508,4.508,0,0,1,338.024,158.772Z" transform="translate(-329.036 -154.733)" fill="#064578"/></g><g transform="translate(0 73.316)"><path d="M338.024,152.061a4.506,4.506,0,1,1-4.949-4.015A4.508,4.508,0,0,1,338.024,152.061Z" transform="translate(-329.036 -148.021)" fill="#064578"/></g><g transform="translate(0)"><path d="M338.024,138.641a4.506,4.506,0,1,1-4.949-4.015A4.511,4.511,0,0,1,338.024,138.641Z" transform="translate(-329.036 -134.6)" fill="#064578"/></g><g transform="translate(0 36.656)"><path d="M338.024,145.35a4.506,4.506,0,1,1-4.949-4.015A4.508,4.508,0,0,1,338.024,145.35Z" transform="translate(-329.036 -141.311)" fill="#064578"/></g><g transform="translate(32.014 146.633)"><path d="M339.4,161.443a4.507,4.507,0,1,1-4.507,4.507A4.511,4.511,0,0,1,339.4,161.443Z" transform="translate(-334.896 -161.443)" fill="#064578"/></g><g transform="translate(32.011 109.975)"><path d="M343.884,158.772a4.506,4.506,0,1,1-4.949-4.015A4.507,4.507,0,0,1,343.884,158.772Z" transform="translate(-334.896 -154.733)" fill="#064578"/></g><g transform="translate(32.011 73.316)"><path d="M343.884,152.061a4.506,4.506,0,1,1-4.949-4.015A4.507,4.507,0,0,1,343.884,152.061Z" transform="translate(-334.896 -148.021)" fill="#064578"/></g><g transform="translate(32.011)"><path d="M343.884,138.641a4.506,4.506,0,1,1-4.949-4.015A4.51,4.51,0,0,1,343.884,138.641Z" transform="translate(-334.896 -134.6)" fill="#064578"/></g><g transform="translate(32.011 36.656)"><path d="M343.884,145.35a4.506,4.506,0,1,1-4.949-4.015A4.507,4.507,0,0,1,343.884,145.35Z" transform="translate(-334.896 -141.311)" fill="#064578"/></g></g><g transform="translate(126.308)"><g transform="translate(0 146.633)"><path d="M344.565,161.443a4.507,4.507,0,1,1-4.507,4.507A4.508,4.508,0,0,1,344.565,161.443Z" transform="translate(-340.058 -161.443)" fill="#064578"/></g><g transform="translate(0.002 109.975)"><path d="M349.048,158.772a4.506,4.506,0,1,1-4.949-4.015A4.508,4.508,0,0,1,349.048,158.772Z" transform="translate(-340.058 -154.733)" fill="#064578"/></g><g transform="translate(0.002 73.316)"><path d="M349.048,152.061a4.506,4.506,0,1,1-4.949-4.015A4.508,4.508,0,0,1,349.048,152.061Z" transform="translate(-340.058 -148.021)" fill="#064578"/></g><g transform="translate(0.002)"><path d="M349.048,138.641a4.506,4.506,0,1,1-4.949-4.015A4.511,4.511,0,0,1,349.048,138.641Z" transform="translate(-340.058 -134.6)" fill="#064578"/></g><g transform="translate(0.002 36.656)"><path d="M349.048,145.35a4.506,4.506,0,1,1-4.949-4.015A4.508,4.508,0,0,1,349.048,145.35Z" transform="translate(-340.058 -141.311)" fill="#064578"/></g><g transform="translate(32.014 146.634)"><circle cx="4.507" cy="4.507" r="4.507" fill="#064578"/></g><g transform="translate(32.014 109.975)"><path d="M354.907,158.772a4.506,4.506,0,1,1-4.949-4.015A4.508,4.508,0,0,1,354.907,158.772Z" transform="translate(-345.918 -154.733)" fill="#064578"/></g><g transform="translate(32.014 73.316)"><path d="M354.907,152.061a4.506,4.506,0,1,1-4.949-4.015A4.508,4.508,0,0,1,354.907,152.061Z" transform="translate(-345.918 -148.021)" fill="#064578"/></g><g transform="translate(32.014)"><path d="M354.907,138.641a4.506,4.506,0,1,1-4.949-4.015A4.511,4.511,0,0,1,354.907,138.641Z" transform="translate(-345.918 -134.6)" fill="#064578"/></g><g transform="translate(32.014 36.656)"><path d="M354.907,145.35a4.506,4.506,0,1,1-4.949-4.015A4.508,4.508,0,0,1,354.907,145.35Z" transform="translate(-345.918 -141.311)" fill="#064578"/></g></g><g transform="translate(192.403)"><g transform="translate(0 146.634)"><circle cx="4.507" cy="4.507" r="4.507" fill="#064578"/></g><g transform="translate(0 109.975)"><path d="M361.146,158.772a4.507,4.507,0,1,1-4.949-4.015A4.508,4.508,0,0,1,361.146,158.772Z" transform="translate(-352.157 -154.733)" fill="#064578"/></g><g transform="translate(0 73.316)"><path d="M361.146,152.061a4.507,4.507,0,1,1-4.949-4.015A4.508,4.508,0,0,1,361.146,152.061Z" transform="translate(-352.157 -148.021)" fill="#064578"/></g><g transform="translate(0)"><path d="M361.146,138.641a4.507,4.507,0,1,1-4.949-4.015A4.511,4.511,0,0,1,361.146,138.641Z" transform="translate(-352.157 -134.6)" fill="#064578"/></g><g transform="translate(0 36.656)"><path d="M361.146,145.35a4.507,4.507,0,1,1-4.949-4.015A4.508,4.508,0,0,1,361.146,145.35Z" transform="translate(-352.157 -141.311)" fill="#064578"/></g><g transform="translate(32.014 146.633)"><path d="M362.525,161.443a4.507,4.507,0,1,1-4.507,4.507A4.511,4.511,0,0,1,362.525,161.443Z" transform="translate(-358.018 -161.443)" fill="#064578"/></g><g transform="translate(32.011 109.975)"><path d="M367.006,158.772a4.506,4.506,0,1,1-4.949-4.015A4.508,4.508,0,0,1,367.006,158.772Z" transform="translate(-358.017 -154.733)" fill="#064578"/></g><g transform="translate(32.011 73.316)"><path d="M367.006,152.061a4.506,4.506,0,1,1-4.949-4.015A4.508,4.508,0,0,1,367.006,152.061Z" transform="translate(-358.017 -148.021)" fill="#064578"/></g><g transform="translate(32.011)"><path d="M367.006,138.641a4.506,4.506,0,1,1-4.949-4.015A4.511,4.511,0,0,1,367.006,138.641Z" transform="translate(-358.017 -134.6)" fill="#064578"/></g><g transform="translate(32.011 36.656)"><path d="M367.006,145.35a4.506,4.506,0,1,1-4.949-4.015A4.507,4.507,0,0,1,367.006,145.35Z" transform="translate(-358.017 -141.311)" fill="#064578"/></g></g></g><g transform="translate(-56.167 -4.635)"><g transform="translate(0 146.633)"><path d="M273.072,161.443a4.507,4.507,0,1,1-4.507,4.507A4.508,4.508,0,0,1,273.072,161.443Z" transform="translate(-268.565 -161.443)" fill="#064578"/></g><g transform="translate(0.002 109.975)"><path d="M277.555,158.772a4.506,4.506,0,1,1-4.949-4.015A4.508,4.508,0,0,1,277.555,158.772Z" transform="translate(-268.565 -154.733)" fill="#064578"/></g><g transform="translate(0.002 73.316)"><path d="M277.555,152.061a4.506,4.506,0,1,1-4.949-4.015A4.508,4.508,0,0,1,277.555,152.061Z" transform="translate(-268.565 -148.021)" fill="#064578"/></g><g transform="translate(0.002)"><path d="M277.555,138.641a4.506,4.506,0,1,1-4.949-4.015A4.511,4.511,0,0,1,277.555,138.641Z" transform="translate(-268.565 -134.6)" fill="#064578"/></g><g transform="translate(0.002 36.656)"><path d="M277.555,145.35a4.506,4.506,0,1,1-4.949-4.015A4.508,4.508,0,0,1,277.555,145.35Z" transform="translate(-268.565 -141.311)" fill="#064578"/></g><g transform="translate(32.017 146.633)"><path d="M278.927,161.443a4.507,4.507,0,1,1-4.5,4.507A4.508,4.508,0,0,1,278.927,161.443Z" transform="translate(-274.426 -161.443)" fill="#064578"/></g><g transform="translate(32.014 109.975)"><path d="M283.414,158.772a4.506,4.506,0,1,1-4.949-4.015A4.508,4.508,0,0,1,283.414,158.772Z" transform="translate(-274.425 -154.733)" fill="#064578"/></g><g transform="translate(32.014 73.316)"><path d="M283.414,152.061a4.506,4.506,0,1,1-4.949-4.015A4.508,4.508,0,0,1,283.414,152.061Z" transform="translate(-274.425 -148.021)" fill="#064578"/></g><g transform="translate(32.014)"><path d="M283.414,138.641a4.506,4.506,0,1,1-4.949-4.015A4.511,4.511,0,0,1,283.414,138.641Z" transform="translate(-274.425 -134.6)" fill="#064578"/></g><g transform="translate(32.014 36.656)"><path d="M283.414,145.35a4.506,4.506,0,1,1-4.949-4.015A4.508,4.508,0,0,1,283.414,145.35Z" transform="translate(-274.425 -141.311)" fill="#064578"/></g><g transform="translate(66.096)"><g transform="translate(0.003 146.633)"><path d="M285.166,161.443a4.507,4.507,0,1,1-4.5,4.507A4.508,4.508,0,0,1,285.166,161.443Z" transform="translate(-280.665 -161.443)" fill="#064578"/></g><g transform="translate(0 109.975)"><path d="M289.653,158.772a4.506,4.506,0,1,1-4.949-4.015A4.508,4.508,0,0,1,289.653,158.772Z" transform="translate(-280.665 -154.733)" fill="#064578"/></g><g transform="translate(0 73.316)"><path d="M289.653,152.061a4.506,4.506,0,1,1-4.949-4.015A4.508,4.508,0,0,1,289.653,152.061Z" transform="translate(-280.665 -148.021)" fill="#064578"/></g><path d="M289.653,138.641a4.506,4.506,0,1,1-4.949-4.015A4.511,4.511,0,0,1,289.653,138.641Z" transform="translate(-280.665 -134.6)" fill="#064578"/><g transform="translate(0 36.656)"><path d="M289.653,145.35a4.506,4.506,0,1,1-4.949-4.015A4.507,4.507,0,0,1,289.653,145.35Z" transform="translate(-280.665 -141.311)" fill="#064578"/></g><g transform="translate(32.012 146.634)"><circle cx="4.507" cy="4.507" r="4.507" fill="#064578"/></g><g transform="translate(32.011 109.975)"><path d="M295.513,158.772a4.507,4.507,0,1,1-4.949-4.015A4.5,4.5,0,0,1,295.513,158.772Z" transform="translate(-286.524 -154.733)" fill="#064578"/></g><g transform="translate(32.011 73.316)"><path d="M295.513,152.061a4.507,4.507,0,1,1-4.949-4.015A4.5,4.5,0,0,1,295.513,152.061Z" transform="translate(-286.524 -148.021)" fill="#064578"/></g><g transform="translate(32.011)"><path d="M295.513,138.641a4.507,4.507,0,1,1-4.949-4.015A4.507,4.507,0,0,1,295.513,138.641Z" transform="translate(-286.524 -134.6)" fill="#064578"/></g><g transform="translate(32.011 36.656)"><path d="M295.513,145.35a4.507,4.507,0,1,1-4.949-4.015A4.5,4.5,0,0,1,295.513,145.35Z" transform="translate(-286.524 -141.311)" fill="#064578"/></g></g><g transform="translate(126.308)"><g transform="translate(0 146.633)"><path d="M296.194,161.443a4.507,4.507,0,1,1-4.507,4.507A4.508,4.508,0,0,1,296.194,161.443Z" transform="translate(-291.687 -161.443)" fill="#064578"/></g><g transform="translate(0.002 109.975)"><path d="M300.677,158.772a4.507,4.507,0,1,1-4.949-4.015A4.508,4.508,0,0,1,300.677,158.772Z" transform="translate(-291.687 -154.733)" fill="#064578"/></g><g transform="translate(0.002 73.316)"><path d="M300.677,152.061a4.507,4.507,0,1,1-4.949-4.015A4.508,4.508,0,0,1,300.677,152.061Z" transform="translate(-291.687 -148.021)" fill="#064578"/></g><g transform="translate(0.002)"><path d="M300.677,138.641a4.507,4.507,0,1,1-4.949-4.015A4.511,4.511,0,0,1,300.677,138.641Z" transform="translate(-291.687 -134.6)" fill="#064578"/></g><g transform="translate(0.002 36.656)"><path d="M300.677,145.35a4.507,4.507,0,1,1-4.949-4.015A4.508,4.508,0,0,1,300.677,145.35Z" transform="translate(-291.687 -141.311)" fill="#064578"/></g><g transform="translate(32.017 146.633)"><path d="M302.049,161.443a4.507,4.507,0,1,1-4.5,4.507A4.508,4.508,0,0,1,302.049,161.443Z" transform="translate(-297.548 -161.443)" fill="#064578"/></g><g transform="translate(32.014 109.975)"><path d="M306.536,158.772a4.506,4.506,0,1,1-4.949-4.015A4.508,4.508,0,0,1,306.536,158.772Z" transform="translate(-297.547 -154.733)" fill="#064578"/></g><g transform="translate(32.014 73.316)"><path d="M306.536,152.061a4.506,4.506,0,1,1-4.949-4.015A4.508,4.508,0,0,1,306.536,152.061Z" transform="translate(-297.547 -148.021)" fill="#064578"/></g><g transform="translate(32.014)"><path d="M306.536,138.641a4.506,4.506,0,1,1-4.949-4.015A4.511,4.511,0,0,1,306.536,138.641Z" transform="translate(-297.547 -134.6)" fill="#064578"/></g><g transform="translate(32.014 36.656)"><path d="M306.536,145.35a4.506,4.506,0,1,1-4.949-4.015A4.507,4.507,0,0,1,306.536,145.35Z" transform="translate(-297.547 -141.311)" fill="#064578"/></g></g><g transform="translate(192.404)"><g transform="translate(0.003 146.633)"><path d="M308.288,161.443a4.507,4.507,0,1,1-4.5,4.507A4.508,4.508,0,0,1,308.288,161.443Z" transform="translate(-303.787 -161.443)" fill="#064578"/></g><g transform="translate(0 109.975)"><path d="M312.775,158.772a4.506,4.506,0,1,1-4.949-4.015A4.508,4.508,0,0,1,312.775,158.772Z" transform="translate(-303.786 -154.733)" fill="#064578"/></g><g transform="translate(0 73.316)"><path d="M312.775,152.061a4.506,4.506,0,1,1-4.949-4.015A4.508,4.508,0,0,1,312.775,152.061Z" transform="translate(-303.786 -148.021)" fill="#064578"/></g><path d="M312.775,138.641a4.506,4.506,0,1,1-4.949-4.015A4.511,4.511,0,0,1,312.775,138.641Z" transform="translate(-303.786 -134.6)" fill="#064578"/><g transform="translate(0 36.656)"><path d="M312.775,145.35a4.506,4.506,0,1,1-4.949-4.015A4.508,4.508,0,0,1,312.775,145.35Z" transform="translate(-303.786 -141.311)" fill="#064578"/></g><g transform="translate(32.013 146.634)"><circle cx="4.507" cy="4.507" r="4.507" fill="#064578"/></g><g transform="translate(32.011 109.975)"><path d="M318.635,158.772a4.506,4.506,0,1,1-4.949-4.015A4.5,4.5,0,0,1,318.635,158.772Z" transform="translate(-309.647 -154.733)" fill="#064578"/></g><g transform="translate(32.011 73.316)"><path d="M318.635,152.061a4.506,4.506,0,1,1-4.949-4.015A4.5,4.5,0,0,1,318.635,152.061Z" transform="translate(-309.647 -148.021)" fill="#064578"/></g><g transform="translate(32.011)"><path d="M318.635,138.641a4.506,4.506,0,1,1-4.949-4.015A4.507,4.507,0,0,1,318.635,138.641Z" transform="translate(-309.647 -134.6)" fill="#064578"/></g><g transform="translate(32.011 36.656)"><path d="M318.635,145.35a4.506,4.506,0,1,1-4.949-4.015A4.5,4.5,0,0,1,318.635,145.35Z" transform="translate(-309.647 -141.311)" fill="#064578"/></g></g></g><g transform="translate(224.88 -178.889)"><g transform="translate(0.003 146.633)"><path d="M324.521,129.544a4.507,4.507,0,1,1-4.507,4.507A4.508,4.508,0,0,1,324.521,129.544Z" transform="translate(-320.014 -129.544)" fill="#064578"/></g><g transform="translate(0 109.975)"><path d="M329,126.873a4.506,4.506,0,1,1-4.949-4.015A4.5,4.5,0,0,1,329,126.873Z" transform="translate(-320.014 -122.834)" fill="#064578"/></g><g transform="translate(0 73.315)"><path d="M329,120.162a4.506,4.506,0,1,1-4.949-4.015A4.5,4.5,0,0,1,329,120.162Z" transform="translate(-320.014 -116.123)" fill="#064578"/></g><path d="M329,106.742a4.506,4.506,0,1,1-4.949-4.015A4.5,4.5,0,0,1,329,106.742Z" transform="translate(-320.014 -102.701)" fill="#064578"/><g transform="translate(0 36.656)"><path d="M329,113.451a4.506,4.506,0,1,1-4.949-4.015A4.5,4.5,0,0,1,329,113.451Z" transform="translate(-320.014 -109.412)" fill="#064578"/></g><g transform="translate(32.014 146.633)"><path d="M330.381,129.544a4.507,4.507,0,1,1-4.507,4.507A4.508,4.508,0,0,1,330.381,129.544Z" transform="translate(-325.874 -129.544)" fill="#064578"/></g><g transform="translate(32.016 109.975)"><path d="M334.864,126.873a4.506,4.506,0,1,1-4.949-4.015A4.507,4.507,0,0,1,334.864,126.873Z" transform="translate(-325.874 -122.834)" fill="#064578"/></g><g transform="translate(32.016 73.315)"><path d="M334.864,120.162a4.506,4.506,0,1,1-4.949-4.015A4.507,4.507,0,0,1,334.864,120.162Z" transform="translate(-325.874 -116.123)" fill="#064578"/></g><g transform="translate(32.016)"><path d="M334.864,106.742a4.506,4.506,0,1,1-4.949-4.015A4.511,4.511,0,0,1,334.864,106.742Z" transform="translate(-325.874 -102.701)" fill="#064578"/></g><g transform="translate(32.016 36.656)"><path d="M334.864,113.451a4.506,4.506,0,1,1-4.949-4.015A4.5,4.5,0,0,1,334.864,113.451Z" transform="translate(-325.874 -109.412)" fill="#064578"/></g><g transform="translate(66.095)"><g transform="translate(0 146.633)"><path d="M336.62,129.544a4.507,4.507,0,1,1-4.507,4.507A4.508,4.508,0,0,1,336.62,129.544Z" transform="translate(-332.113 -129.544)" fill="#064578"/></g><g transform="translate(0.002 109.975)"><path d="M341.1,126.873a4.506,4.506,0,1,1-4.949-4.015A4.508,4.508,0,0,1,341.1,126.873Z" transform="translate(-332.113 -122.834)" fill="#064578"/></g><g transform="translate(0.002 73.315)"><path d="M341.1,120.162a4.506,4.506,0,1,1-4.949-4.015A4.508,4.508,0,0,1,341.1,120.162Z" transform="translate(-332.113 -116.123)" fill="#064578"/></g><g transform="translate(0.002)"><path d="M341.1,106.742a4.506,4.506,0,1,1-4.949-4.015A4.511,4.511,0,0,1,341.1,106.742Z" transform="translate(-332.113 -102.701)" fill="#064578"/></g><g transform="translate(0.002 36.656)"><path d="M341.1,113.451a4.506,4.506,0,1,1-4.949-4.015A4.5,4.5,0,0,1,341.1,113.451Z" transform="translate(-332.113 -109.412)" fill="#064578"/></g><g transform="translate(32.011 146.633)"><path d="M342.48,129.544a4.507,4.507,0,1,1-4.507,4.507A4.508,4.508,0,0,1,342.48,129.544Z" transform="translate(-337.973 -129.544)" fill="#064578"/></g><g transform="translate(32.014 109.975)"><path d="M346.962,126.873a4.506,4.506,0,1,1-4.949-4.015A4.508,4.508,0,0,1,346.962,126.873Z" transform="translate(-337.974 -122.834)" fill="#064578"/></g><g transform="translate(32.014 73.315)"><path d="M346.962,120.162a4.506,4.506,0,1,1-4.949-4.015A4.508,4.508,0,0,1,346.962,120.162Z" transform="translate(-337.974 -116.123)" fill="#064578"/></g><g transform="translate(32.014)"><path d="M346.962,106.742a4.506,4.506,0,1,1-4.949-4.015A4.511,4.511,0,0,1,346.962,106.742Z" transform="translate(-337.974 -102.701)" fill="#064578"/></g><g transform="translate(32.014 36.656)"><path d="M346.962,113.451a4.506,4.506,0,1,1-4.949-4.015A4.5,4.5,0,0,1,346.962,113.451Z" transform="translate(-337.974 -109.412)" fill="#064578"/></g></g><g transform="translate(126.308)"><g transform="translate(0.003 146.633)"><path d="M347.643,129.544a4.507,4.507,0,1,1-4.507,4.507A4.508,4.508,0,0,1,347.643,129.544Z" transform="translate(-343.136 -129.544)" fill="#064578"/></g><g transform="translate(0 109.975)"><path d="M352.124,126.873a4.506,4.506,0,1,1-4.949-4.015A4.5,4.5,0,0,1,352.124,126.873Z" transform="translate(-343.136 -122.834)" fill="#064578"/></g><g transform="translate(0 73.315)"><path d="M352.124,120.162a4.506,4.506,0,1,1-4.949-4.015A4.5,4.5,0,0,1,352.124,120.162Z" transform="translate(-343.136 -116.123)" fill="#064578"/></g><path d="M352.124,106.742a4.506,4.506,0,1,1-4.949-4.015A4.5,4.5,0,0,1,352.124,106.742Z" transform="translate(-343.136 -102.701)" fill="#064578"/><g transform="translate(0 36.656)"><path d="M352.124,113.451a4.506,4.506,0,1,1-4.949-4.015A4.5,4.5,0,0,1,352.124,113.451Z" transform="translate(-343.136 -109.412)" fill="#064578"/></g><g transform="translate(32.014 146.633)"><path d="M353.5,129.544A4.507,4.507,0,1,1,349,134.051,4.508,4.508,0,0,1,353.5,129.544Z" transform="translate(-348.996 -129.544)" fill="#064578"/></g><g transform="translate(32.016 109.975)"><path d="M357.986,126.873a4.506,4.506,0,1,1-4.949-4.015A4.508,4.508,0,0,1,357.986,126.873Z" transform="translate(-348.996 -122.834)" fill="#064578"/></g><g transform="translate(32.016 73.315)"><path d="M357.986,120.162a4.506,4.506,0,1,1-4.949-4.015A4.508,4.508,0,0,1,357.986,120.162Z" transform="translate(-348.996 -116.123)" fill="#064578"/></g><g transform="translate(32.016)"><path d="M357.986,106.742a4.506,4.506,0,1,1-4.949-4.015A4.511,4.511,0,0,1,357.986,106.742Z" transform="translate(-348.996 -102.701)" fill="#064578"/></g><g transform="translate(32.016 36.656)"><path d="M357.986,113.451a4.506,4.506,0,1,1-4.949-4.015A4.5,4.5,0,0,1,357.986,113.451Z" transform="translate(-348.996 -109.412)" fill="#064578"/></g></g><g transform="translate(192.403)"><g transform="translate(0 146.633)"><path d="M359.742,129.544a4.507,4.507,0,1,1-4.507,4.507A4.508,4.508,0,0,1,359.742,129.544Z" transform="translate(-355.235 -129.544)" fill="#064578"/></g><g transform="translate(0.002 109.975)"><path d="M364.225,126.873a4.506,4.506,0,1,1-4.949-4.015A4.508,4.508,0,0,1,364.225,126.873Z" transform="translate(-355.235 -122.834)" fill="#064578"/></g><g transform="translate(0.002 73.315)"><path d="M364.225,120.162a4.506,4.506,0,1,1-4.949-4.015A4.508,4.508,0,0,1,364.225,120.162Z" transform="translate(-355.235 -116.123)" fill="#064578"/></g><g transform="translate(0.002)"><path d="M364.225,106.742a4.506,4.506,0,1,1-4.949-4.015A4.511,4.511,0,0,1,364.225,106.742Z" transform="translate(-355.235 -102.701)" fill="#064578"/></g><g transform="translate(0.002 36.656)"><path d="M364.225,113.451a4.506,4.506,0,1,1-4.949-4.015A4.5,4.5,0,0,1,364.225,113.451Z" transform="translate(-355.235 -109.412)" fill="#064578"/></g><g transform="translate(32.011 146.633)"><path d="M365.6,129.544a4.507,4.507,0,1,1-4.507,4.507A4.508,4.508,0,0,1,365.6,129.544Z" transform="translate(-361.095 -129.544)" fill="#064578"/></g><g transform="translate(32.014 109.975)"><path d="M370.084,126.873a4.506,4.506,0,1,1-4.949-4.015A4.507,4.507,0,0,1,370.084,126.873Z" transform="translate(-361.095 -122.834)" fill="#064578"/></g><g transform="translate(32.014 73.315)"><path d="M370.084,120.162a4.506,4.506,0,1,1-4.949-4.015A4.507,4.507,0,0,1,370.084,120.162Z" transform="translate(-361.095 -116.123)" fill="#064578"/></g><g transform="translate(32.014)"><path d="M370.084,106.742a4.506,4.506,0,1,1-4.949-4.015A4.511,4.511,0,0,1,370.084,106.742Z" transform="translate(-361.095 -102.701)" fill="#064578"/></g><g transform="translate(32.014 36.656)"><path d="M370.084,113.451a4.506,4.506,0,1,1-4.949-4.015A4.5,4.5,0,0,1,370.084,113.451Z" transform="translate(-361.095 -109.412)" fill="#064578"/></g></g></g><g transform="translate(-39.355 -178.889)"><g transform="translate(0.003 146.633)"><path d="M276.15,129.544a4.507,4.507,0,1,1-4.507,4.507A4.508,4.508,0,0,1,276.15,129.544Z" transform="translate(-271.643 -129.544)" fill="#064578"/></g><g transform="translate(0 109.975)"><path d="M280.631,126.873a4.506,4.506,0,1,1-4.949-4.015A4.5,4.5,0,0,1,280.631,126.873Z" transform="translate(-271.642 -122.834)" fill="#064578"/></g><g transform="translate(0 73.315)"><path d="M280.631,120.162a4.506,4.506,0,1,1-4.949-4.015A4.5,4.5,0,0,1,280.631,120.162Z" transform="translate(-271.642 -116.123)" fill="#064578"/></g><path d="M280.631,106.742a4.506,4.506,0,1,1-4.949-4.015A4.5,4.5,0,0,1,280.631,106.742Z" transform="translate(-271.642 -102.701)" fill="#064578"/><g transform="translate(0 36.656)"><path d="M280.631,113.451a4.506,4.506,0,1,1-4.949-4.015A4.5,4.5,0,0,1,280.631,113.451Z" transform="translate(-271.642 -109.412)" fill="#064578"/></g><g transform="translate(32.014 146.633)"><path d="M282.01,129.544a4.507,4.507,0,1,1-4.507,4.507A4.508,4.508,0,0,1,282.01,129.544Z" transform="translate(-277.503 -129.544)" fill="#064578"/></g><g transform="translate(32.016 109.975)"><path d="M286.493,126.873a4.506,4.506,0,1,1-4.949-4.015A4.507,4.507,0,0,1,286.493,126.873Z" transform="translate(-277.503 -122.834)" fill="#064578"/></g><g transform="translate(32.016 73.315)"><path d="M286.493,120.162a4.506,4.506,0,1,1-4.949-4.015A4.507,4.507,0,0,1,286.493,120.162Z" transform="translate(-277.503 -116.123)" fill="#064578"/></g><g transform="translate(32.016)"><path d="M286.493,106.742a4.506,4.506,0,1,1-4.949-4.015A4.511,4.511,0,0,1,286.493,106.742Z" transform="translate(-277.503 -102.701)" fill="#064578"/></g><g transform="translate(32.016 36.656)"><path d="M286.493,113.451a4.506,4.506,0,1,1-4.949-4.015A4.5,4.5,0,0,1,286.493,113.451Z" transform="translate(-277.503 -109.412)" fill="#064578"/></g><g transform="translate(66.095)"><g transform="translate(0 146.633)"><path d="M288.249,129.544a4.507,4.507,0,1,1-4.507,4.507A4.508,4.508,0,0,1,288.249,129.544Z" transform="translate(-283.742 -129.544)" fill="#064578"/></g><g transform="translate(0.002 109.975)"><path d="M292.732,126.873a4.506,4.506,0,1,1-4.949-4.015A4.508,4.508,0,0,1,292.732,126.873Z" transform="translate(-283.742 -122.834)" fill="#064578"/></g><g transform="translate(0.002 73.315)"><path d="M292.732,120.162a4.506,4.506,0,1,1-4.949-4.015A4.508,4.508,0,0,1,292.732,120.162Z" transform="translate(-283.742 -116.123)" fill="#064578"/></g><g transform="translate(0.002)"><path d="M292.732,106.742a4.506,4.506,0,1,1-4.949-4.015A4.511,4.511,0,0,1,292.732,106.742Z" transform="translate(-283.742 -102.701)" fill="#064578"/></g><g transform="translate(0.002 36.656)"><path d="M292.732,113.451a4.506,4.506,0,1,1-4.949-4.015A4.5,4.5,0,0,1,292.732,113.451Z" transform="translate(-283.742 -109.412)" fill="#064578"/></g><g transform="translate(32.017 146.633)"><path d="M294.1,129.544a4.507,4.507,0,1,1-4.5,4.507A4.508,4.508,0,0,1,294.1,129.544Z" transform="translate(-289.603 -129.544)" fill="#064578"/></g><g transform="translate(32.014 109.975)"><path d="M298.591,126.873a4.506,4.506,0,1,1-4.949-4.015A4.508,4.508,0,0,1,298.591,126.873Z" transform="translate(-289.602 -122.834)" fill="#064578"/></g><g transform="translate(32.014 73.315)"><path d="M298.591,120.162a4.506,4.506,0,1,1-4.949-4.015A4.508,4.508,0,0,1,298.591,120.162Z" transform="translate(-289.602 -116.123)" fill="#064578"/></g><g transform="translate(32.014)"><path d="M298.591,106.742a4.506,4.506,0,1,1-4.949-4.015A4.511,4.511,0,0,1,298.591,106.742Z" transform="translate(-289.602 -102.701)" fill="#064578"/></g><g transform="translate(32.014 36.656)"><path d="M298.591,113.451a4.506,4.506,0,1,1-4.949-4.015A4.5,4.5,0,0,1,298.591,113.451Z" transform="translate(-289.602 -109.412)" fill="#064578"/></g></g><g transform="translate(126.308)"><g transform="translate(0.003 146.633)"><path d="M299.271,129.544a4.507,4.507,0,1,1-4.507,4.507A4.508,4.508,0,0,1,299.271,129.544Z" transform="translate(-294.765 -129.544)" fill="#064578"/></g><g transform="translate(0 109.975)"><path d="M303.753,126.873a4.506,4.506,0,1,1-4.949-4.015A4.5,4.5,0,0,1,303.753,126.873Z" transform="translate(-294.765 -122.834)" fill="#064578"/></g><g transform="translate(0 73.315)"><path d="M303.753,120.162a4.506,4.506,0,1,1-4.949-4.015A4.5,4.5,0,0,1,303.753,120.162Z" transform="translate(-294.765 -116.123)" fill="#064578"/></g><path d="M303.753,106.742a4.506,4.506,0,1,1-4.949-4.015A4.5,4.5,0,0,1,303.753,106.742Z" transform="translate(-294.765 -102.701)" fill="#064578"/><g transform="translate(0 36.656)"><path d="M303.753,113.451a4.506,4.506,0,1,1-4.949-4.015A4.5,4.5,0,0,1,303.753,113.451Z" transform="translate(-294.765 -109.412)" fill="#064578"/></g><g transform="translate(32.014 146.633)"><path d="M305.132,129.544a4.507,4.507,0,1,1-4.507,4.507A4.508,4.508,0,0,1,305.132,129.544Z" transform="translate(-300.625 -129.544)" fill="#064578"/></g><g transform="translate(32.016 109.975)"><path d="M309.615,126.873a4.506,4.506,0,1,1-4.949-4.015A4.507,4.507,0,0,1,309.615,126.873Z" transform="translate(-300.625 -122.834)" fill="#064578"/></g><g transform="translate(32.016 73.315)"><path d="M309.615,120.162a4.506,4.506,0,1,1-4.949-4.015A4.507,4.507,0,0,1,309.615,120.162Z" transform="translate(-300.625 -116.123)" fill="#064578"/></g><g transform="translate(32.016)"><path d="M309.615,106.742a4.506,4.506,0,1,1-4.949-4.015A4.511,4.511,0,0,1,309.615,106.742Z" transform="translate(-300.625 -102.701)" fill="#064578"/></g><g transform="translate(32.016 36.656)"><path d="M309.615,113.451a4.506,4.506,0,1,1-4.949-4.015A4.5,4.5,0,0,1,309.615,113.451Z" transform="translate(-300.625 -109.412)" fill="#064578"/></g></g><g transform="translate(192.403)"><g transform="translate(0 146.633)"><path d="M311.371,129.544a4.507,4.507,0,1,1-4.507,4.507A4.508,4.508,0,0,1,311.371,129.544Z" transform="translate(-306.864 -129.544)" fill="#064578"/></g><g transform="translate(0.002 109.975)"><path d="M315.854,126.873a4.506,4.506,0,1,1-4.949-4.015A4.508,4.508,0,0,1,315.854,126.873Z" transform="translate(-306.864 -122.834)" fill="#064578"/></g><g transform="translate(0.002 73.315)"><path d="M315.854,120.162a4.506,4.506,0,1,1-4.949-4.015A4.508,4.508,0,0,1,315.854,120.162Z" transform="translate(-306.864 -116.123)" fill="#064578"/></g><g transform="translate(0.002)"><path d="M315.854,106.742a4.506,4.506,0,1,1-4.949-4.015A4.511,4.511,0,0,1,315.854,106.742Z" transform="translate(-306.864 -102.701)" fill="#064578"/></g><g transform="translate(0.002 36.656)"><path d="M315.854,113.451a4.506,4.506,0,1,1-4.949-4.015A4.5,4.5,0,0,1,315.854,113.451Z" transform="translate(-306.864 -109.412)" fill="#064578"/></g><g transform="translate(32.017 146.633)"><path d="M317.226,129.544a4.507,4.507,0,1,1-4.5,4.507A4.508,4.508,0,0,1,317.226,129.544Z" transform="translate(-312.725 -129.544)" fill="#064578"/></g><g transform="translate(32.014 109.975)"><path d="M321.713,126.873a4.506,4.506,0,1,1-4.949-4.015A4.508,4.508,0,0,1,321.713,126.873Z" transform="translate(-312.724 -122.834)" fill="#064578"/></g><g transform="translate(32.014 73.315)"><path d="M321.713,120.162a4.506,4.506,0,1,1-4.949-4.015A4.508,4.508,0,0,1,321.713,120.162Z" transform="translate(-312.724 -116.123)" fill="#064578"/></g><g transform="translate(32.014)"><path d="M321.713,106.742a4.506,4.506,0,1,1-4.949-4.015A4.511,4.511,0,0,1,321.713,106.742Z" transform="translate(-312.724 -102.701)" fill="#064578"/></g><g transform="translate(32.014 36.656)"><path d="M321.713,113.451a4.506,4.506,0,1,1-4.949-4.015A4.5,4.5,0,0,1,321.713,113.451Z" transform="translate(-312.724 -109.412)" fill="#064578"/></g></g></g></g></g></g></svg>