<svg xmlns="http://www.w3.org/2000/svg" width="2026.887" height="1410" viewBox="0 0 2026.887 1410"><g transform="translate(159 -2188)"><circle cx="158.65" cy="158.65" r="158.65" transform="translate(1212 2784.205)" fill="#fff" opacity="0.1"/><path d="M223.5,0,447,387H0Z" transform="translate(-159 2665)" fill="#fff" opacity="0.1"/><path d="M323.7,0a20,20,0,0,1,17.319,10l100.2,173.5a20,20,0,0,1,0,20L341.024,377A20,20,0,0,1,323.7,387H123.3a20,20,0,0,1-17.319-10L5.776,203.5a20,20,0,0,1,0-20L105.976,10A20,20,0,0,1,123.3,0Z" transform="translate(444 3211)" fill="#fff" opacity="0.1"/><g transform="translate(966.522 2627.403)"><path d="M747.1,355.9c-24.2,4.609-46.918,8.193-67.488-8.8a2.235,2.235,0,0,0-3.158,3.158c16.691,18.784,50.9,21.071,72.533,10.124C751.607,359.047,749.677,355.4,747.1,355.9Z" transform="translate(73.246 1.944)" fill="#f2f4f8"/><path d="M712.2,346.748c-9.018,2.275-17.321,2.82-26.034-.909-2.9-1.238-5.349,2.575-2.529,4.327a28.842,28.842,0,0,0,30.265.614A2.216,2.216,0,0,0,712.2,346.748Z" transform="translate(87.286)" fill="#f2f4f8"/><path d="M733.294,348.525c-1.231-3.255-6.385-1.974-5.3,1.463,10.547,33.533,1.225,67.369-14.767,97.537-8.3,15.657-19.483,29.183-31.192,42.369-10.493,11.819-22.312,26.031-35.428,35-1.629,1.112-1.673,4.064.592,4.528,11.258,2.313,24.581-17.794,31.264-24.662,14.573-14.971,27.764-30.988,38.468-48.945C735.722,424.273,746.733,384.019,733.294,348.525Z" transform="translate(8.433 2.234)" fill="#f2f4f8"/><path d="M714.789,353.217c-1.257,30.243-4.847,56.628-17.8,84.226-12.085,25.749-29.61,49.948-53.764,65.455-2.441,1.567-.241,5.4,2.281,3.9,52.373-31.095,77.872-94.892,76.581-153.585C721.983,348.5,714.983,348.527,714.789,353.217Z" transform="translate(1.464 8.73)" fill="#f2f4f8"/><path d="M703.209,353.836c-.238-3.149-4.969-3.234-4.957,0,.072,21.573-2.673,40.749-9.992,61.1-9.036,25.129-26.621,38.85-45.671,55.917-3.284,2.942,1.432,7.344,4.738,4.738,19.433-15.328,35.425-29.014,45.292-52.323C702.072,400.936,705.017,377.849,703.209,353.836Z" transform="translate(0 12.47)" fill="#f2f4f8"/><path d="M674.931,360.548c-.6-3.061-5.718-2.381-5.455.74.99,11.816.056,22.7-3.876,33.959-4.3,12.311-13.3,20.664-21.494,30.268-2.008,2.356.542,6.2,3.434,4.449C669.924,416.4,679.75,385.229,674.931,360.548Z" transform="translate(4.077 27.675)" fill="#f2f4f8"/><path d="M691.2,354.005c-4.318,2.435-6.154,8.864-11.932,8.623-2.319-.1-2.764,3.45-.542,4.011,6.223,1.576,14.046-4.1,15.795-10.083A2.279,2.279,0,0,0,691.2,354.005Z" transform="translate(76.365 17.32)" fill="#f2f4f8"/><path d="M717.914,355.389c-2.444,1.1-3.246,2.786-4.766,4.985-2.745,3.97-6.612,7.279-10.262,10.381a112.5,112.5,0,0,1-24.092,15.3c-1.965.943-.549,4.346,1.488,3.534a117.763,117.763,0,0,0,26.057-14.363c5.37-3.926,15.723-11.023,14.7-18.568C720.831,355.173,719.008,354.894,717.914,355.389Z" transform="translate(77.605 20.411)" fill="#f2f4f8"/><path d="M764.148,350.339q-.9.484-1.8.968a2.5,2.5,0,0,0-1.256,2.651c-21.614,30.5-49.6,52.439-83.9,67.488-2.334,1.028-.639,5.063,1.742,4.133,36.929-14.432,68.331-36.653,90.653-69.8C771.928,352.3,767.46,348.553,764.148,350.339Z" transform="translate(73.812 9.136)" fill="#f2f4f8"/><path d="M796.816,358.755c-1.855,8.413-10.91,15.247-16.842,21.009-9.472,9.2-18.543,18.085-29.362,25.812-22.751,16.246-49.735,25.681-77.082,30.446-2.5.436-1.921,4.775.6,4.44,30.725-4.076,59.21-14.072,84.706-31.875,10.813-7.551,19.856-17.092,29.365-26.135,6.257-5.947,14.081-12.856,15.967-21.67C805.194,355.992,797.875,353.949,796.816,358.755Z" transform="translate(64.945 22.221)" fill="#f2f4f8"/><path d="M821.126,364.615c-10.982,25.8-39.824,45.953-63.211,59.846-26.9,15.983-57.856,26.683-89.23,28.15a.354.354,0,0,0,0,.708c32.4,3.365,64.577-7.545,92.874-22.626,25.173-13.414,56.462-35.5,67.084-62.91C830.323,363.447,822.944,360.341,821.126,364.615Z" transform="translate(57.316 36.216)" fill="#f2f4f8"/><path d="M655.962,405.852c-1.219-1.607-4.468-.74-3.584,1.513a47.831,47.831,0,0,1,3.234,12.492c.46,4.261-.179,8.651,1.072,12.793a2.031,2.031,0,0,0,3.885,0C663.281,425.071,660.774,412.209,655.962,405.852Z" transform="translate(22.933 126.783)" fill="#f2f4f8"/><path d="M672.407,429.012c-1.4-7.285-5.364-26.257-14.868-27.523a.711.711,0,0,0-.683.9c3.6,8.645,8.031,15.626,10.008,25.185a98.964,98.964,0,0,1,1.8,18.837c.063,5.042-1.817,10.152-1.354,15.046.188,1.961,2.576,3.4,4.139,1.714C678.457,455.642,674.127,437.96,672.407,429.012Z" transform="translate(32.732 119.226)" fill="#f2f4f8"/><path d="M666.28,395.861c-.655-.733-1.78.2-1.325,1.025,7.3,13.113,13.846,25.953,18.086,40.442,4.706,16.089,4.643,32.427,6.445,48.892a3.215,3.215,0,0,0,6.427,0C698.534,454.962,687.232,419.233,666.28,395.861Z" transform="translate(49.86 106.665)" fill="#f2f4f8"/><path d="M678.878,395.742c-2.8-1.786-5.16,2.5-2.557,4.374,30.261,21.736,29.757,63.359,42.1,94.767.752,3.209,6.226,2.566,5.831-.79C720.507,462.25,707.826,414.222,678.878,395.742Z" transform="translate(71.932 106.067)" fill="#f2f4f8"/><path d="M722.483,435.046c-7.379-15.936-17.562-31.637-32.893-40.821-1.332-.8-2.9,1.141-1.683,2.184,15.685,13.454,24.816,31.007,32.141,50.039,3.544,9.2,4.146,27.235,11.051,34a3.189,3.189,0,0,0,5.392-2.234C737.322,464.2,728.229,447.457,722.483,435.046Z" transform="translate(98.116 103.341)" fill="#f2f4f8"/><path d="M780.4,376.094c-11.687-.921-23.13,6.085-33.448,10.81a121.477,121.477,0,0,0-34.087,23.287c-7.711,4.587-13.9,14.407-17.365,21.463a2.354,2.354,0,0,0,3.682,2.839c3.625-3.443,6.383-7.686,9.647-11.462,3.688-4.261,8.438-6.965,12.439-10.81a2.38,2.38,0,0,0,.671-1.454c18.145-12.22,37.919-24.352,59.46-27.291C785.851,382.868,784.332,376.4,780.4,376.094Z" transform="translate(114.669 64.885)" fill="#f2f4f8"/><path d="M771.4,382.274c-10.772.765-23.127,9.672-32.022,15.3a197.235,197.235,0,0,0-41.269,35.074c-2.215,2.469,1.31,6.06,3.66,3.66a224.144,224.144,0,0,1,41-32.934c8.673-5.468,25.164-8.8,30.819-17.29A2.547,2.547,0,0,0,771.4,382.274Z" transform="translate(119.311 78.232)" fill="#f2f4f8"/><path d="M774.266,391c-10.553-1.623-20.467,4.712-29.691,9.177-15.535,7.523-30.916,15.557-43.9,27.072-1.642,1.457.511,4.239,2.344,3.036,21.7-14.26,45.984-27.454,71.245-33.771C776.858,395.863,777.143,391.439,774.266,391Z" transform="translate(125.047 96.298)" fill="#f2f4f8"/><path d="M755.656,406.261c-13.868-10.706-41.059,7.777-51.621,16.444-1.883,1.542.558,4.609,2.572,3.337,15.181-9.6,29.785-15.432,47.73-14.908C757.207,411.218,757.539,407.715,755.656,406.261Z" transform="translate(132.014 122.491)" fill="#f2f4f8"/><path d="M725.912,413.362c-7.037-.724-13.99,1.642-20.338,4.484-2.391,1.068-.67,5.139,1.783,4.23,6.229-2.309,12.715-2.955,19.119-4.54C728.961,416.921,728.168,413.594,725.912,413.362Z" transform="translate(134.294 144.282)" fill="#f2f4f8"/></g><g transform="translate(-401.642 3008.123)"><path d="M628.648,106.188c.083,18.155-10.983,30.364-28.762,32.541-8.925,1.1-16.792,1.116-25.133,4.663-22.933,9.743-14.474,41.262-23.11,58.451-7.522,14.983-38.393,9.269-51.954,17.466-6.542,3.953-9.5,10.839-12.02,17.625-2.5,6.73-2.138,15.684-3.384,22.538-1.461,8.044-15.8,23.1-25.207,17.416-4.094-2.477-8.777,3.408-5.151,6.674,12.783,11.514,34.278-1.5,39.739-15.563,6.721-17.3,1.072-38.343,23.769-43.609,11.664-2.707,22.974-1.929,33.969-7.343,8.017-3.944,13.169-13.779,14.279-22.244,1.476-11.254.736-22.241,5.752-32.779,5.729-12.035,16.792-12.374,28.45-13.272,23.693-1.829,39.56-18.138,39.545-42.564C639.429,99.234,628.616,99.234,628.648,106.188Z" transform="translate(0 0)" fill="#f2f4f8"/><path d="M637.947,113.937c.085,18.152-10.983,30.361-28.759,32.541-8.925,1.1-16.792,1.116-25.133,4.66-22.936,9.746-14.477,41.265-23.109,58.454-7.526,14.983-38.393,9.269-51.957,17.466-6.539,3.953-9.5,10.839-12.017,17.625-2.5,6.73-2.141,15.681-3.387,22.538-1.461,8.044-15.8,23.1-25.207,17.413-4.094-2.474-8.777,3.411-5.151,6.677,12.783,11.514,34.278-1.5,39.742-15.563,6.721-17.3,1.072-38.346,23.766-43.609,11.664-2.707,22.974-1.929,33.972-7.343,8.014-3.944,13.169-13.779,14.279-22.247,1.476-11.251.736-22.238,5.752-32.776,5.729-12.035,16.789-12.374,28.45-13.272,23.69-1.832,39.559-18.138,39.545-42.564C648.727,106.983,637.917,106.983,637.947,113.937Z" transform="translate(18.088 15.075)" fill="#f2f4f8"/><path d="M645.7,125.4c.083,18.152-10.983,30.364-28.759,32.541-8.927,1.1-16.792,1.116-25.136,4.663-22.933,9.743-14.474,41.262-23.107,58.451-7.525,14.983-38.4,9.269-51.956,17.466-6.542,3.953-9.5,10.839-12.02,17.625-2.5,6.73-2.138,15.681-3.384,22.538-1.461,8.044-15.8,23.1-25.207,17.413-4.094-2.474-8.777,3.411-5.151,6.677,12.783,11.514,34.278-1.5,39.742-15.563,6.718-17.3,1.069-38.346,23.766-43.609,11.664-2.707,22.974-1.929,33.972-7.343,8.014-3.944,13.169-13.779,14.279-22.244,1.476-11.254.733-22.241,5.749-32.779,5.732-12.035,16.792-12.374,28.452-13.272,23.69-1.832,39.56-18.138,39.542-42.564C656.476,118.451,645.663,118.451,645.7,125.4Z" transform="translate(33.163 37.385)" fill="#f2f4f8"/></g><path d="M456.6,465.121a68.98,68.98,0,0,0-53.675-36.867c-21.872-2.244-39.828,9.286-56.941,21.281-7.977,5.593-15.029,10.231-20.156,18.645-1.556,2.559-10.12,31.938-7.052,31.865a76.852,76.852,0,0,0-44.248,15.383c-19.192,9.15-27.814,32.98-25.512,55.085,3.325,31.914,26.593,59.369,59.5,61.235,33.858,1.919,61.676-21.165,70.351-50.786a83.172,83.172,0,0,0,51.159-5.908C475.867,553.685,477.593,505.991,456.6,465.121Zm-87.6,100.685a60.484,60.484,0,0,1-28.74-24.79,82.789,82.789,0,0,1-9.964-26.85c18.78,2.37,31.119,17.515,36.809,36.407A46.016,46.016,0,0,1,368.993,565.806Zm-68.335,51.208c-22.72-4.357-35.825-28.207-38-49.468-2.389-23.4,9.179-39.935,31.812-45.072a4.871,4.871,0,0,0,3.324-2.418c7.013-2.68,14.128-5.084,21.94-6.01.116-.014.213,0,.329-.01a118.677,118.677,0,0,0,8.142,27.76c7.609,17.52,21.969,29.462,38.772,35.7C358.883,603.657,328.5,622.35,300.658,617.014Zm119.431-50.684A68.676,68.676,0,0,1,381.2,569.6a67.644,67.644,0,0,0-1.052-22.623c-6.247-28.3-27.349-43.6-51.208-46.507-.039-15.13,4.924-29.544,16.735-39.014a2.776,2.776,0,0,0,3.116.01c37.57-26.186,76.3-28.124,99.212,16.473C465.835,512.645,458.43,551.349,420.089,566.329Z" transform="translate(-331.65 1760.028)" fill="#fff"/></g></svg>