<?xml version="1.0" encoding="utf-8"?>
<!-- Generator: Adobe Illustrator 24.0.1, SVG Export Plug-In . SVG Version: 6.00 Build 0)  -->
<svg version="1.1" id="Layer_1" xmlns="http://www.w3.org/2000/svg" xmlns:xlink="http://www.w3.org/1999/xlink" x="0px" y="0px"
	 viewBox="0 0 708.7 453.5" style="enable-background:new 0 0 708.7 453.5;" xml:space="preserve">
<style type="text/css">
	.st0{fill:#41C0F0;}
	.st1{fill:#EC6608;}
	.st2{fill:#FFFFFF;}
	.st3{fill:#F7A600;}
</style>
<g>
	<path class="st0" d="M360,281.7c0,0,5.2-3.8,16.9-3.3C376.9,278.4,376.2,261.2,360,281.7z"/>
	<g>
		<path class="st0" d="M336.1,345.5c-1.7,0.6-6.5,1.4-12.3,1.4c-12.5,0-24.4-6.6-24.4-26.2v-10.4c0-19.6,11.9-26.1,24.4-26.1
			c5.8,0,10.6,0.8,12.3,1.4c1.2,0.3,1.8,0.7,1.8,1.8v8c0,1-0.5,1.6-1.7,1.6c0,0-0.1,0-0.2,0c-3.1-0.2-7.7-0.7-12.2-0.7
			c-5.7,0-10.2,3-10.2,13.9v10.4c0,11,4.5,13.9,10.2,13.9c4.5,0,9.1-0.4,12.2-0.7c0.1,0,0.2,0,0.2,0c1.2,0,1.7,0.7,1.7,1.7v8
			C338,344.8,337.3,345.2,336.1,345.5z"/>
		<path class="st0" d="M379.6,345.9c-2.9,0.4-7.1,1.1-16,1.1c-10.6,0-20-2.7-20-17.7v-27.4c0-15,9.5-17.7,20.1-17.7
			c8.9,0,13,0.7,15.9,1.1c1.2,0.2,1.6,0.6,1.6,1.6v7.7c0,0.9-0.7,1.7-1.6,1.7h-16.7c-3.9,0-5.3,1.3-5.3,5.6v7.5H379
			c0.9,0,1.6,0.7,1.6,1.6v7.8c0,0.9-0.7,1.6-1.6,1.6h-21.4v8.7c0,4.3,1.4,5.6,5.3,5.6h16.7c0.9,0,1.6,0.7,1.6,1.7v7.7
			C381.3,345.2,380.8,345.7,379.6,345.9z"/>
		<path class="st0" d="M434.5,346.2h-12.6c-0.9,0-1.2-0.8-1.6-1.7l-11.1-20.9l-0.9,0.1c-1.7,0-4.3-0.2-5.9-0.2v21
			c0,0.9-0.7,1.7-1.6,1.7H390c-0.9,0-1.6-0.7-1.6-1.7v-55.4c0-2.8,1.2-3.5,3.7-4c3.8-0.6,10.8-1.1,16.7-1.1c14,0,24.8,4.7,24.8,19.3
			v1.1c0,8.7-4.6,14.1-10.6,16.5l12.5,23.3c0.2,0.3,0.2,0.7,0.2,0.9C435.7,345.8,435.4,346.2,434.5,346.2z M419.6,303.5
			c0-5-3.9-7.3-10.8-7.3c-1.2,0-5.4,0.2-6.4,0.2v15.8c0.9,0.1,4.9,0.2,5.9,0.2c8.7,0,11.4-2.2,11.4-7.8V303.5z"/>
		<path class="st0" d="M476.9,345.9c-2.9,0.4-7.1,1.1-16,1.1c-10.6,0-20-2.7-20-17.7v-27.4c0-15,9.5-17.7,20.1-17.7
			c8.9,0,13,0.7,15.9,1.1c1.2,0.2,1.7,0.6,1.7,1.6v7.7c0,0.9-0.7,1.7-1.7,1.7h-16.7c-3.9,0-5.3,1.3-5.3,5.6v7.5h21.4
			c0.9,0,1.6,0.7,1.6,1.6v7.8c0,0.9-0.7,1.6-1.6,1.6h-21.4v8.7c0,4.3,1.4,5.6,5.3,5.6h16.7c0.9,0,1.7,0.7,1.7,1.7v7.7
			C478.6,345.2,478.1,345.7,476.9,345.9z"/>
		<path class="st0" d="M505.3,346.9c-5.4,0-11.9-0.4-15.1-1c-3.3-0.6-4.5-1.6-4.5-5.4v-50.2c0-3.7,1.2-4.9,4.4-5.4
			c2.8-0.4,9.5-0.9,14.8-0.9c15.6,0,26.1,4.1,26.1,17.2v1.5c0,5.4-2.6,10-6.9,12.1c4.4,2.1,7.3,6.5,7.3,12.2v1.2
			C531.3,343,519.6,346.9,505.3,346.9z M517.3,302.3c0-4.5-2.9-6.6-11.4-6.6c-1.3,0-5.1,0-6.3,0.1V310h9.2c6.5,0,8.4-3,8.4-6.5
			V302.3z M517.6,327.2c0-4-2.1-7.3-8.7-7.3h-9.2v15.4c1.3,0,5.6,0.1,6.8,0.1c8.5,0,11.2-2.6,11.2-7.3V327.2z"/>
		<path class="st0" d="M583.7,346.2h-12.6c-0.9,0-1.2-0.8-1.6-1.7l-11.1-20.9l-0.9,0.1c-1.7,0-4.3-0.2-5.9-0.2v21
			c0,0.9-0.7,1.7-1.7,1.7h-10.7c-0.9,0-1.6-0.7-1.6-1.7v-55.4c0-2.8,1.2-3.5,3.7-4c3.8-0.6,10.8-1.1,16.7-1.1
			c14,0,24.8,4.7,24.8,19.3v1.1c0,8.7-4.6,14.1-10.6,16.5l12.5,23.3c0.2,0.3,0.2,0.7,0.2,0.9C584.9,345.8,584.6,346.2,583.7,346.2z
			 M568.8,303.5c0-5-3.9-7.3-10.8-7.3c-1.2,0-5.4,0.2-6.4,0.2v15.8c0.9,0.1,4.9,0.2,5.9,0.2c8.7,0,11.4-2.2,11.4-7.8V303.5z"/>
		<path class="st0" d="M613.4,346.9c-13.6,0-24.4-7.3-24.4-26.5v-9.8c0-19.1,10.8-26.5,24.4-26.5c13.6,0,24.4,7.3,24.4,26.5v9.8
			C637.8,339.6,627,346.9,613.4,346.9z M623.6,310.6c0-9.9-3.3-14.1-10.2-14.1s-10.1,4.2-10.1,14.1v9.8c0,9.9,3.2,14.1,10.1,14.1
			s10.2-4.2,10.2-14.1V310.6z"/>
	</g>
	<g>
		<path class="st1" d="M324.9,269.1c-9.4,0-16.5-1.1-22.6-2.6c-1.2-0.4-2.4-1.1-2.4-2.4v-11.7c0-1.7,1-2.3,2.2-2.3
			c0.1,0,0.2,0,0.4,0c4.9,0.5,18,1.4,22.7,1.4c8.2,0,10.6-2.6,10.6-8.4c0-3.5-1.7-5.4-7.9-9.1l-16.5-9.8
			c-11.1-6.6-14.1-14.1-14.1-22.8c0-13.1,7.4-23.3,30.6-23.3c8.7,0,20.8,1.4,25.3,2.6c1,0.2,1.8,0.8,1.8,2.2v12.1c0,1.1-0.5,2-2,2
			c0,0-0.1,0-0.2,0c-3.3-0.2-17.2-1.3-25.3-1.3c-6.8,0-9.3,2-9.3,6.3c0,3.3,1.6,4.9,8,8.4l15.3,8.2c12.4,6.7,16.1,14.6,16.1,24.3
			C357.6,255.6,349.2,269.1,324.9,269.1z"/>
		<path class="st1" d="M423.1,267.1c-4.8,0.7-19.7,2-26.1,2c-21.2,0-35.6-6.9-35.6-34.2v-53.4c0-1.3,1.1-2.3,2.4-2.3h15.7
			c1.3,0,2.4,1,2.4,2.3V235c0,12.2,3.2,17.1,14,17.1c4.1,0,9.9-0.4,14-0.8v-69.7c0-1.3,1.1-2.3,2.4-2.3h15.5c1.3,0,2.5,1,2.5,2.3
			v77.3C430.2,264.7,428.1,266.4,423.1,267.1z"/>
		<path class="st1" d="M467.3,237c-2.9,0-6.7-0.2-9.7-0.4v29c0,1.3-1.1,2.4-2.4,2.4h-15.4c-1.3,0-2.4-1-2.4-2.3v-80.3
			c0-4.1,1.7-5.1,5.4-5.7c6.1-1,15.7-1.6,24.3-1.6c18,0,35.8,6.3,35.8,28.8v1.1C502.9,230.4,485.1,237,467.3,237z M482.6,207
			c0-8.5-5.3-11.8-15.3-11.8c-1.7,0-8.2,0.2-9.7,0.4v24.4c1.3,0.1,8.4,0.2,9.7,0.2c10.6,0,15.3-3.9,15.3-12.1V207z"/>
		<path class="st1" d="M557.5,267.6c-4.2,0.6-10.3,1.6-23.2,1.6c-15.4,0-29-3.9-29-25.7v-39.7c0-21.8,13.7-25.6,29.2-25.6
			c12.9,0,18.9,1,23.1,1.6c1.7,0.2,2.4,0.8,2.4,2.4v11.1c0,1.3-1.1,2.4-2.4,2.4h-24.3c-5.6,0-7.6,1.9-7.6,8.1v10.9h31
			c1.3,0,2.4,1.1,2.4,2.4v11.4c0,1.3-1.1,2.4-2.4,2.4h-31v12.7c0,6.2,2,8.1,7.6,8.1h24.3c1.3,0,2.4,1.1,2.4,2.4v11.1
			C559.9,266.6,559.1,267.3,557.5,267.6z"/>
		<path class="st1" d="M632.2,268.1h-18.3c-1.3,0-1.8-1.2-2.4-2.4l-16-30.2l-1.3,0.1c-2.5,0-6.2-0.2-8.5-0.2v30.4
			c0,1.3-1.1,2.4-2.4,2.4h-15.5c-1.3,0-2.4-1.1-2.4-2.4v-80.2c0-4.1,1.7-5.1,5.4-5.7c5.5-0.8,15.7-1.6,24.3-1.6c20.3,0,36,6.8,36,28
			v1.6c0,12.7-6.7,20.4-15.4,23.9l18,33.7c0.2,0.5,0.4,1,0.4,1.3C633.9,267.5,633.5,268.1,632.2,268.1z M610.6,206.2
			c0-7.3-5.6-10.6-15.7-10.6c-1.7,0-7.9,0.2-9.3,0.4v22.9c1.3,0.1,7.2,0.2,8.5,0.2c12.5,0,16.5-3.2,16.5-11.4V206.2z"/>
	</g>
	<g>
		<path class="st0" d="M281.7,183.5c0-13.6-6.1-25.8-15.6-33.9c-0.2-0.2-1.8-1.5-2.1-1.8C226,118,146.4,82.7,123.4,73.5
			c-0.3-0.1-0.9-0.4-1-0.4c-4.4-1.9-9.3-2.9-14.4-2.9c-20.5,0-37.1,16.6-37.1,37.1c0,2.5,0.2,4.8,0.7,7.2c0,0,0,0.1,0,0.1
			c6.5,31.7,37.2,174.1,42.8,200.3c-0.3,0-0.7,0-1,0c-9,0-16.4,6.7-17.5,15.3c-0.1,0.7-0.2,1.5-0.2,2.3c0,0.4,0,0.7,0,1.1
			c0.5,9.3,8.2,16.7,17.7,16.7c2.9,0,5.7-0.7,8.1-2c1.6,19,15.5,23.7,15.5,23.7s49.8,26.1,101.8,0c14-7,14.6-22.2,14.6-22.2v-2
			c2.6,1.6,5.7,2.5,9,2.5c9.8,0,17.7-7.9,17.7-17.7c0-9.8-7.9-17.7-17.7-17.7c-2.7,0-5.4,0.6-7.7,1.7c4.4-20.8,18.3-86.8,25.8-122.9
			C281.3,190.3,281.7,187,281.7,183.5z"/>
		<path class="st2" d="M190.5,317.6c-43.6,0-78-45.1-78-99.4c0-53.3,6.4-101.1,40.4-101.1c43.6,0,98.8,48.4,98.8,101.7
			C251.7,272.1,234,317.6,190.5,317.6z"/>
		<g>
			<path class="st1" d="M204.2,244.6c0-10.3-8.4-18.7-18.7-18.7c-10.3,0-18.7,8.4-18.7,18.7c0,10.3,8.4,18.7,18.7,18.7
				C195.8,263.3,204.2,255,204.2,244.6z"/>
			<path class="st1" d="M160,224.3c0-10.3-8.4-18.7-18.7-18.7c-10.3,0-18.7,8.4-18.7,18.7c0,10.4,8.4,18.7,18.7,18.7
				C151.6,243.1,160,234.7,160,224.3z"/>
			<path class="st1" d="M246.3,223.5c0-10.3-8.4-18.7-18.7-18.7c-10.3,0-18.7,8.4-18.7,18.7c0,10.3,8.4,18.7,18.7,18.7
				C237.9,242.2,246.3,233.8,246.3,223.5z"/>
		</g>
		<g>
			<path class="st3" d="M168.1,267.2c0-10.3-8.4-18.7-18.7-18.7c-10.3,0-18.7,8.4-18.7,18.7c0,10.3,8.4,18.7,18.7,18.7
				C159.7,286,168.1,277.6,168.1,267.2z"/>
			<path class="st3" d="M204.2,290.7c0-10.3-8.4-18.7-18.7-18.7c-10.3,0-18.7,8.4-18.7,18.7c0,10.3,8.4,18.7,18.7,18.7
				C195.8,309.4,204.2,301.1,204.2,290.7z"/>
			<path class="st3" d="M239.4,265.6c0-10.3-8.4-18.7-18.7-18.7c-10.3,0-18.7,8.4-18.7,18.7c0,10.3,8.4,18.7,18.7,18.7
				C231,284.3,239.4,275.9,239.4,265.6z"/>
			<g>
				<path class="st3" d="M159.8,180.6c0-10.3-8.4-18.7-18.7-18.7c-10.3,0-18.7,8.4-18.7,18.7c0,10.3,8.4,18.7,18.7,18.7
					C151.4,199.4,159.8,191,159.8,180.6z"/>
				<path class="st3" d="M234.6,183.1c0-10.3-8.4-18.7-18.7-18.7c-10.3,0-18.7,8.4-18.7,18.7c0,10.3,8.4,18.7,18.7,18.7
					C226.2,201.8,234.6,193.4,234.6,183.1z"/>
				<path class="st3" d="M197,202.5c0-10.3-8.4-18.7-18.7-18.7c-10.3,0-18.7,8.4-18.7,18.7c0,10.3,8.4,18.7,18.7,18.7
					C188.7,221.2,197,212.9,197,202.5z"/>
			</g>
		</g>
		<g>
			<g>
				<path d="M157.5,337.4c3.2,0,5.8-2.6,5.8-5.8c0-3.2-2.6-5.8-5.8-5.8c-3.2,0-5.8,2.6-5.8,5.8C151.7,334.8,154.3,337.4,157.5,337.4
					z"/>
				<path d="M211.7,337.4c3.2,0,5.8-2.6,5.8-5.8c0-3.2-2.6-5.8-5.8-5.8c-3.2,0-5.8,2.6-5.8,5.8C205.9,334.8,208.5,337.4,211.7,337.4
					z"/>
			</g>
			<path d="M234.2,346c-1.4-3.5-4.9-5.5-9.7-5.5c-1,0-2.1,0.1-3.2,0.3c-0.9,0.2-1.4,0.8-1.3,1.8c0.1,1.2,1.2,2.5,2.6,2.3
				c0.5-0.1,1-0.1,1.4-0.2c-7.7,11-20.5,17.7-36.1,18.8c-1.2,0.1-2.4,0.1-3.6,0.1c-14.4,0-28.9-6.1-39-16.5c0.4,0,0.8,0,1.3,0.1
				c1,0.1,1.7-0.5,1.8-1.6c0.1-1.1-0.7-2.5-2-2.6c-0.6-0.1-1.2-0.1-1.8-0.1c-2.5,0-8.4,0.5-10,5.5c-0.2,0.7-0.1,1.4,0.4,2.1
				c0.5,0.7,1.2,1.1,1.8,1.1c0.6,0,1.1-0.4,1.3-1.1c0.4-1.1,1.1-1.9,2.2-2.5c5.7,5.8,13.4,10.9,23.1,14.9c5.6,2.3,12.4,3.5,20.7,3.5
				c1.3,0,2.6,0,4-0.1c17.7-0.7,32.8-8.3,41.4-20.8c0.6,0.4,1,0.8,1.2,1.4c0.4,0.9,1.2,1.4,2.1,1.4l0,0c0.6,0,1.2-0.3,1.5-0.7
				C234.4,347.3,234.5,346.8,234.2,346z"/>
		</g>
	</g>
</g>
</svg>
