<svg xmlns="http://www.w3.org/2000/svg" xmlns:xlink="http://www.w3.org/1999/xlink" width="2748" height="2794.549" viewBox="0 0 2748 2794.549"><defs><radialGradient id="a" cx="0.382" cy="0.343" r="2.591" gradientTransform="translate(0.139 -0.109) rotate(19.87)" gradientUnits="objectBoundingBox"><stop offset="0" stop-color="#fffde4"/><stop offset="1" stop-color="#005aa7"/></radialGradient><radialGradient id="b" cx="0.382" cy="0.343" r="2.591" gradientTransform="translate(0.139 -0.109) rotate(19.87)" gradientUnits="objectBoundingBox"><stop offset="0" stop-color="#fffde4"/><stop offset="1" stop-color="#389beb"/></radialGradient></defs><g transform="translate(306 -3699)"><line y1="259.236" x2="259.236" transform="translate(910.398 5866)" fill="none" stroke="#fff" stroke-linecap="round" stroke-miterlimit="10" stroke-width="8"/><line y1="327.204" x2="327.204" transform="translate(1655.855 5166)" fill="none" stroke="#f2f4f8" stroke-linecap="round" stroke-miterlimit="10" stroke-width="8"/><line y1="300.346" x2="300.346" transform="translate(840 5995.687)" fill="none" stroke="#fff" stroke-linecap="round" stroke-miterlimit="10" stroke-width="8"/><g transform="translate(758.025 5845.993)"><path d="M791.319,271.6a54.757,54.757,0,1,1-54.757-54.757A54.762,54.762,0,0,1,791.319,271.6Z" transform="translate(125.177 125.176)" fill="none" stroke="#fff" stroke-linecap="round" stroke-miterlimit="10" stroke-width="8"/><path d="M914.462,320.276A129.222,129.222,0,1,1,785.241,191.06,129.227,129.227,0,0,1,914.462,320.276Z" transform="translate(76.497 76.5)" fill="none" stroke="#fff" stroke-linecap="round" stroke-miterlimit="10" stroke-width="8"/><circle cx="216.851" cy="216.851" r="216.851" transform="translate(615.499 579.576) rotate(-81.589)" fill="none" stroke="#fff" stroke-linecap="round" stroke-miterlimit="10" stroke-width="8"/></g><g transform="translate(945.714 4456.331)"><g transform="translate(14.285 165.669)"><path d="M332.1,338.479a145,145,0,1,1-145-145" transform="translate(56.228 -95.151)" fill="none" stroke="#fff" stroke-linecap="round" stroke-miterlimit="10" stroke-width="8"/><path d="M257.613,165.669C392,165.669,500.942,274.615,500.942,409S392,652.322,257.613,652.322,14.285,543.383,14.285,409" transform="translate(-14.285 -165.669)" fill="none" stroke="#fff" stroke-linecap="round" stroke-miterlimit="10" stroke-width="8"/></g><path d="M159.9,266.563a44.717,44.717,0,1,1-44.719-44.715A44.717,44.717,0,0,1,159.9,266.563Z" transform="translate(142.434 142.434)" fill="none" stroke="#fff" stroke-linecap="round" stroke-miterlimit="10" stroke-width="8"/></g><circle cx="344" cy="344" r="344" transform="translate(-306 3699)" opacity="0.119" fill="url(#a)"/><circle cx="301.5" cy="301.5" r="301.5" transform="translate(744 5263)" opacity="0.123" fill="url(#b)"/><circle cx="466.5" cy="466.5" r="466.5" transform="translate(1509 4030)" opacity="0.119" fill="url(#a)"/><g transform="translate(-140.814 5332.6)"><g transform="translate(340.063 140.31)"><line x1="14.984" y1="14.981" transform="translate(0 0.005)" fill="none" stroke="#fff" stroke-linecap="round" stroke-miterlimit="10" stroke-width="8"/><line x1="14.983" y2="14.984" transform="translate(0.002)" fill="none" stroke="#fff" stroke-linecap="round" stroke-miterlimit="10" stroke-width="8"/></g><g transform="translate(311.532 168.847)"><line x1="14.978" y1="14.983" transform="translate(0 0.002)" fill="none" stroke="#fff" stroke-linecap="round" stroke-miterlimit="10" stroke-width="8"/><line x1="14.976" y2="14.984" fill="none" stroke="#fff" stroke-linecap="round" stroke-miterlimit="10" stroke-width="8"/></g><g transform="translate(282.993 197.385)"><line x1="14.983" y1="14.983" transform="translate(0.003)" fill="none" stroke="#fff" stroke-linecap="round" stroke-miterlimit="10" stroke-width="8"/><line x1="14.981" y2="14.984" fill="none" stroke="#fff" stroke-linecap="round" stroke-miterlimit="10" stroke-width="8"/></g><g transform="translate(254.457 225.923)"><line x1="14.981" y1="14.983" transform="translate(0.002)" fill="none" stroke="#fff" stroke-linecap="round" stroke-miterlimit="10" stroke-width="8"/><line x1="14.983" y2="14.981" transform="translate(0 0.002)" fill="none" stroke="#fff" stroke-linecap="round" stroke-miterlimit="10" stroke-width="8"/></g><g transform="translate(225.923 254.462)"><line x1="14.984" y1="14.978" fill="none" stroke="#fff" stroke-linecap="round" stroke-miterlimit="10" stroke-width="8"/><line x1="14.981" y2="14.978" transform="translate(0.002)" fill="none" stroke="#fff" stroke-linecap="round" stroke-miterlimit="10" stroke-width="8"/></g><g transform="translate(197.385 282.996)"><line x1="14.984" y1="14.982" transform="translate(0.002)" fill="none" stroke="#fff" stroke-linecap="round" stroke-miterlimit="10" stroke-width="8"/><line x1="14.981" y2="14.981" fill="none" stroke="#fff" stroke-linecap="round" stroke-miterlimit="10" stroke-width="8"/></g><g transform="translate(168.848 311.534)"><line x1="14.981" y1="14.981" transform="translate(0.002)" fill="none" stroke="#fff" stroke-linecap="round" stroke-miterlimit="10" stroke-width="8"/><line x1="14.983" y2="14.978" transform="translate(0 0.003)" fill="none" stroke="#fff" stroke-linecap="round" stroke-miterlimit="10" stroke-width="8"/></g><g transform="translate(140.31 340.07)"><line x1="14.983" y1="14.983" fill="none" stroke="#fff" stroke-linecap="round" stroke-miterlimit="10" stroke-width="8"/><line x1="14.983" y2="14.978" transform="translate(0 0.005)" fill="none" stroke="#fff" stroke-linecap="round" stroke-miterlimit="10" stroke-width="8"/></g><g transform="translate(312.003 112.248)"><line x1="14.983" y1="14.983" transform="translate(0 0.005)" fill="none" stroke="#fff" stroke-linecap="round" stroke-miterlimit="10" stroke-width="8"/><line x1="14.984" y2="14.983" fill="none" stroke="#fff" stroke-linecap="round" stroke-miterlimit="10" stroke-width="8"/></g><g transform="translate(283.47 140.787)"><line x1="14.981" y1="14.979" transform="translate(0 0.002)" fill="none" stroke="#fff" stroke-linecap="round" stroke-miterlimit="10" stroke-width="8"/><line x1="14.978" y2="14.983" fill="none" stroke="#fff" stroke-linecap="round" stroke-miterlimit="10" stroke-width="8"/></g><g transform="translate(254.931 169.323)"><line x1="14.979" y1="14.983" transform="translate(0.003)" fill="none" stroke="#fff" stroke-linecap="round" stroke-miterlimit="10" stroke-width="8"/><line x1="14.982" y2="14.983" fill="none" stroke="#fff" stroke-linecap="round" stroke-miterlimit="10" stroke-width="8"/></g><g transform="translate(226.396 197.857)"><line x1="14.981" y1="14.986" transform="translate(0.005)" fill="none" stroke="#fff" stroke-linecap="round" stroke-miterlimit="10" stroke-width="8"/><line x1="14.982" y2="14.981" transform="translate(0 0.005)" fill="none" stroke="#fff" stroke-linecap="round" stroke-miterlimit="10" stroke-width="8"/></g><g transform="translate(197.859 226.396)"><line x1="14.986" y1="14.978" transform="translate(0 0.003)" fill="none" stroke="#fff" stroke-linecap="round" stroke-miterlimit="10" stroke-width="8"/><line x1="14.982" y2="14.984" transform="translate(0.003)" fill="none" stroke="#fff" stroke-linecap="round" stroke-miterlimit="10" stroke-width="8"/></g><g transform="translate(169.323 254.934)"><line x1="14.982" y1="14.982" transform="translate(0.002)" fill="none" stroke="#fff" stroke-linecap="round" stroke-miterlimit="10" stroke-width="8"/><line x1="14.983" y2="14.981" transform="translate(0 0.001)" fill="none" stroke="#fff" stroke-linecap="round" stroke-miterlimit="10" stroke-width="8"/></g><g transform="translate(140.785 283.473)"><line x1="14.981" y1="14.981" transform="translate(0.003)" fill="none" stroke="#fff" stroke-linecap="round" stroke-miterlimit="10" stroke-width="8"/><line x1="14.981" y2="14.981" fill="none" stroke="#fff" stroke-linecap="round" stroke-miterlimit="10" stroke-width="8"/></g><g transform="translate(112.248 312.009)"><line x1="14.983" y1="14.982" transform="translate(0.001)" fill="none" stroke="#fff" stroke-linecap="round" stroke-miterlimit="10" stroke-width="8"/><line x1="14.983" y2="14.979" transform="translate(0 0.001)" fill="none" stroke="#fff" stroke-linecap="round" stroke-miterlimit="10" stroke-width="8"/></g><g transform="translate(283.94 84.187)"><line x1="14.983" y1="14.983" transform="translate(0 0.003)" fill="none" stroke="#fff" stroke-linecap="round" stroke-miterlimit="10" stroke-width="8"/><line x1="14.983" y2="14.981" fill="none" stroke="#fff" stroke-linecap="round" stroke-miterlimit="10" stroke-width="8"/></g><g transform="translate(255.404 112.726)"><line x1="14.981" y1="14.981" transform="translate(0.005)" fill="none" stroke="#fff" stroke-linecap="round" stroke-miterlimit="10" stroke-width="8"/><line x1="14.983" y2="14.979" fill="none" stroke="#fff" stroke-linecap="round" stroke-miterlimit="10" stroke-width="8"/></g><g transform="translate(226.872 141.26)"><line x1="14.982" y1="14.983" transform="translate(0.003)" fill="none" stroke="#fff" stroke-linecap="round" stroke-miterlimit="10" stroke-width="8"/><line x1="14.982" y2="14.983" fill="none" stroke="#fff" stroke-linecap="round" stroke-miterlimit="10" stroke-width="8"/></g><g transform="translate(198.334 169.8)"><line x1="14.986" y1="14.981" transform="translate(0.002)" fill="none" stroke="#fff" stroke-linecap="round" stroke-miterlimit="10" stroke-width="8"/><line x1="14.981" y2="14.981" fill="none" stroke="#fff" stroke-linecap="round" stroke-miterlimit="10" stroke-width="8"/></g><g transform="translate(169.8 198.334)"><line x1="14.983" y1="14.983" transform="translate(0.002)" fill="none" stroke="#fff" stroke-linecap="round" stroke-miterlimit="10" stroke-width="8"/><line x1="14.978" y2="14.981" fill="none" stroke="#fff" stroke-linecap="round" stroke-miterlimit="10" stroke-width="8"/></g><g transform="translate(141.261 226.871)"><line x1="14.983" y1="14.983" transform="translate(0.003)" fill="none" stroke="#fff" stroke-linecap="round" stroke-miterlimit="10" stroke-width="8"/><line x1="14.981" y2="14.983" fill="none" stroke="#fff" stroke-linecap="round" stroke-miterlimit="10" stroke-width="8"/></g><g transform="translate(112.721 255.411)"><line x1="14.983" y1="14.981" transform="translate(0.005)" fill="none" stroke="#fff" stroke-linecap="round" stroke-miterlimit="10" stroke-width="8"/><line x1="14.983" y2="14.981" fill="none" stroke="#fff" stroke-linecap="round" stroke-miterlimit="10" stroke-width="8"/></g><g transform="translate(84.185 283.947)"><line x1="14.981" y1="14.984" transform="translate(0.003)" fill="none" stroke="#fff" stroke-linecap="round" stroke-miterlimit="10" stroke-width="8"/><line x1="14.982" y2="14.982" fill="none" stroke="#fff" stroke-linecap="round" stroke-miterlimit="10" stroke-width="8"/></g><g transform="translate(255.878 56.128)"><line x1="14.983" y1="14.979" transform="translate(0 0.002)" fill="none" stroke="#fff" stroke-linecap="round" stroke-miterlimit="10" stroke-width="8"/><line x1="14.981" y2="14.981" transform="translate(0.005)" fill="none" stroke="#fff" stroke-linecap="round" stroke-miterlimit="10" stroke-width="8"/></g><g transform="translate(227.347 84.664)"><line x1="14.982" y1="14.978" transform="translate(0.002)" fill="none" stroke="#fff" stroke-linecap="round" stroke-miterlimit="10" stroke-width="8"/><line x1="14.984" y2="14.981" fill="none" stroke="#fff" stroke-linecap="round" stroke-miterlimit="10" stroke-width="8"/></g><g transform="translate(198.811 113.198)"><line x1="14.981" y1="14.983" fill="none" stroke="#fff" stroke-linecap="round" stroke-miterlimit="10" stroke-width="8"/><line x1="14.981" y2="14.984" transform="translate(0.001 0.002)" fill="none" stroke="#fff" stroke-linecap="round" stroke-miterlimit="10" stroke-width="8"/></g><g transform="translate(170.273 141.733)"><line x1="14.984" y1="14.982" transform="translate(0.001)" fill="none" stroke="#fff" stroke-linecap="round" stroke-miterlimit="10" stroke-width="8"/><line x1="14.986" y2="14.981" transform="translate(0 0.006)" fill="none" stroke="#fff" stroke-linecap="round" stroke-miterlimit="10" stroke-width="8"/></g><g transform="translate(141.734 170.273)"><line x1="14.986" y1="14.981" fill="none" stroke="#fff" stroke-linecap="round" stroke-miterlimit="10" stroke-width="8"/><line x1="14.978" y2="14.984" transform="translate(0.005)" fill="none" stroke="#fff" stroke-linecap="round" stroke-miterlimit="10" stroke-width="8"/></g><g transform="translate(113.198 198.809)"><line x1="14.983" y1="14.983" transform="translate(0.003)" fill="none" stroke="#fff" stroke-linecap="round" stroke-miterlimit="10" stroke-width="8"/><line x1="14.982" y2="14.983" transform="translate(0 0.002)" fill="none" stroke="#fff" stroke-linecap="round" stroke-miterlimit="10" stroke-width="8"/></g><g transform="translate(84.661 227.347)"><line x1="14.981" y1="14.983" transform="translate(0.003)" fill="none" stroke="#fff" stroke-linecap="round" stroke-miterlimit="10" stroke-width="8"/><line x1="14.984" y2="14.979" transform="translate(0 0.005)" fill="none" stroke="#fff" stroke-linecap="round" stroke-miterlimit="10" stroke-width="8"/></g><g transform="translate(56.126 255.886)"><line x1="14.981" y1="14.981" fill="none" stroke="#fff" stroke-linecap="round" stroke-miterlimit="10" stroke-width="8"/><line x1="14.979" y2="14.983" transform="translate(0 0.002)" fill="none" stroke="#fff" stroke-linecap="round" stroke-miterlimit="10" stroke-width="8"/></g><g transform="translate(227.817 28.062)"><line x1="14.982" y1="14.982" fill="none" stroke="#fff" stroke-linecap="round" stroke-miterlimit="10" stroke-width="8"/><line x1="14.978" y2="14.978" transform="translate(0.008 0.003)" fill="none" stroke="#fff" stroke-linecap="round" stroke-miterlimit="10" stroke-width="8"/></g><g transform="translate(199.285 56.597)"><line x1="14.979" y1="14.984" fill="none" stroke="#fff" stroke-linecap="round" stroke-miterlimit="10" stroke-width="8"/><line x1="14.982" y2="14.981" transform="translate(0.002 0.005)" fill="none" stroke="#fff" stroke-linecap="round" stroke-miterlimit="10" stroke-width="8"/></g><g transform="translate(170.747 85.136)"><line x1="14.983" y1="14.981" fill="none" stroke="#fff" stroke-linecap="round" stroke-miterlimit="10" stroke-width="8"/><line x1="14.979" y2="14.979" transform="translate(0.003 0.003)" fill="none" stroke="#fff" stroke-linecap="round" stroke-miterlimit="10" stroke-width="8"/></g><g transform="translate(142.209 113.67)"><line x1="14.984" y1="14.981" fill="none" stroke="#fff" stroke-linecap="round" stroke-miterlimit="10" stroke-width="8"/><line x1="14.981" y2="14.981" transform="translate(0.002 0.006)" fill="none" stroke="#fff" stroke-linecap="round" stroke-miterlimit="10" stroke-width="8"/></g><g transform="translate(113.673 142.208)"><line x1="14.981" y1="14.983" fill="none" stroke="#fff" stroke-linecap="round" stroke-miterlimit="10" stroke-width="8"/><line x1="14.984" y2="14.981" transform="translate(0 0.007)" fill="none" stroke="#fff" stroke-linecap="round" stroke-miterlimit="10" stroke-width="8"/></g><g transform="translate(85.134 170.745)"><line x1="14.984" y1="14.983" fill="none" stroke="#fff" stroke-linecap="round" stroke-miterlimit="10" stroke-width="8"/><line x1="14.981" y2="14.981" transform="translate(0.003 0.005)" fill="none" stroke="#fff" stroke-linecap="round" stroke-miterlimit="10" stroke-width="8"/></g><g transform="translate(56.6 199.284)"><line x1="14.981" y1="14.981" fill="none" stroke="#fff" stroke-linecap="round" stroke-miterlimit="10" stroke-width="8"/><line x1="14.981" y2="14.981" transform="translate(0 0.003)" fill="none" stroke="#fff" stroke-linecap="round" stroke-miterlimit="10" stroke-width="8"/></g><g transform="translate(28.061 227.822)"><line x1="14.981" y1="14.983" fill="none" stroke="#fff" stroke-linecap="round" stroke-miterlimit="10" stroke-width="8"/><line x1="14.979" y2="14.981" transform="translate(0.003 0.003)" fill="none" stroke="#fff" stroke-linecap="round" stroke-miterlimit="10" stroke-width="8"/></g><g transform="translate(199.758)"><line x1="14.981" y1="14.981" transform="translate(0 0.005)" fill="none" stroke="#fff" stroke-linecap="round" stroke-miterlimit="10" stroke-width="8"/><line x1="14.983" y2="14.981" fill="none" stroke="#fff" stroke-linecap="round" stroke-miterlimit="10" stroke-width="8"/></g><g transform="translate(171.221 28.539)"><line x1="14.983" y1="14.979" transform="translate(0.003)" fill="none" stroke="#fff" stroke-linecap="round" stroke-miterlimit="10" stroke-width="8"/><line x1="14.981" y2="14.981" fill="none" stroke="#fff" stroke-linecap="round" stroke-miterlimit="10" stroke-width="8"/></g><g transform="translate(142.686 57.075)"><line x1="14.981" y1="14.981" fill="none" stroke="#fff" stroke-linecap="round" stroke-miterlimit="10" stroke-width="8"/><line x1="14.981" y2="14.981" fill="none" stroke="#fff" stroke-linecap="round" stroke-miterlimit="10" stroke-width="8"/></g><g transform="translate(114.147 85.609)"><line x1="14.983" y1="14.981" transform="translate(0.003)" fill="none" stroke="#fff" stroke-linecap="round" stroke-miterlimit="10" stroke-width="8"/><line x1="14.982" y2="14.982" transform="translate(0 0.003)" fill="none" stroke="#fff" stroke-linecap="round" stroke-miterlimit="10" stroke-width="8"/></g><g transform="translate(85.611 114.147)"><line x1="14.979" y1="14.981" transform="translate(0.003)" fill="none" stroke="#fff" stroke-linecap="round" stroke-miterlimit="10" stroke-width="8"/><line x1="14.979" y2="14.981" fill="none" stroke="#fff" stroke-linecap="round" stroke-miterlimit="10" stroke-width="8"/></g><g transform="translate(57.07 142.685)"><line x1="14.986" y1="14.979" transform="translate(0.005)" fill="none" stroke="#fff" stroke-linecap="round" stroke-miterlimit="10" stroke-width="8"/><line x1="14.983" y2="14.981" transform="translate(0 0.002)" fill="none" stroke="#fff" stroke-linecap="round" stroke-miterlimit="10" stroke-width="8"/></g><g transform="translate(28.533 171.222)"><line x1="14.984" y1="14.981" transform="translate(0.005)" fill="none" stroke="#fff" stroke-linecap="round" stroke-miterlimit="10" stroke-width="8"/><line x1="14.986" y2="14.981" transform="translate(0 0.002)" fill="none" stroke="#fff" stroke-linecap="round" stroke-miterlimit="10" stroke-width="8"/></g><g transform="translate(0 199.758)"><line x1="14.981" y1="14.983" transform="translate(0 0.003)" fill="none" stroke="#fff" stroke-linecap="round" stroke-miterlimit="10" stroke-width="8"/><line x1="14.979" y2="14.984" fill="none" stroke="#fff" stroke-linecap="round" stroke-miterlimit="10" stroke-width="8"/></g></g><line y1="259.236" x2="259.236" transform="translate(-158.603 5135)" fill="none" stroke="#fff" stroke-linecap="round" stroke-miterlimit="10" stroke-width="8"/><line y1="327.204" x2="327.204" transform="translate(-82.145 4522)" fill="none" stroke="#f2f4f8" stroke-linecap="round" stroke-miterlimit="10" stroke-width="8"/><line y1="327.204" x2="327.204" transform="translate(-219.145 4595)" fill="none" stroke="#f2f4f8" stroke-linecap="round" stroke-miterlimit="10" stroke-width="8"/><line y1="300.346" x2="300.346" transform="translate(-229 5264.687)" fill="none" stroke="#fff" stroke-linecap="round" stroke-miterlimit="10" stroke-width="8"/></g></svg>