<?xml version="1.0" encoding="utf-8"?>
<!-- Generator: Adobe Illustrator 24.0.1, SVG Export Plug-In . SVG Version: 6.00 Build 0)  -->
<svg version="1.1" id="Layer_1" xmlns="http://www.w3.org/2000/svg" xmlns:xlink="http://www.w3.org/1999/xlink" x="0px" y="0px"
	 viewBox="0 0 766.7 162.7" style="enable-background:new 0 0 766.7 162.7;" xml:space="preserve">
<style type="text/css">
	.st0{fill:#005387;}
	.st1{fill:#878787;}
	.st2{fill-rule:evenodd;clip-rule:evenodd;fill:#005387;}
	.st3{fill-rule:evenodd;clip-rule:evenodd;fill:#878787;}
	.st4{fill-rule:evenodd;clip-rule:evenodd;fill:url(#SVGID_1_);}
</style>
<path class="st0" d="M230,108.9c-5.6,0-10.4-0.8-14.4-2.3c-4-1.6-7.4-3.7-10-6.5s-4.6-6.1-5.8-10c-1.3-3.9-1.9-8.1-1.9-12.8V28h17.9
	v47.8c0,3.2,0.4,5.9,1.1,8.2s1.7,4.1,3,5.5s2.8,2.4,4.6,3c1.8,0.6,3.8,0.9,5.9,0.9c4.3,0,7.9-1.3,10.6-4s4.1-7.2,4.1-13.6V28H263
	v49.3c0,4.7-0.6,8.9-1.9,12.8c-1.3,3.9-3.3,7.2-6,10s-6.1,4.9-10.2,6.5C240.6,108.1,235.7,108.9,230,108.9z"/>
<path class="st0" d="M271.9,49.1c2.9-0.8,6.6-1.6,11.2-2.3s9.4-1.1,14.4-1.1c5.1,0,9.4,0.7,12.8,2s6.1,3.2,8.1,5.7
	c2,2.4,3.4,5.3,4.2,8.7c0.8,3.4,1.3,7.1,1.3,11.2v34h-17.1V75.4c0-5.5-0.7-9.4-2.2-11.7s-4.2-3.4-8.1-3.4c-1.2,0-2.5,0.1-3.9,0.2
	c-1.4,0.1-2.6,0.2-3.7,0.4v46.5h-17.1V49.1H271.9z"/>
<path class="st0" d="M351.1,29.7c0,3.1-1,5.6-3,7.4c-2,1.8-4.4,2.7-7.2,2.7c-2.7,0-5.1-0.9-7.2-2.7c-2-1.8-3-4.3-3-7.4
	c0-3.1,1-5.6,3-7.4c2-1.8,4.4-2.7,7.2-2.7c2.7,0,5.1,0.9,7.2,2.7C350.1,24.1,351.1,26.5,351.1,29.7z M349.5,107.2h-17.1V47h17.1
	V107.2z"/>
<path class="st0" d="M355.8,77.1c0-4.3,0.7-8.4,2.1-12.3c1.4-3.9,3.5-7.2,6.1-10.1c2.7-2.9,5.9-5.1,9.7-6.8c3.8-1.7,8.2-2.5,13-2.5
	c3.2,0,6.1,0.3,8.8,0.9c2.7,0.6,5.3,1.4,7.8,2.5l-3.5,13.6c-1.6-0.6-3.4-1.1-5.3-1.6s-4-0.7-6.4-0.7c-5,0-8.8,1.6-11.3,4.7
	c-2.5,3.1-3.7,7.2-3.7,12.4c0,5.4,1.2,9.6,3.5,12.6s6.4,4.5,12.2,4.5c2.1,0,4.3-0.2,6.6-0.6c2.4-0.4,4.5-1,6.5-1.8l2.4,14
	c-2,0.8-4.5,1.6-7.4,2.2c-3,0.6-6.3,0.9-9.8,0.9c-5.5,0-10.2-0.8-14.2-2.5c-4-1.6-7.2-3.9-9.8-6.7c-2.6-2.8-4.4-6.2-5.6-10
	C356.4,85.8,355.8,81.7,355.8,77.1z"/>
<path class="st0" d="M403.3,77.6c0-5.3,0.8-10,2.5-14c1.6-4,3.8-7.3,6.5-10s5.7-4.7,9.2-6.1c3.5-1.4,7-2.1,10.7-2.1
	c8.5,0,15.3,2.6,20.3,7.8s7.4,12.9,7.4,23.1c0,1,0,2.1-0.1,3.3s-0.2,2.2-0.2,3.1h-38.7c0.4,3.5,2,6.3,4.9,8.4
	c2.9,2.1,6.8,3.1,11.7,3.1c3.1,0,6.2-0.3,9.2-0.9c3-0.6,5.5-1.3,7.4-2.1l2.3,13.8c-0.9,0.5-2.1,0.9-3.7,1.4
	c-1.5,0.5-3.2,0.9-5.1,1.2c-1.9,0.3-3.9,0.6-6,0.9c-2.1,0.2-4.3,0.3-6.4,0.3c-5.4,0-10.1-0.8-14.1-2.4s-7.3-3.8-10-6.6
	c-2.6-2.8-4.6-6.1-5.8-9.9C403.9,86.2,403.3,82,403.3,77.6z M443.3,71.1c-0.1-1.4-0.3-2.9-0.7-4.2c-0.4-1.4-1.1-2.6-1.9-3.7
	c-0.9-1.1-2-1.9-3.3-2.6c-1.3-0.7-3-1-5-1c-1.9,0-3.5,0.3-4.9,1c-1.4,0.6-2.5,1.5-3.4,2.6s-1.6,2.3-2.1,3.7s-0.9,2.8-1.1,4.3h22.4
	V71.1z"/>
<path class="st0" d="M483.4,95c3.1,0,5.3-0.3,6.6-0.9c1.3-0.6,1.9-1.8,1.9-3.5c0-1.4-0.8-2.6-2.5-3.6s-4.2-2.2-7.7-3.5
	c-2.7-1-5.1-2-7.3-3.1s-4-2.3-5.6-3.8c-1.5-1.5-2.7-3.3-3.5-5.3c-0.8-2.1-1.3-4.5-1.3-7.4c0-5.6,2.1-10.1,6.3-13.4
	c4.2-3.3,10-4.9,17.3-4.9c3.7,0,7.2,0.3,10.5,1c3.4,0.6,6,1.4,8,2.1l-3,13.3c-2-0.7-4.1-1.3-6.5-1.8c-2.3-0.5-4.9-0.8-7.8-0.8
	c-5.3,0-8,1.5-8,4.5c0,0.7,0.1,1.3,0.3,1.8s0.7,1,1.4,1.5s1.6,1,2.8,1.6s2.7,1.2,4.5,1.9c3.7,1.4,6.8,2.8,9.3,4.1
	c2.4,1.3,4.4,2.8,5.8,4.4c1.4,1.6,2.4,3.3,3,5.2s0.9,4.1,0.9,6.6c0,5.9-2.2,10.4-6.7,13.5c-4.5,3-10.8,4.6-18.9,4.6
	c-5.3,0-9.8-0.5-13.3-1.4s-6-1.7-7.4-2.3l2.9-13.8c2.9,1.1,5.9,2,8.9,2.7C477.4,94.7,480.4,95,483.4,95z"/>
<path class="st0" d="M566.1,105.2c-2.9,0.8-6.6,1.6-11.2,2.3c-4.6,0.7-9.4,1.1-14.4,1.1c-5.1,0-9.4-0.7-12.8-2.1
	c-3.4-1.4-6.1-3.3-8.1-5.8s-3.4-5.4-4.2-8.9c-0.8-3.4-1.3-7.2-1.3-11.3V47h17.1v31.5c0,5.5,0.7,9.5,2.2,11.9
	c1.4,2.4,4.2,3.7,8.1,3.7c1.2,0,2.5-0.1,3.9-0.2c1.4-0.1,2.6-0.2,3.7-0.4V47h17.1L566.1,105.2L566.1,105.2z"/>
<path class="st0" d="M608.4,75.3c0-5.5-0.7-9.4-2.1-11.7c-1.4-2.3-3.8-3.4-7.3-3.4c-1.1,0-2.2,0.1-3.3,0.2c-1.1,0.1-2.3,0.2-3.3,0.4
	v46.5h-17.1V49.2c1.4-0.4,3.1-0.8,5.1-1.2c1.9-0.4,4-0.8,6.2-1.1s4.4-0.6,6.7-0.8s4.5-0.3,6.8-0.3c4.3,0,7.9,0.6,10.6,1.7
	c2.7,1.1,4.9,2.4,6.7,3.9c2.4-1.8,5.2-3.1,8.4-4.1s6.1-1.5,8.8-1.5c4.8,0,8.8,0.7,11.8,2c3.1,1.3,5.6,3.2,7.4,5.7
	c1.8,2.4,3.1,5.3,3.8,8.7s1,7.1,1,11.2v34h-17.1V75.5c0-5.5-0.7-9.4-2.1-11.7c-1.4-2.3-3.8-3.4-7.3-3.4c-0.9,0-2.2,0.2-3.8,0.7
	s-3,1-4.1,1.7c0.5,1.8,0.9,3.6,1,5.6c0.2,1.9,0.2,4,0.2,6.2v32.8h-17.1L608.4,75.3L608.4,75.3z"/>
<path class="st0" d="M688.7,45.4c5,0,9.2,0.6,12.6,1.7c3.4,1.1,6,2.8,8.1,4.9c2,2.1,3.5,4.7,4.3,7.8S715,66.2,715,70v35.5
	c-2.4,0.5-5.8,1.2-10.2,1.9c-4.3,0.7-9.6,1.1-15.8,1.1c-3.9,0-7.4-0.3-10.6-1c-3.2-0.7-5.9-1.8-8.2-3.4s-4-3.6-5.3-6.1
	c-1.2-2.5-1.8-5.6-1.8-9.3c0-3.5,0.7-6.5,2.1-8.9c1.4-2.4,3.3-4.4,5.7-5.8c2.4-1.4,5.1-2.5,8.1-3.1c3.1-0.6,6.2-1,9.5-1
	c2.2,0,4.2,0.1,5.9,0.3s3.1,0.4,4.2,0.7v-1.6c0-2.9-0.9-5.2-2.6-7c-1.8-1.8-4.8-2.6-9.2-2.6c-2.9,0-5.8,0.2-8.6,0.6
	c-2.8,0.4-5.3,1-7.3,1.8l-2.2-13.7c1-0.3,2.2-0.6,3.7-1c1.5-0.3,3.1-0.6,4.9-0.9c1.8-0.3,3.6-0.5,5.6-0.7
	C684.8,45.5,686.7,45.4,688.7,45.4z M690.1,95.3c1.7,0,3.3,0,4.8-0.1s2.7-0.2,3.7-0.3V82c-0.7-0.2-1.7-0.3-3.1-0.5
	c-1.4-0.2-2.6-0.2-3.8-0.2c-1.6,0-3.1,0.1-4.5,0.3s-2.7,0.6-3.7,1.1c-1.1,0.5-1.9,1.3-2.5,2.2s-0.9,2.1-0.9,3.4
	c0,2.7,0.9,4.5,2.7,5.6C684.5,94.8,687,95.3,690.1,95.3z"/>
<path class="st0" d="M759.8,62.2c-1.5-0.4-3.3-0.8-5.4-1.2c-2.1-0.4-4.3-0.6-6.6-0.6c-1.1,0-2.3,0.1-3.8,0.3s-2.6,0.4-3.4,0.6v46
	h-17.1v-57c3.1-1.1,6.7-2.1,10.8-3c4.2-1,8.8-1.4,13.9-1.4c0.9,0,2,0.1,3.3,0.2c1.3,0.1,2.6,0.3,3.9,0.5c1.3,0.2,2.6,0.4,3.9,0.7
	c1.3,0.3,2.4,0.6,3.3,1L759.8,62.2z"/>
<path class="st1" d="M363.1,154.5v-25.6h17.3v4.8h-11.5v5h10.3v4.7h-10.3v6.2h12.4v4.8h-18.2V154.5z"/>
<path class="st1" d="M405.8,141.6c0,2.2-0.3,4.2-1,5.8c-0.7,1.7-1.7,3-2.9,4.1c-1.3,1.1-2.8,1.9-4.6,2.4c-1.8,0.5-3.9,0.8-6.1,0.8
	c-1,0-2.2,0-3.6-0.1s-2.7-0.3-4.1-0.5v-25c1.3-0.2,2.7-0.4,4.2-0.5c1.4-0.1,2.7-0.1,3.7-0.1c2.2,0,4.2,0.2,6,0.7s3.3,1.3,4.6,2.3
	c1.3,1.1,2.3,2.4,3,4.1C405.5,137.3,405.8,139.3,405.8,141.6z M389.1,149.8c0.3,0,0.6,0,0.9,0.1c0.4,0,0.8,0,1.3,0
	c2.9,0,5-0.7,6.4-2.2s2.1-3.5,2.1-6c0-2.7-0.7-4.7-2-6.1s-3.4-2.1-6.3-2.1c-0.4,0-0.8,0-1.2,0s-0.8,0-1.2,0.1L389.1,149.8
	L389.1,149.8z"/>
<path class="st1" d="M418.4,155c-1.8,0-3.4-0.3-4.7-0.8s-2.4-1.2-3.2-2.1c-0.9-0.9-1.5-2-1.9-3.2s-0.6-2.6-0.6-4.1v-16h5.8v15.5
	c0,1,0.1,1.9,0.4,2.6c0.2,0.7,0.6,1.3,1,1.8s0.9,0.8,1.5,1s1.2,0.3,1.9,0.3c1.4,0,2.5-0.4,3.4-1.3s1.3-2.3,1.3-4.4v-15.5h5.8v16
	c0,1.5-0.2,2.9-0.6,4.1c-0.4,1.3-1.1,2.3-1.9,3.2c-0.9,0.9-2,1.6-3.3,2.1C421.8,154.7,420.3,155,418.4,155z"/>
<path class="st1" d="M444,155c-4.2,0-7.3-1.2-9.5-3.5s-3.3-5.6-3.3-9.9c0-2.1,0.3-4,1-5.7s1.6-3.1,2.7-4.2c1.2-1.1,2.5-2,4.1-2.6
	s3.3-0.9,5.2-0.9c1.1,0,2.1,0.1,3,0.2c0.9,0.2,1.7,0.3,2.3,0.6c0.7,0.2,1.2,0.4,1.7,0.6c0.4,0.2,0.8,0.4,1,0.5l-1.7,4.7
	c-0.8-0.4-1.7-0.8-2.8-1.1c-1-0.3-2.2-0.4-3.6-0.4c-0.9,0-1.8,0.1-2.6,0.4c-0.9,0.3-1.6,0.8-2.3,1.4c-0.7,0.7-1.2,1.5-1.6,2.5
	c-0.4,1-0.6,2.3-0.6,3.8c0,1.2,0.1,2.3,0.4,3.3c0.3,1,0.7,1.9,1.3,2.6s1.3,1.3,2.3,1.8c0.9,0.4,2.1,0.6,3.4,0.6c0.8,0,1.6,0,2.3-0.1
	s1.3-0.2,1.8-0.4c0.5-0.1,1-0.3,1.4-0.5s0.8-0.3,1.1-0.5l1.6,4.6c-0.8,0.5-2,0.9-3.4,1.3C447.7,154.8,446,155,444,155z"/>
<path class="st1" d="M472.4,154.5c-0.3-0.9-0.6-1.8-0.9-2.7c-0.3-0.9-0.7-1.9-1-2.8h-10c-0.3,0.9-0.6,1.9-1,2.8
	c-0.3,0.9-0.6,1.9-0.9,2.7h-6c1-2.8,1.9-5.3,2.7-7.7c0.9-2.3,1.7-4.6,2.5-6.6c0.8-2.1,1.6-4,2.5-5.9c0.8-1.9,1.6-3.7,2.5-5.5h5.5
	c0.8,1.8,1.7,3.6,2.5,5.5s1.6,3.8,2.5,5.9c0.8,2.1,1.7,4.3,2.5,6.6c0.9,2.3,1.8,4.9,2.8,7.7H472.4z M465.4,134.6
	c-0.1,0.4-0.3,0.9-0.6,1.5c-0.2,0.6-0.5,1.4-0.8,2.2c-0.3,0.8-0.7,1.8-1.1,2.8c-0.4,1-0.8,2.1-1.2,3.2h7.3c-0.4-1.1-0.8-2.2-1.1-3.2
	c-0.4-1-0.7-1.9-1-2.8c-0.3-0.8-0.6-1.6-0.9-2.2C465.8,135.5,465.6,135,465.4,134.6z"/>
<path class="st1" d="M491.7,154.9c-0.1,0.2-0.2,0.4-0.3,0.6s-0.1,0.3-0.2,0.4c0.8,0.4,1.3,0.9,1.6,1.4s0.4,1.1,0.4,1.7
	c0,1.2-0.5,2.1-1.4,2.7s-2.2,0.9-3.7,0.9c-0.5,0-1.1,0-1.6-0.1s-1.1-0.2-1.6-0.4l0.7-3.2c0.2,0,0.5,0.1,0.9,0.2
	c0.5,0.1,0.9,0.2,1.4,0.2c0.3,0,0.6-0.1,0.9-0.2c0.3-0.1,0.4-0.4,0.4-0.7c0-0.3-0.1-0.6-0.4-0.8c-0.3-0.2-0.7-0.4-1.2-0.6l-0.4-0.1
	c0.1-0.3,0.2-0.6,0.4-1s0.3-0.7,0.5-1.1c-3.5-0.4-6.1-1.8-7.8-4c-1.8-2.3-2.7-5.3-2.7-9.2c0-2.1,0.3-4,1-5.7s1.6-3.1,2.7-4.2
	c1.2-1.1,2.5-2,4.1-2.6s3.3-0.9,5.2-0.9c1.1,0,2.1,0.1,3,0.2c0.9,0.2,1.7,0.3,2.3,0.6c0.7,0.2,1.2,0.4,1.7,0.6
	c0.4,0.2,0.8,0.4,1,0.5l-1.7,4.7c-0.8-0.4-1.7-0.8-2.8-1.1c-1-0.3-2.2-0.4-3.6-0.4c-0.9,0-1.8,0.1-2.6,0.4c-0.9,0.3-1.6,0.8-2.3,1.4
	c-0.7,0.7-1.2,1.5-1.6,2.5c-0.4,1-0.6,2.3-0.6,3.8c0,1.2,0.1,2.3,0.4,3.3c0.3,1,0.7,1.9,1.3,2.6s1.3,1.3,2.3,1.8
	c0.9,0.4,2.1,0.6,3.4,0.6c0.8,0,1.6,0,2.3-0.1s1.3-0.2,1.8-0.4c0.5-0.1,1-0.3,1.4-0.5s0.8-0.3,1.1-0.5l1.6,4.6
	c-0.7,0.4-1.7,0.8-2.9,1.2S493.3,154.8,491.7,154.9z"/>
<path class="st1" d="M518.7,154.5c-0.3-0.9-0.6-1.8-0.9-2.7c-0.3-0.9-0.7-1.9-1-2.8h-10c-0.3,0.9-0.6,1.9-1,2.8
	c-0.3,0.9-0.6,1.9-0.9,2.7h-6c1-2.8,1.9-5.3,2.7-7.7c0.9-2.3,1.7-4.6,2.5-6.6c0.8-2.1,1.6-4,2.5-5.9c0.8-1.9,1.6-3.7,2.5-5.5h5.5
	c0.8,1.8,1.7,3.6,2.5,5.5s1.6,3.8,2.5,5.9c0.8,2.1,1.7,4.3,2.5,6.6c0.9,2.3,1.8,4.9,2.8,7.7H518.7z M518.8,122.2
	c-0.1,0.4-0.4,0.8-0.6,1.2c-0.3,0.4-0.6,0.9-0.9,1.2c-0.4,0.4-0.8,0.7-1.3,0.9c-0.5,0.2-1,0.4-1.6,0.4c-0.4,0-0.9-0.1-1.2-0.2
	c-0.4-0.1-0.8-0.3-1.1-0.4c-0.4-0.2-0.7-0.3-1.1-0.4c-0.4-0.1-0.8-0.2-1.1-0.2c-0.5,0-0.9,0.2-1.2,0.5s-0.6,0.7-0.8,1.1l-2.7-1.8
	c0.1-0.4,0.4-0.8,0.6-1.2c0.3-0.4,0.6-0.9,0.9-1.2c0.4-0.4,0.8-0.7,1.3-0.9c0.5-0.2,1-0.4,1.6-0.4c0.4,0,0.9,0.1,1.2,0.2
	c0.4,0.1,0.8,0.3,1.1,0.4c0.4,0.2,0.7,0.3,1.1,0.4c0.4,0.1,0.7,0.2,1.2,0.2s0.9-0.2,1.2-0.5s0.6-0.7,0.8-1.1L518.8,122.2z
	 M511.8,134.6c-0.1,0.4-0.3,0.9-0.6,1.5c-0.2,0.6-0.5,1.4-0.8,2.2c-0.3,0.8-0.7,1.8-1.1,2.8c-0.4,1-0.8,2.1-1.2,3.2h7.3
	c-0.4-1.1-0.8-2.2-1.1-3.2c-0.4-1-0.7-1.9-1-2.8c-0.3-0.8-0.6-1.6-0.9-2.2S511.9,135,511.8,134.6z"/>
<path class="st1" d="M549.5,141.6c0,2.2-0.3,4.1-1,5.8c-0.7,1.7-1.5,3.1-2.7,4.2c-1.1,1.1-2.5,2-4.1,2.5c-1.6,0.6-3.3,0.9-5.1,0.9
	s-3.4-0.3-5-0.9s-2.9-1.4-4.1-2.5c-1.2-1.1-2.1-2.5-2.7-4.2c-0.7-1.7-1-3.6-1-5.8c0-2.2,0.3-4.1,1-5.8c0.7-1.7,1.6-3.1,2.8-4.2
	s2.5-2,4.1-2.6c1.5-0.6,3.2-0.9,4.9-0.9c1.8,0,3.4,0.3,5,0.9s2.9,1.4,4.1,2.6c1.2,1.1,2.1,2.5,2.7,4.2
	C549.1,137.5,549.5,139.4,549.5,141.6z M529.9,141.6c0,1.3,0.2,2.4,0.5,3.4s0.8,1.9,1.3,2.6c0.6,0.7,1.3,1.3,2.1,1.7
	c0.8,0.4,1.8,0.6,2.9,0.6c1.1,0,2-0.2,2.9-0.6s1.6-1,2.1-1.7c0.6-0.7,1-1.6,1.3-2.6s0.5-2.1,0.5-3.4s-0.2-2.4-0.5-3.4
	s-0.8-1.9-1.3-2.6c-0.6-0.7-1.3-1.3-2.1-1.7c-0.9-0.4-1.8-0.6-2.9-0.6c-1.1,0-2,0.2-2.9,0.6c-0.8,0.4-1.5,1-2.1,1.7s-1,1.6-1.3,2.6
	C530,139.3,529.9,140.4,529.9,141.6z"/>
<path class="st1" d="M575.9,154.5c-0.3-0.9-0.6-1.8-0.9-2.7c-0.3-0.9-0.7-1.9-1-2.8h-10c-0.3,0.9-0.6,1.9-1,2.8
	c-0.3,0.9-0.6,1.9-0.9,2.7h-6c1-2.8,1.9-5.3,2.7-7.7c0.9-2.3,1.7-4.6,2.5-6.6c0.8-2.1,1.6-4,2.5-5.9c0.8-1.9,1.6-3.7,2.5-5.5h5.5
	c0.8,1.8,1.7,3.6,2.5,5.5s1.6,3.8,2.5,5.9c0.8,2.1,1.7,4.3,2.5,6.6c0.9,2.3,1.8,4.9,2.8,7.7H575.9z M569,134.6
	c-0.1,0.4-0.3,0.9-0.6,1.5c-0.2,0.6-0.5,1.4-0.8,2.2c-0.3,0.8-0.7,1.8-1.1,2.8c-0.4,1-0.8,2.1-1.2,3.2h7.3c-0.4-1.1-0.8-2.2-1.1-3.2
	c-0.4-1-0.7-1.9-1-2.8c-0.3-0.8-0.6-1.6-0.9-2.2S569.1,135,569,134.6z"/>
<path class="st1" d="M612.3,141.6c0,2.2-0.3,4.2-1,5.8c-0.7,1.7-1.7,3-2.9,4.1c-1.3,1.1-2.8,1.9-4.6,2.4s-3.9,0.8-6.1,0.8
	c-1,0-2.2,0-3.6-0.1c-1.4-0.1-2.7-0.3-4.1-0.5v-25c1.3-0.2,2.7-0.4,4.2-0.5c1.4-0.1,2.7-0.1,3.7-0.1c2.2,0,4.2,0.2,6,0.7
	s3.3,1.3,4.6,2.3c1.3,1.1,2.3,2.4,3,4.1C612,137.3,612.3,139.3,612.3,141.6z M595.6,149.8c0.3,0,0.6,0,0.9,0.1c0.4,0,0.8,0,1.3,0
	c2.9,0,5-0.7,6.4-2.2s2.1-3.5,2.1-6c0-2.7-0.7-4.7-2-6.1s-3.4-2.1-6.3-2.1c-0.4,0-0.8,0-1.2,0s-0.8,0-1.2,0.1V149.8z"/>
<path class="st1" d="M614.9,128.8h5.8v25.6h-5.8V128.8z"/>
<path class="st1" d="M631.4,150.1c0.8,0,1.5-0.1,2-0.2s1-0.3,1.3-0.6c0.3-0.2,0.5-0.5,0.7-0.8c0.1-0.3,0.2-0.7,0.2-1.1
	c0-0.8-0.4-1.5-1.2-2.1s-2.1-1.2-4.1-1.8c-0.8-0.3-1.7-0.6-2.5-1s-1.6-0.9-2.3-1.4c-0.7-0.6-1.2-1.3-1.6-2.1c-0.4-0.8-0.6-1.8-0.6-3
	s0.2-2.3,0.7-3.2c0.4-1,1.1-1.8,1.9-2.4c0.8-0.7,1.8-1.2,3-1.5c1.2-0.4,2.5-0.5,3.9-0.5c1.7,0,3.2,0.2,4.5,0.6s2.3,0.8,3.1,1.2
	l-1.7,4.6c-0.7-0.4-1.5-0.7-2.4-1s-1.9-0.4-3.2-0.4c-1.4,0-2.4,0.2-3,0.6s-0.9,1-0.9,1.8c0,0.5,0.1,0.9,0.3,1.2
	c0.2,0.3,0.5,0.6,0.9,0.9s0.9,0.5,1.4,0.7s1.1,0.4,1.8,0.6c1.3,0.5,2.5,1,3.5,1.5s1.8,1,2.5,1.7c0.7,0.6,1.1,1.4,1.5,2.3
	c0.3,0.9,0.5,1.9,0.5,3.1c0,2.4-0.8,4.3-2.5,5.6c-1.7,1.3-4.2,2-7.6,2c-1.1,0-2.2-0.1-3.1-0.2c-0.9-0.1-1.7-0.3-2.4-0.5
	s-1.3-0.4-1.8-0.6s-0.9-0.4-1.3-0.6l1.6-4.6c0.8,0.4,1.7,0.8,2.8,1.1C628.4,149.9,629.7,150.1,631.4,150.1z"/>
<path class="st1" d="M662,128.8v4.9h-7.7v20.7h-5.8v-20.7h-7.7v-4.9H662z"/>
<path class="st1" d="M677.6,154.5c-0.3-0.9-0.6-1.8-0.9-2.7c-0.3-0.9-0.7-1.9-1-2.8h-10c-0.3,0.9-0.6,1.9-1,2.8
	c-0.3,0.9-0.6,1.9-0.9,2.7h-6c1-2.8,1.9-5.3,2.7-7.7c0.9-2.3,1.7-4.6,2.5-6.6s1.6-4,2.5-5.9c0.8-1.9,1.6-3.7,2.5-5.5h5.5
	c0.8,1.8,1.7,3.6,2.5,5.5s1.6,3.8,2.5,5.9c0.8,2.1,1.7,4.3,2.5,6.6c0.9,2.3,1.8,4.9,2.8,7.7H677.6z M676.6,124.4l-2,2.4l-3.7-2.8
	l-3.7,2.8l-2.1-2.4l5.8-5.1L676.6,124.4z M670.7,134.6c-0.1,0.4-0.3,0.9-0.6,1.5c-0.2,0.6-0.5,1.4-0.8,2.2c-0.3,0.8-0.7,1.8-1.1,2.8
	c-0.4,1-0.8,2.1-1.2,3.2h7.3c-0.4-1.1-0.8-2.2-1.1-3.2c-0.4-1-0.7-1.9-1-2.8c-0.3-0.8-0.6-1.6-0.9-2.2S670.8,135,670.7,134.6z"/>
<path class="st1" d="M702.1,154.5c-1.7-2.9-3.4-5.8-5.4-8.7c-1.9-2.9-4-5.6-6.1-8.1v16.8h-5.7v-25.6h4.7c0.8,0.8,1.7,1.8,2.7,3
	s2,2.4,3,3.8c1,1.3,2,2.7,3.1,4.2c1,1.4,2,2.8,2.9,4.2V129h5.7v25.6L702.1,154.5L702.1,154.5z"/>
<path class="st1" d="M722.3,155c-4.2,0-7.3-1.2-9.5-3.5s-3.3-5.6-3.3-9.9c0-2.1,0.3-4,1-5.7s1.6-3.1,2.7-4.2c1.2-1.1,2.5-2,4.1-2.6
	s3.3-0.9,5.2-0.9c1.1,0,2.1,0.1,3,0.2c0.9,0.2,1.7,0.3,2.3,0.6c0.7,0.2,1.2,0.4,1.7,0.6c0.4,0.2,0.8,0.4,1,0.5l-1.7,4.7
	c-0.8-0.4-1.7-0.8-2.8-1.1c-1-0.3-2.2-0.4-3.6-0.4c-0.9,0-1.8,0.1-2.6,0.4c-0.9,0.3-1.6,0.8-2.3,1.4c-0.7,0.7-1.2,1.5-1.6,2.5
	c-0.4,1-0.6,2.3-0.6,3.8c0,1.2,0.1,2.3,0.4,3.3c0.3,1,0.7,1.9,1.3,2.6s1.3,1.3,2.3,1.8c0.9,0.4,2.1,0.6,3.4,0.6c0.8,0,1.6,0,2.3-0.1
	s1.3-0.2,1.8-0.4c0.5-0.1,1-0.3,1.4-0.5s0.8-0.3,1.1-0.5l1.6,4.6c-0.8,0.5-2,0.9-3.4,1.3C726,154.8,724.3,155,722.3,155z"/>
<path class="st1" d="M732.4,128.8h5.8v25.6h-5.8V128.8z"/>
<path class="st1" d="M759.1,154.5c-0.3-0.9-0.6-1.8-0.9-2.7c-0.3-0.9-0.7-1.9-1-2.8h-10c-0.3,0.9-0.6,1.9-1,2.8
	c-0.3,0.9-0.6,1.9-0.9,2.7h-6c1-2.8,1.9-5.3,2.7-7.7c0.9-2.3,1.7-4.6,2.5-6.6s1.6-4,2.5-5.9c0.8-1.9,1.6-3.7,2.5-5.5h5.5
	c0.8,1.8,1.7,3.6,2.5,5.5s1.6,3.8,2.5,5.9c0.8,2.1,1.7,4.3,2.5,6.6c0.9,2.3,1.8,4.9,2.8,7.7H759.1z M752.2,134.6
	c-0.1,0.4-0.3,0.9-0.6,1.5c-0.2,0.6-0.5,1.4-0.8,2.2c-0.3,0.8-0.7,1.8-1.1,2.8c-0.4,1-0.8,2.1-1.2,3.2h7.3c-0.4-1.1-0.8-2.2-1.1-3.2
	c-0.4-1-0.7-1.9-1-2.8c-0.3-0.8-0.6-1.6-0.9-2.2S752.3,135,752.2,134.6z"/>
<path class="st2" d="M91.2,3.9c-31.2-8.3-62,15.5-61,48.2c0.8,26.8,23.2,47.9,50,47.2c19.7-0.6,36.2-12.7,43.4-29.8
	c-7.3,10.7-20.5,16.9-34.4,17.3C30.6,88.5,25.8,8.1,79,3.6c3.4-0.3,6.9-0.4,10.8,0C90.2,3.7,90.7,3.8,91.2,3.9z"/>
<path class="st3" d="M123.4,69.7h-15.3c-3,5.6-7.5,11.6-15.8,15.6C103.9,84,115.1,78.7,123.4,69.7z"/>
<path class="st3" d="M76.9,4.2C65.4,6,56.1,11.7,50.3,20.4c-4.2,6.3-6.7,14.1-6.7,22.5c1.4-5.1,3.9-10,7.3-14.1
	c11.3-13.8,32-18.2,47-7.9c3.5,2.4,6.1,5.1,8.3,8h16.4c-0.2-0.4-0.5-0.9-0.8-1.5c-0.7-1.1-2.4-4-3.7-5c-6.5-8.9-16-15.5-27-18.4
	C86.8,3.2,81.1,3.5,76.9,4.2z"/>
<path class="st2" d="M19.1,0.7h-0.2C19,0.7,19.1,0.7,19.1,0.7L19.1,0.7z"/>
<path class="st2" d="M116.1,105.5c-18.1,7.7-37.3,7.4-55.2-0.3C16.1,85.7,23,45.8,22.8,5.2c0-2.8-1.3-4.3-3.8-4.4H4.8
	c-2.9,0-4.4,1.6-4.4,4.5V42v8.3c0,42.8,34.3,77.6,77.1,77.6c34.3,0,62.1-21.8,72.8-50.8c3.5-9.5,4.4-19,4.6-29.3
	C152.9,71.9,145.1,93.2,116.1,105.5z"/>
<path class="st3" d="M114.9,102.7c3.9-1.7,7.5-3.5,10.7-5.6c8.4-5.9,15.5-14,20.5-23.8c8.4-19.6,5.8-44.1,5.6-68.2
	c0-0.6,0.3-4.3-3.5-4.4c0.2,0,0.5,0,0.7,0h-0.3h-13.1c-3,0-4.5,1.4-4.5,4.4V48c0,10.4,0.4,23.5-7.4,34.8
	c-9.7,13.9-24.3,22.2-40,25.1C94,108.8,104.5,107.1,114.9,102.7z"/>
<radialGradient id="SVGID_1_" cx="89.0165" cy="144.6408" r="33.3478" gradientTransform="matrix(1 0 0 -1 0 184)" gradientUnits="userSpaceOnUse">
	<stop  offset="0" style="stop-color:#A1DAF8"/>
	<stop  offset="0.37" style="stop-color:#008BD2"/>
	<stop  offset="1" style="stop-color:#004D80"/>
</radialGradient>
<path class="st4" d="M81.5,26.6c13,0,23.6,10.6,23.6,23.6S94.5,73.8,81.5,73.8S57.9,63.2,57.9,50.2C57.9,37.2,68.4,26.6,81.5,26.6z"
	/>
</svg>
