<svg xmlns="http://www.w3.org/2000/svg" width="198.214" height="261" viewBox="0 0 198.214 261"><g transform="translate(-33.264 -114.929)"><g transform="translate(33.264 114.929)"><path d="M58.692,134.963l-7.32-7.32,7.32-7.32L53.3,114.929l-7.32,7.32-7.32-7.32-5.394,5.394,7.32,7.32-7.32,7.32,5.394,5.394,7.32-7.32,7.32,7.32Z" transform="translate(-33.264 -114.929)" fill="#f2f4f8"/></g><g transform="translate(90.859 114.929)"><path d="M74.7,134.963l-7.32-7.32,7.32-7.32-5.394-5.394-7.32,7.32-7.32-7.32-5.394,5.394,7.32,7.32-7.32,7.32,5.394,5.394,7.32-7.32,7.32,7.32Z" transform="translate(-49.274 -114.929)" fill="#f2f4f8"/></g><g transform="translate(148.454 114.929)"><path d="M90.713,134.963l-7.32-7.32,7.32-7.32-5.394-5.394L78,122.249l-7.32-7.32-5.394,5.394,7.32,7.32-7.32,7.32,5.394,5.394,7.32-7.32,7.32,7.32Z" transform="translate(-65.284 -114.929)" fill="#f2f4f8"/></g><g transform="translate(206.05 114.929)"><path d="M106.723,134.963l-7.32-7.32,7.32-7.32-5.394-5.394-7.32,7.32-7.32-7.32-5.394,5.394,7.32,7.32-7.32,7.32,5.394,5.394,7.32-7.32,7.32,7.32Z" transform="translate(-81.295 -114.929)" fill="#f2f4f8"/></g><g transform="translate(33.264 177.682)"><path d="M58.692,152.408l-7.32-7.32,7.32-7.32L53.3,132.373l-7.32,7.32-7.32-7.32-5.394,5.394,7.32,7.32-7.32,7.32,5.394,5.394,7.32-7.32,7.32,7.32Z" transform="translate(-33.264 -132.373)" fill="#f2f4f8"/></g><g transform="translate(90.859 177.682)"><path d="M74.7,152.408l-7.32-7.32,7.32-7.32-5.394-5.394-7.32,7.32-7.32-7.32-5.394,5.394,7.32,7.32-7.32,7.32,5.394,5.394,7.32-7.32,7.32,7.32Z" transform="translate(-49.274 -132.373)" fill="#f2f4f8"/></g><g transform="translate(148.454 177.682)"><path d="M90.713,152.408l-7.32-7.32,7.32-7.32-5.394-5.394L78,139.693l-7.32-7.32-5.394,5.394,7.32,7.32-7.32,7.32,5.394,5.394,7.32-7.32,7.32,7.32Z" transform="translate(-65.284 -132.373)" fill="#f2f4f8"/></g><g transform="translate(206.05 177.682)"><path d="M106.723,152.408l-7.32-7.32,7.32-7.32-5.394-5.394-7.32,7.32-7.32-7.32-5.394,5.394,7.32,7.32-7.32,7.32,5.394,5.394,7.32-7.32,7.32,7.32Z" transform="translate(-81.295 -132.373)" fill="#f2f4f8"/></g><g transform="translate(33.264 235.81)"><path d="M58.692,168.566l-7.32-7.32,7.32-7.32L53.3,148.531l-7.32,7.32-7.32-7.32-5.394,5.394,7.32,7.32-7.32,7.32,5.394,5.394,7.32-7.32,7.32,7.32Z" transform="translate(-33.264 -148.531)" fill="#f2f4f8"/></g><g transform="translate(90.859 235.81)"><path d="M74.7,168.566l-7.32-7.32,7.32-7.32-5.394-5.394-7.32,7.32-7.32-7.32-5.394,5.394,7.32,7.32-7.32,7.32,5.394,5.394,7.32-7.32,7.32,7.32Z" transform="translate(-49.274 -148.531)" fill="#f2f4f8"/></g><g transform="translate(148.454 235.81)"><path d="M90.713,168.566l-7.32-7.32,7.32-7.32-5.394-5.394L78,155.852l-7.32-7.32-5.394,5.394,7.32,7.32-7.32,7.32,5.394,5.394L78,166.64l7.32,7.32Z" transform="translate(-65.284 -148.531)" fill="#f2f4f8"/></g><g transform="translate(206.05 235.81)"><path d="M106.723,168.566l-7.32-7.32,7.32-7.32-5.394-5.394-7.32,7.32-7.32-7.32-5.394,5.394,7.32,7.32-7.32,7.32,5.394,5.394,7.32-7.32,7.32,7.32Z" transform="translate(-81.295 -148.531)" fill="#f2f4f8"/></g><g transform="translate(33.264 298.562)"><path d="M58.692,186.01l-7.32-7.32,7.32-7.32L53.3,165.975l-7.32,7.32-7.32-7.32-5.394,5.394,7.32,7.32-7.32,7.32,5.394,5.394,7.32-7.32,7.32,7.32Z" transform="translate(-33.264 -165.975)" fill="#f2f4f8"/></g><g transform="translate(90.859 298.562)"><path d="M74.7,186.01l-7.32-7.32,7.32-7.32-5.394-5.394-7.32,7.32-7.32-7.32-5.394,5.394,7.32,7.32-7.32,7.32,5.394,5.394,7.32-7.32,7.32,7.32Z" transform="translate(-49.274 -165.975)" fill="#f2f4f8"/></g><g transform="translate(148.454 298.562)"><path d="M90.713,186.01l-7.32-7.32,7.32-7.32-5.394-5.394L78,173.3l-7.32-7.32-5.394,5.394,7.32,7.32-7.32,7.32,5.394,5.394,7.32-7.32,7.32,7.32Z" transform="translate(-65.284 -165.975)" fill="#f2f4f8"/></g><g transform="translate(206.05 298.562)"><path d="M106.723,186.01l-7.32-7.32,7.32-7.32-5.394-5.394-7.32,7.32-7.32-7.32-5.394,5.394,7.32,7.32-7.32,7.32,5.394,5.394,7.32-7.32,7.32,7.32Z" transform="translate(-81.295 -165.975)" fill="#f2f4f8"/></g><g transform="translate(33.264 350.501)"><path d="M58.692,200.448l-7.32-7.32,7.32-7.32L53.3,180.413l-7.32,7.32-7.32-7.32-5.394,5.394,7.32,7.32-7.32,7.32,5.394,5.394,7.32-7.32,7.32,7.32Z" transform="translate(-33.264 -180.413)" fill="#f2f4f8"/></g><g transform="translate(90.859 350.501)"><path d="M74.7,200.448l-7.32-7.32,7.32-7.32-5.394-5.394-7.32,7.32-7.32-7.32-5.394,5.394,7.32,7.32-7.32,7.32,5.394,5.394,7.32-7.32,7.32,7.32Z" transform="translate(-49.274 -180.413)" fill="#f2f4f8"/></g><g transform="translate(148.454 350.501)"><path d="M90.713,200.448l-7.32-7.32,7.32-7.32-5.394-5.394L78,187.734l-7.32-7.32-5.394,5.394,7.32,7.32-7.32,7.32,5.394,5.394,7.32-7.32,7.32,7.32Z" transform="translate(-65.284 -180.413)" fill="#f2f4f8"/></g><g transform="translate(206.05 350.501)"><path d="M106.723,200.448l-7.32-7.32,7.32-7.32-5.394-5.394-7.32,7.32-7.32-7.32-5.394,5.394,7.32,7.32-7.32,7.32,5.394,5.394,7.32-7.32,7.32,7.32Z" transform="translate(-81.295 -180.413)" fill="#f2f4f8"/></g></g></svg>