<svg xmlns="http://www.w3.org/2000/svg" width="18.842" height="17.56" viewBox="0 0 18.842 17.56"><path d="M9.372,17.56a1.187,1.187,0,0,1-.8-.306l-5.737-5.17A8.54,8.54,0,0,1,.2,7.706,5.875,5.875,0,0,1,.036,5.568,5.81,5.81,0,0,1,5.671,0,5.4,5.4,0,0,1,9.39,1.482,5.6,5.6,0,0,1,13.169,0,5.81,5.81,0,0,1,18.8,5.57a5.867,5.867,0,0,1-.163,2.136A8.558,8.558,0,0,1,16,12.087L10.162,17.26A1.192,1.192,0,0,1,9.372,17.56Zm-3.7-15.2A3.494,3.494,0,0,0,2.4,5.818c0,.034-.007.063-.012.088A3.759,3.759,0,0,0,2.51,7.164a6.2,6.2,0,0,0,1.921,3.173l4.946,4.458,5.036-4.461a6.2,6.2,0,0,0,1.916-3.17,3.647,3.647,0,0,0,.122-1.268c0-.025-.007-.051-.009-.077a3.5,3.5,0,0,0-3.274-3.46,3.227,3.227,0,0,0-2.775,1.6,1.194,1.194,0,0,1-1.02.574H9.369a1.193,1.193,0,0,1-1.02-.584A3.069,3.069,0,0,0,5.671,2.358Z" fill="#20639a"/></svg>