<svg xmlns="http://www.w3.org/2000/svg" width="72.992" height="70.066" viewBox="0 0 72.992 70.066"><g transform="translate(0 -10.262)"><g transform="translate(0 10.262)"><path d="M72.852,48.667A28.775,28.775,0,0,0,50.476,23.435V19.813a4.847,4.847,0,0,0-1.17-9.551H39.041a4.847,4.847,0,0,0-1.17,9.551v3.632a28.626,28.626,0,0,0-14.039,7.723,28.936,28.936,0,0,0-2.421,2.747c-.036,0-.072-.005-.108-.005H11.144a1.426,1.426,0,1,0,0,2.851h8.328a28.58,28.58,0,0,0-2.53,5.48H1.426a1.426,1.426,0,0,0,0,2.851h14.71a28.987,28.987,0,0,0-.708,5.48h-6.3a1.426,1.426,0,0,0,0,2.851h6.35a28.944,28.944,0,0,0,.89,5.48H7.128a1.426,1.426,0,1,0,0,2.851H17.274A28.794,28.794,0,0,0,41.349,80.19q1.413.139,2.826.139A28.867,28.867,0,0,0,59.89,75.684a1.426,1.426,0,0,0-1.556-2.389,25.947,25.947,0,1,1,7.642-7.652A1.426,1.426,0,1,0,68.368,67.2,28.89,28.89,0,0,0,72.852,48.667ZM37.045,15.109a2,2,0,0,1,2-2H49.306a2,2,0,1,1,0,3.992H39.041A2,2,0,0,1,37.045,15.109Zm3.677,7.846v-3h6.9V22.95A29.048,29.048,0,0,0,40.723,22.955Z" transform="translate(0 -10.262)" fill="#22cde4"/><path d="M437.2,425.5a1.426,1.426,0,1,0,1.008.418A1.433,1.433,0,0,0,437.2,425.5Z" transform="translate(-373.644 -366.301)" fill="#22cde4"/><path d="M176.988,144.609A22.116,22.116,0,1,0,199.1,166.725,22.141,22.141,0,0,0,176.988,144.609Zm0,41.381a19.265,19.265,0,1,1,19.265-19.265A19.286,19.286,0,0,1,176.988,185.99Z" transform="translate(-132.793 -125.456)" fill="#22cde4"/><path d="M273.605,219.829l-7.061,7.061a4.419,4.419,0,0,0-3.914,0l-3.16-3.16a1.426,1.426,0,1,0-2.016,2.016l3.16,3.16a4.43,4.43,0,1,0,7.946,0l6.854-6.854h0l.207-.207a1.426,1.426,0,1,0-2.016-2.016Zm-9.018,12.613a1.579,1.579,0,1,1,1.579-1.579A1.581,1.581,0,0,1,264.587,232.442Z" transform="translate(-220.392 -189.594)" fill="#22cde4"/><path d="M400.4,289.86h-1.321a1.426,1.426,0,0,0,0,2.851H400.4a1.426,1.426,0,0,0,0-2.851Z" transform="translate(-340.963 -249.999)" fill="#22cde4"/><path d="M195.828,289.616h-1.321a1.426,1.426,0,1,0,0,2.851h1.321a1.426,1.426,0,0,0,0-2.851Z" transform="translate(-165.555 -249.79)" fill="#22cde4"/><path d="M301.549,186.991a1.426,1.426,0,0,0,1.426-1.426v-1.321a1.426,1.426,0,1,0-2.851,0v1.321A1.426,1.426,0,0,0,301.549,186.991Z" transform="translate(-257.336 -158.218)" fill="#22cde4"/><path d="M301.3,387.393a1.426,1.426,0,0,0-1.426,1.426v1.321a1.426,1.426,0,0,0,2.851,0v-1.321A1.426,1.426,0,0,0,301.3,387.393Z" transform="translate(-257.127 -333.627)" fill="#22cde4"/><path d="M1.426,351.44a1.426,1.426,0,1,0,1.008,2.434,1.426,1.426,0,0,0-1.008-2.434Z" transform="translate(0 -302.8)" fill="#22cde4"/></g></g></svg>