<svg xmlns="http://www.w3.org/2000/svg" width="123" height="78.708" viewBox="0 0 123 78.708"><g transform="translate(34.664)"><g transform="translate(0 0)"><path d="M192.32,136.524l-10.47-4.653A2.051,2.051,0,0,1,180.633,130v-2.875a15.258,15.258,0,0,0,5.778-11.954v-4.047a3.734,3.734,0,0,0,1.926-3.263v-.393a15.3,15.3,0,0,0-15.282-15.282H169.2a15.3,15.3,0,0,0-15.282,15.282v3.564a3.779,3.779,0,0,0,1.438,3.027,3.517,3.517,0,0,0,.488.316v.8a15.258,15.258,0,0,0,5.777,11.953V130a2.052,2.052,0,0,1-1.217,1.873l-10.47,4.653a9.513,9.513,0,0,0-5.645,8.685v23.88a1.8,1.8,0,1,0,3.6,0V145.21a5.892,5.892,0,0,1,.037-.62l4.824,4.824a3.95,3.95,0,0,1,1.164,2.811V169.09a1.8,1.8,0,0,0,3.6,0V152.226a7.529,7.529,0,0,0-2.22-5.359l-5.751-5.752a5.886,5.886,0,0,1,1.847-1.3l10.293-4.575,7.633,7.633V169.09a1.8,1.8,0,0,0,3.6,0V142.876l7.633-7.633,10.293,4.575a5.882,5.882,0,0,1,1.847,1.3l-5.751,5.751a7.529,7.529,0,0,0-2.22,5.359V169.09a1.8,1.8,0,1,0,3.6,0V152.226a3.95,3.95,0,0,1,1.164-2.811l4.824-4.824a5.882,5.882,0,0,1,.037.619v23.88a1.8,1.8,0,1,0,3.6,0V145.21A9.514,9.514,0,0,0,192.32,136.524Zm-21.192,3.057-6.7-6.7a5.643,5.643,0,0,0,.8-2.885v-.733a15.269,15.269,0,0,0,11.8,0V130a5.642,5.642,0,0,0,.8,2.886Zm0-12.734a11.691,11.691,0,0,1-11.679-11.678v-.81a10.652,10.652,0,0,0,3.272-2.124,1.8,1.8,0,0,0-2.444-2.648,6.472,6.472,0,0,1-2.675,1.6.291.291,0,0,1-.048.009.366.366,0,0,1-.031-.163v-3.564A11.692,11.692,0,0,1,169.2,95.788h3.851a11.692,11.692,0,0,1,11.679,11.679v.393a.116.116,0,0,1-.081.118c-10.789,2.131-16.2-1.885-18.027-3.711a1.8,1.8,0,1,0-2.548,2.548c5.6,5.6,13.759,5.7,18.73,5.1v3.256A11.692,11.692,0,0,1,171.128,126.847Z" transform="translate(-144.292 -92.184)" fill="#064578"/></g></g><g transform="translate(0 9.629)"><path d="M32.49,157.176v-3.852A13.354,13.354,0,0,0,26.366,142.1a7.579,7.579,0,1,0-14.466,0,13.353,13.353,0,0,0-6.123,11.219v3.851a13.349,13.349,0,0,0,5.777,10.989v3.962a2.039,2.039,0,0,1-1.133,1.833l-6.232,3.116A7.538,7.538,0,0,0,0,183.855v15.687a1.8,1.8,0,0,0,3.6,0V184.635l2.935,2.935A3.95,3.95,0,0,1,7.7,190.381v9.161a1.8,1.8,0,0,0,3.6,0v-9.161a7.53,7.53,0,0,0-2.22-5.359L5,180.937c-.02-.02-.041-.037-.061-.055A4.019,4.019,0,0,1,5.8,180.3l6.232-3.116a5.739,5.739,0,0,0,.893-.558l4.405,4.405v18.511a1.8,1.8,0,0,0,3.6,0V181.031l4.405-4.405a5.713,5.713,0,0,0,.893.558l1.718.859a1.8,1.8,0,1,0,1.612-3.223l-1.718-.859a2.038,2.038,0,0,1-1.133-1.833v-3.962A13.349,13.349,0,0,0,32.49,157.176ZM19.134,135.869a3.98,3.98,0,0,1,3.975,3.975,4.038,4.038,0,0,1-.063.71,13.355,13.355,0,0,0-7.819,0,3.951,3.951,0,0,1,3.907-4.684Zm0,7.7a9.764,9.764,0,0,1,9.753,9.753v.653a11.311,11.311,0,0,1-12.163-3.66,1.8,1.8,0,0,0-2.715-.193,11.787,11.787,0,0,1-4.621,2.95A9.762,9.762,0,0,1,19.134,143.572Zm0,34.165-4.164-4.164a5.705,5.705,0,0,0,.188-1.446v-2.2a13.381,13.381,0,0,0,7.951,0v2.2a5.7,5.7,0,0,0,.188,1.446Zm0-10.808a9.764,9.764,0,0,1-9.753-9.753V156.8a14.447,14.447,0,0,0,5.79-2.885,16.256,16.256,0,0,0,3.341,2.432,14.331,14.331,0,0,0,6.886,1.777,15.1,15.1,0,0,0,3.474-.416A9.765,9.765,0,0,1,19.134,166.928Z" transform="translate(0 -132.265)" fill="#064578"/></g><g transform="translate(86.659 13.481)"><path d="M392.878,185.406l-10.083-5.042a2.039,2.039,0,0,1-1.133-1.833v-2.553a11.4,11.4,0,0,0,3.851-8.546v-2.051h.124a1.8,1.8,0,0,0,1.8-1.8v-3.851A11.444,11.444,0,0,0,376.008,148.3h-3.851a11.444,11.444,0,0,0-11.431,11.431v3.851a1.8,1.8,0,0,0,1.8,1.8l.124,0v2.053a11.4,11.4,0,0,0,3.852,8.547v2.553a2.038,2.038,0,0,1-1.133,1.833,1.8,1.8,0,1,0,1.611,3.223,5.74,5.74,0,0,0,.893-.558l4.405,4.405v24.288a1.8,1.8,0,1,0,3.6,0V187.435l4.405-4.405a5.716,5.716,0,0,0,.893.558l9.757,4.879-2.959,2.959a7.53,7.53,0,0,0-2.22,5.359v14.939a1.8,1.8,0,0,0,3.6,0V196.785a3.95,3.95,0,0,1,1.164-2.811l2.8-2.8a4.015,4.015,0,0,1,.132,1.015v19.539a1.8,1.8,0,0,0,3.6,0V192.185A7.537,7.537,0,0,0,392.878,185.406Zm-28.549-24v-1.679h0a7.836,7.836,0,0,1,7.827-7.827h3.851a7.836,7.836,0,0,1,7.827,7.827v2a27.556,27.556,0,0,1-12.6-3.5,1.8,1.8,0,0,0-2.274.225A11.8,11.8,0,0,1,364.329,161.408Zm9.753,22.733-4.164-4.164a5.7,5.7,0,0,0,.188-1.446v-.384a11.421,11.421,0,0,0,7.951,0v.384a5.7,5.7,0,0,0,.188,1.446Zm0-8.882a7.836,7.836,0,0,1-7.827-7.827v-2.9h0a15.248,15.248,0,0,0,4.228-2.581,32.01,32.01,0,0,0,11.426,3.248v2.237A7.836,7.836,0,0,1,374.082,175.259Z" transform="translate(-360.726 -148.298)" fill="#064578"/></g></svg>