<svg xmlns="http://www.w3.org/2000/svg" width="16.383" height="16.383" viewBox="0 0 16.383 16.383"><path d="M10.05,5.838a4.2,4.2,0,1,0,4.2,4.2A4.2,4.2,0,0,0,10.05,5.838Zm0,6.932a2.728,2.728,0,1,1,2.728-2.728A2.728,2.728,0,0,1,10.05,12.77Z" transform="translate(-1.855 -1.853)" fill="#fff"/><path d="M11.569.052c-1.507-.07-5.241-.067-6.749,0A4.9,4.9,0,0,0,1.382,1.377C-.193,2.953.008,5.076.008,8.189c0,3.187-.177,5.26,1.374,6.812,1.582,1.581,3.735,1.374,6.812,1.374,3.156,0,4.246,0,5.362-.43,1.517-.589,2.663-1.945,2.775-4.382.071-1.508.067-5.241,0-6.749C16.2,1.938,14.652.194,11.569.052Zm2.386,13.906c-1.033,1.033-2.466.941-5.78.941-3.413,0-4.782.051-5.78-.951-1.15-1.145-.942-2.983-.942-5.77,0-3.772-.387-6.488,3.4-6.682.87-.031,1.126-.041,3.315-.041l.031.02c3.638,0,6.492-.381,6.663,3.4.039.864.048,1.123.048,3.309,0,3.374.063,4.75-.952,5.77Z" transform="translate(0 -0.001)" fill="#fff"/><ellipse cx="0.982" cy="0.982" rx="0.982" ry="0.982" transform="translate(11.582 2.837)" fill="#fff"/></svg>