<svg xmlns="http://www.w3.org/2000/svg" width="29.294" height="29.293" viewBox="0 0 29.294 29.293"><path d="M10.218,326.769,3.651,320.2A13.019,13.019,0,0,1,0,323.853l6.567,6.567a2.582,2.582,0,1,0,3.651-3.651Z" transform="translate(18.32 -301.882)" fill="#fff"/><path d="M131.7,22.411a11.2,11.2,0,1,1,11.2-11.2A11.213,11.213,0,0,1,131.7,22.411Zm7.753-11.2a7.753,7.753,0,1,0-7.753,7.753A7.761,7.761,0,0,0,139.453,11.211Z" transform="translate(-120.5 -0.011)" fill="#fff"/><ellipse cx="6.036" cy="6.036" rx="6.036" ry="6.036" transform="translate(5.164 5.164)" fill="#fff"/></svg>