<svg xmlns="http://www.w3.org/2000/svg" width="60" height="59.999" viewBox="0 0 60 59.999"><g transform="translate(-0.002 -0.005)"><g transform="translate(0.001 0.004)"><g transform="translate(0 0)"><path d="M59.989,22.942a.946.946,0,0,0-.041-.2,1,1,0,0,0-.057-.172.9.9,0,0,0-.1-.153.943.943,0,0,0-.133-.155c-.016-.014-.023-.033-.04-.047L50,14.742V7a3,3,0,0,0-3-3H36.163L31.823.632a2.965,2.965,0,0,0-3.647,0L23.836,4H13a3,3,0,0,0-3,3v7.741L.384,22.212c-.017.014-.024.033-.04.047a.938.938,0,0,0-.133.155.892.892,0,0,0-.1.153.987.987,0,0,0-.057.172.948.948,0,0,0-.041.2c0,.021-.012.039-.012.06V57a2.966,2.966,0,0,0,.587,1.765c.006.009.007.02.014.028s.022.017.032.028A2.986,2.986,0,0,0,3,60H57a2.986,2.986,0,0,0,2.372-1.184c.008-.01.02-.013.027-.023s.008-.019.014-.028A2.967,2.967,0,0,0,60,57V23C60,22.981,59.99,22.963,59.989,22.942ZM29.4,2.21a.959.959,0,0,1,1.193,0L32.9,4H27.1ZM3.25,58,29.4,37.691a.96.96,0,0,1,1.193,0L56.749,58ZM58,56.444,31.823,36.113a2.967,2.967,0,0,0-3.647,0L2,56.444V24.525L18.386,37.25a1,1,0,1,0,1.226-1.581L2.963,22.742,10,17.274V25a1,1,0,0,0,2,0V7a1,1,0,0,1,1-1H47a1,1,0,0,1,1,1V25a1,1,0,0,0,2,0V17.274l7.035,5.467L40.358,35.692a1,1,0,1,0,1.226,1.58L58,24.525v31.92Z" transform="translate(-0.001 -0.004)" fill="#fff"/><path d="M178.175,84.638v-4.1a12.3,12.3,0,1,0-12.3,12.3,1.025,1.025,0,1,0,0-2.05,10.25,10.25,0,1,1,10.25-10.25v4.1a2.05,2.05,0,1,1-4.1,0v-4.1a1.025,1.025,0,1,0-2.05,0,4.1,4.1,0,1,1-4.1-4.1,1.025,1.025,0,1,0,0-2.05,6.15,6.15,0,1,0,4.144,10.682,4.089,4.089,0,0,0,8.156-.432Z" transform="translate(-135.876 -60.041)" fill="#fff"/></g></g></g></svg>