<svg xmlns="http://www.w3.org/2000/svg" width="62.999" height="63" viewBox="0 0 62.999 63"><g transform="translate(-0.007)"><g transform="translate(8.374 55.618)"><path d="M70.1,452.362a1.229,1.229,0,1,0,.361.87A1.239,1.239,0,0,0,70.1,452.362Z" transform="translate(-68.003 -452.001)" fill="#22cde4"/></g><g transform="translate(55.68 22.15)"><path d="M454.554,180.369a1.227,1.227,0,1,0,.362.87A1.237,1.237,0,0,0,454.554,180.369Z" transform="translate(-452.454 -180.008)" fill="#22cde4"/></g><g transform="translate(0.007)"><g transform="translate(0)"><path d="M62.645.36a1.231,1.231,0,0,0-.87-.36L31.506,0a1.231,1.231,0,0,0-1.23,1.23V4.751L18.612,7.876a1.23,1.23,0,0,0-.87,1.507l6.045,22.56-5.229,5.229a3.69,3.69,0,0,0-3.047-1.611H3.7A3.7,3.7,0,0,0,.007,39.253V59.309A3.7,3.7,0,0,0,3.7,63H15.511a3.7,3.7,0,0,0,3.583-2.8l1.463,1.276A6.2,6.2,0,0,0,24.631,63H61.775a1.231,1.231,0,0,0,1.23-1.23V1.23A1.232,1.232,0,0,0,62.645.36Zm-45.9,58.949a1.232,1.232,0,0,1-1.23,1.23H3.7a1.232,1.232,0,0,1-1.23-1.23V39.253a1.232,1.232,0,0,1,1.23-1.23H8.374V52.2a1.23,1.23,0,1,0,2.461,0V38.022h4.676a1.232,1.232,0,0,1,1.23,1.23V59.309Zm3.7-49.374L30.276,7.3v4.56l-.825.221a1.23,1.23,0,0,0-.87,1.507,3.317,3.317,0,0,1-2.343,4.058,1.231,1.231,0,0,0-.869,1.509l4.8,17.76H27.7l-1.273-4.979a1.229,1.229,0,0,0-.206-.432ZM30.276,17.5V27.884l-2.244-8.31A5.765,5.765,0,0,0,30.276,17.5ZM47.953,60.539H24.631a3.739,3.739,0,0,1-2.458-.921L19.2,57.027V40.009l5.372-5.372.974,3.812a1.23,1.23,0,0,0,1.192.926H50.932a1.723,1.723,0,1,1,0,3.445h-12.4a1.23,1.23,0,0,0,0,2.461H54.783a1.723,1.723,0,1,1,0,3.445H38.536a1.23,1.23,0,0,0,0,2.461H52.15a1.723,1.723,0,0,1,0,3.445H38.536a1.23,1.23,0,0,0,0,2.461h9.417a1.722,1.722,0,1,1,0,3.445Zm12.592,0H51.764a4.169,4.169,0,0,0,0-3.445h.386a4.181,4.181,0,0,0,3.739-6.056,4.18,4.18,0,0,0,2.251-6.526v-15.6a1.23,1.23,0,1,0-2.461,0v14a4.185,4.185,0,0,0-.9-.1h-.04a4.181,4.181,0,0,0-3.811-5.906H48.954a5.889,5.889,0,1,0-4.627,0H37.6v-23.4a5.792,5.792,0,0,0,4.412-4.412h9.256a5.792,5.792,0,0,0,4.411,4.412v3.826a1.23,1.23,0,0,0,2.461,0V12.42a1.231,1.231,0,0,0-1.23-1.23A3.317,3.317,0,0,1,53.6,7.876a1.231,1.231,0,0,0-1.23-1.23H40.914a1.231,1.231,0,0,0-1.23,1.23,3.317,3.317,0,0,1-3.313,3.313,1.231,1.231,0,0,0-1.23,1.23V36.915h-2.4V2.462H60.545Zm-13.9-25.611A3.428,3.428,0,1,1,50.068,31.5,3.432,3.432,0,0,1,46.641,34.928Z" transform="translate(-0.007)" fill="#22cde4"/></g></g></g></svg>