<svg xmlns="http://www.w3.org/2000/svg" width="106.186" height="102.646" viewBox="0 0 106.186 102.646"><g transform="translate(-2 -4)"><path d="M17,57H70.093v3.54H17Z" transform="translate(11.547 40.798)" fill="#064578"/><path d="M9,49h3.54v3.54H9Z" transform="translate(5.388 34.64)" fill="#064578"/><path d="M13,49h3.54v3.54H13Z" transform="translate(8.467 34.64)" fill="#064578"/><path d="M17,49h3.54v3.54H17Z" transform="translate(11.547 34.64)" fill="#064578"/><path d="M21,49h3.54v3.54H21Z" transform="translate(14.626 34.64)" fill="#064578"/><path d="M25,49h3.54v3.54H25Z" transform="translate(17.705 34.64)" fill="#064578"/><path d="M29,49h3.54v3.54H29Z" transform="translate(20.784 34.64)" fill="#064578"/><path d="M33,49h3.54v3.54H33Z" transform="translate(23.863 34.64)" fill="#064578"/><path d="M37,49h3.54v3.54H37Z" transform="translate(26.942 34.64)" fill="#064578"/><path d="M41,49h3.54v3.54H41Z" transform="translate(30.021 34.64)" fill="#064578"/><path d="M45,49h3.54v3.54H45Z" transform="translate(33.1 34.64)" fill="#064578"/><path d="M49,49h3.54v3.54H49Z" transform="translate(36.179 34.64)" fill="#064578"/><path d="M53,49h3.54v3.54H53Z" transform="translate(39.258 34.64)" fill="#064578"/><path d="M9,53h3.54v3.54H9Z" transform="translate(5.388 37.719)" fill="#064578"/><path d="M13,53h3.54v3.54H13Z" transform="translate(8.467 37.719)" fill="#064578"/><path d="M17,53h3.54v3.54H17Z" transform="translate(11.547 37.719)" fill="#064578"/><path d="M21,53h3.54v3.54H21Z" transform="translate(14.626 37.719)" fill="#064578"/><path d="M25,53h3.54v3.54H25Z" transform="translate(17.705 37.719)" fill="#064578"/><path d="M29,53h3.54v3.54H29Z" transform="translate(20.784 37.719)" fill="#064578"/><path d="M33,53h3.54v3.54H33Z" transform="translate(23.863 37.719)" fill="#064578"/><path d="M37,53h3.54v3.54H37Z" transform="translate(26.942 37.719)" fill="#064578"/><path d="M41,53h3.54v3.54H41Z" transform="translate(30.021 37.719)" fill="#064578"/><path d="M45,53h3.54v3.54H45Z" transform="translate(33.1 37.719)" fill="#064578"/><path d="M49,53h3.54v3.54H49Z" transform="translate(36.179 37.719)" fill="#064578"/><path d="M53,53h3.54v3.54H53Z" transform="translate(39.258 37.719)" fill="#064578"/><path d="M9,57H19.619v3.54H9Z" transform="translate(5.388 40.798)" fill="#064578"/><path d="M49,57H59.619v3.54H49Z" transform="translate(36.179 40.798)" fill="#064578"/><path d="M102.877,4H7.309A5.325,5.325,0,0,0,2,9.309V62.4a5.325,5.325,0,0,0,5.309,5.309h40.7v3.54H37.4a1.77,1.77,0,0,0-1.77,1.77V78.33H7.309A1.77,1.77,0,0,0,5.54,80.1v24.777a1.77,1.77,0,0,0,1.77,1.77h95.567a1.77,1.77,0,0,0,1.77-1.77V80.1a1.77,1.77,0,0,0-1.77-1.77H74.56V73.021a1.77,1.77,0,0,0-1.77-1.77H62.172v-3.54h40.7a5.325,5.325,0,0,0,5.309-5.309V9.309A5.325,5.325,0,0,0,102.877,4Zm-1.77,77.87v21.237H9.079V81.87ZM71.021,74.791v3.54H39.165v-3.54Zm-19.467-3.54v-3.54h7.079v3.54ZM104.646,62.4a1.77,1.77,0,0,1-1.77,1.77H7.309A1.77,1.77,0,0,1,5.54,62.4v-1.77h99.107ZM49.784,25.237H63.942v5.309a7.079,7.079,0,0,1-14.158,0ZM44.7,21.7a7.019,7.019,0,0,1,11.238-3.734,1.77,1.77,0,0,0,1.5.336,5.84,5.84,0,0,1,1.186-.142,5.334,5.334,0,0,1,5.008,3.54Zm9.114,21.237.531-2.088a10.072,10.072,0,0,0,5.026,0l.531,2.088Zm4.814,3.54-1.77,2.354-1.77-2.354Zm-3.186,6.371a1.77,1.77,0,0,0,2.832,0l4.708-6.283a8.826,8.826,0,0,1,8.035,8.76v1.77H42.7v-1.77a8.826,8.826,0,0,1,8.035-8.76Zm49.2,4.247H74.56v-1.77a12.388,12.388,0,0,0-10.99-12.3l-.9-3.593a10.619,10.619,0,0,0,4.814-8.884V23.467a8.849,8.849,0,0,0-8.849-8.849,8.61,8.61,0,0,0-1.15.088,10.362,10.362,0,0,0-5.929-1.858A10.619,10.619,0,0,0,40.935,23.467a1.77,1.77,0,0,0,1.77,1.77h3.54v5.309a10.619,10.619,0,0,0,4.814,8.884l-.9,3.593a12.388,12.388,0,0,0-10.99,12.3v1.77H5.54V9.309a1.77,1.77,0,0,1,1.77-1.77h95.567a1.77,1.77,0,0,1,1.77,1.77Z" transform="translate(0 0)" fill="#064578"/><path d="M7.77,40.856H32.547a1.77,1.77,0,0,0,1.77-1.77V31.331l2.561-1.28a1.77,1.77,0,0,0,.46-2.832L34.316,24.2V10.77A1.77,1.77,0,0,0,32.547,9H7.77A1.77,1.77,0,0,0,6,10.77V39.086A1.77,1.77,0,0,0,7.77,40.856ZM9.54,12.54H30.777V24.928a1.77,1.77,0,0,0,.518,1.251l1.8,1.8-1.343.671a1.77,1.77,0,0,0-.979,1.584v7.079H9.54Z" transform="translate(3.079 3.849)" fill="#064578"/><path d="M10,13H24.158v3.54H10Z" transform="translate(6.158 6.928)" fill="#064578"/><path d="M10,17H24.158v3.54H10Z" transform="translate(6.158 10.007)" fill="#064578"/><path d="M10,21H24.158v3.54H10Z" transform="translate(6.158 13.086)" fill="#064578"/><path d="M55.158,39.316A14.158,14.158,0,1,0,41,25.158,14.158,14.158,0,0,0,55.158,39.316Zm8.21-20.883-6.44,3.678V14.7A10.619,10.619,0,0,1,63.368,18.433ZM53.388,14.7V25.158A1.77,1.77,0,0,0,56.043,26.7l9.082-5.184A10.619,10.619,0,1,1,53.388,14.7Z" transform="translate(30.021 5.388)" fill="#064578"/><path d="M56.556,11.54h5.985V8H55.463a1.77,1.77,0,0,0-1.593.979l-1.77,3.54L55.268,14.1Z" transform="translate(38.565 3.079)" fill="#064578"/><path d="M52.54,28H49v5.309a1.77,1.77,0,0,0,1.77,1.77h8.849V31.54H52.54Z" transform="translate(36.179 18.474)" fill="#064578"/></g></svg>