<svg xmlns="http://www.w3.org/2000/svg" width="60" height="59.996" viewBox="0 0 60 59.996"><g transform="translate(0 -0.018)"><g transform="translate(0 0.018)"><path d="M58.426,46.3,56.1,44.75A29.853,29.853,0,0,0,30.119.142a1,1,0,1,0,0,2A27.854,27.854,0,0,1,54.426,43.636L46.278,38.2a3.546,3.546,0,0,0-4.746.771L38,43.523a1.513,1.513,0,0,1-1.939.408l-.673-.371c-2.231-1.216-5.006-2.73-10.6-8.324s-7.109-8.372-8.325-10.6l-.369-.673a1.514,1.514,0,0,1,.4-1.946l4.545-3.536a3.547,3.547,0,0,0,.772-4.746l-8.1-12.144A3.526,3.526,0,0,0,8.959.522L3.881,3.573A7.163,7.163,0,0,0,.614,7.812C-1.214,14.475.162,25.974,17.1,42.916c7.379,7.379,13.723,11.8,19.087,14.3a27.807,27.807,0,0,1-33.935-27.2,1,1,0,1,0-2,0A29.9,29.9,0,0,0,30.119,59.894a29.521,29.521,0,0,0,9.1-1.434A24.615,24.615,0,0,0,47.5,60.014a17.714,17.714,0,0,0,4.7-.614,7.157,7.157,0,0,0,4.239-3.266l3.054-5.075A3.527,3.527,0,0,0,58.426,46.3Zm-.65,3.726-3.047,5.078a5.167,5.167,0,0,1-3.054,2.367c-2.909.8-6.848.9-11.91-.925a1,1,0,0,0-.256-.1c-5.6-2.079-12.551-6.509-21-14.952C2.255,25.241.854,14.493,2.543,8.341A5.175,5.175,0,0,1,4.91,5.288L9.988,2.241a1.53,1.53,0,0,1,2.063.464l4.4,6.6,3.693,5.538a1.539,1.539,0,0,1-.334,2.06l-4.546,3.536a3.5,3.5,0,0,0-.927,4.491l.361.656c1.278,2.344,2.867,5.259,8.667,11.058s8.715,7.388,11.057,8.666l.657.362a3.5,3.5,0,0,0,4.491-.927L43.105,40.2a1.54,1.54,0,0,1,2.06-.334l12.143,8.1A1.529,1.529,0,0,1,57.776,50.029Z" transform="translate(0 -0.018)" fill="#fff"/></g></g></svg>