<svg xmlns="http://www.w3.org/2000/svg" width="16.084" height="16.084" viewBox="0 0 16.084 16.084"><g transform="translate(0 0)"><g transform="translate(0 0)"><path d="M15.772,12.789,13.989,11.6,12.4,10.544a.7.7,0,0,0-.943.153l-.981,1.261a.7.7,0,0,1-.892.185A11.42,11.42,0,0,1,6.4,9.685,11.5,11.5,0,0,1,3.942,6.5.7.7,0,0,1,4.126,5.6l1.261-.981a.7.7,0,0,0,.153-.943L4.516,2.145,3.3.313A.7.7,0,0,0,2.35.1L.941.945A1.721,1.721,0,0,0,.16,1.956c-.385,1.4-.463,4.5,4.5,9.467s8.062,4.887,9.466,4.5a1.721,1.721,0,0,0,1.011-.781l.845-1.408A.7.7,0,0,0,15.772,12.789Z" transform="translate(0 0)" fill="#f2f4f8"/></g></g></svg>