<svg xmlns="http://www.w3.org/2000/svg" width="62.127" height="61.096" viewBox="0 0 62.127 61.096"><g transform="translate(0 -5.246)"><g transform="translate(0 5.246)"><g transform="translate(0 0)"><path d="M95.367,47.257c2.559,3.607,5.113,6.834,6.806,8.912.246.3.477.583.7.853H97.765a1.035,1.035,0,0,0,0,2.071h16.567a1.035,1.035,0,0,0,0-2.071h-5.109c.224-.27.455-.551.7-.853,1.692-2.071,4.245-5.3,6.8-8.912a90.974,90.974,0,0,0,6.84-11.024c2.114-4.152,3.187-7.6,3.187-10.246a20.694,20.694,0,0,0-6.065-14.663,1.035,1.035,0,1,0-1.465,1.463,18.632,18.632,0,0,1,5.459,13.2c0,2.317-1,5.448-2.961,9.305a88.92,88.92,0,0,1-6.685,10.769c-2.524,3.561-5.048,6.751-6.72,8.8-.556.681-1.056,1.284-1.483,1.793a1.049,1.049,0,0,1-1.578,0c-.427-.509-.927-1.112-1.483-1.793-1.672-2.049-4.2-5.239-6.72-8.8a88.919,88.919,0,0,1-6.685-10.769C88.4,31.435,87.41,28.3,87.41,25.987a18.643,18.643,0,0,1,25.9-17.2,1.036,1.036,0,0,0,.809-1.907A20.717,20.717,0,0,0,85.34,25.987c0,2.647,1.073,6.094,3.187,10.251A90.911,90.911,0,0,0,95.367,47.257Z" transform="translate(-74.985 -5.246)" fill="#fff"/><path d="M181.015,84.156a1.035,1.035,0,1,0,0-2.071,10.354,10.354,0,1,0,7.322,3.033,1.035,1.035,0,1,0-1.464,1.464,8.283,8.283,0,1,1-5.857-2.426Z" transform="translate(-149.952 -72.761)" fill="#fff"/><path d="M61.737,376.7l-6.368-11.39a3.218,3.218,0,0,0-2.817-1.627h-7.38a1.035,1.035,0,1,0,0,2.071h7.38a1.148,1.148,0,0,1,1.012.565l6.366,11.39a.932.932,0,0,1-.009.957,1.139,1.139,0,0,1-1,.549H3.211a1.139,1.139,0,0,1-1-.549.932.932,0,0,1-.009-.957l6.366-11.39a1.147,1.147,0,0,1,1.011-.565h7.38a1.035,1.035,0,1,0,0-2.071H9.576a3.22,3.22,0,0,0-2.819,1.627L.39,376.7a3,3,0,0,0,.032,3.014,3.189,3.189,0,0,0,2.788,1.572H58.917a3.189,3.189,0,0,0,2.787-1.572A3,3,0,0,0,61.737,376.7Z" transform="translate(0 -320.191)" fill="#fff"/><path d="M358.152,406.351h-4.142a1.041,1.041,0,0,0-.575.174L350.33,408.6a1.036,1.036,0,1,0,1.149,1.723l2.842-1.9h3.831a1.036,1.036,0,0,0,0-2.071Z" transform="translate(-307.416 -357.681)" fill="#fff"/><path d="M366.937,458.586a1.035,1.035,0,0,0,1.035,1.035h8.284a1.035,1.035,0,0,0,0-2.071h-8.284A1.035,1.035,0,0,0,366.937,458.586Z" transform="translate(-322.413 -402.668)" fill="#fff"/><path d="M93.62,410.492a1.035,1.035,0,0,0,.576-1.9l-3.106-2.071a1.042,1.042,0,0,0-.576-.174H86.372a1.035,1.035,0,1,0,0,2.071H90.2l2.845,1.9A1.034,1.034,0,0,0,93.62,410.492Z" transform="translate(-74.982 -357.68)" fill="#fff"/><path d="M60.772,457.551a1.035,1.035,0,1,0,0,2.071h8.284a1.035,1.035,0,1,0,0-2.071Z" transform="translate(-52.489 -402.668)" fill="#fff"/></g></g></g></svg>