<svg xmlns="http://www.w3.org/2000/svg" width="109.66" height="93.811" viewBox="0 0 109.66 93.811"><g transform="translate(0 -37)"><g transform="translate(0 37)"><path d="M105.055,116.889h-3.218a5.853,5.853,0,0,0,.647-2.679l0-55.685a5.9,5.9,0,0,0-5.89-5.89H87.921V50.672a2.809,2.809,0,0,0-2.806-2.806H82.457V39.806a2.806,2.806,0,0,0-3.724-2.652l-5.06,1.75a1.606,1.606,0,0,0,1.05,3.036l4.521-1.563V79.01L56.436,86.9V48.263L68.246,44.18a1.606,1.606,0,0,0-1.05-3.036L54.83,45.419l-23.9-8.266A2.806,2.806,0,0,0,27.2,39.806v8.06H24.545a2.809,2.809,0,0,0-2.806,2.806v1.964H13.065a5.9,5.9,0,0,0-5.89,5.89v5.712a1.606,1.606,0,0,0,3.213,0V58.526a2.68,2.68,0,0,1,2.677-2.677h8.674v3.213H15.207A1.607,1.607,0,0,0,13.6,60.668l0,51.4a1.606,1.606,0,0,0,1.606,1.606l79.244,0a1.606,1.606,0,0,0,1.606-1.606l0-51.4a1.606,1.606,0,0,0-1.606-1.606h-6.53V55.847h8.672a2.68,2.68,0,0,1,2.677,2.677l0,55.686a2.68,2.68,0,0,1-2.677,2.677l-83.528,0a2.68,2.68,0,0,1-2.677-2.677v-43.1a1.606,1.606,0,1,0-3.213,0v43.1a5.849,5.849,0,0,0,.646,2.677H4.6a4.61,4.61,0,0,0-4.6,4.6v4.712a4.61,4.61,0,0,0,4.6,4.605H68.469a1.606,1.606,0,1,0,0-3.213H4.6a1.394,1.394,0,0,1-1.392-1.392v-4.712A1.394,1.394,0,0,1,4.6,120.1H44.014v1.129a4.016,4.016,0,0,0,4.012,4.012H61.635a4.016,4.016,0,0,0,4.012-4.012V120.1h39.409a1.394,1.394,0,0,1,1.392,1.392v4.712a1.394,1.394,0,0,1-1.392,1.392H75.482a1.606,1.606,0,0,0,0,3.213h29.573a4.61,4.61,0,0,0,4.6-4.6v-4.712a4.61,4.61,0,0,0-4.6-4.605ZM80.568,81.951A2.808,2.808,0,0,0,82.457,79.3V51.079h2.252V87.546H64.39ZM30.416,40.376l22.807,7.887V86.9L30.416,79.01Zm-5.464,10.7H27.2V79.3a2.808,2.808,0,0,0,1.889,2.652L45.27,87.546H24.952ZM92.845,62.272l0,48.189-76.032,0,0-48.189h4.926V87.953a2.809,2.809,0,0,0,2.806,2.806h60.57a2.809,2.809,0,0,0,2.806-2.806V62.272ZM62.433,121.23a.8.8,0,0,1-.8.8H48.026a.8.8,0,0,1-.8-.8V120.1H62.433Z" transform="translate(0 -37)" fill="#064578"/><path d="M193.794,309.387H151.6a1.606,1.606,0,1,0,0,3.213h42.2a1.606,1.606,0,1,0,0-3.213Z" transform="translate(-117.864 -251.047)" fill="#064578"/><path d="M178.962,341.2H151.6a1.606,1.606,0,1,0,0,3.213h27.367a1.606,1.606,0,1,0,0-3.213Z" transform="translate(-117.864 -276.048)" fill="#064578"/></g></g></svg>