<svg xmlns="http://www.w3.org/2000/svg" width="73.275" height="62.971" viewBox="0 0 73.275 62.971"><g transform="translate(0 -36)"><path d="M131.752,214.623c6.045,0,12.165-1.966,12.165-5.725v-8.134l5.725-2.544v14.972a1.431,1.431,0,1,0,2.862,0V196.018a1.426,1.426,0,0,0-.876-1.32l-19.294-8.575a1.43,1.43,0,0,0-1.163,0L111.85,194.71a1.431,1.431,0,0,0,0,2.616l7.737,3.439V208.9C119.587,212.657,125.707,214.623,131.752,214.623Zm9.3-5.725c0,.856-3.165,2.862-9.3,2.862s-9.3-2.006-9.3-2.862v-6.862l8.721,3.876a1.433,1.433,0,0,0,1.163,0l8.721-3.876Zm-25.1-12.88,15.8-7.021,15.8,7.021-15.8,7.021Z" transform="translate(-95.114 -128.532)" fill="#22cde4"/><path d="M71.844,36H1.431A1.431,1.431,0,0,0,0,37.431V97.54a1.431,1.431,0,0,0,1.431,1.431H30.2a1.431,1.431,0,0,0,0-2.862H2.862V51.743H70.413V96.109H43.078a1.431,1.431,0,0,0,0,2.862H71.844a1.431,1.431,0,0,0,1.431-1.431V37.431A1.431,1.431,0,0,0,71.844,36ZM70.413,48.88H2.862V38.862H43.793v2.862a1.431,1.431,0,0,0,2.862,0V38.862H52.38v2.862a1.431,1.431,0,0,0,2.862,0V38.862h5.725v2.862a1.431,1.431,0,1,0,2.862,0V38.862h6.583Z" fill="#22cde4"/><circle cx="1.5" cy="1.5" r="1.5" transform="translate(35 95.971)" fill="#22cde4"/></g></svg>