<svg xmlns="http://www.w3.org/2000/svg" xmlns:xlink="http://www.w3.org/1999/xlink" width="379" height="311.427" viewBox="0 0 379 311.427"><defs><clipPath id="a"><path d="M424.641,135.449,278.847,387.972H570.435L424.641,135.449,278.847,387.972H570.435Z" transform="translate(-278.847 -135.449)" fill="#064578"/></clipPath></defs><g transform="translate(-255.855 -119.956)"><g transform="translate(255.855 119.955)"><path d="M410.257,119.956l77.2,133.716,77.2,133.716h-308.8l77.2-133.716Z" transform="translate(-255.855 -119.956)" fill="#fd8023"/></g><g transform="translate(343.267 178.86)"><g clip-path="url(#a)"><g transform="translate(144.812 248.413)"><g transform="translate(0 102.054)"><path d="M320.073,227.63a3.137,3.137,0,1,1-3.137,3.137A3.137,3.137,0,0,1,320.073,227.63Z" transform="translate(-316.936 -227.63)" fill="#064578"/></g><g transform="translate(0.001 76.541)"><path d="M323.193,223.731a3.136,3.136,0,1,1-3.445-2.794A3.137,3.137,0,0,1,323.193,223.731Z" transform="translate(-316.936 -220.92)" fill="#064578"/></g><g transform="translate(0.001 51.026)"><path d="M323.193,217.02a3.136,3.136,0,1,1-3.445-2.794A3.137,3.137,0,0,1,323.193,217.02Z" transform="translate(-316.936 -214.209)" fill="#064578"/></g><g transform="translate(0.001)"><path d="M323.193,203.6a3.137,3.137,0,1,1-3.445-2.791A3.135,3.135,0,0,1,323.193,203.6Z" transform="translate(-316.936 -200.787)" fill="#064578"/></g><g transform="translate(0.001 25.512)"><path d="M323.193,210.309a3.136,3.136,0,1,1-3.445-2.794A3.137,3.137,0,0,1,323.193,210.309Z" transform="translate(-316.936 -207.498)" fill="#064578"/></g><g transform="translate(22.279 102.054)"><path d="M325.933,227.63a3.137,3.137,0,1,1-3.137,3.137A3.137,3.137,0,0,1,325.933,227.63Z" transform="translate(-322.796 -227.63)" fill="#064578"/></g><g transform="translate(22.281 76.541)"><path d="M329.052,223.731a3.136,3.136,0,1,1-3.445-2.794A3.137,3.137,0,0,1,329.052,223.731Z" transform="translate(-322.796 -220.92)" fill="#064578"/></g><g transform="translate(22.281 51.026)"><path d="M329.052,217.02a3.136,3.136,0,1,1-3.445-2.794A3.137,3.137,0,0,1,329.052,217.02Z" transform="translate(-322.796 -214.209)" fill="#064578"/></g><g transform="translate(22.281)"><path d="M329.052,203.6a3.137,3.137,0,1,1-3.445-2.791A3.135,3.135,0,0,1,329.052,203.6Z" transform="translate(-322.796 -200.787)" fill="#064578"/></g><g transform="translate(22.281 25.512)"><path d="M329.052,210.309a3.136,3.136,0,1,1-3.445-2.794A3.137,3.137,0,0,1,329.052,210.309Z" transform="translate(-322.796 -207.498)" fill="#064578"/></g><g transform="translate(46)"><g transform="translate(0 102.054)"><path d="M332.171,227.63a3.137,3.137,0,1,1-3.136,3.137A3.137,3.137,0,0,1,332.171,227.63Z" transform="translate(-329.035 -227.63)" fill="#064578"/></g><g transform="translate(0.002 76.541)"><path d="M335.291,223.731a3.136,3.136,0,1,1-3.445-2.794A3.137,3.137,0,0,1,335.291,223.731Z" transform="translate(-329.035 -220.92)" fill="#064578"/></g><g transform="translate(0.002 51.026)"><path d="M335.291,217.02a3.136,3.136,0,1,1-3.445-2.794A3.137,3.137,0,0,1,335.291,217.02Z" transform="translate(-329.035 -214.209)" fill="#064578"/></g><g transform="translate(0.002)"><path d="M335.291,203.6a3.137,3.137,0,1,1-3.445-2.791A3.135,3.135,0,0,1,335.291,203.6Z" transform="translate(-329.035 -200.787)" fill="#064578"/></g><g transform="translate(0.002 25.512)"><path d="M335.291,210.309a3.136,3.136,0,1,1-3.445-2.794A3.137,3.137,0,0,1,335.291,210.309Z" transform="translate(-329.035 -207.498)" fill="#064578"/></g><g transform="translate(22.283 102.054)"><path d="M338.033,227.63a3.137,3.137,0,1,1-3.137,3.137A3.14,3.14,0,0,1,338.033,227.63Z" transform="translate(-334.896 -227.63)" fill="#064578"/></g><g transform="translate(22.281 76.541)"><path d="M341.151,223.731a3.136,3.136,0,1,1-3.444-2.794A3.137,3.137,0,0,1,341.151,223.731Z" transform="translate(-334.895 -220.92)" fill="#064578"/></g><g transform="translate(22.281 51.026)"><path d="M341.151,217.02a3.136,3.136,0,1,1-3.444-2.794A3.137,3.137,0,0,1,341.151,217.02Z" transform="translate(-334.895 -214.209)" fill="#064578"/></g><g transform="translate(22.281)"><path d="M341.151,203.6a3.137,3.137,0,1,1-3.444-2.791A3.135,3.135,0,0,1,341.151,203.6Z" transform="translate(-334.895 -200.787)" fill="#064578"/></g><g transform="translate(22.281 25.512)"><path d="M341.151,210.309a3.136,3.136,0,1,1-3.444-2.794A3.137,3.137,0,0,1,341.151,210.309Z" transform="translate(-334.895 -207.498)" fill="#064578"/></g></g><g transform="translate(87.908)"><g transform="translate(0 102.054)"><path d="M343.195,227.63a3.137,3.137,0,1,1-3.136,3.137A3.137,3.137,0,0,1,343.195,227.63Z" transform="translate(-340.058 -227.63)" fill="#064578"/></g><g transform="translate(0.001 76.541)"><path d="M346.315,223.731a3.136,3.136,0,1,1-3.445-2.794A3.137,3.137,0,0,1,346.315,223.731Z" transform="translate(-340.058 -220.92)" fill="#064578"/></g><g transform="translate(0.001 51.026)"><path d="M346.315,217.02a3.136,3.136,0,1,1-3.445-2.794A3.137,3.137,0,0,1,346.315,217.02Z" transform="translate(-340.058 -214.209)" fill="#064578"/></g><g transform="translate(0.001)"><path d="M346.315,203.6a3.137,3.137,0,1,1-3.445-2.791A3.135,3.135,0,0,1,346.315,203.6Z" transform="translate(-340.058 -200.787)" fill="#064578"/></g><g transform="translate(0.001 25.512)"><path d="M346.315,210.309a3.136,3.136,0,1,1-3.445-2.794A3.137,3.137,0,0,1,346.315,210.309Z" transform="translate(-340.058 -207.498)" fill="#064578"/></g><g transform="translate(22.279 102.054)"><path d="M349.055,227.63a3.137,3.137,0,1,1-3.137,3.137A3.137,3.137,0,0,1,349.055,227.63Z" transform="translate(-345.918 -227.63)" fill="#064578"/></g><g transform="translate(22.281 76.541)"><path d="M352.174,223.731a3.136,3.136,0,1,1-3.445-2.794A3.137,3.137,0,0,1,352.174,223.731Z" transform="translate(-345.918 -220.92)" fill="#064578"/></g><g transform="translate(22.281 51.026)"><path d="M352.174,217.02a3.136,3.136,0,1,1-3.445-2.794A3.137,3.137,0,0,1,352.174,217.02Z" transform="translate(-345.918 -214.209)" fill="#064578"/></g><g transform="translate(22.281)"><path d="M352.174,203.6a3.137,3.137,0,1,1-3.445-2.791A3.135,3.135,0,0,1,352.174,203.6Z" transform="translate(-345.918 -200.787)" fill="#064578"/></g><g transform="translate(22.281 25.512)"><path d="M352.174,210.309a3.136,3.136,0,1,1-3.445-2.794A3.137,3.137,0,0,1,352.174,210.309Z" transform="translate(-345.918 -207.498)" fill="#064578"/></g></g><g transform="translate(133.908)"><g transform="translate(0 102.054)"><path d="M355.294,227.63a3.137,3.137,0,1,1-3.137,3.137A3.137,3.137,0,0,1,355.294,227.63Z" transform="translate(-352.157 -227.63)" fill="#064578"/></g><g transform="translate(0.002 76.541)"><path d="M358.414,223.731a3.136,3.136,0,1,1-3.445-2.794A3.137,3.137,0,0,1,358.414,223.731Z" transform="translate(-352.157 -220.92)" fill="#064578"/></g><g transform="translate(0.002 51.026)"><path d="M358.414,217.02a3.136,3.136,0,1,1-3.445-2.794A3.137,3.137,0,0,1,358.414,217.02Z" transform="translate(-352.157 -214.209)" fill="#064578"/></g><g transform="translate(0.002)"><path d="M358.414,203.6a3.137,3.137,0,1,1-3.445-2.791A3.135,3.135,0,0,1,358.414,203.6Z" transform="translate(-352.157 -200.787)" fill="#064578"/></g><g transform="translate(0.002 25.512)"><path d="M358.414,210.309a3.136,3.136,0,1,1-3.445-2.794A3.137,3.137,0,0,1,358.414,210.309Z" transform="translate(-352.157 -207.498)" fill="#064578"/></g><g transform="translate(22.283 102.054)"><path d="M361.154,227.63a3.137,3.137,0,1,1-3.136,3.137A3.14,3.14,0,0,1,361.154,227.63Z" transform="translate(-358.018 -227.63)" fill="#064578"/></g><g transform="translate(22.281 76.541)"><path d="M364.273,223.731a3.136,3.136,0,1,1-3.445-2.794A3.137,3.137,0,0,1,364.273,223.731Z" transform="translate(-358.017 -220.92)" fill="#064578"/></g><g transform="translate(22.281 51.026)"><path d="M364.273,217.02a3.136,3.136,0,1,1-3.445-2.794A3.137,3.137,0,0,1,364.273,217.02Z" transform="translate(-358.017 -214.209)" fill="#064578"/></g><g transform="translate(22.281)"><path d="M364.273,203.6a3.137,3.137,0,1,1-3.445-2.791A3.135,3.135,0,0,1,364.273,203.6Z" transform="translate(-358.017 -200.787)" fill="#064578"/></g><g transform="translate(22.281 25.512)"><path d="M364.273,210.309a3.136,3.136,0,1,1-3.445-2.794A3.137,3.137,0,0,1,364.273,210.309Z" transform="translate(-358.017 -207.498)" fill="#064578"/></g></g></g><g transform="translate(-39.091 248.413)"><g transform="translate(0 102.054)"><path d="M271.7,227.63a3.137,3.137,0,1,1-3.137,3.137A3.137,3.137,0,0,1,271.7,227.63Z" transform="translate(-268.565 -227.63)" fill="#064578"/></g><g transform="translate(0.001 76.541)"><path d="M274.822,223.731a3.136,3.136,0,1,1-3.445-2.794A3.137,3.137,0,0,1,274.822,223.731Z" transform="translate(-268.565 -220.92)" fill="#064578"/></g><g transform="translate(0.001 51.026)"><path d="M274.822,217.02a3.136,3.136,0,1,1-3.445-2.794A3.137,3.137,0,0,1,274.822,217.02Z" transform="translate(-268.565 -214.209)" fill="#064578"/></g><g transform="translate(0.001)"><path d="M274.822,203.6a3.137,3.137,0,1,1-3.445-2.791A3.135,3.135,0,0,1,274.822,203.6Z" transform="translate(-268.565 -200.787)" fill="#064578"/></g><g transform="translate(0.001 25.512)"><path d="M274.822,210.309a3.136,3.136,0,1,1-3.445-2.794A3.137,3.137,0,0,1,274.822,210.309Z" transform="translate(-268.565 -207.498)" fill="#064578"/></g><g transform="translate(22.283 102.054)"><path d="M277.559,227.63a3.137,3.137,0,1,1-3.133,3.137A3.137,3.137,0,0,1,277.559,227.63Z" transform="translate(-274.426 -227.63)" fill="#064578"/></g><g transform="translate(22.281 76.541)"><path d="M280.681,223.731a3.136,3.136,0,1,1-3.445-2.794A3.137,3.137,0,0,1,280.681,223.731Z" transform="translate(-274.425 -220.92)" fill="#064578"/></g><g transform="translate(22.281 51.026)"><path d="M280.681,217.02a3.136,3.136,0,1,1-3.445-2.794A3.137,3.137,0,0,1,280.681,217.02Z" transform="translate(-274.425 -214.209)" fill="#064578"/></g><g transform="translate(22.281)"><path d="M280.681,203.6a3.137,3.137,0,1,1-3.445-2.791A3.135,3.135,0,0,1,280.681,203.6Z" transform="translate(-274.425 -200.787)" fill="#064578"/></g><g transform="translate(22.281 25.512)"><path d="M280.681,210.309a3.136,3.136,0,1,1-3.445-2.794A3.137,3.137,0,0,1,280.681,210.309Z" transform="translate(-274.425 -207.498)" fill="#064578"/></g><g transform="translate(46.002)"><g transform="translate(0.002 102.054)"><path d="M283.8,227.63a3.137,3.137,0,1,1-3.133,3.137A3.137,3.137,0,0,1,283.8,227.63Z" transform="translate(-280.665 -227.63)" fill="#064578"/></g><g transform="translate(0 76.541)"><path d="M286.92,223.731a3.136,3.136,0,1,1-3.445-2.794A3.137,3.137,0,0,1,286.92,223.731Z" transform="translate(-280.665 -220.92)" fill="#064578"/></g><g transform="translate(0 51.026)"><path d="M286.92,217.02a3.136,3.136,0,1,1-3.445-2.794A3.137,3.137,0,0,1,286.92,217.02Z" transform="translate(-280.665 -214.209)" fill="#064578"/></g><path d="M286.92,203.6a3.137,3.137,0,1,1-3.445-2.791A3.135,3.135,0,0,1,286.92,203.6Z" transform="translate(-280.665 -200.787)" fill="#064578"/><g transform="translate(0 25.512)"><path d="M286.92,210.309a3.136,3.136,0,1,1-3.445-2.794A3.137,3.137,0,0,1,286.92,210.309Z" transform="translate(-280.665 -207.498)" fill="#064578"/></g><g transform="translate(22.281 102.054)"><path d="M289.662,227.63a3.137,3.137,0,1,1-3.137,3.137A3.14,3.14,0,0,1,289.662,227.63Z" transform="translate(-286.525 -227.63)" fill="#064578"/></g><g transform="translate(22.279 76.541)"><path d="M292.781,223.731a3.136,3.136,0,1,1-3.445-2.794A3.135,3.135,0,0,1,292.781,223.731Z" transform="translate(-286.524 -220.92)" fill="#064578"/></g><g transform="translate(22.279 51.026)"><path d="M292.781,217.02a3.136,3.136,0,1,1-3.445-2.794A3.135,3.135,0,0,1,292.781,217.02Z" transform="translate(-286.524 -214.209)" fill="#064578"/></g><g transform="translate(22.279)"><path d="M292.781,203.6a3.137,3.137,0,1,1-3.445-2.791A3.133,3.133,0,0,1,292.781,203.6Z" transform="translate(-286.524 -200.787)" fill="#064578"/></g><g transform="translate(22.279 25.512)"><path d="M292.781,210.309a3.136,3.136,0,1,1-3.445-2.794A3.135,3.135,0,0,1,292.781,210.309Z" transform="translate(-286.524 -207.498)" fill="#064578"/></g></g><g transform="translate(87.908)"><g transform="translate(0 102.054)"><path d="M294.824,227.63a3.137,3.137,0,1,1-3.137,3.137A3.137,3.137,0,0,1,294.824,227.63Z" transform="translate(-291.687 -227.63)" fill="#064578"/></g><g transform="translate(0.001 76.541)"><path d="M297.944,223.731a3.136,3.136,0,1,1-3.445-2.794A3.137,3.137,0,0,1,297.944,223.731Z" transform="translate(-291.687 -220.92)" fill="#064578"/></g><g transform="translate(0.001 51.026)"><path d="M297.944,217.02a3.136,3.136,0,1,1-3.445-2.794A3.137,3.137,0,0,1,297.944,217.02Z" transform="translate(-291.687 -214.209)" fill="#064578"/></g><g transform="translate(0.001)"><path d="M297.944,203.6A3.137,3.137,0,1,1,294.5,200.8,3.135,3.135,0,0,1,297.944,203.6Z" transform="translate(-291.687 -200.787)" fill="#064578"/></g><g transform="translate(0.001 25.512)"><path d="M297.944,210.309a3.136,3.136,0,1,1-3.445-2.794A3.137,3.137,0,0,1,297.944,210.309Z" transform="translate(-291.687 -207.498)" fill="#064578"/></g><g transform="translate(22.283 102.054)"><path d="M300.681,227.63a3.137,3.137,0,1,1-3.133,3.137A3.137,3.137,0,0,1,300.681,227.63Z" transform="translate(-297.548 -227.63)" fill="#064578"/></g><g transform="translate(22.281 76.541)"><path d="M303.8,223.731a3.136,3.136,0,1,1-3.445-2.794A3.137,3.137,0,0,1,303.8,223.731Z" transform="translate(-297.547 -220.92)" fill="#064578"/></g><g transform="translate(22.281 51.026)"><path d="M303.8,217.02a3.136,3.136,0,1,1-3.445-2.794A3.137,3.137,0,0,1,303.8,217.02Z" transform="translate(-297.547 -214.209)" fill="#064578"/></g><g transform="translate(22.281)"><path d="M303.8,203.6a3.137,3.137,0,1,1-3.445-2.791A3.135,3.135,0,0,1,303.8,203.6Z" transform="translate(-297.547 -200.787)" fill="#064578"/></g><g transform="translate(22.281 25.512)"><path d="M303.8,210.309a3.136,3.136,0,1,1-3.445-2.794A3.137,3.137,0,0,1,303.8,210.309Z" transform="translate(-297.547 -207.498)" fill="#064578"/></g></g><g transform="translate(133.91)"><g transform="translate(0.002 102.054)"><path d="M306.92,227.63a3.137,3.137,0,1,1-3.133,3.137A3.137,3.137,0,0,1,306.92,227.63Z" transform="translate(-303.787 -227.63)" fill="#064578"/></g><g transform="translate(0 76.541)"><path d="M310.042,223.731a3.136,3.136,0,1,1-3.445-2.794A3.137,3.137,0,0,1,310.042,223.731Z" transform="translate(-303.786 -220.92)" fill="#064578"/></g><g transform="translate(0 51.026)"><path d="M310.042,217.02a3.136,3.136,0,1,1-3.445-2.794A3.137,3.137,0,0,1,310.042,217.02Z" transform="translate(-303.786 -214.209)" fill="#064578"/></g><path d="M310.042,203.6A3.137,3.137,0,1,1,306.6,200.8,3.135,3.135,0,0,1,310.042,203.6Z" transform="translate(-303.786 -200.787)" fill="#064578"/><g transform="translate(0 25.512)"><path d="M310.042,210.309a3.136,3.136,0,1,1-3.445-2.794A3.137,3.137,0,0,1,310.042,210.309Z" transform="translate(-303.786 -207.498)" fill="#064578"/></g><g transform="translate(22.281 102.054)"><path d="M312.784,227.63a3.137,3.137,0,1,1-3.137,3.137A3.14,3.14,0,0,1,312.784,227.63Z" transform="translate(-309.647 -227.63)" fill="#064578"/></g><g transform="translate(22.279 76.541)"><path d="M315.9,223.731a3.136,3.136,0,1,1-3.445-2.794A3.134,3.134,0,0,1,315.9,223.731Z" transform="translate(-309.647 -220.92)" fill="#064578"/></g><g transform="translate(22.279 51.026)"><path d="M315.9,217.02a3.136,3.136,0,1,1-3.445-2.794A3.134,3.134,0,0,1,315.9,217.02Z" transform="translate(-309.647 -214.209)" fill="#064578"/></g><g transform="translate(22.279)"><path d="M315.9,203.6a3.137,3.137,0,1,1-3.445-2.791A3.132,3.132,0,0,1,315.9,203.6Z" transform="translate(-309.647 -200.787)" fill="#064578"/></g><g transform="translate(22.279 25.512)"><path d="M315.9,210.309a3.136,3.136,0,1,1-3.445-2.794A3.134,3.134,0,0,1,315.9,210.309Z" transform="translate(-309.647 -207.498)" fill="#064578"/></g></g></g><g transform="translate(144.812 122.049)"><g transform="translate(0 102.057)"><path d="M320.073,194.394a3.137,3.137,0,1,1-3.137,3.133A3.134,3.134,0,0,1,320.073,194.394Z" transform="translate(-316.936 -194.394)" fill="#064578"/></g><g transform="translate(0.001 76.541)"><path d="M323.193,190.494a3.136,3.136,0,1,1-3.445-2.794A3.137,3.137,0,0,1,323.193,190.494Z" transform="translate(-316.936 -187.682)" fill="#064578"/></g><g transform="translate(0.001 51.026)"><path d="M323.193,183.783a3.136,3.136,0,1,1-3.445-2.794A3.135,3.135,0,0,1,323.193,183.783Z" transform="translate(-316.936 -180.972)" fill="#064578"/></g><g transform="translate(0.001)"><path d="M323.193,170.362a3.136,3.136,0,1,1-3.445-2.794A3.137,3.137,0,0,1,323.193,170.362Z" transform="translate(-316.936 -167.551)" fill="#064578"/></g><g transform="translate(0.001 25.514)"><path d="M323.193,177.073a3.136,3.136,0,1,1-3.445-2.794A3.14,3.14,0,0,1,323.193,177.073Z" transform="translate(-316.936 -174.261)" fill="#064578"/></g><g transform="translate(22.281 102.055)"><circle cx="3.137" cy="3.137" r="3.137" fill="#064578"/></g><g transform="translate(22.281 76.541)"><path d="M329.052,190.494a3.136,3.136,0,1,1-3.445-2.794A3.137,3.137,0,0,1,329.052,190.494Z" transform="translate(-322.796 -187.682)" fill="#064578"/></g><g transform="translate(22.281 51.026)"><path d="M329.052,183.783a3.136,3.136,0,1,1-3.445-2.794A3.135,3.135,0,0,1,329.052,183.783Z" transform="translate(-322.796 -180.972)" fill="#064578"/></g><g transform="translate(22.281)"><path d="M329.052,170.362a3.136,3.136,0,1,1-3.445-2.794A3.137,3.137,0,0,1,329.052,170.362Z" transform="translate(-322.796 -167.551)" fill="#064578"/></g><g transform="translate(22.281 25.514)"><path d="M329.052,177.073a3.136,3.136,0,1,1-3.445-2.794A3.139,3.139,0,0,1,329.052,177.073Z" transform="translate(-322.796 -174.261)" fill="#064578"/></g><g transform="translate(46.001)"><g transform="translate(0 102.055)"><circle cx="3.137" cy="3.137" r="3.137" fill="#064578"/></g><g transform="translate(0 76.541)"><path d="M335.291,190.494a3.136,3.136,0,1,1-3.445-2.794A3.137,3.137,0,0,1,335.291,190.494Z" transform="translate(-329.035 -187.682)" fill="#064578"/></g><g transform="translate(0 51.026)"><path d="M335.291,183.783a3.136,3.136,0,1,1-3.445-2.794A3.135,3.135,0,0,1,335.291,183.783Z" transform="translate(-329.035 -180.972)" fill="#064578"/></g><g transform="translate(0)"><path d="M335.291,170.362a3.136,3.136,0,1,1-3.445-2.794A3.137,3.137,0,0,1,335.291,170.362Z" transform="translate(-329.035 -167.551)" fill="#064578"/></g><g transform="translate(0 25.514)"><path d="M335.291,177.073a3.136,3.136,0,1,1-3.445-2.794A3.139,3.139,0,0,1,335.291,177.073Z" transform="translate(-329.035 -174.261)" fill="#064578"/></g><g transform="translate(22.281 102.057)"><path d="M338.033,194.394a3.137,3.137,0,1,1-3.137,3.133A3.136,3.136,0,0,1,338.033,194.394Z" transform="translate(-334.896 -194.394)" fill="#064578"/></g><g transform="translate(22.28 76.541)"><path d="M341.151,190.494a3.136,3.136,0,1,1-3.444-2.794A3.137,3.137,0,0,1,341.151,190.494Z" transform="translate(-334.895 -187.682)" fill="#064578"/></g><g transform="translate(22.28 51.026)"><path d="M341.151,183.783a3.136,3.136,0,1,1-3.444-2.794A3.135,3.135,0,0,1,341.151,183.783Z" transform="translate(-334.895 -180.972)" fill="#064578"/></g><g transform="translate(22.28)"><path d="M341.151,170.362a3.136,3.136,0,1,1-3.444-2.794A3.137,3.137,0,0,1,341.151,170.362Z" transform="translate(-334.895 -167.551)" fill="#064578"/></g><g transform="translate(22.28 25.514)"><path d="M341.151,177.073a3.136,3.136,0,1,1-3.444-2.794A3.139,3.139,0,0,1,341.151,177.073Z" transform="translate(-334.895 -174.261)" fill="#064578"/></g></g><g transform="translate(87.908)"><g transform="translate(0 102.057)"><path d="M343.195,194.394a3.137,3.137,0,1,1-3.136,3.133A3.134,3.134,0,0,1,343.195,194.394Z" transform="translate(-340.058 -194.394)" fill="#064578"/></g><g transform="translate(0.001 76.541)"><path d="M346.315,190.494a3.136,3.136,0,1,1-3.445-2.794A3.137,3.137,0,0,1,346.315,190.494Z" transform="translate(-340.058 -187.682)" fill="#064578"/></g><g transform="translate(0.001 51.026)"><path d="M346.315,183.783a3.136,3.136,0,1,1-3.445-2.794A3.135,3.135,0,0,1,346.315,183.783Z" transform="translate(-340.058 -180.972)" fill="#064578"/></g><g transform="translate(0.001)"><path d="M346.315,170.362a3.136,3.136,0,1,1-3.445-2.794A3.137,3.137,0,0,1,346.315,170.362Z" transform="translate(-340.058 -167.551)" fill="#064578"/></g><g transform="translate(0.001 25.514)"><path d="M346.315,177.073a3.136,3.136,0,1,1-3.445-2.794A3.139,3.139,0,0,1,346.315,177.073Z" transform="translate(-340.058 -174.261)" fill="#064578"/></g><g transform="translate(22.281 102.055)"><circle cx="3.137" cy="3.137" r="3.137" fill="#064578"/></g><g transform="translate(22.281 76.541)"><path d="M352.174,190.494a3.136,3.136,0,1,1-3.445-2.794A3.137,3.137,0,0,1,352.174,190.494Z" transform="translate(-345.918 -187.682)" fill="#064578"/></g><g transform="translate(22.281 51.026)"><path d="M352.174,183.783a3.136,3.136,0,1,1-3.445-2.794A3.135,3.135,0,0,1,352.174,183.783Z" transform="translate(-345.918 -180.972)" fill="#064578"/></g><g transform="translate(22.281)"><path d="M352.174,170.362a3.136,3.136,0,1,1-3.445-2.794A3.137,3.137,0,0,1,352.174,170.362Z" transform="translate(-345.918 -167.551)" fill="#064578"/></g><g transform="translate(22.281 25.514)"><path d="M352.174,177.073a3.136,3.136,0,1,1-3.445-2.794A3.139,3.139,0,0,1,352.174,177.073Z" transform="translate(-345.918 -174.261)" fill="#064578"/></g></g><g transform="translate(133.91)"><g transform="translate(0 102.055)"><circle cx="3.137" cy="3.137" r="3.137" fill="#064578"/></g><g transform="translate(0 76.541)"><path d="M358.414,190.494a3.136,3.136,0,1,1-3.445-2.794A3.137,3.137,0,0,1,358.414,190.494Z" transform="translate(-352.157 -187.682)" fill="#064578"/></g><g transform="translate(0 51.026)"><path d="M358.414,183.783a3.136,3.136,0,1,1-3.445-2.794A3.135,3.135,0,0,1,358.414,183.783Z" transform="translate(-352.157 -180.972)" fill="#064578"/></g><g transform="translate(0)"><path d="M358.414,170.362a3.136,3.136,0,1,1-3.445-2.794A3.137,3.137,0,0,1,358.414,170.362Z" transform="translate(-352.157 -167.551)" fill="#064578"/></g><g transform="translate(0 25.514)"><path d="M358.414,177.073a3.136,3.136,0,1,1-3.445-2.794A3.14,3.14,0,0,1,358.414,177.073Z" transform="translate(-352.157 -174.261)" fill="#064578"/></g><g transform="translate(22.281 102.057)"><path d="M361.154,194.394a3.137,3.137,0,1,1-3.136,3.133A3.136,3.136,0,0,1,361.154,194.394Z" transform="translate(-358.018 -194.394)" fill="#064578"/></g><g transform="translate(22.28 76.541)"><path d="M364.273,190.494a3.136,3.136,0,1,1-3.445-2.794A3.137,3.137,0,0,1,364.273,190.494Z" transform="translate(-358.017 -187.682)" fill="#064578"/></g><g transform="translate(22.28 51.026)"><path d="M364.273,183.783a3.136,3.136,0,1,1-3.445-2.794A3.135,3.135,0,0,1,364.273,183.783Z" transform="translate(-358.017 -180.972)" fill="#064578"/></g><g transform="translate(22.28)"><path d="M364.273,170.362a3.136,3.136,0,1,1-3.445-2.794A3.137,3.137,0,0,1,364.273,170.362Z" transform="translate(-358.017 -167.551)" fill="#064578"/></g><g transform="translate(22.28 25.514)"><path d="M364.273,177.073a3.136,3.136,0,1,1-3.445-2.794A3.139,3.139,0,0,1,364.273,177.073Z" transform="translate(-358.017 -174.261)" fill="#064578"/></g></g></g><g transform="translate(-39.091 122.049)"><g transform="translate(0 102.057)"><path d="M271.7,194.394a3.137,3.137,0,1,1-3.137,3.133A3.134,3.134,0,0,1,271.7,194.394Z" transform="translate(-268.565 -194.394)" fill="#064578"/></g><g transform="translate(0.001 76.541)"><path d="M274.822,190.494a3.136,3.136,0,1,1-3.445-2.794A3.137,3.137,0,0,1,274.822,190.494Z" transform="translate(-268.565 -187.682)" fill="#064578"/></g><g transform="translate(0.001 51.026)"><path d="M274.822,183.783a3.136,3.136,0,1,1-3.445-2.794A3.135,3.135,0,0,1,274.822,183.783Z" transform="translate(-268.565 -180.972)" fill="#064578"/></g><g transform="translate(0.001)"><path d="M274.822,170.362a3.136,3.136,0,1,1-3.445-2.794A3.137,3.137,0,0,1,274.822,170.362Z" transform="translate(-268.565 -167.551)" fill="#064578"/></g><g transform="translate(0.001 25.514)"><path d="M274.822,177.073a3.136,3.136,0,1,1-3.445-2.794A3.139,3.139,0,0,1,274.822,177.073Z" transform="translate(-268.565 -174.261)" fill="#064578"/></g><g transform="translate(22.283 102.057)"><path d="M277.559,194.394a3.137,3.137,0,1,1-3.133,3.133A3.134,3.134,0,0,1,277.559,194.394Z" transform="translate(-274.426 -194.394)" fill="#064578"/></g><g transform="translate(22.281 76.541)"><path d="M280.681,190.494a3.136,3.136,0,1,1-3.445-2.794A3.137,3.137,0,0,1,280.681,190.494Z" transform="translate(-274.425 -187.682)" fill="#064578"/></g><g transform="translate(22.281 51.026)"><path d="M280.681,183.783a3.136,3.136,0,1,1-3.445-2.794A3.135,3.135,0,0,1,280.681,183.783Z" transform="translate(-274.425 -180.972)" fill="#064578"/></g><g transform="translate(22.281)"><path d="M280.681,170.362a3.136,3.136,0,1,1-3.445-2.794A3.137,3.137,0,0,1,280.681,170.362Z" transform="translate(-274.425 -167.551)" fill="#064578"/></g><g transform="translate(22.281 25.514)"><path d="M280.681,177.073a3.136,3.136,0,1,1-3.445-2.794A3.139,3.139,0,0,1,280.681,177.073Z" transform="translate(-274.425 -174.261)" fill="#064578"/></g><g transform="translate(46.002)"><g transform="translate(0.002 102.057)"><path d="M283.8,194.394a3.137,3.137,0,1,1-3.133,3.133A3.134,3.134,0,0,1,283.8,194.394Z" transform="translate(-280.665 -194.394)" fill="#064578"/></g><g transform="translate(0 76.541)"><path d="M286.92,190.494a3.136,3.136,0,1,1-3.445-2.794A3.137,3.137,0,0,1,286.92,190.494Z" transform="translate(-280.665 -187.682)" fill="#064578"/></g><g transform="translate(0 51.026)"><path d="M286.92,183.783a3.136,3.136,0,1,1-3.445-2.794A3.135,3.135,0,0,1,286.92,183.783Z" transform="translate(-280.665 -180.972)" fill="#064578"/></g><path d="M286.92,170.362a3.136,3.136,0,1,1-3.445-2.794A3.137,3.137,0,0,1,286.92,170.362Z" transform="translate(-280.665 -167.551)" fill="#064578"/><g transform="translate(0 25.514)"><path d="M286.92,177.073a3.136,3.136,0,1,1-3.445-2.794A3.139,3.139,0,0,1,286.92,177.073Z" transform="translate(-280.665 -174.261)" fill="#064578"/></g><g transform="translate(22.28 102.055)"><circle cx="3.137" cy="3.137" r="3.137" fill="#064578"/></g><g transform="translate(22.279 76.541)"><path d="M292.781,190.494a3.136,3.136,0,1,1-3.445-2.794A3.135,3.135,0,0,1,292.781,190.494Z" transform="translate(-286.524 -187.682)" fill="#064578"/></g><g transform="translate(22.279 51.026)"><path d="M292.781,183.783a3.136,3.136,0,1,1-3.445-2.794A3.133,3.133,0,0,1,292.781,183.783Z" transform="translate(-286.524 -180.972)" fill="#064578"/></g><g transform="translate(22.279)"><path d="M292.781,170.362a3.136,3.136,0,1,1-3.445-2.794A3.135,3.135,0,0,1,292.781,170.362Z" transform="translate(-286.524 -167.551)" fill="#064578"/></g><g transform="translate(22.279 25.514)"><path d="M292.781,177.073a3.136,3.136,0,1,1-3.445-2.794A3.137,3.137,0,0,1,292.781,177.073Z" transform="translate(-286.524 -174.261)" fill="#064578"/></g></g><g transform="translate(87.908)"><g transform="translate(0 102.057)"><path d="M294.824,194.394a3.137,3.137,0,1,1-3.137,3.133A3.134,3.134,0,0,1,294.824,194.394Z" transform="translate(-291.687 -194.394)" fill="#064578"/></g><g transform="translate(0.001 76.541)"><path d="M297.944,190.494A3.136,3.136,0,1,1,294.5,187.7,3.137,3.137,0,0,1,297.944,190.494Z" transform="translate(-291.687 -187.682)" fill="#064578"/></g><g transform="translate(0.001 51.026)"><path d="M297.944,183.783a3.136,3.136,0,1,1-3.445-2.794A3.135,3.135,0,0,1,297.944,183.783Z" transform="translate(-291.687 -180.972)" fill="#064578"/></g><g transform="translate(0.001)"><path d="M297.944,170.362a3.136,3.136,0,1,1-3.445-2.794A3.137,3.137,0,0,1,297.944,170.362Z" transform="translate(-291.687 -167.551)" fill="#064578"/></g><g transform="translate(0.001 25.514)"><path d="M297.944,177.073a3.136,3.136,0,1,1-3.445-2.794A3.14,3.14,0,0,1,297.944,177.073Z" transform="translate(-291.687 -174.261)" fill="#064578"/></g><g transform="translate(22.283 102.057)"><path d="M300.681,194.394a3.137,3.137,0,1,1-3.133,3.133A3.134,3.134,0,0,1,300.681,194.394Z" transform="translate(-297.548 -194.394)" fill="#064578"/></g><g transform="translate(22.281 76.541)"><path d="M303.8,190.494a3.136,3.136,0,1,1-3.445-2.794A3.137,3.137,0,0,1,303.8,190.494Z" transform="translate(-297.547 -187.682)" fill="#064578"/></g><g transform="translate(22.281 51.026)"><path d="M303.8,183.783a3.136,3.136,0,1,1-3.445-2.794A3.135,3.135,0,0,1,303.8,183.783Z" transform="translate(-297.547 -180.972)" fill="#064578"/></g><g transform="translate(22.281)"><path d="M303.8,170.362a3.136,3.136,0,1,1-3.445-2.794A3.137,3.137,0,0,1,303.8,170.362Z" transform="translate(-297.547 -167.551)" fill="#064578"/></g><g transform="translate(22.281 25.514)"><path d="M303.8,177.073a3.136,3.136,0,1,1-3.445-2.794A3.139,3.139,0,0,1,303.8,177.073Z" transform="translate(-297.547 -174.261)" fill="#064578"/></g></g><g transform="translate(133.91)"><g transform="translate(0.002 102.057)"><path d="M306.92,194.394a3.137,3.137,0,1,1-3.133,3.133A3.134,3.134,0,0,1,306.92,194.394Z" transform="translate(-303.787 -194.394)" fill="#064578"/></g><g transform="translate(0 76.541)"><path d="M310.042,190.494A3.136,3.136,0,1,1,306.6,187.7,3.137,3.137,0,0,1,310.042,190.494Z" transform="translate(-303.786 -187.682)" fill="#064578"/></g><g transform="translate(0 51.026)"><path d="M310.042,183.783a3.136,3.136,0,1,1-3.445-2.794A3.135,3.135,0,0,1,310.042,183.783Z" transform="translate(-303.786 -180.972)" fill="#064578"/></g><path d="M310.042,170.362a3.136,3.136,0,1,1-3.445-2.794A3.137,3.137,0,0,1,310.042,170.362Z" transform="translate(-303.786 -167.551)" fill="#064578"/><g transform="translate(0 25.514)"><path d="M310.042,177.073a3.136,3.136,0,1,1-3.445-2.794A3.139,3.139,0,0,1,310.042,177.073Z" transform="translate(-303.786 -174.261)" fill="#064578"/></g><g transform="translate(22.28 102.055)"><circle cx="3.137" cy="3.137" r="3.137" fill="#064578"/></g><g transform="translate(22.279 76.541)"><path d="M315.9,190.494a3.136,3.136,0,1,1-3.445-2.794A3.134,3.134,0,0,1,315.9,190.494Z" transform="translate(-309.647 -187.682)" fill="#064578"/></g><g transform="translate(22.279 51.026)"><path d="M315.9,183.783a3.136,3.136,0,1,1-3.445-2.794A3.132,3.132,0,0,1,315.9,183.783Z" transform="translate(-309.647 -180.972)" fill="#064578"/></g><g transform="translate(22.279)"><path d="M315.9,170.362a3.136,3.136,0,1,1-3.445-2.794A3.134,3.134,0,0,1,315.9,170.362Z" transform="translate(-309.647 -167.551)" fill="#064578"/></g><g transform="translate(22.279 25.514)"><path d="M315.9,177.073a3.136,3.136,0,1,1-3.445-2.794A3.137,3.137,0,0,1,315.9,177.073Z" transform="translate(-309.647 -174.261)" fill="#064578"/></g></g></g><g transform="translate(144.812 -3.226)"><g transform="translate(0 102.054)"><path d="M320.073,161.443a3.137,3.137,0,1,1-3.137,3.137A3.137,3.137,0,0,1,320.073,161.443Z" transform="translate(-316.936 -161.443)" fill="#064578"/></g><g transform="translate(0.001 76.541)"><path d="M323.193,157.544a3.136,3.136,0,1,1-3.445-2.794A3.137,3.137,0,0,1,323.193,157.544Z" transform="translate(-316.936 -154.733)" fill="#064578"/></g><g transform="translate(0.001 51.026)"><path d="M323.193,150.833a3.136,3.136,0,1,1-3.445-2.794A3.137,3.137,0,0,1,323.193,150.833Z" transform="translate(-316.936 -148.022)" fill="#064578"/></g><g transform="translate(0.001)"><path d="M323.193,137.412a3.136,3.136,0,1,1-3.445-2.794A3.14,3.14,0,0,1,323.193,137.412Z" transform="translate(-316.936 -134.6)" fill="#064578"/></g><g transform="translate(0.001 25.512)"><path d="M323.193,144.122a3.136,3.136,0,1,1-3.445-2.794A3.137,3.137,0,0,1,323.193,144.122Z" transform="translate(-316.936 -141.311)" fill="#064578"/></g><g transform="translate(22.281 102.055)"><circle cx="3.137" cy="3.137" r="3.137" fill="#064578"/></g><g transform="translate(22.281 76.541)"><path d="M329.052,157.544a3.136,3.136,0,1,1-3.445-2.794A3.137,3.137,0,0,1,329.052,157.544Z" transform="translate(-322.796 -154.733)" fill="#064578"/></g><g transform="translate(22.281 51.026)"><path d="M329.052,150.833a3.136,3.136,0,1,1-3.445-2.794A3.137,3.137,0,0,1,329.052,150.833Z" transform="translate(-322.796 -148.022)" fill="#064578"/></g><g transform="translate(22.281)"><path d="M329.052,137.412a3.136,3.136,0,1,1-3.445-2.794A3.139,3.139,0,0,1,329.052,137.412Z" transform="translate(-322.796 -134.6)" fill="#064578"/></g><g transform="translate(22.281 25.512)"><path d="M329.052,144.122a3.136,3.136,0,1,1-3.445-2.794A3.137,3.137,0,0,1,329.052,144.122Z" transform="translate(-322.796 -141.311)" fill="#064578"/></g><g transform="translate(46.001)"><g transform="translate(0 102.055)"><circle cx="3.137" cy="3.137" r="3.137" fill="#064578"/></g><g transform="translate(0 76.541)"><path d="M335.291,157.544a3.136,3.136,0,1,1-3.445-2.794A3.137,3.137,0,0,1,335.291,157.544Z" transform="translate(-329.035 -154.733)" fill="#064578"/></g><g transform="translate(0 51.026)"><path d="M335.291,150.833a3.136,3.136,0,1,1-3.445-2.794A3.137,3.137,0,0,1,335.291,150.833Z" transform="translate(-329.035 -148.022)" fill="#064578"/></g><g transform="translate(0)"><path d="M335.291,137.412a3.136,3.136,0,1,1-3.445-2.794A3.139,3.139,0,0,1,335.291,137.412Z" transform="translate(-329.035 -134.6)" fill="#064578"/></g><g transform="translate(0 25.512)"><path d="M335.291,144.122a3.136,3.136,0,1,1-3.445-2.794A3.137,3.137,0,0,1,335.291,144.122Z" transform="translate(-329.035 -141.311)" fill="#064578"/></g><g transform="translate(22.281 102.054)"><path d="M338.033,161.443a3.137,3.137,0,1,1-3.137,3.137A3.14,3.14,0,0,1,338.033,161.443Z" transform="translate(-334.896 -161.443)" fill="#064578"/></g><g transform="translate(22.28 76.541)"><path d="M341.151,157.544a3.136,3.136,0,1,1-3.444-2.794A3.137,3.137,0,0,1,341.151,157.544Z" transform="translate(-334.895 -154.733)" fill="#064578"/></g><g transform="translate(22.28 51.026)"><path d="M341.151,150.833a3.136,3.136,0,1,1-3.444-2.794A3.137,3.137,0,0,1,341.151,150.833Z" transform="translate(-334.895 -148.022)" fill="#064578"/></g><g transform="translate(22.28)"><path d="M341.151,137.412a3.136,3.136,0,1,1-3.444-2.794A3.139,3.139,0,0,1,341.151,137.412Z" transform="translate(-334.895 -134.6)" fill="#064578"/></g><g transform="translate(22.28 25.512)"><path d="M341.151,144.122a3.136,3.136,0,1,1-3.444-2.794A3.137,3.137,0,0,1,341.151,144.122Z" transform="translate(-334.895 -141.311)" fill="#064578"/></g></g><g transform="translate(87.908)"><g transform="translate(0 102.054)"><path d="M343.195,161.443a3.137,3.137,0,1,1-3.136,3.137A3.137,3.137,0,0,1,343.195,161.443Z" transform="translate(-340.058 -161.443)" fill="#064578"/></g><g transform="translate(0.001 76.541)"><path d="M346.315,157.544a3.136,3.136,0,1,1-3.445-2.794A3.137,3.137,0,0,1,346.315,157.544Z" transform="translate(-340.058 -154.733)" fill="#064578"/></g><g transform="translate(0.001 51.026)"><path d="M346.315,150.833a3.136,3.136,0,1,1-3.445-2.794A3.137,3.137,0,0,1,346.315,150.833Z" transform="translate(-340.058 -148.022)" fill="#064578"/></g><g transform="translate(0.001)"><path d="M346.315,137.412a3.136,3.136,0,1,1-3.445-2.794A3.139,3.139,0,0,1,346.315,137.412Z" transform="translate(-340.058 -134.6)" fill="#064578"/></g><g transform="translate(0.001 25.512)"><path d="M346.315,144.122a3.136,3.136,0,1,1-3.445-2.794A3.137,3.137,0,0,1,346.315,144.122Z" transform="translate(-340.058 -141.311)" fill="#064578"/></g><g transform="translate(22.281 102.055)"><circle cx="3.137" cy="3.137" r="3.137" fill="#064578"/></g><g transform="translate(22.281 76.541)"><path d="M352.174,157.544a3.136,3.136,0,1,1-3.445-2.794A3.137,3.137,0,0,1,352.174,157.544Z" transform="translate(-345.918 -154.733)" fill="#064578"/></g><g transform="translate(22.281 51.026)"><path d="M352.174,150.833a3.136,3.136,0,1,1-3.445-2.794A3.137,3.137,0,0,1,352.174,150.833Z" transform="translate(-345.918 -148.022)" fill="#064578"/></g><g transform="translate(22.281)"><path d="M352.174,137.412a3.136,3.136,0,1,1-3.445-2.794A3.139,3.139,0,0,1,352.174,137.412Z" transform="translate(-345.918 -134.6)" fill="#064578"/></g><g transform="translate(22.281 25.512)"><path d="M352.174,144.122a3.136,3.136,0,1,1-3.445-2.794A3.137,3.137,0,0,1,352.174,144.122Z" transform="translate(-345.918 -141.311)" fill="#064578"/></g></g><g transform="translate(133.91)"><g transform="translate(0 102.055)"><circle cx="3.137" cy="3.137" r="3.137" fill="#064578"/></g><g transform="translate(0 76.541)"><path d="M358.414,157.544a3.136,3.136,0,1,1-3.445-2.794A3.137,3.137,0,0,1,358.414,157.544Z" transform="translate(-352.157 -154.733)" fill="#064578"/></g><g transform="translate(0 51.026)"><path d="M358.414,150.833a3.136,3.136,0,1,1-3.445-2.794A3.137,3.137,0,0,1,358.414,150.833Z" transform="translate(-352.157 -148.022)" fill="#064578"/></g><g transform="translate(0)"><path d="M358.414,137.412a3.136,3.136,0,1,1-3.445-2.794A3.14,3.14,0,0,1,358.414,137.412Z" transform="translate(-352.157 -134.6)" fill="#064578"/></g><g transform="translate(0 25.512)"><path d="M358.414,144.122a3.136,3.136,0,1,1-3.445-2.794A3.137,3.137,0,0,1,358.414,144.122Z" transform="translate(-352.157 -141.311)" fill="#064578"/></g><g transform="translate(22.281 102.054)"><path d="M361.154,161.443a3.137,3.137,0,1,1-3.136,3.137A3.14,3.14,0,0,1,361.154,161.443Z" transform="translate(-358.018 -161.443)" fill="#064578"/></g><g transform="translate(22.28 76.541)"><path d="M364.273,157.544a3.136,3.136,0,1,1-3.445-2.794A3.137,3.137,0,0,1,364.273,157.544Z" transform="translate(-358.017 -154.733)" fill="#064578"/></g><g transform="translate(22.28 51.026)"><path d="M364.273,150.833a3.136,3.136,0,1,1-3.445-2.794A3.137,3.137,0,0,1,364.273,150.833Z" transform="translate(-358.017 -148.022)" fill="#064578"/></g><g transform="translate(22.28)"><path d="M364.273,137.412a3.136,3.136,0,1,1-3.445-2.794A3.139,3.139,0,0,1,364.273,137.412Z" transform="translate(-358.017 -134.6)" fill="#064578"/></g><g transform="translate(22.28 25.512)"><path d="M364.273,144.122a3.136,3.136,0,1,1-3.445-2.794A3.137,3.137,0,0,1,364.273,144.122Z" transform="translate(-358.017 -141.311)" fill="#064578"/></g></g></g><g transform="translate(-39.091 -3.226)"><g transform="translate(0 102.054)"><path d="M271.7,161.443a3.137,3.137,0,1,1-3.137,3.137A3.137,3.137,0,0,1,271.7,161.443Z" transform="translate(-268.565 -161.443)" fill="#064578"/></g><g transform="translate(0.001 76.541)"><path d="M274.822,157.544a3.136,3.136,0,1,1-3.445-2.794A3.137,3.137,0,0,1,274.822,157.544Z" transform="translate(-268.565 -154.733)" fill="#064578"/></g><g transform="translate(0.001 51.026)"><path d="M274.822,150.833a3.136,3.136,0,1,1-3.445-2.794A3.137,3.137,0,0,1,274.822,150.833Z" transform="translate(-268.565 -148.022)" fill="#064578"/></g><g transform="translate(0.001)"><path d="M274.822,137.412a3.136,3.136,0,1,1-3.445-2.794A3.139,3.139,0,0,1,274.822,137.412Z" transform="translate(-268.565 -134.6)" fill="#064578"/></g><g transform="translate(0.001 25.512)"><path d="M274.822,144.122a3.136,3.136,0,1,1-3.445-2.794A3.137,3.137,0,0,1,274.822,144.122Z" transform="translate(-268.565 -141.311)" fill="#064578"/></g><g transform="translate(22.283 102.054)"><path d="M277.559,161.443a3.137,3.137,0,1,1-3.133,3.137A3.137,3.137,0,0,1,277.559,161.443Z" transform="translate(-274.426 -161.443)" fill="#064578"/></g><g transform="translate(22.281 76.541)"><path d="M280.681,157.544a3.136,3.136,0,1,1-3.445-2.794A3.137,3.137,0,0,1,280.681,157.544Z" transform="translate(-274.425 -154.733)" fill="#064578"/></g><g transform="translate(22.281 51.026)"><path d="M280.681,150.833a3.136,3.136,0,1,1-3.445-2.794A3.137,3.137,0,0,1,280.681,150.833Z" transform="translate(-274.425 -148.022)" fill="#064578"/></g><g transform="translate(22.281)"><path d="M280.681,137.412a3.136,3.136,0,1,1-3.445-2.794A3.139,3.139,0,0,1,280.681,137.412Z" transform="translate(-274.425 -134.6)" fill="#064578"/></g><g transform="translate(22.281 25.512)"><path d="M280.681,144.122a3.136,3.136,0,1,1-3.445-2.794A3.137,3.137,0,0,1,280.681,144.122Z" transform="translate(-274.425 -141.311)" fill="#064578"/></g><g transform="translate(46.002)"><g transform="translate(0.002 102.054)"><path d="M283.8,161.443a3.137,3.137,0,1,1-3.133,3.137A3.137,3.137,0,0,1,283.8,161.443Z" transform="translate(-280.665 -161.443)" fill="#064578"/></g><g transform="translate(0 76.541)"><path d="M286.92,157.544a3.136,3.136,0,1,1-3.445-2.794A3.137,3.137,0,0,1,286.92,157.544Z" transform="translate(-280.665 -154.733)" fill="#064578"/></g><g transform="translate(0 51.026)"><path d="M286.92,150.833a3.136,3.136,0,1,1-3.445-2.794A3.137,3.137,0,0,1,286.92,150.833Z" transform="translate(-280.665 -148.022)" fill="#064578"/></g><path d="M286.92,137.412a3.136,3.136,0,1,1-3.445-2.794A3.139,3.139,0,0,1,286.92,137.412Z" transform="translate(-280.665 -134.6)" fill="#064578"/><g transform="translate(0 25.512)"><path d="M286.92,144.122a3.136,3.136,0,1,1-3.445-2.794A3.137,3.137,0,0,1,286.92,144.122Z" transform="translate(-280.665 -141.311)" fill="#064578"/></g><g transform="translate(22.28 102.055)"><circle cx="3.137" cy="3.137" r="3.137" fill="#064578"/></g><g transform="translate(22.279 76.541)"><path d="M292.781,157.544a3.136,3.136,0,1,1-3.445-2.794A3.135,3.135,0,0,1,292.781,157.544Z" transform="translate(-286.524 -154.733)" fill="#064578"/></g><g transform="translate(22.279 51.026)"><path d="M292.781,150.833a3.136,3.136,0,1,1-3.445-2.794A3.135,3.135,0,0,1,292.781,150.833Z" transform="translate(-286.524 -148.022)" fill="#064578"/></g><g transform="translate(22.279)"><path d="M292.781,137.412a3.136,3.136,0,1,1-3.445-2.794A3.137,3.137,0,0,1,292.781,137.412Z" transform="translate(-286.524 -134.6)" fill="#064578"/></g><g transform="translate(22.279 25.512)"><path d="M292.781,144.122a3.136,3.136,0,1,1-3.445-2.794A3.135,3.135,0,0,1,292.781,144.122Z" transform="translate(-286.524 -141.311)" fill="#064578"/></g></g><g transform="translate(87.908)"><g transform="translate(0 102.054)"><path d="M294.824,161.443a3.137,3.137,0,1,1-3.137,3.137A3.137,3.137,0,0,1,294.824,161.443Z" transform="translate(-291.687 -161.443)" fill="#064578"/></g><g transform="translate(0.001 76.541)"><path d="M297.944,157.544a3.136,3.136,0,1,1-3.445-2.794A3.137,3.137,0,0,1,297.944,157.544Z" transform="translate(-291.687 -154.733)" fill="#064578"/></g><g transform="translate(0.001 51.026)"><path d="M297.944,150.833a3.136,3.136,0,1,1-3.445-2.794A3.137,3.137,0,0,1,297.944,150.833Z" transform="translate(-291.687 -148.022)" fill="#064578"/></g><g transform="translate(0.001)"><path d="M297.944,137.412a3.136,3.136,0,1,1-3.445-2.794A3.14,3.14,0,0,1,297.944,137.412Z" transform="translate(-291.687 -134.6)" fill="#064578"/></g><g transform="translate(0.001 25.512)"><path d="M297.944,144.122a3.136,3.136,0,1,1-3.445-2.794A3.137,3.137,0,0,1,297.944,144.122Z" transform="translate(-291.687 -141.311)" fill="#064578"/></g><g transform="translate(22.283 102.054)"><path d="M300.681,161.443a3.137,3.137,0,1,1-3.133,3.137A3.137,3.137,0,0,1,300.681,161.443Z" transform="translate(-297.548 -161.443)" fill="#064578"/></g><g transform="translate(22.281 76.541)"><path d="M303.8,157.544a3.136,3.136,0,1,1-3.445-2.794A3.137,3.137,0,0,1,303.8,157.544Z" transform="translate(-297.547 -154.733)" fill="#064578"/></g><g transform="translate(22.281 51.026)"><path d="M303.8,150.833a3.136,3.136,0,1,1-3.445-2.794A3.137,3.137,0,0,1,303.8,150.833Z" transform="translate(-297.547 -148.022)" fill="#064578"/></g><g transform="translate(22.281)"><path d="M303.8,137.412a3.136,3.136,0,1,1-3.445-2.794A3.139,3.139,0,0,1,303.8,137.412Z" transform="translate(-297.547 -134.6)" fill="#064578"/></g><g transform="translate(22.281 25.512)"><path d="M303.8,144.122a3.136,3.136,0,1,1-3.445-2.794A3.137,3.137,0,0,1,303.8,144.122Z" transform="translate(-297.547 -141.311)" fill="#064578"/></g></g><g transform="translate(133.91)"><g transform="translate(0.002 102.054)"><path d="M306.92,161.443a3.137,3.137,0,1,1-3.133,3.137A3.137,3.137,0,0,1,306.92,161.443Z" transform="translate(-303.787 -161.443)" fill="#064578"/></g><g transform="translate(0 76.541)"><path d="M310.042,157.544a3.136,3.136,0,1,1-3.445-2.794A3.137,3.137,0,0,1,310.042,157.544Z" transform="translate(-303.786 -154.733)" fill="#064578"/></g><g transform="translate(0 51.026)"><path d="M310.042,150.833a3.136,3.136,0,1,1-3.445-2.794A3.137,3.137,0,0,1,310.042,150.833Z" transform="translate(-303.786 -148.022)" fill="#064578"/></g><path d="M310.042,137.412a3.136,3.136,0,1,1-3.445-2.794A3.139,3.139,0,0,1,310.042,137.412Z" transform="translate(-303.786 -134.6)" fill="#064578"/><g transform="translate(0 25.512)"><path d="M310.042,144.122a3.136,3.136,0,1,1-3.445-2.794A3.137,3.137,0,0,1,310.042,144.122Z" transform="translate(-303.786 -141.311)" fill="#064578"/></g><g transform="translate(22.28 102.055)"><circle cx="3.137" cy="3.137" r="3.137" fill="#064578"/></g><g transform="translate(22.279 76.541)"><path d="M315.9,157.544a3.136,3.136,0,1,1-3.445-2.794A3.135,3.135,0,0,1,315.9,157.544Z" transform="translate(-309.647 -154.733)" fill="#064578"/></g><g transform="translate(22.279 51.026)"><path d="M315.9,150.833a3.136,3.136,0,1,1-3.445-2.794A3.135,3.135,0,0,1,315.9,150.833Z" transform="translate(-309.647 -148.022)" fill="#064578"/></g><g transform="translate(22.279)"><path d="M315.9,137.412a3.136,3.136,0,1,1-3.445-2.794A3.137,3.137,0,0,1,315.9,137.412Z" transform="translate(-309.647 -134.6)" fill="#064578"/></g><g transform="translate(22.279 25.512)"><path d="M315.9,144.122a3.136,3.136,0,1,1-3.445-2.794A3.134,3.134,0,0,1,315.9,144.122Z" transform="translate(-309.647 -141.311)" fill="#064578"/></g></g></g><g transform="translate(156.513 -124.504)"><g transform="translate(0.002 102.054)"><path d="M323.151,129.544a3.137,3.137,0,1,1-3.137,3.137A3.137,3.137,0,0,1,323.151,129.544Z" transform="translate(-320.014 -129.544)" fill="#064578"/></g><g transform="translate(0 76.541)"><path d="M326.269,125.645a3.136,3.136,0,1,1-3.445-2.794A3.132,3.132,0,0,1,326.269,125.645Z" transform="translate(-320.014 -122.834)" fill="#064578"/></g><g transform="translate(0 51.026)"><path d="M326.269,118.934a3.136,3.136,0,1,1-3.445-2.794A3.132,3.132,0,0,1,326.269,118.934Z" transform="translate(-320.014 -116.123)" fill="#064578"/></g><path d="M326.269,105.513a3.136,3.136,0,1,1-3.445-2.794A3.134,3.134,0,0,1,326.269,105.513Z" transform="translate(-320.014 -102.701)" fill="#064578"/><g transform="translate(0 25.512)"><path d="M326.269,112.223a3.136,3.136,0,1,1-3.445-2.794A3.13,3.13,0,0,1,326.269,112.223Z" transform="translate(-320.014 -109.412)" fill="#064578"/></g><g transform="translate(22.281 102.054)"><path d="M329.011,129.544a3.137,3.137,0,1,1-3.137,3.137A3.137,3.137,0,0,1,329.011,129.544Z" transform="translate(-325.874 -129.544)" fill="#064578"/></g><g transform="translate(22.282 76.541)"><path d="M332.131,125.645a3.136,3.136,0,1,1-3.444-2.794A3.137,3.137,0,0,1,332.131,125.645Z" transform="translate(-325.874 -122.834)" fill="#064578"/></g><g transform="translate(22.282 51.026)"><path d="M332.131,118.934a3.136,3.136,0,1,1-3.444-2.794A3.137,3.137,0,0,1,332.131,118.934Z" transform="translate(-325.874 -116.123)" fill="#064578"/></g><g transform="translate(22.282)"><path d="M332.131,105.513a3.136,3.136,0,1,1-3.444-2.794A3.139,3.139,0,0,1,332.131,105.513Z" transform="translate(-325.874 -102.701)" fill="#064578"/></g><g transform="translate(22.282 25.512)"><path d="M332.131,112.223a3.136,3.136,0,1,1-3.444-2.794A3.135,3.135,0,0,1,332.131,112.223Z" transform="translate(-325.874 -109.412)" fill="#064578"/></g><g transform="translate(46.001)"><g transform="translate(0 102.054)"><path d="M335.249,129.544a3.137,3.137,0,1,1-3.136,3.137A3.137,3.137,0,0,1,335.249,129.544Z" transform="translate(-332.113 -129.544)" fill="#064578"/></g><g transform="translate(0.001 76.541)"><path d="M338.37,125.645a3.136,3.136,0,1,1-3.445-2.794A3.137,3.137,0,0,1,338.37,125.645Z" transform="translate(-332.113 -122.834)" fill="#064578"/></g><g transform="translate(0.001 51.026)"><path d="M338.37,118.934a3.136,3.136,0,1,1-3.445-2.794A3.137,3.137,0,0,1,338.37,118.934Z" transform="translate(-332.113 -116.123)" fill="#064578"/></g><g transform="translate(0.001)"><path d="M338.37,105.513a3.136,3.136,0,1,1-3.445-2.794A3.139,3.139,0,0,1,338.37,105.513Z" transform="translate(-332.113 -102.701)" fill="#064578"/></g><g transform="translate(0.001 25.512)"><path d="M338.37,112.223a3.136,3.136,0,1,1-3.445-2.794A3.135,3.135,0,0,1,338.37,112.223Z" transform="translate(-332.113 -109.412)" fill="#064578"/></g><g transform="translate(22.279 102.054)"><path d="M341.11,129.544a3.137,3.137,0,1,1-3.137,3.137A3.137,3.137,0,0,1,341.11,129.544Z" transform="translate(-337.973 -129.544)" fill="#064578"/></g><g transform="translate(22.281 76.541)"><path d="M344.229,125.645a3.136,3.136,0,1,1-3.444-2.794A3.137,3.137,0,0,1,344.229,125.645Z" transform="translate(-337.973 -122.834)" fill="#064578"/></g><g transform="translate(22.281 51.026)"><path d="M344.229,118.934a3.136,3.136,0,1,1-3.444-2.794A3.137,3.137,0,0,1,344.229,118.934Z" transform="translate(-337.973 -116.123)" fill="#064578"/></g><g transform="translate(22.281)"><path d="M344.229,105.513a3.136,3.136,0,1,1-3.444-2.794A3.139,3.139,0,0,1,344.229,105.513Z" transform="translate(-337.973 -102.701)" fill="#064578"/></g><g transform="translate(22.281 25.512)"><path d="M344.229,112.223a3.136,3.136,0,1,1-3.444-2.794A3.135,3.135,0,0,1,344.229,112.223Z" transform="translate(-337.973 -109.412)" fill="#064578"/></g></g><g transform="translate(87.908)"><g transform="translate(0.002 102.054)"><path d="M346.273,129.544a3.137,3.137,0,1,1-3.137,3.137A3.137,3.137,0,0,1,346.273,129.544Z" transform="translate(-343.136 -129.544)" fill="#064578"/></g><g transform="translate(0 76.541)"><path d="M349.391,125.645a3.136,3.136,0,1,1-3.445-2.794A3.132,3.132,0,0,1,349.391,125.645Z" transform="translate(-343.136 -122.834)" fill="#064578"/></g><g transform="translate(0 51.026)"><path d="M349.391,118.934a3.136,3.136,0,1,1-3.445-2.794A3.132,3.132,0,0,1,349.391,118.934Z" transform="translate(-343.136 -116.123)" fill="#064578"/></g><path d="M349.391,105.513a3.136,3.136,0,1,1-3.445-2.794A3.134,3.134,0,0,1,349.391,105.513Z" transform="translate(-343.136 -102.701)" fill="#064578"/><g transform="translate(0 25.512)"><path d="M349.391,112.223a3.136,3.136,0,1,1-3.445-2.794A3.13,3.13,0,0,1,349.391,112.223Z" transform="translate(-343.136 -109.412)" fill="#064578"/></g><g transform="translate(22.281 102.054)"><path d="M352.133,129.544A3.137,3.137,0,1,1,349,132.681,3.137,3.137,0,0,1,352.133,129.544Z" transform="translate(-348.996 -129.544)" fill="#064578"/></g><g transform="translate(22.283 76.541)"><path d="M355.253,125.645a3.136,3.136,0,1,1-3.444-2.794A3.137,3.137,0,0,1,355.253,125.645Z" transform="translate(-348.996 -122.834)" fill="#064578"/></g><g transform="translate(22.283 51.026)"><path d="M355.253,118.934a3.136,3.136,0,1,1-3.444-2.794A3.137,3.137,0,0,1,355.253,118.934Z" transform="translate(-348.996 -116.123)" fill="#064578"/></g><g transform="translate(22.283)"><path d="M355.253,105.513a3.136,3.136,0,1,1-3.444-2.794A3.139,3.139,0,0,1,355.253,105.513Z" transform="translate(-348.996 -102.701)" fill="#064578"/></g><g transform="translate(22.283 25.512)"><path d="M355.253,112.223a3.136,3.136,0,1,1-3.444-2.794A3.135,3.135,0,0,1,355.253,112.223Z" transform="translate(-348.996 -109.412)" fill="#064578"/></g></g><g transform="translate(133.91)"><g transform="translate(0 102.054)"><path d="M358.372,129.544a3.137,3.137,0,1,1-3.137,3.137A3.137,3.137,0,0,1,358.372,129.544Z" transform="translate(-355.235 -129.544)" fill="#064578"/></g><g transform="translate(0.001 76.541)"><path d="M361.492,125.645a3.136,3.136,0,1,1-3.445-2.794A3.137,3.137,0,0,1,361.492,125.645Z" transform="translate(-355.235 -122.834)" fill="#064578"/></g><g transform="translate(0.001 51.026)"><path d="M361.492,118.934a3.136,3.136,0,1,1-3.445-2.794A3.137,3.137,0,0,1,361.492,118.934Z" transform="translate(-355.235 -116.123)" fill="#064578"/></g><g transform="translate(0.001)"><path d="M361.492,105.513a3.136,3.136,0,1,1-3.445-2.794A3.139,3.139,0,0,1,361.492,105.513Z" transform="translate(-355.235 -102.701)" fill="#064578"/></g><g transform="translate(0.001 25.512)"><path d="M361.492,112.223a3.136,3.136,0,1,1-3.445-2.794A3.135,3.135,0,0,1,361.492,112.223Z" transform="translate(-355.235 -109.412)" fill="#064578"/></g><g transform="translate(22.279 102.054)"><path d="M364.232,129.544a3.137,3.137,0,1,1-3.137,3.137A3.137,3.137,0,0,1,364.232,129.544Z" transform="translate(-361.095 -129.544)" fill="#064578"/></g><g transform="translate(22.281 76.541)"><path d="M367.351,125.645a3.136,3.136,0,1,1-3.445-2.794A3.137,3.137,0,0,1,367.351,125.645Z" transform="translate(-361.095 -122.834)" fill="#064578"/></g><g transform="translate(22.281 51.026)"><path d="M367.351,118.934a3.136,3.136,0,1,1-3.445-2.794A3.137,3.137,0,0,1,367.351,118.934Z" transform="translate(-361.095 -116.123)" fill="#064578"/></g><g transform="translate(22.281)"><path d="M367.351,105.513a3.136,3.136,0,1,1-3.445-2.794A3.139,3.139,0,0,1,367.351,105.513Z" transform="translate(-361.095 -102.701)" fill="#064578"/></g><g transform="translate(22.281 25.512)"><path d="M367.351,112.223a3.136,3.136,0,1,1-3.445-2.794A3.135,3.135,0,0,1,367.351,112.223Z" transform="translate(-361.095 -109.412)" fill="#064578"/></g></g></g><g transform="translate(-27.39 -124.504)"><g transform="translate(0.002 102.054)"><path d="M274.779,129.544a3.137,3.137,0,1,1-3.136,3.137A3.137,3.137,0,0,1,274.779,129.544Z" transform="translate(-271.643 -129.544)" fill="#064578"/></g><g transform="translate(0 76.541)"><path d="M277.9,125.645a3.136,3.136,0,1,1-3.445-2.794A3.132,3.132,0,0,1,277.9,125.645Z" transform="translate(-271.642 -122.834)" fill="#064578"/></g><g transform="translate(0 51.026)"><path d="M277.9,118.934a3.136,3.136,0,1,1-3.445-2.794A3.132,3.132,0,0,1,277.9,118.934Z" transform="translate(-271.642 -116.123)" fill="#064578"/></g><path d="M277.9,105.513a3.136,3.136,0,1,1-3.445-2.794A3.134,3.134,0,0,1,277.9,105.513Z" transform="translate(-271.642 -102.701)" fill="#064578"/><g transform="translate(0 25.512)"><path d="M277.9,112.223a3.136,3.136,0,1,1-3.445-2.794A3.13,3.13,0,0,1,277.9,112.223Z" transform="translate(-271.642 -109.412)" fill="#064578"/></g><g transform="translate(22.281 102.054)"><path d="M280.64,129.544a3.137,3.137,0,1,1-3.137,3.137A3.137,3.137,0,0,1,280.64,129.544Z" transform="translate(-277.503 -129.544)" fill="#064578"/></g><g transform="translate(22.282 76.541)"><path d="M283.76,125.645a3.136,3.136,0,1,1-3.444-2.794A3.137,3.137,0,0,1,283.76,125.645Z" transform="translate(-277.503 -122.834)" fill="#064578"/></g><g transform="translate(22.282 51.026)"><path d="M283.76,118.934a3.136,3.136,0,1,1-3.444-2.794A3.137,3.137,0,0,1,283.76,118.934Z" transform="translate(-277.503 -116.123)" fill="#064578"/></g><g transform="translate(22.282)"><path d="M283.76,105.513a3.136,3.136,0,1,1-3.444-2.794A3.139,3.139,0,0,1,283.76,105.513Z" transform="translate(-277.503 -102.701)" fill="#064578"/></g><g transform="translate(22.282 25.512)"><path d="M283.76,112.223a3.136,3.136,0,1,1-3.444-2.794A3.135,3.135,0,0,1,283.76,112.223Z" transform="translate(-277.503 -109.412)" fill="#064578"/></g><g transform="translate(46.001)"><g transform="translate(0 102.054)"><path d="M286.878,129.544a3.137,3.137,0,1,1-3.136,3.137A3.137,3.137,0,0,1,286.878,129.544Z" transform="translate(-283.742 -129.544)" fill="#064578"/></g><g transform="translate(0.001 76.541)"><path d="M290,125.645a3.136,3.136,0,1,1-3.445-2.794A3.137,3.137,0,0,1,290,125.645Z" transform="translate(-283.742 -122.834)" fill="#064578"/></g><g transform="translate(0.001 51.026)"><path d="M290,118.934a3.136,3.136,0,1,1-3.445-2.794A3.137,3.137,0,0,1,290,118.934Z" transform="translate(-283.742 -116.123)" fill="#064578"/></g><g transform="translate(0.001)"><path d="M290,105.513a3.136,3.136,0,1,1-3.445-2.794A3.139,3.139,0,0,1,290,105.513Z" transform="translate(-283.742 -102.701)" fill="#064578"/></g><g transform="translate(0.001 25.512)"><path d="M290,112.223a3.136,3.136,0,1,1-3.445-2.794A3.135,3.135,0,0,1,290,112.223Z" transform="translate(-283.742 -109.412)" fill="#064578"/></g><g transform="translate(22.283 102.054)"><path d="M292.736,129.544a3.137,3.137,0,1,1-3.133,3.137A3.137,3.137,0,0,1,292.736,129.544Z" transform="translate(-289.603 -129.544)" fill="#064578"/></g><g transform="translate(22.281 76.541)"><path d="M295.858,125.645a3.136,3.136,0,1,1-3.444-2.794A3.137,3.137,0,0,1,295.858,125.645Z" transform="translate(-289.602 -122.834)" fill="#064578"/></g><g transform="translate(22.281 51.026)"><path d="M295.858,118.934a3.136,3.136,0,1,1-3.444-2.794A3.137,3.137,0,0,1,295.858,118.934Z" transform="translate(-289.602 -116.123)" fill="#064578"/></g><g transform="translate(22.281)"><path d="M295.858,105.513a3.136,3.136,0,1,1-3.444-2.794A3.139,3.139,0,0,1,295.858,105.513Z" transform="translate(-289.602 -102.701)" fill="#064578"/></g><g transform="translate(22.281 25.512)"><path d="M295.858,112.223a3.136,3.136,0,1,1-3.444-2.794A3.135,3.135,0,0,1,295.858,112.223Z" transform="translate(-289.602 -109.412)" fill="#064578"/></g></g><g transform="translate(87.908)"><g transform="translate(0.002 102.054)"><path d="M297.9,129.544a3.137,3.137,0,1,1-3.136,3.137A3.137,3.137,0,0,1,297.9,129.544Z" transform="translate(-294.765 -129.544)" fill="#064578"/></g><g transform="translate(0 76.541)"><path d="M301.021,125.645a3.136,3.136,0,1,1-3.445-2.794A3.132,3.132,0,0,1,301.021,125.645Z" transform="translate(-294.765 -122.834)" fill="#064578"/></g><g transform="translate(0 51.026)"><path d="M301.021,118.934a3.136,3.136,0,1,1-3.445-2.794A3.132,3.132,0,0,1,301.021,118.934Z" transform="translate(-294.765 -116.123)" fill="#064578"/></g><path d="M301.021,105.513a3.136,3.136,0,1,1-3.445-2.794A3.134,3.134,0,0,1,301.021,105.513Z" transform="translate(-294.765 -102.701)" fill="#064578"/><g transform="translate(0 25.512)"><path d="M301.021,112.223a3.136,3.136,0,1,1-3.445-2.794A3.13,3.13,0,0,1,301.021,112.223Z" transform="translate(-294.765 -109.412)" fill="#064578"/></g><g transform="translate(22.281 102.054)"><path d="M303.762,129.544a3.137,3.137,0,1,1-3.137,3.137A3.137,3.137,0,0,1,303.762,129.544Z" transform="translate(-300.625 -129.544)" fill="#064578"/></g><g transform="translate(22.283 76.541)"><path d="M306.882,125.645a3.136,3.136,0,1,1-3.445-2.794A3.137,3.137,0,0,1,306.882,125.645Z" transform="translate(-300.625 -122.834)" fill="#064578"/></g><g transform="translate(22.283 51.026)"><path d="M306.882,118.934a3.136,3.136,0,1,1-3.445-2.794A3.137,3.137,0,0,1,306.882,118.934Z" transform="translate(-300.625 -116.123)" fill="#064578"/></g><g transform="translate(22.283)"><path d="M306.882,105.513a3.136,3.136,0,1,1-3.445-2.794A3.139,3.139,0,0,1,306.882,105.513Z" transform="translate(-300.625 -102.701)" fill="#064578"/></g><g transform="translate(22.283 25.512)"><path d="M306.882,112.223a3.136,3.136,0,1,1-3.445-2.794A3.135,3.135,0,0,1,306.882,112.223Z" transform="translate(-300.625 -109.412)" fill="#064578"/></g></g><g transform="translate(133.91)"><g transform="translate(0 102.054)"><path d="M310,129.544a3.137,3.137,0,1,1-3.136,3.137A3.137,3.137,0,0,1,310,129.544Z" transform="translate(-306.864 -129.544)" fill="#064578"/></g><g transform="translate(0.001 76.541)"><path d="M313.121,125.645a3.136,3.136,0,1,1-3.445-2.794A3.137,3.137,0,0,1,313.121,125.645Z" transform="translate(-306.864 -122.834)" fill="#064578"/></g><g transform="translate(0.001 51.026)"><path d="M313.121,118.934a3.136,3.136,0,1,1-3.445-2.794A3.137,3.137,0,0,1,313.121,118.934Z" transform="translate(-306.864 -116.123)" fill="#064578"/></g><g transform="translate(0.001)"><path d="M313.121,105.513a3.136,3.136,0,1,1-3.445-2.794A3.139,3.139,0,0,1,313.121,105.513Z" transform="translate(-306.864 -102.701)" fill="#064578"/></g><g transform="translate(0.001 25.512)"><path d="M313.121,112.223a3.136,3.136,0,1,1-3.445-2.794A3.135,3.135,0,0,1,313.121,112.223Z" transform="translate(-306.864 -109.412)" fill="#064578"/></g><g transform="translate(22.283 102.054)"><path d="M315.858,129.544a3.137,3.137,0,1,1-3.133,3.137A3.137,3.137,0,0,1,315.858,129.544Z" transform="translate(-312.725 -129.544)" fill="#064578"/></g><g transform="translate(22.281 76.541)"><path d="M318.98,125.645a3.136,3.136,0,1,1-3.445-2.794A3.137,3.137,0,0,1,318.98,125.645Z" transform="translate(-312.724 -122.834)" fill="#064578"/></g><g transform="translate(22.281 51.026)"><path d="M318.98,118.934a3.136,3.136,0,1,1-3.445-2.794A3.137,3.137,0,0,1,318.98,118.934Z" transform="translate(-312.724 -116.123)" fill="#064578"/></g><g transform="translate(22.281)"><path d="M318.98,105.513a3.136,3.136,0,1,1-3.445-2.794A3.139,3.139,0,0,1,318.98,105.513Z" transform="translate(-312.724 -102.701)" fill="#064578"/></g><g transform="translate(22.281 25.512)"><path d="M318.98,112.223a3.136,3.136,0,1,1-3.445-2.794A3.135,3.135,0,0,1,318.98,112.223Z" transform="translate(-312.724 -109.412)" fill="#064578"/></g></g></g></g></g></g></svg>