<svg xmlns="http://www.w3.org/2000/svg" width="73.275" height="62.971" viewBox="0 0 73.275 62.971"><g transform="translate(0 -36)"><path d="M227.449,221.725a5.725,5.725,0,1,0-5.725,5.725A5.731,5.731,0,0,0,227.449,221.725Zm-5.725,2.862a2.862,2.862,0,1,1,2.862-2.862A2.866,2.866,0,0,1,221.725,224.587Z" transform="translate(-185.087 -154.239)" fill="#22cde4"/><path d="M10.018,98.971H30.2a1.431,1.431,0,1,0,0-2.862H10.018a7.168,7.168,0,0,1-7.012-5.726H70.269a7.168,7.168,0,0,1-7.012,5.726H43.078a1.431,1.431,0,0,0,0,2.862H63.257A10.029,10.029,0,0,0,73.275,88.953a1.431,1.431,0,0,0-1.431-1.431H66.835V50.312A1.431,1.431,0,0,0,65.4,48.88H55.243V37.431a1.431,1.431,0,0,0-2.225-1.191l-10.655,7.1V37.431A1.431,1.431,0,0,0,40.931,36H19.464a1.431,1.431,0,0,0-1.431,1.431V48.88H7.871A1.431,1.431,0,0,0,6.44,50.312v37.21H1.431A1.431,1.431,0,0,0,0,88.953,10.029,10.029,0,0,0,10.018,98.971ZM43.793,87.522H29.482V83.228a7.156,7.156,0,0,1,14.312,0ZM52.38,40.105V51.931l-8.869-5.913ZM20.895,38.862H39.5V53.174H20.895ZM9.3,51.743h8.73v2.862a1.431,1.431,0,0,0,1.431,1.431H40.931a1.431,1.431,0,0,0,1.431-1.431V48.692l10.655,7.1a1.431,1.431,0,0,0,2.225-1.191V51.743h8.73V87.522H46.656V83.228a10.018,10.018,0,0,0-20.036,0v4.293H9.3Z" fill="#22cde4"/><ellipse cx="1.5" cy="1" rx="1.5" ry="1" transform="translate(35 96.616)" fill="#22cde4"/></g></svg>