<svg xmlns="http://www.w3.org/2000/svg" width="282" height="137.294" viewBox="0 0 282 137.294"><g transform="translate(-635.239 -310.73)"><g transform="translate(635.239 310.73)"><path d="M687.664,335.912,660.329,317.8l-21.553,16.856-3.537-4.523,24.815-19.4,27.374,18.142,23.739-18.142L738,328.872l24.28-18.139,26.3,18.139L813.4,310.733l25.752,18.139,25.365-18.139,25.208,18.139,24.221-16.959,3.291,4.7-27.556,19.3L864.508,317.8l-25.331,18.117L813.465,317.8l-24.79,18.117L762.419,317.8l-24.247,18.117-26.8-18.114Z" transform="translate(-635.239 -310.73)" fill="#064578"/></g><g transform="translate(635.239 348.102)"><path d="M687.664,348.934,660.329,330.82l-21.553,16.855-3.537-4.523,24.815-19.4,27.374,18.142,23.739-18.142L738,341.893l24.28-18.139,26.3,18.139L813.4,323.754l25.752,18.139,25.365-18.139,25.208,18.139,24.221-16.959,3.291,4.7-27.556,19.3-25.175-18.117-25.331,18.117-25.712-18.117-24.79,18.117-26.256-18.117-24.247,18.117-26.8-18.114Z" transform="translate(-635.239 -323.751)" fill="#064578"/></g><g transform="translate(635.239 385.47)"><path d="M687.664,361.954,660.329,343.84,638.776,360.7l-3.537-4.523,24.815-19.4,27.374,18.142,23.739-18.142L738,354.914l24.28-18.139,26.3,18.139L813.4,336.775l25.752,18.139,25.365-18.139,25.208,18.139,24.221-16.959,3.291,4.7-27.556,19.3-25.175-18.117-25.331,18.117-25.712-18.117-24.79,18.117-26.256-18.117-24.247,18.117-26.8-18.114Z" transform="translate(-635.239 -336.772)" fill="#064578"/></g><g transform="translate(635.239 422.842)"><path d="M687.664,374.976l-27.335-18.114-21.553,16.856-3.537-4.524,24.815-19.4,27.374,18.142,23.739-18.142L738,367.935l24.28-18.139,26.3,18.139L813.4,349.8l25.752,18.139L864.52,349.8l25.208,18.139,24.221-16.959,3.291,4.7-27.556,19.3-25.175-18.117-25.331,18.117-25.712-18.117-24.79,18.117-26.256-18.117-24.247,18.117-26.8-18.114Z" transform="translate(-635.239 -349.793)" fill="#064578"/></g></g></svg>