<svg xmlns="http://www.w3.org/2000/svg" width="16.081" height="16.082" viewBox="0 0 16.081 16.082"><path d="M13.7,11.682l-.006.05c-1.473-.734-1.628-.832-1.818-.547-.132.2-.517.646-.633.779s-.234.141-.433.05a5.438,5.438,0,0,1-1.61-1A6.079,6.079,0,0,1,8.091,9.633c-.2-.339.214-.387.588-1.095a.368.368,0,0,0-.017-.351c-.05-.1-.45-1.085-.618-1.478s-.326-.342-.45-.342a1,1,0,0,0-.917.23c-1.081,1.189-.809,2.415.117,3.719,1.819,2.38,2.787,2.818,4.559,3.427a2.772,2.772,0,0,0,1.26.081,2.062,2.062,0,0,0,1.351-.956,1.659,1.659,0,0,0,.121-.955C14.035,11.823,13.9,11.773,13.7,11.682Z" transform="translate(-1.972 -2.096)" fill="#fff"/><path d="M13.75,2.311A8.043,8.043,0,0,0,.068,7.969a7.931,7.931,0,0,0,1.069,3.984L0,16.081l4.245-1.107a8.021,8.021,0,0,0,11.837-7A7.9,7.9,0,0,0,13.74,2.337Zm.993,5.64a6.671,6.671,0,0,1-10.059,5.7l-.241-.143-2.513.653L2.6,11.717l-.16-.251a6.646,6.646,0,0,1,10.35-8.2,6.559,6.559,0,0,1,1.949,4.684Z" transform="translate(0 0)" fill="#fff"/></svg>