<svg xmlns="http://www.w3.org/2000/svg" width="73.242" height="73.207" viewBox="0 0 73.242 73.207"><g transform="translate(-0.001 -0.121)"><circle cx="1.43" cy="1.43" r="1.43" transform="translate(35.192 61.889)" fill="#22cde4"/><path d="M201.122,209.985a7.864,7.864,0,1,0,7.864-7.864A7.873,7.873,0,0,0,201.122,209.985Zm12.868,0a5,5,0,1,1-5-5A5.01,5.01,0,0,1,213.99,209.985Z" transform="translate(-172.364 -173.118)" fill="#22cde4"/><circle cx="1.43" cy="1.43" r="1.43" transform="translate(35.192 70.468)" fill="#22cde4"/><path d="M71.9,337.858H59.6V335a5.726,5.726,0,0,0-5.719-5.719c-.106,0-.211.005-.316.011l1.7-6.814a1.43,1.43,0,0,0-1.387-1.777H50.92a10.023,10.023,0,0,0-9.9-8.579H32.436a10.023,10.023,0,0,0-9.9,8.579H19.568a1.43,1.43,0,0,0-1.387,1.777l1.7,6.814c-.105-.006-.21-.011-.316-.011A5.726,5.726,0,0,0,13.848,335v2.86H1.552a1.43,1.43,0,1,0,0,2.86H30.291a1.43,1.43,0,1,0,0-2.86H24.973L21.4,323.56H52.052l-3.575,14.3H43.16a1.43,1.43,0,1,0,0,2.86H71.9a1.43,1.43,0,1,0,0-2.86Zm-55.191,0V335a2.857,2.857,0,0,1,3.942-2.646l1.376,5.505Zm15.728-22.877h8.579A7.161,7.161,0,0,1,48.02,320.7H25.431a7.161,7.161,0,0,1,7.005-5.719ZM52.8,332.353A2.857,2.857,0,0,1,56.743,335v2.86H51.425Z" transform="translate(-0.104 -267.389)" fill="#22cde4"/><path d="M1.552,23H35.868a1.43,1.43,0,1,0,0-2.86h-2.86V5.84a1.43,1.43,0,0,0-1.43-1.43H24.429V1.551A1.43,1.43,0,0,0,23,.121H14.42a1.43,1.43,0,0,0-1.43,1.43V8.7H5.841a1.43,1.43,0,0,0-1.43,1.43V20.139H1.552a1.43,1.43,0,1,0,0,2.86ZM30.148,7.27V20.139H24.429V7.27ZM15.85,2.981h5.719V20.139H15.85ZM7.271,11.56H12.99v8.579H7.271Z" transform="translate(-0.104)" fill="#22cde4"/><path d="M5.72,245.682a5.726,5.726,0,0,0,5.719-5.719V221.318c3.008,2.346,6.369,5.618,6.585,7.808a1.413,1.413,0,0,1-.447,1.247,1.43,1.43,0,0,0,2.022,2.022,4.28,4.28,0,0,0,1.27-3.551c-.5-5-9.089-10.866-10.067-11.518a1.43,1.43,0,0,0-2.223,1.19v16.5a5.718,5.718,0,1,0-2.86,10.669Zm0-8.579a2.86,2.86,0,1,1-2.86,2.86A2.863,2.863,0,0,1,5.72,237.1Z" transform="translate(0 -185.942)" fill="#22cde4"/><path d="M371.842,88.717A5.726,5.726,0,0,0,377.561,83V64.353c3.008,2.346,6.369,5.618,6.585,7.808a1.413,1.413,0,0,1-.447,1.247,1.43,1.43,0,1,0,2.022,2.022,4.28,4.28,0,0,0,1.27-3.551c-.5-5-9.089-10.866-10.067-11.518a1.43,1.43,0,0,0-2.223,1.19v16.5a5.718,5.718,0,1,0-2.86,10.669Zm0-8.579a2.86,2.86,0,1,1-2.86,2.86A2.863,2.863,0,0,1,371.842,80.138Z" transform="translate(-313.773 -51.42)" fill="#22cde4"/></g></svg>