<svg xmlns="http://www.w3.org/2000/svg" width="157.749" height="207.718" viewBox="0 0 157.749 207.718"><g transform="translate(-33.264 -114.929)"><g transform="translate(33.264 114.929)"><path d="M53.5,130.873l-5.826-5.826,5.826-5.826-4.293-4.293-5.826,5.826-5.826-5.826-4.292,4.293,5.826,5.826-5.826,5.826,4.292,4.293,5.826-5.826,5.826,5.826Z" transform="translate(-33.264 -114.929)" fill="#fd8023"/></g><g transform="translate(79.101 114.929)"><path d="M69.511,130.873l-5.826-5.826,5.826-5.826-4.293-4.293-5.826,5.826-5.826-5.826-4.293,4.293,5.826,5.826-5.826,5.826,4.293,4.293,5.826-5.826,5.826,5.826Z" transform="translate(-49.274 -114.929)" fill="#fd8023"/></g><g transform="translate(124.938 114.929)"><path d="M85.521,130.873,79.7,125.048l5.826-5.826-4.293-4.293L75.4,120.755l-5.826-5.826-4.293,4.293,5.826,5.826-5.826,5.826,4.293,4.293,5.826-5.826,5.826,5.826Z" transform="translate(-65.284 -114.929)" fill="#fd8023"/></g><g transform="translate(170.776 114.929)"><path d="M101.532,130.873l-5.826-5.826,5.826-5.826-4.293-4.293-5.826,5.826-5.826-5.826-4.293,4.293,5.826,5.826-5.826,5.826,4.293,4.293,5.826-5.826,5.826,5.826Z" transform="translate(-81.295 -114.929)" fill="#fd8023"/></g><g transform="translate(33.264 164.871)"><path d="M53.5,148.318l-5.826-5.826,5.826-5.826-4.293-4.293L43.382,138.2l-5.826-5.826-4.292,4.293,5.826,5.826-5.826,5.826,4.292,4.293,5.826-5.826,5.826,5.826Z" transform="translate(-33.264 -132.373)" fill="#fd8023"/></g><g transform="translate(79.101 164.871)"><path d="M69.511,148.318l-5.826-5.826,5.826-5.826-4.293-4.293L59.393,138.2l-5.826-5.826-4.293,4.293,5.826,5.826-5.826,5.826,4.293,4.293,5.826-5.826,5.826,5.826Z" transform="translate(-49.274 -132.373)" fill="#fd8023"/></g><g transform="translate(124.938 164.871)"><path d="M85.521,148.318,79.7,142.492l5.826-5.826-4.293-4.293L75.4,138.2l-5.826-5.826-4.293,4.293,5.826,5.826-5.826,5.826,4.293,4.293,5.826-5.826,5.826,5.826Z" transform="translate(-65.284 -132.373)" fill="#fd8023"/></g><g transform="translate(170.776 164.871)"><path d="M101.532,148.318l-5.826-5.826,5.826-5.826-4.293-4.293L91.413,138.2l-5.826-5.826-4.293,4.293,5.826,5.826-5.826,5.826,4.293,4.293,5.826-5.826,5.826,5.826Z" transform="translate(-81.295 -132.373)" fill="#fd8023"/></g><g transform="translate(33.264 211.132)"><path d="M53.5,164.476l-5.826-5.826,5.826-5.826-4.293-4.293-5.826,5.826-5.826-5.826-4.292,4.293,5.826,5.826-5.826,5.826,4.292,4.293,5.826-5.826,5.826,5.826Z" transform="translate(-33.264 -148.531)" fill="#fd8023"/></g><g transform="translate(79.101 211.132)"><path d="M69.511,164.476l-5.826-5.826,5.826-5.826-4.293-4.293-5.826,5.826-5.826-5.826-4.293,4.293L55.1,158.65l-5.826,5.826,4.293,4.293,5.826-5.826,5.826,5.826Z" transform="translate(-49.274 -148.531)" fill="#fd8023"/></g><g transform="translate(124.938 211.132)"><path d="M85.521,164.476,79.7,158.65l5.826-5.826-4.293-4.293L75.4,154.357l-5.826-5.826-4.293,4.293,5.826,5.826-5.826,5.826,4.293,4.293,5.826-5.826,5.826,5.826Z" transform="translate(-65.284 -148.531)" fill="#fd8023"/></g><g transform="translate(170.776 211.132)"><path d="M101.532,164.476l-5.826-5.826,5.826-5.826-4.293-4.293-5.826,5.826-5.826-5.826-4.293,4.293,5.826,5.826-5.826,5.826,4.293,4.293,5.826-5.826,5.826,5.826Z" transform="translate(-81.295 -148.531)" fill="#fd8023"/></g><g transform="translate(33.264 261.074)"><path d="M53.5,181.92l-5.826-5.826,5.826-5.826-4.293-4.293L43.382,171.8l-5.826-5.826-4.292,4.293,5.826,5.826-5.826,5.826,4.292,4.293,5.826-5.826,5.826,5.826Z" transform="translate(-33.264 -165.975)" fill="#fd8023"/></g><g transform="translate(79.101 261.074)"><path d="M69.511,181.92l-5.826-5.826,5.826-5.826-4.293-4.293L59.393,171.8l-5.826-5.826-4.293,4.293,5.826,5.826-5.826,5.826,4.293,4.293,5.826-5.826,5.826,5.826Z" transform="translate(-49.274 -165.975)" fill="#fd8023"/></g><g transform="translate(124.938 261.074)"><path d="M85.521,181.92,79.7,176.094l5.826-5.826-4.293-4.293L75.4,171.8l-5.826-5.826-4.293,4.293,5.826,5.826-5.826,5.826,4.293,4.293,5.826-5.826,5.826,5.826Z" transform="translate(-65.284 -165.975)" fill="#fd8023"/></g><g transform="translate(170.776 261.074)"><path d="M101.532,181.92l-5.826-5.826,5.826-5.826-4.293-4.293L91.413,171.8l-5.826-5.826-4.293,4.293,5.826,5.826-5.826,5.826,4.293,4.293,5.826-5.826,5.826,5.826Z" transform="translate(-81.295 -165.975)" fill="#fd8023"/></g><g transform="translate(33.264 302.409)"><path d="M53.5,196.358l-5.826-5.826,5.826-5.826-4.293-4.293-5.826,5.826-5.826-5.826-4.292,4.293,5.826,5.826-5.826,5.826,4.292,4.293,5.826-5.826,5.826,5.826Z" transform="translate(-33.264 -180.413)" fill="#fd8023"/></g><g transform="translate(79.101 302.409)"><path d="M69.511,196.358l-5.826-5.826,5.826-5.826-4.293-4.293-5.826,5.826-5.826-5.826-4.293,4.293,5.826,5.826-5.826,5.826,4.293,4.293,5.826-5.826,5.826,5.826Z" transform="translate(-49.274 -180.413)" fill="#fd8023"/></g><g transform="translate(124.938 302.409)"><path d="M85.521,196.358,79.7,190.532l5.826-5.826-4.293-4.293L75.4,186.239l-5.826-5.826-4.293,4.293,5.826,5.826-5.826,5.826,4.293,4.293,5.826-5.826,5.826,5.826Z" transform="translate(-65.284 -180.413)" fill="#fd8023"/></g><g transform="translate(170.776 302.409)"><path d="M101.532,196.358l-5.826-5.826,5.826-5.826-4.293-4.293-5.826,5.826-5.826-5.826-4.293,4.293,5.826,5.826-5.826,5.826,4.293,4.293,5.826-5.826,5.826,5.826Z" transform="translate(-81.295 -180.413)" fill="#fd8023"/></g></g></svg>