<svg xmlns="http://www.w3.org/2000/svg" width="21.286" height="16.122" viewBox="0 0 21.286 16.122"><path d="M196.926,109.2l-4.7-2.573a.864.864,0,0,0-1.278.758v5.1a.862.862,0,0,0,1.273.761l4.7-2.529a.864.864,0,0,0,.005-1.519Zm-4.734,2.645v-3.813l3.515,1.923Zm0,0" transform="translate(-183.007 -102.095)" fill="#fff"/><path d="M21.13,3.805V3.8a4.868,4.868,0,0,0-.938-2.47A3.464,3.464,0,0,0,17.9.249L17.79.237l-.037,0C14.939.028,10.689,0,10.647,0h-.007C10.6,0,6.347.028,3.508.233l-.038,0-.1.012A3.376,3.376,0,0,0,1.09,1.358,5.1,5.1,0,0,0,.159,3.783l0,.022C.15,3.877,0,5.574,0,7.278V8.87c0,1.7.15,3.4.157,3.473v.011a4.82,4.82,0,0,0,.935,2.44,3.535,3.535,0,0,0,2.371,1.06c.087.01.161.018.212.027l.049.007c1.625.155,6.719.231,6.935.234h.013c.043,0,4.292-.028,7.106-.233l.037,0,.119-.013A3.3,3.3,0,0,0,20.2,14.79a5.1,5.1,0,0,0,.931-2.426l0-.022c.006-.071.157-1.769.157-3.472V7.278C21.286,5.574,21.136,3.877,21.13,3.805ZM20.039,8.87c0,1.577-.138,3.2-.151,3.35a3.96,3.96,0,0,1-.612,1.728,2.051,2.051,0,0,1-1.472.683l-.133.015c-2.722.2-6.811.227-7,.228-.211,0-5.231-.08-6.806-.226-.081-.013-.168-.023-.26-.034a2.332,2.332,0,0,1-1.6-.666L2,13.936a3.593,3.593,0,0,1-.6-1.711c-.01-.113-.151-1.756-.151-3.355V7.278c0-1.575.137-3.2.151-3.35A3.88,3.88,0,0,1,2.01,2.2a2.152,2.152,0,0,1,1.5-.711l.1-.012c2.761-.2,6.88-.227,7.028-.228s4.265.031,7,.228l.11.013a2.234,2.234,0,0,1,1.528.692l.005.005a3.651,3.651,0,0,1,.6,1.736c.009.106.151,1.753.151,3.356Zm0,0" transform="translate(0)" fill="#fff"/></svg>