<svg xmlns="http://www.w3.org/2000/svg" width="89.187" height="67.032" viewBox="0 0 89.187 67.032"><g transform="translate(-915.813 -10779.484)"><rect width="17" height="31" rx="2" transform="translate(952 10781)" fill="#d71415"/><g transform="translate(915.813 10910.111) rotate(-90)"><path d="M130.627,44.6a1.308,1.308,0,0,0-1-1.271V39.959a3.815,3.815,0,0,0-1.631-6.207V15.33a3.674,3.674,0,0,0,2.2-3.362V3.67A3.674,3.674,0,0,0,126.523,0h-8.3a3.674,3.674,0,0,0-3.364,2.208H71.538a4.9,4.9,0,0,0-4.89,4.89v6.45h-.407A2.65,2.65,0,0,0,63.6,16.195V27.946a2.65,2.65,0,0,0,2.647,2.647h.407V58.6h-.407A2.65,2.65,0,0,0,63.6,61.246V73a2.65,2.65,0,0,0,2.647,2.647h.407v6.451a4.9,4.9,0,0,0,4.89,4.89h31.673a1.308,1.308,0,0,0,0-2.617H79.4V75.644h2.125a3.37,3.37,0,0,0,2.752-1.428l3.632-5.156a3.373,3.373,0,0,0,0-3.877l-3.632-5.156A3.37,3.37,0,0,0,81.529,58.6H79.4V30.593h2.125a3.37,3.37,0,0,0,2.752-1.428l3.632-5.156a3.374,3.374,0,0,0,0-3.878l-3.632-5.156a3.37,3.37,0,0,0-2.752-1.428H79.4V4.824h35.151s.043,2.4.126,2.9a1.308,1.308,0,0,0,2.582-.425c-.06-.368-.091-3.632-.091-3.632a1.055,1.055,0,0,1,1.054-1.054h8.3a1.055,1.055,0,0,1,1.054,1.054v8.3a1.055,1.055,0,0,1-1.054,1.054h-2.512a6.8,6.8,0,0,1-3.9-1.222,1.308,1.308,0,1,0-1.5,2.147,9.4,9.4,0,0,0,5.4,1.691h1.363V33.564H117.6a5.884,5.884,0,0,0-4.8,2.492l-.012.018H100.4a2.985,2.985,0,0,0-2.981,2.981V50.137a2.985,2.985,0,0,0,2.981,2.981h12.384l.013.018a5.883,5.883,0,0,0,4.8,2.492h7.773V73.549h-1.363a9.467,9.467,0,0,0-9.456,9.456v1.363h-4.972a1.308,1.308,0,0,0,0,2.617h5.281a3.674,3.674,0,0,0,3.362,2.2h8.3a3.675,3.675,0,0,0,3.67-3.67v-8.3a3.674,3.674,0,0,0-2.2-3.362V55.44a3.815,3.815,0,0,0,1.631-6.207V45.867a1.308,1.308,0,0,0,1-1.271ZM69.265,7.1a2.276,2.276,0,0,1,2.273-2.273h5.249v8.724H69.265ZM66.212,20.485H77.65a1.585,1.585,0,0,1,0,3.17H66.212ZM76.788,84.368H71.538a2.276,2.276,0,0,1-2.273-2.273V75.644h7.523v8.724Zm4.741-23.152a.75.75,0,0,1,.613.318l3.632,5.156a.751.751,0,0,1,0,.863L82.142,72.71a.751.751,0,0,1-.613.318H66.242a.03.03,0,0,1-.03-.03V71.324H77.65a4.2,4.2,0,0,0,0-8.4H71.38a1.308,1.308,0,0,0,0,2.617H77.65a1.585,1.585,0,0,1,0,3.17H66.212V61.246a.03.03,0,0,1,.03-.03H81.529ZM69.265,58.6V30.593h7.523V58.6ZM81.529,16.165a.75.75,0,0,1,.613.318l3.632,5.156a.751.751,0,0,1,0,.863l-3.632,5.156a.751.751,0,0,1-.613.318H66.242a.03.03,0,0,1-.03-.03V26.272H77.65a4.2,4.2,0,0,0,0-8.4H66.212V16.195a.03.03,0,0,1,.03-.03H81.529ZM100.4,50.5a.365.365,0,0,1-.365-.365V39.055a.365.365,0,0,1,.365-.365h10.54l-1.777,2.522a5.889,5.889,0,0,0,0,6.768l1.776,2.522Zm27.175,35.015a1.055,1.055,0,0,1-1.054,1.054h-8.3a1.055,1.055,0,0,1-1.054-1.054V83.005a6.847,6.847,0,0,1,6.839-6.839h2.512a1.055,1.055,0,0,1,1.054,1.054v8.3ZM121.036,45.9h5.97V48q-.1,0-.2-.005h-8.293l-2.392-3.4,2.392-3.4h8.293q.1,0,.2-.005v2.093h-5.97a1.308,1.308,0,0,0,0,2.617Zm5.772-7.321h-8.7a1.833,1.833,0,0,0-1.5.777l-2.945,4.181a1.835,1.835,0,0,0,0,2.11l2.945,4.18a1.833,1.833,0,0,0,1.5.777h8.7a1.2,1.2,0,1,1,0,2.4H117.6a3.263,3.263,0,0,1-2.664-1.382l-3.632-5.156a3.266,3.266,0,0,1,0-3.754l3.632-5.156a3.263,3.263,0,0,1,2.665-1.382h9.206a1.2,1.2,0,1,1,0,2.4Z"/><circle cx="1.766" cy="1.766" r="1.766" transform="translate(102.637 42.83)"/></g></g></svg>