<svg xmlns="http://www.w3.org/2000/svg" width="104.033" height="104.026" viewBox="0 0 104.033 104.026"><g transform="translate(0 -0.017)"><path d="M166.5,243.268a3.251,3.251,0,1,0-3.251,3.251A3.254,3.254,0,0,0,166.5,243.268Z" transform="translate(-127.492 -191.238)" fill="#d71415"/><path d="M323.251,240.017a3.251,3.251,0,1,0,3.251,3.251A3.254,3.254,0,0,0,323.251,240.017Z" transform="translate(-254.984 -191.238)" fill="#d71415"/><path d="M97.567,30.287a1.625,1.625,0,0,0,.124-1.849c-.662-1.1.813-3.75,2.375-6.552.819-1.47,1.748-3.136,2.581-4.93,1.962-4.227,1.835-8.614-.349-12.037a10.71,10.71,0,0,0-9.252-4.9c-5.766,0-8.433,4.435-10.785,8.348a21.157,21.157,0,0,1-3.613,4.926A66.934,66.934,0,0,0,52.013,8.144a67.114,67.114,0,0,0-26.365,5.034,22.191,22.191,0,0,1-3.485-4.813C19.811,4.452,17.144.017,11.378.017a10.71,10.71,0,0,0-9.252,4.9c-2.184,3.423-2.312,7.81-.349,12.037.833,1.794,1.762,3.461,2.581,4.93,1.562,2.8,3.037,5.449,2.375,6.552a1.622,1.622,0,0,0-.1,1.481A59.853,59.853,0,0,0,3.085,39.4,78.691,78.691,0,0,0,0,60.157C0,73.825,5.321,85.184,15.386,93.007a49.909,49.909,0,0,0,16.552,8.28,70.641,70.641,0,0,0,20.075,2.757,70.641,70.641,0,0,0,20.075-2.757,49.917,49.917,0,0,0,16.552-8.28c10.066-7.823,15.386-19.182,15.386-32.849A78.69,78.69,0,0,0,100.942,39.4,60.567,60.567,0,0,0,97.567,30.287ZM86.645,90.44c-8.59,6.676-20.889,10.353-34.632,10.353S25.971,97.116,17.381,90.44C8.137,83.256,3.251,72.784,3.251,60.157A75.3,75.3,0,0,1,6.21,40.3c2.056-7.154,4.872-12.74,7.929-15.728a1.625,1.625,0,0,0-2.272-2.325,21,21,0,0,0-2.325,2.73A37.566,37.566,0,0,0,7.2,20.3c-.831-1.49-1.69-3.031-2.472-4.717-1.486-3.2-1.434-6.451.141-8.919a7.518,7.518,0,0,1,6.512-3.4c3.928,0,5.815,3.138,8,6.772,2.214,3.682,4.724,7.856,9.88,7.856a1.625,1.625,0,0,0,.886-2.987,66.13,66.13,0,0,1,21.87-3.515A65.952,65.952,0,0,1,74.15,15,1.625,1.625,0,0,0,75.167,17.9c5.157,0,7.666-4.174,9.88-7.856,2.185-3.634,4.072-6.772,8-6.772a7.518,7.518,0,0,1,6.512,3.4c1.575,2.468,1.627,5.719.141,8.919-.783,1.686-1.642,3.226-2.472,4.717a33.65,33.65,0,0,0-2.48,5.046,21.5,21.5,0,0,0-2.584-3.1,1.625,1.625,0,1,0-2.273,2.325c3.057,2.988,5.872,8.573,7.927,15.727a75.314,75.314,0,0,1,2.958,19.855C100.775,72.784,95.889,83.256,86.645,90.44Z" fill="#d71415"/><path d="M412.212,50.171a1.625,1.625,0,0,0,1.635-2.809c-.778-.473-2.364-1.007-4.251.741a21.835,21.835,0,0,0-2.687,3.384c-1.641,2.345-3.5,5-5.6,5.423a1.625,1.625,0,1,0,.637,3.188c3.38-.676,5.736-4.042,7.629-6.746C410.339,52.254,411.6,50.448,412.212,50.171Z" transform="translate(-318.728 -37.356)" fill="#d71415"/><path d="M53.338,56.909c-2.1-.42-3.962-3.078-5.6-5.423A21.835,21.835,0,0,0,45.048,48.1c-1.888-1.747-3.474-1.214-4.251-.741a1.625,1.625,0,0,0,1.635,2.809c.609.277,1.873,2.083,2.64,3.18,1.893,2.7,4.248,6.07,7.629,6.746a1.625,1.625,0,0,0,.638-3.188Z" transform="translate(-31.889 -37.356)" fill="#d71415"/><path d="M197.194,273.191a1.626,1.626,0,0,0-2.712-.7,1.786,1.786,0,0,0-.193,2.16c.094.195.235.475.415.829,1.436,2.837,5.8,11.468,5.8,17.665,0,3.768-.612,6.171-1.872,7.345-1.556,1.45-4.4,1.251-8,1-1.014-.071-2.055-.141-3.13-.181,0-.012,0-.023,0-.035v-3.246c.357,0,.7,0,1.026,0,2.985,0,4.736-.124,5.94-1.321a4.823,4.823,0,0,0,1.161-3.563c0-4.481-4.375-8.127-9.752-8.127s-9.752,3.646-9.752,8.127a4.822,4.822,0,0,0,1.161,3.563c1.335,1.329,3.346,1.336,6.966,1.318v3.246c0,.012,0,.024,0,.036-1.093.042-2.149.115-3.179.19-3.579.259-6.406.463-7.952-.975-1.261-1.173-1.874-3.586-1.874-7.377,0-4.341,2.158-10.833,6.077-18.282a2.326,2.326,0,0,0,.424-1.223,1.626,1.626,0,0,0-3.128-.621c-.035.069-.094.18-.173.331-4.221,8.021-6.451,14.867-6.451,19.8,0,4.809.925,7.91,2.911,9.757.115.107.232.207.352.3.116,2.64,1.705,5.365,4.409,7.522a16.419,16.419,0,0,0,10.208,3.548c8.1,0,14.4-5.9,14.618-11.1.12-.1.239-.2.355-.306,1.983-1.848,2.906-4.938,2.906-9.723,0-6.973-4.471-15.807-6.154-19.133C197.44,273.689,197.271,273.354,197.194,273.191Zm-.409,1.6a1.624,1.624,0,0,0,.319-.456A1.6,1.6,0,0,1,196.785,274.787Zm-17.2,19.619c-.021-.021-.2-.232-.2-1.259,0-2.689,2.917-4.876,6.5-4.876s6.5,2.187,6.5,4.876c0,1.027-.183,1.238-.2,1.259-.394.392-2.63.381-4.793.371-.471,0-.972,0-1.506,0s-1.034,0-1.506,0C182.211,294.787,179.976,294.8,179.581,294.406Zm6.3,16.62c-5.436,0-9.632-3.292-10.945-6.282a15.993,15.993,0,0,0,2.567.184c1.224,0,2.5-.093,3.809-.187,1.474-.106,3-.217,4.568-.217,1.555,0,3.065.106,4.526.208a27.95,27.95,0,0,0,6.509-.026C195.484,308.461,189.851,311.026,185.88,311.026Z" transform="translate(-133.866 -216.735)" fill="#d71415"/><path d="M244.876,440.017h-3.251a1.625,1.625,0,1,0,0,3.251h3.251a1.625,1.625,0,1,0,0-3.251Z" transform="translate(-191.238 -350.602)" fill="#d71415"/></g></svg>