<svg xmlns="http://www.w3.org/2000/svg" width="59.849" height="76.287" viewBox="0 0 59.849 76.287"><g transform="translate(-1457.822 -10367)"><path d="M0,0H9V13L4.329,10.682,0,13Z" transform="translate(1472 10424)" fill="#d71415"/><g transform="translate(1374.99 10367)"><g transform="translate(82.832)"><path d="M151,390.1a1.7,1.7,0,0,0,1.777-.144l3.515-2.571,3.515,2.571h0a1.7,1.7,0,0,0,2.71-1.376v-12.51h9.843a1.114,1.114,0,1,0,0-2.228H148.346a1.114,1.114,0,1,0,0,2.228h1.723v12.51A1.7,1.7,0,0,0,151,390.1Zm9.29-2.552-3.339-2.442a1.114,1.114,0,0,0-1.315,0l-3.339,2.442V376.066h7.994Z" transform="translate(-137.636 -318.136)" fill="#323e4a"/><path d="M142.681,3.342A3.346,3.346,0,0,0,139.338,0H96.721A13.823,13.823,0,0,0,88.97,2.362,1.114,1.114,0,0,0,90.215,4.21a11.6,11.6,0,0,1,6.506-1.982H97.6v40.98a1.114,1.114,0,0,0,2.228,0V2.228h39.508a1.115,1.115,0,0,1,1.114,1.114V48.319H96.816A13.985,13.985,0,0,0,85.06,54.738V13.889a11.621,11.621,0,0,1,1.827-6.27,1.114,1.114,0,1,0-1.878-1.2,13.846,13.846,0,0,0-2.178,7.47s.007,49.079.019,49.143A14,14,0,0,0,96.816,76.288h44.332a1.53,1.53,0,0,0,1.143-2.548,17.25,17.25,0,0,1-2.284-3.242,1.114,1.114,0,0,0-1.957,1.065,19.427,19.427,0,0,0,1.618,2.5H96.816a11.756,11.756,0,1,1,0-23.512h42.851a19.443,19.443,0,0,0-3.566,15.7,1.114,1.114,0,1,0,2.182-.45,17.209,17.209,0,0,1,4.008-14.925,1.528,1.528,0,0,0,.369-1.245c.006-2.979.02-46.28.02-46.28Z" transform="translate(-82.832)" fill="#323e4a"/><path d="M297.738,407.978h14.038a1.114,1.114,0,0,0,0-2.228H297.738a1.114,1.114,0,1,0,0,2.228Z" transform="translate(-264.769 -345.294)" fill="#323e4a"/><path d="M220.169,140.065l.893-2.343h5.983l.883,2.34a1.114,1.114,0,1,0,2.085-.787l-4.639-12.292-.012-.031a1.392,1.392,0,0,0-1.292-.865h0a1.392,1.392,0,0,0-1.291.868l-.01.025-4.681,12.291a1.114,1.114,0,0,0,2.082.793Zm3.9-10.234,2.137,5.663H221.91Z" transform="translate(-197.871 -107.301)" fill="#323e4a"/><path d="M361.9,139.185a1.114,1.114,0,0,0,.987.6h9.086a1.114,1.114,0,1,0,0-2.228h-6.964l7.514-10.9a1.114,1.114,0,0,0-.917-1.747h-8.489a1.114,1.114,0,1,0,0,2.228h6.367l-7.514,10.9A1.114,1.114,0,0,0,361.9,139.185Z" transform="translate(-320.209 -106.299)" fill="#323e4a"/><path d="M314.374,163.714a1.114,1.114,0,0,0,0-2.228h-4.12a1.114,1.114,0,1,0,0,2.228Z" transform="translate(-275.42 -137.425)" fill="#323e4a"/></g></g></g></svg>