<svg xmlns="http://www.w3.org/2000/svg" width="83" height="87.288" viewBox="0 0 83 87.288"><g transform="translate(-1458 -10767)"><circle cx="9.5" cy="9.5" r="9.5" transform="translate(1494 10824)" fill="#d71415"/><circle cx="9.5" cy="9.5" r="9.5" transform="translate(1461 10824)" fill="#d71415"/><g transform="translate(1445.45 10767)"><g transform="translate(12.55 0)"><path d="M20.247,52.7a1.281,1.281,0,0,0,.325-.987L19.244,38.431a4.011,4.011,0,0,0-1.4-6.79V21.054l9.737,4.521v16.7c0,2.223,2.82,3.9,8.622,5.119a94.893,94.893,0,0,0,18.624,1.629A94.88,94.88,0,0,0,73.452,47.4c5.8-1.222,8.622-2.9,8.622-5.119v-16.7l11.557-5.366a1.281,1.281,0,0,0,0-2.324L84.3,13.551a1.281,1.281,0,0,0-1.079,2.324l6.83,3.171L54.828,35.4,22.366,20.328h31.1a1.281,1.281,0,0,0,0-2.562h-31.1L54.828,2.694,77.52,13.229A1.281,1.281,0,1,0,78.6,10.905L55.368.119a1.281,1.281,0,0,0-1.079,0L16.025,17.884a1.3,1.3,0,0,0-.742,1.162v12.6a4.011,4.011,0,0,0-1.4,6.79L12.556,51.716a1.294,1.294,0,0,0,1.275,1.409H19.3a1.282,1.282,0,0,0,.95-.421ZM54.828,38.093a1.28,1.28,0,0,0,.539-.119l24.144-11.21v15.5c-.112.369-1.63,1.636-7.065,2.722a94.288,94.288,0,0,1-17.618,1.476A94.288,94.288,0,0,1,37.21,44.987c-5.435-1.086-6.953-2.352-7.065-2.722v-15.5l24.144,11.21a1.282,1.282,0,0,0,.539.119Zm-38.264-4.1a1.452,1.452,0,1,1-1.452,1.452A1.454,1.454,0,0,1,16.564,33.993Zm-1.318,16.57,1.111-11.109q.1.005.207.005c.069,0,.138,0,.207-.005l1.111,11.109Z" transform="translate(-12.55 0)" fill="#323e4a"/><path d="M63.313,365.381a5.381,5.381,0,1,0-5.381,5.381A5.387,5.387,0,0,0,63.313,365.381Zm-8.2,0a2.819,2.819,0,1,1,2.819,2.819A2.822,2.822,0,0,1,55.113,365.381Z" transform="translate(-45.718 -298.505)" fill="#323e4a"/><path d="M100.9,337.566H96.829A10.861,10.861,0,0,0,86.06,328a1.276,1.276,0,0,0-.21.017c-.075.012-7.466,1.237-15.508,2.033a10.814,10.814,0,0,0-13.494.657c-3.642-.093-8.106-.441-13.283-1.038a1.281,1.281,0,1,0-.293,2.546c4.332.5,8.178.827,11.481.98a10.77,10.77,0,0,0-1.514,4.371H46.429a1.281,1.281,0,0,0-1.281,1.281c0,2.834-2.12,4.9-4.905,6.266a10.842,10.842,0,1,0-8.846,4.581A96.982,96.982,0,0,0,49.914,348.1c2.318-.393,4.516-.765,7.1-.972a10.9,10.9,0,0,0,1.609,1.127v9.72a1.294,1.294,0,0,0,1.686,1.215L64,357.963l3.695,1.231a1.294,1.294,0,0,0,1.686-1.215V348.26a10.905,10.905,0,0,0,.98-.634c1.748.234,3.461.505,5.12.77a73.543,73.543,0,0,0,11.479,1.235c.16,0,.32,0,.479,0,5.944-.086,14.739-3.571,14.739-10.78A1.281,1.281,0,0,0,100.9,337.566Zm-28.612,1.27s0,.007,0,.011,0,.007,0,.011a8.285,8.285,0,1,1,0-.022Zm-49.178.011a8.285,8.285,0,1,1,8.285,8.285A8.294,8.294,0,0,1,23.112,338.847Zm26.373,6.73c-1.953.331-4.025.682-6.54.966.239-.15.471-.3.693-.463a9.093,9.093,0,0,0,3.972-5.953h5.626a10.774,10.774,0,0,0,1.683,4.634c-1.9.218-3.634.51-5.435.815ZM66.824,356.2l-2.413-.8a1.282,1.282,0,0,0-.81,0l-2.413.8V349.32a10.816,10.816,0,0,0,5.637,0Zm20.585-9.136a68.5,68.5,0,0,1-11.519-1.2c-1.052-.168-2.127-.338-3.219-.5a10.79,10.79,0,0,0,2.1-5.237h7.171a1.281,1.281,0,1,0,0-2.562H74.775a10.789,10.789,0,0,0-2.066-5.186c6.741-.735,12.587-1.676,13.452-1.817a8.3,8.3,0,0,1,8.084,7H88.161a1.281,1.281,0,1,0,0,2.562H99.474C98.435,344.565,92.1,347,87.408,347.065Z" transform="translate(-19.183 -271.971)" fill="#323e4a"/><path d="M248.826,370.762a5.381,5.381,0,1,0-5.381-5.381A5.387,5.387,0,0,0,248.826,370.762Zm0-8.2a2.819,2.819,0,1,1-2.819,2.819A2.822,2.822,0,0,1,248.826,362.562Z" transform="translate(-204.003 -298.505)" fill="#323e4a"/></g></g></g></svg>