<svg xmlns="http://www.w3.org/2000/svg" width="84.712" height="79.914" viewBox="0 0 84.712 79.914"><g transform="translate(-386 -10769.086)"><path d="M-8455.5,2221v4.309h2.524v17.884l11.408-10.71v-7.174h2.822V2221H-8455.5" transform="translate(8851.406 8550)" fill="#d71415"/><g transform="translate(386 10754.586)"><g transform="translate(0 14.5)"><path d="M76.5,214.239v32.593a1.241,1.241,0,0,0,1.241,1.241h56.916a1.241,1.241,0,0,0,1.241-1.241V214.237A1.241,1.241,0,0,0,134.657,213l-56.916,0A1.241,1.241,0,0,0,76.5,214.239Zm2.482,19.274h2.482v12.078H78.982Zm4.964,0h2.482v12.078H83.945Zm4.964,12.078V233.512h2.482v12.078Zm13.567-15.47V228.3a3.188,3.188,0,0,0,.716.084h6.014a3.188,3.188,0,0,0,.716-.084v1.821a3.723,3.723,0,0,1-7.446,0Zm7.445-4.943s0,.007,0,.011a.716.716,0,0,1-.715.713h-6.014a.716.716,0,0,1-.715-.713s0-.007,0-.011a2.1,2.1,0,0,1,2.1-2.088h3.251A2.1,2.1,0,0,1,109.921,225.177Zm2.482,11.178a2.9,2.9,0,0,1,2.482,2.866v1.048H112.4Zm-12.409,3.914H97.513v-1.048a2.9,2.9,0,0,1,2.482-2.866Zm-2.482,2.482h2.482v2.84H97.513Zm4.964-6.425h7.445v9.266h-7.445Zm9.927,9.266v-2.84h2.482v2.84Zm21.013-30.113v30.113h-2.2c1.34-7.714-1.446-12.486-2.979-14.439a3.85,3.85,0,0,0-4.972-5.688l-3.62,2.09a1.913,1.913,0,0,0-.7,2.61l1.938,3.358a1.912,1.912,0,0,0,2.61.7l2.754-1.59c1.234,1.541,3.826,5.779,2.444,12.96H117.367v-6.37a5.383,5.383,0,0,0-5.377-5.377h-.831a6.172,6.172,0,0,0,1.244-3.723v-4.964c0-.01,0-.02,0-.029a4.583,4.583,0,0,0-4.577-4.521h-3.251A4.583,4.583,0,0,0,100,225.128c0,.01,0,.019,0,.029v4.964a6.172,6.172,0,0,0,1.244,3.723h-.831a5.383,5.383,0,0,0-5.377,5.377v6.37H93.873V232.272a1.241,1.241,0,0,0-1.241-1.241H78.982V215.48Zm-6.909,13.673a1.358,1.358,0,0,1-.637.83l-3.125,1.8-1.368-2.369,3.125-1.8a1.368,1.368,0,0,1,2,1.539Z" transform="translate(-63.843 -180.154)"/><path d="M219.534,102.511a9.017,9.017,0,1,0-9.017,9.017A9.028,9.028,0,0,0,219.534,102.511Zm-7.776,6.416v-5.072h5.155A6.554,6.554,0,0,1,211.758,108.927Zm5.193-7.554h-5.193V96.1A6.552,6.552,0,0,1,216.951,101.373ZM209.276,96.1v5.277h-5.193A6.552,6.552,0,0,1,209.276,96.1Zm-5.155,7.759h5.155v5.072A6.554,6.554,0,0,1,204.121,103.855Z" transform="translate(-168.161 -80.424)"/><path d="M80.989,86.968H77.018V49.342l.613.471a3.64,3.64,0,0,0,4.433-5.774l-14.192-10.9a1.241,1.241,0,0,0-1.511,1.968l14.192,10.9a1.158,1.158,0,1,1-1.411,1.837L43.112,20.179a1.241,1.241,0,0,0-1.511,0L5.569,47.846a1.158,1.158,0,1,1-1.411-1.837L41.651,17.22a1.16,1.16,0,0,1,1.411,0l19.1,14.666a1.241,1.241,0,1,0,1.511-1.968l-19.1-14.666a3.645,3.645,0,0,0-4.434,0L26.059,26.064v-2.9a1.241,1.241,0,0,0,.993-1.216V16.981a1.241,1.241,0,0,0-1.241-1.241H10.589a1.241,1.241,0,0,0-1.241,1.241v4.964a1.241,1.241,0,0,0,.993,1.216V38.133L2.647,44.041a3.64,3.64,0,1,0,4.434,5.774l.613-.471v5.112a1.241,1.241,0,0,0,2.482,0V47.439L42.356,22.728,74.537,47.437V86.968H21.089a1.241,1.241,0,0,0,0,2.482h59.9a1.241,1.241,0,1,1,0,2.482H3.723a1.241,1.241,0,1,1,0-2.482h11.97a1.241,1.241,0,0,0,0-2.482H10.175v-27.2a1.241,1.241,0,0,0-2.482,0v27.2H3.723a3.723,3.723,0,0,0,0,7.446H80.989a3.723,3.723,0,0,0,0-7.446ZM23.577,25.832H12.823V23.185H23.577ZM12.823,28.314H23.128l-4.309,3.309h-6ZM11.83,18.221H24.57V20.7H11.83Zm.993,15.884h2.764l-2.764,2.122Z" transform="translate(0 -14.5)"/></g></g></g></svg>