<svg xmlns="http://www.w3.org/2000/svg" width="117.1" height="87.461" viewBox="0 0 117.1 87.461"><g transform="translate(-0.001 -64.795)"><path d="M114,177.014a3.925,3.925,0,0,0-1.967.568L92.855,188.654V177.834a4.007,4.007,0,0,0-4-4H26.1a10.787,10.787,0,0,0-18.96,7.047v13.849H3.157a3.156,3.156,0,0,0-3.142,3.46,18.023,18.023,0,0,0,16.2,16.172v7.892H5.807a4.007,4.007,0,0,0-4,4v3.207a4.007,4.007,0,0,0,4,4h11.8a1.715,1.715,0,1,0,0-3.431H5.807a.579.579,0,0,1-.572-.572v-3.207a.579.579,0,0,1,.572-.572H30.055a.579.579,0,0,1,.572.572v3.207a.579.579,0,0,1-.572.572H25.616a1.715,1.715,0,0,0,0,3.431h4.438a4,4,0,0,0,3.989-3.747H88.853a4.007,4.007,0,0,0,4-4V214.9l19.176,11.072a3.923,3.923,0,0,0,1.966.568h0a2.942,2.942,0,0,0,2.339-1.109,3.756,3.756,0,0,0,.764-2.386V180.509c0-2.057-1.276-3.494-3.1-3.494ZM10.567,180.879a7.363,7.363,0,0,1,14.727,0v9.67H10.567Zm0,13.1H25.295v2.464a7.363,7.363,0,1,1-14.727,0V193.98ZM8.115,207.2a14.539,14.539,0,0,1-4.652-9.041H7.275a10.793,10.793,0,0,0,21.313,0H32.4A14.562,14.562,0,0,1,8.115,207.2Zm81.31,18.516a.579.579,0,0,1-.572.572h-54.8v-.033a4.007,4.007,0,0,0-4-4H19.646V214.36a18.023,18.023,0,0,0,16.2-16.171,3.156,3.156,0,0,0-3.142-3.461h-3.98V180.879a10.746,10.746,0,0,0-.625-3.617H88.853a.579.579,0,0,1,.572.572Zm24.245-2.763-8.133-4.7V211a1.715,1.715,0,0,0-3.431,0v5.272l-9.251-5.341V192.615l9.251-5.341V203a1.715,1.715,0,0,0,3.431,0V185.293l8.133-4.7Z" transform="translate(0 -81.209)" fill="#d71415"/><path d="M214.29,255.165,193.345,243.2a3.47,3.47,0,0,0-1.727-.49,2.892,2.892,0,0,0-2.825,3.132v23.9a2.892,2.892,0,0,0,2.825,3.132,3.468,3.468,0,0,0,1.728-.49l20.945-11.966a2.886,2.886,0,0,0,0-5.248Zm-22.067,13.9v-22.56l19.744,11.28Z" transform="translate(-145.613 -137.222)" fill="#d71415"/><path d="M67.484,204.112H63.16a1.715,1.715,0,0,0,0,3.431h4.323a1.715,1.715,0,0,0,0-3.431Z" transform="translate(-47.391 -107.454)" fill="#d71415"/><path d="M67.484,231.835H63.16a1.715,1.715,0,0,0,0,3.431h4.323a1.715,1.715,0,0,0,0-3.431Z" transform="translate(-47.391 -128.836)" fill="#d71415"/><path d="M237.415,153.894a6.894,6.894,0,0,0-5.058,2.226,1.715,1.715,0,1,0,2.525,2.323,3.429,3.429,0,0,1,5.067,0,1.715,1.715,0,1,0,2.524-2.323,6.893,6.893,0,0,0-5.057-2.226Z" transform="translate(-178.865 -68.721)" fill="#d71415"/><path d="M228.09,130.939a1.715,1.715,0,1,0,2.524-2.323,13.649,13.649,0,0,0-20.113,0,1.715,1.715,0,1,0,2.524,2.323,10.218,10.218,0,0,1,15.065,0Z" transform="translate(-162.007 -45.815)" fill="#d71415"/><path d="M205.786,98.052a1.715,1.715,0,1,0,.416-3.405,20.451,20.451,0,0,0-17.549,6.467,1.715,1.715,0,1,0,2.524,2.323,17.024,17.024,0,0,1,14.608-5.385Z" transform="translate(-145.156 -22.907)" fill="#d71415"/><path d="M295.908,112.858a1.715,1.715,0,1,0,2.525-2.323,20.609,20.609,0,0,0-4.316-3.567,1.715,1.715,0,0,0-1.806,2.917A17.162,17.162,0,0,1,295.908,112.858Z" transform="translate(-224.829 -32.329)" fill="#d71415"/><path d="M168.061,76.486a1.711,1.711,0,0,0,1.262-.554,23.785,23.785,0,0,1,35.055,0,1.715,1.715,0,0,0,2.524-2.323,27.215,27.215,0,0,0-40.1,0,1.715,1.715,0,0,0,1.262,2.877Z" transform="translate(-128.3)" fill="#d71415"/></g></svg>