<svg xmlns="http://www.w3.org/2000/svg" width="60.922" height="90.764" viewBox="0 0 60.922 90.764"><g transform="translate(-929.078 -10367)"><circle cx="28.5" cy="28.5" r="28.5" transform="translate(931 10400)" fill="#d71415"/><g transform="translate(844.909 10367)"><path d="M240.647,323.3a1.33,1.33,0,1,0,0-2.659H237.8a1.33,1.33,0,1,0,0,2.659Z" transform="translate(-125.306 -263.803)"/><path d="M182.619,304.293a21.173,21.173,0,0,0,6.45-.9c2.815-.939,3.406-2.3,3.406-3.271v-4.44l3.48-1.582a2.751,2.751,0,0,0,0-5.008l-10.433-4.742a7.013,7.013,0,0,0-5.8,0l-10.433,4.742a2.751,2.751,0,0,0,0,5.008l3.48,1.582v7.283a1.329,1.329,0,0,0,2.651.145c.232.1.483.193.756.283A21.167,21.167,0,0,0,182.619,304.293ZM170.33,291.6a.077.077,0,0,1,.054-.083l10.433-4.742a4.354,4.354,0,0,1,3.6,0l10.433,4.742a.092.092,0,0,1,0,.167l-10.433,4.742a4.354,4.354,0,0,1-3.6,0l-10.433-4.742A.076.076,0,0,1,170.33,291.6Zm5.092,8.439V296.89l4.294,1.952a7.012,7.012,0,0,0,5.8,0l4.294-1.952v3.145c-.366.5-2.806,1.6-7.2,1.6S175.786,300.536,175.422,300.035Z" transform="translate(-68.7 -233.424)"/><path d="M196.4,410.153a1.33,1.33,0,0,0,1.33,1.33h.014a1.33,1.33,0,1,0-1.344-1.33Z" transform="translate(-92.332 -336.35)"/><path d="M121.383,247.31a1.329,1.329,0,0,0,2.1-1.633,21.387,21.387,0,0,1,30.011-30.011,1.329,1.329,0,1,0,1.633-2.1,24.046,24.046,0,0,0-33.742,33.742Z" transform="translate(-26.461 -171.552)"/><path d="M196.315,288.5a21.418,21.418,0,0,1-28.25,1.762,1.329,1.329,0,1,0-1.632,2.1,24.046,24.046,0,0,0,33.743-33.742,1.329,1.329,0,1,0-2.1,1.632,21.418,21.418,0,0,1-1.762,28.25Z" transform="translate(-67.259 -212.349)"/><path d="M144.982.8a1.329,1.329,0,0,0-1.221-.8h-9.947a1.33,1.33,0,0,0-.967.417L118.121,16.009a1.33,1.33,0,1,0,1.933,1.826L134.387,2.659h6.29L119.6,24.972,96.412.417A1.33,1.33,0,0,0,95.446,0H85.5a1.33,1.33,0,0,0-.966,2.243L106.809,25.83a4.168,4.168,0,0,0-1.639,6.746,29.75,29.75,0,1,0,17.5,0,4.164,4.164,0,0,0-.687-6.25L144.728,2.242A1.33,1.33,0,0,0,144.982.8ZM94.873,2.659l21.646,22.92h-6.29L88.583,2.659ZM141.01,61.013a27.091,27.091,0,1,1-27.091-27.091A27.122,27.122,0,0,1,141.01,61.013Zm-32.775-29.75a1.512,1.512,0,0,1,0-3.025H119.6a1.512,1.512,0,1,1,0,3.025Z"/></g></g></svg>