<svg xmlns="http://www.w3.org/2000/svg" width="110" height="115.757" viewBox="0 0 110 115.757"><g transform="translate(-12.731)"><g transform="translate(12.731 0)"><path d="M208.3,441.018h8.178a1.7,1.7,0,0,0,0-3.391H208.3a1.7,1.7,0,0,0,0,3.391Z" transform="translate(-162.77 -338.685)" fill="#d71415"/><path d="M198.177,63.837h12.754a1.7,1.7,0,1,0,0-3.391H198.177a1.7,1.7,0,0,0,0,3.391Z" transform="translate(-154.937 -46.78)" fill="#d71415"/><circle cx="1.696" cy="1.696" r="1.696" transform="translate(36.209 13.492)" fill="#d71415"/><circle cx="1.696" cy="1.696" r="1.696" transform="translate(59.633 13.492)" fill="#d71415"/><circle cx="1.696" cy="1.696" r="1.696" transform="translate(47.921 82.861)" fill="#d71415"/><circle cx="1.696" cy="1.696" r="1.696" transform="translate(36.963 82.861)" fill="#d71415"/><circle cx="1.696" cy="1.696" r="1.696" transform="translate(58.215 82.861)" fill="#d71415"/><path d="M371.776,85.578h5.139a1.7,1.7,0,1,0,0-3.391h-3.444v-5.28a1.7,1.7,0,0,0-3.391,0v6.975A1.7,1.7,0,0,0,371.776,85.578Z" transform="translate(-289.288 -58.207)" fill="#d71415"/><path d="M177.143,158.831H166.7a12.587,12.587,0,0,0-12.385,12.753,12.82,12.82,0,0,0,7.213,11.587.891.891,0,0,1,.494.809v3.944a2.473,2.473,0,0,0,1.44,2.25,2.4,2.4,0,0,0,2.6-.383l6.034-5.266a.744.744,0,0,1,.488-.188h4.56a12.758,12.758,0,0,0,0-25.506Zm0,22.115h-4.56a4.134,4.134,0,0,0-2.718,1.024l-4.45,3.884V183.98a4.3,4.3,0,0,0-2.433-3.874,9.415,9.415,0,0,1-5.273-8.523,9.194,9.194,0,0,1,8.994-9.362h10.441a9.369,9.369,0,0,1,0,18.723Z" transform="translate(-122.306 -122.921)" fill="#d71415"/><path d="M215.24,192.952h-9.2a1.7,1.7,0,0,0,0,3.391h9.2a1.7,1.7,0,1,0,0-3.391Z" transform="translate(-161.024 -149.328)" fill="#d71415"/><path d="M212.63,222.013h-6.588a1.7,1.7,0,0,0,0,3.391h6.588a1.7,1.7,0,0,0,0-3.391Z" transform="translate(-161.024 -171.819)" fill="#d71415"/><path d="M407.051,202.746a13.485,13.485,0,0,0-11.831-11.494,14.138,14.138,0,0,0-1.5-.081h0a13.4,13.4,0,0,0-9.508,3.914,13.317,13.317,0,0,0-2.163,16.113l9.03,15.563a3.056,3.056,0,0,0,5.281,0l9.03-15.563a13.276,13.276,0,0,0,1.662-8.452Zm-4.6,6.754-8.736,15.056L384.982,209.5a9.926,9.926,0,0,1,1.618-12.009,10.031,10.031,0,0,1,7.118-2.928,10.717,10.717,0,0,1,1.139.061,10.058,10.058,0,0,1,8.832,8.566A9.91,9.91,0,0,1,402.454,209.5Z" transform="translate(-297.171 -147.95)" fill="#d71415"/><path d="M420.041,223.236A5.763,5.763,0,1,0,425.8,229,5.769,5.769,0,0,0,420.041,223.236Zm0,8.135A2.372,2.372,0,1,1,422.412,229,2.374,2.374,0,0,1,420.041,231.371Z" transform="translate(-323.493 -172.765)" fill="#d71415"/><path d="M351.811,409.433a2.374,2.374,0,0,0-3.591,2.038v11.021a2.375,2.375,0,0,0,3.591,2.038l9.227-5.511a2.374,2.374,0,0,0,0-4.077Zm-.2,11.267v-7.436l6.226,3.718Z" transform="translate(-272.37 -316.606)" fill="#d71415"/><path d="M49.971,49.963c1.246-1.273,4.519-4.645,6.944-7.148a6.661,6.661,0,0,0,0-9.183,6.264,6.264,0,0,0-8.678-.343,6.264,6.264,0,0,0-8.679.343,6.661,6.661,0,0,0,0,9.184c2.423,2.5,5.7,5.873,6.944,7.147a2.422,2.422,0,0,0,3.467,0ZM42,40.458a3.241,3.241,0,0,1,0-4.468,2.875,2.875,0,0,1,4.16,0l.861.891a1.7,1.7,0,0,0,2.438,0l.861-.891a2.875,2.875,0,0,1,4.16,0,3.241,3.241,0,0,1,0,4.467c-2.057,2.122-4.724,4.871-6.242,6.429-1.518-1.558-4.186-4.307-6.241-6.427Z" transform="translate(-32.073 -24.539)" fill="#d71415"/><path d="M106.976,84.995H92.091V39.607a14.281,14.281,0,1,0,0-27.865v-1.57a4.986,4.986,0,0,0-4.98-4.98H45.059V2.826A2.829,2.829,0,0,0,42.233,0H15.557a2.829,2.829,0,0,0-2.826,2.826V30.5a2.829,2.829,0,0,0,2.826,2.826h5.9a1.7,1.7,0,0,0,0-3.391h-5.33V3.391H41.668V29.932H29.517a1.7,1.7,0,0,0,0,3.391H32.6V81.752h-14a2.829,2.829,0,0,0-2.826,2.826V101.86a2.829,2.829,0,0,0,2.826,2.826h14v2.754a4.986,4.986,0,0,0,4.98,4.98H79.951v.51a2.829,2.829,0,0,0,2.826,2.826h24.2a2.829,2.829,0,0,0,2.826-2.826v-6.9a1.7,1.7,0,0,0-3.391,0v6.33H83.342V88.386h23.069v9.585a1.7,1.7,0,1,0,3.391,0V87.821A2.829,2.829,0,0,0,106.976,84.995Zm-.867-59.32a10.89,10.89,0,1,1-10.89-10.89A10.9,10.9,0,0,1,106.109,25.675Zm-19-17.091A1.591,1.591,0,0,1,88.7,10.173v2.8a14.333,14.333,0,0,0-7.375,9.4H45.059V8.584Zm-48.1,76.559-8.534,7.564-8.534-7.564ZM19.172,101.3V87.216l9.447,8.374a2.806,2.806,0,0,0,3.721,0l9.447-8.374V101.3Zm60.779,7.734H37.584A1.591,1.591,0,0,1,36,107.44v-2.754h6.356a2.829,2.829,0,0,0,2.826-2.826V94.114H79.951ZM83.1,79.043h5.6v5.952H82.777a2.829,2.829,0,0,0-2.826,2.826v2.9H45.178V84.578a2.829,2.829,0,0,0-2.826-2.826H36V79.043H75.111a1.7,1.7,0,0,0,0-3.391H36V33.324h6.238A2.829,2.829,0,0,0,45.059,30.5V25.77H80.94A14.293,14.293,0,0,0,88.7,38.376V75.652H83.1a1.7,1.7,0,1,0,0,3.391Z" transform="translate(-12.731 0)" fill="#d71415"/></g></g></svg>