<svg xmlns="http://www.w3.org/2000/svg" width="77.31" height="113.969" viewBox="0 0 77.31 113.969"><g transform="translate(-82.346)"><path d="M207.624,471.339a1.669,1.669,0,0,0,0-3.339h-9.572a1.669,1.669,0,0,0,0,3.339Z" transform="translate(-88.653 -363.825)" fill="#d71415"/><path d="M165.949,87.7a2.785,2.785,0,0,0-2.782-2.782H121.04a2.785,2.785,0,0,0-2.782,2.782v9.353a2.785,2.785,0,0,0,2.782,2.782h42.126a2.785,2.785,0,0,0,2.782-2.782Zm-3.339,8.8H121.6V88.254H162.61Z" transform="translate(-27.918 -66.013)" fill="#d71415"/><path d="M121.04,174.409a2.785,2.785,0,0,0-2.782,2.782v14.233a2.785,2.785,0,0,0,2.782,2.782h10.042a2.785,2.785,0,0,0,2.782-2.782V177.191a2.785,2.785,0,0,0-2.782-2.782Zm9.486,16.459H121.6v-13.12h8.929Z" transform="translate(-27.918 -135.586)" fill="#d71415"/><path d="M200.222,174.409a1.669,1.669,0,0,0,0,3.339H226.7a1.669,1.669,0,0,0,0-3.339Z" transform="translate(-90.34 -135.586)" fill="#d71415"/><path d="M146.406,323.563H119.927a1.669,1.669,0,0,0,0,3.339h26.479a1.669,1.669,0,0,0,0-3.339Z" transform="translate(-27.918 -251.539)" fill="#d71415"/><path d="M146.406,360.531H119.927a1.669,1.669,0,1,0,0,3.339h26.479a1.669,1.669,0,0,0,0-3.339Z" transform="translate(-27.918 -280.278)" fill="#d71415"/><path d="M146.406,397.5H119.927a1.669,1.669,0,1,0,0,3.339h26.479a1.669,1.669,0,1,0,0-3.339Z" transform="translate(-27.918 -309.018)" fill="#d71415"/><path d="M157.986,67.335a1.669,1.669,0,0,0,1.669-1.669V60.7a5.349,5.349,0,0,0-5.169-5.5,4.983,4.983,0,0,0-3.5,1.456,4.984,4.984,0,0,0-3.5-1.456,4.865,4.865,0,0,0-1.462.224V30.051a1.669,1.669,0,0,0-3.339,0V55.724a4.878,4.878,0,0,0-4.028-.168V49.909a5.349,5.349,0,0,0-5.169-5.5,5.114,5.114,0,0,0-4.415,2.644H109.883a1.669,1.669,0,0,0,0,3.339H128.32v4.89H109.883a1.669,1.669,0,1,0,0,3.339H128.32v5.438H92.009a1.669,1.669,0,0,0,0,3.339h36.311v4.626h-3.114a2.785,2.785,0,0,0-2.782,2.782V89.038a2.785,2.785,0,0,0,2.782,2.782h10.042a2.785,2.785,0,0,0,2.782-2.782V85.949h4.655V98.126H101.635a1.669,1.669,0,1,0,0,3.339h41.051v6.226a2.936,2.936,0,0,1-2.926,2.939H88.611a2.936,2.936,0,0,1-2.926-2.939v-6.226h7.937a1.669,1.669,0,1,0,0-3.339H85.685V13.049h57v9.21a1.669,1.669,0,1,0,3.339,0V6.278A6.278,6.278,0,0,0,139.76,0H88.611a6.278,6.278,0,0,0-6.265,6.278V107.691a6.278,6.278,0,0,0,6.265,6.278H139.76a6.278,6.278,0,0,0,6.265-6.278V85.949h7.509a6.128,6.128,0,0,0,6.121-6.121V73.457a1.669,1.669,0,1,0-3.339,0v6.371a2.786,2.786,0,0,1-2.782,2.782H134.442a2.786,2.786,0,0,1-2.782-2.782V49.909a1.856,1.856,0,1,1,3.66,0V60.7a1.669,1.669,0,1,0,3.339,0,1.855,1.855,0,1,1,3.66,0,1.669,1.669,0,1,0,3.339,0,1.856,1.856,0,1,1,3.66,0,1.669,1.669,0,1,0,3.339,0,1.856,1.856,0,1,1,3.66,0v4.965a1.668,1.668,0,0,0,1.669,1.669ZM85.685,6.278a2.936,2.936,0,0,1,2.926-2.939H139.76a2.936,2.936,0,0,1,2.926,2.939V9.71h-57Zm48.757,79.672h.25v2.533h-8.929V75.363h2.558v4.465A6.129,6.129,0,0,0,134.442,85.949Z" fill="#d71415"/></g></svg>