<svg xmlns="http://www.w3.org/2000/svg" width="108" height="108" viewBox="0 0 108 108"><path d="M86.212,232.577h-.93a1.582,1.582,0,1,0,0,3.164h69.525a1.582,1.582,0,0,0,0-3.164h-.93a13.092,13.092,0,0,0-7.906-10.459,7.048,7.048,0,1,0-10.115,0,12.942,12.942,0,0,0-2.736,1.567,17.308,17.308,0,0,0-7.835-5.738,9.036,9.036,0,1,0-11.672,0c-.345.124-.689.256-1.027.4a1.582,1.582,0,1,0,1.261,2.9,14.08,14.08,0,0,1,19.585,11.329H105.466a14.042,14.042,0,0,1,3.486-7.789,1.582,1.582,0,1,0-2.36-2.108c-.137.154-.269.311-.4.468a13.057,13.057,0,0,0-1.965-1.028,7.048,7.048,0,1,0-10.109,0,13.093,13.093,0,0,0-7.906,10.459Zm27.364-21.524a5.872,5.872,0,1,1,5.872,5.871A5.878,5.878,0,0,1,113.577,211.053Zm27.338,2.277a3.884,3.884,0,1,1-3.884,3.884,3.888,3.888,0,0,1,3.884-3.884Zm-6.1,13.039a9.895,9.895,0,0,1,15.871,6.206H136.607a17.1,17.1,0,0,0-1.793-6.206ZM99.174,213.33a3.884,3.884,0,1,1-3.884,3.884A3.888,3.888,0,0,1,99.174,213.33Zm0,10.933a9.907,9.907,0,0,1,5.226,1.5,17.2,17.2,0,0,0-2.114,6.818H89.4A9.913,9.913,0,0,1,99.174,224.263Z" transform="translate(-66.045 -159.404)" fill="#d71415"/><path d="M211.168,120.227a1.582,1.582,0,0,0,2.236.021l14.438-14.157a1.582,1.582,0,1,0-2.215-2.259l-13.31,13.05-8.238-8.388a1.582,1.582,0,0,0-2.257,2.217Z" transform="translate(-158.893 -81.573)" fill="#d71415"/><path d="M93.1,16.754a1.582,1.582,0,0,0-2.291,2.183A50.836,50.836,0,0,1,18.054,89.946,50.837,50.837,0,0,1,86,14.5,1.582,1.582,0,0,0,88,12.044a54.034,54.034,0,1,0,5.1,4.71Z" transform="translate(0 0)" fill="#d71415"/><path d="M119.95,76.5h4.11a1.582,1.582,0,0,0,1.579-1.688A47.674,47.674,0,0,0,81.349,30.519,1.582,1.582,0,0,0,79.661,32.1v4.11a1.582,1.582,0,0,1-3.164,0V32.1a1.582,1.582,0,0,0-1.688-1.579A47.674,47.674,0,0,0,30.52,74.808,1.582,1.582,0,0,0,32.1,76.5h4.11a1.582,1.582,0,1,1,0,3.164H32.1a1.582,1.582,0,0,0-1.578,1.688,47.574,47.574,0,0,0,13.851,30.438,48.118,48.118,0,0,0,8.513,6.78,1.582,1.582,0,0,0,1.676-2.684,44.949,44.949,0,0,1-7.952-6.333A44.425,44.425,0,0,1,33.823,82.825h2.385a4.746,4.746,0,0,0,0-9.492H33.823a44.521,44.521,0,0,1,39.51-39.51v2.385a4.746,4.746,0,0,0,9.492,0V33.822a44.521,44.521,0,0,1,39.51,39.51H119.95a4.746,4.746,0,1,0,0,9.492h2.385a44.521,44.521,0,0,1-39.51,39.51V119.95a4.746,4.746,0,0,0-9.492,0v2.386a44.1,44.1,0,0,1-13.007-3.418,1.582,1.582,0,0,0-1.262,2.9,47.347,47.347,0,0,0,15.745,3.819c.036,0,.071,0,.106,0A1.582,1.582,0,0,0,76.5,124.06v-4.11a1.582,1.582,0,0,1,3.164,0v4.11a1.582,1.582,0,0,0,1.688,1.579,47.674,47.674,0,0,0,44.289-44.289,1.582,1.582,0,0,0-1.579-1.688h-4.11a1.582,1.582,0,1,1,0-3.164Z" transform="translate(-24.079 -24.079)" fill="#d71415"/></svg>