<svg xmlns="http://www.w3.org/2000/svg" width="93.843" height="78.022" viewBox="0 0 93.843 78.022"><g transform="translate(-375 -10367)"><rect width="9" height="8" transform="translate(416 10394)" fill="#d71415"/><rect width="9" height="8" transform="translate(449 10414)" fill="#d71415"/><rect width="9" height="8" transform="translate(416 10434)" fill="#d71415"/><rect width="50" height="8" transform="translate(413 10390)" fill="#d71415"/><rect width="10" height="30" transform="matrix(0.978, -0.208, 0.208, 0.978, 377.079, 10377.062)" fill="#d71415"/><g transform="translate(375 10366.5)"><path d="M224.488,92.249a1.388,1.388,0,0,0,1.388-1.388V85.309a1.388,1.388,0,0,0-1.388-1.388H215.1a1.388,1.388,0,1,0,0,2.776h8v2.775H173.044a5.829,5.829,0,0,0-1.388,11.49v2.831a8.6,8.6,0,0,1,1.388-17.1h35.622a1.388,1.388,0,0,0,0-2.776H173.044A11.38,11.38,0,0,0,165,103.35c.194.195.4.378.6.556h-2.548a1.388,1.388,0,0,0-1.388,1.388v5.552a1.388,1.388,0,0,0,1.388,1.388h2.313v6.106h-2.313a1.388,1.388,0,0,0-1.388,1.388v5.551a1.388,1.388,0,0,0,1.388,1.388h2.557a11.375,11.375,0,0,0,7.435,19.985H193.87a1.388,1.388,0,0,0,0-2.776H183.129V141.1H223.1v2.776H200.345a1.388,1.388,0,0,0,0,2.776h24.143a1.388,1.388,0,0,0,1.388-1.388v-5.552a1.388,1.388,0,0,0-1.388-1.388h-2.313v-6.106h2.313a1.388,1.388,0,0,0,1.388-1.388V125.28a1.388,1.388,0,0,0-1.388-1.388H221.94c.205-.178.407-.362.6-.556a11.369,11.369,0,0,0-.611-16.654h2.557a1.388,1.388,0,0,0,1.388-1.388V99.743a1.388,1.388,0,0,0-1.388-1.388h-2.313V92.249h2.313Zm-44.134,10.56-2.315-1.007a1.387,1.387,0,0,0-1.087-.008l-2.519,1.05V96.69h5.922v6.118Zm-12.213,9.426h46.354a3.051,3.051,0,0,1,1.388,5.77v-2.716a1.388,1.388,0,0,0-1.388-1.388h-8.7a1.388,1.388,0,0,0-1.388,1.388v3.053H168.141Zm44.967,10.595-2.519-1.05a1.391,1.391,0,0,0-1.087.008l-2.315,1.007v-6.118h5.922Zm-48.668,1.063v-2.776h39.971v2.776Zm15.914,18.887-2.315-1.007a1.387,1.387,0,0,0-1.087-.009l-2.519,1.05v-6.153h5.922v6.118Zm39.046-4.453h-36.27v-3.052a1.388,1.388,0,0,0-1.388-1.388h-8.7a1.388,1.388,0,0,0-1.388,1.388v2.715a3.051,3.051,0,0,1,1.388-5.769H219.4Zm3.7-11.658v2.776H173.044a5.829,5.829,0,0,0-1.388,11.49v2.832a8.6,8.6,0,0,1,1.388-17.1Zm0-11.38a8.6,8.6,0,0,1-7.217,8.492v-2.832a5.829,5.829,0,0,0-1.388-11.49H164.44v-2.776H214.5A8.615,8.615,0,0,1,223.1,115.287Zm0-11.381H183.129v-2.775H223.1Zm-3.7-5.551h-36.27V95.3a1.388,1.388,0,0,0-1.388-1.388h-8.7a1.388,1.388,0,0,0-1.388,1.388v2.716a3.051,3.051,0,0,1,1.388-5.77H219.4Zm0,0" transform="translate(-132.034 -68.132)" fill="#323e4a"/><path d="M20.115,38.045s0,0,0,0l-4.4-20.521L14.8,13.256h0L13.6,7.646A1.388,1.388,0,0,0,11.953,6.58l-.815.175L10.034,1.6A1.388,1.388,0,0,0,8.386.532l-6.514,1.4A1.388,1.388,0,0,0,.806,3.575l1.1,5.157L1.1,8.907A1.388,1.388,0,0,0,.03,10.554l1.2,5.609,1.318,6.152a.031.031,0,0,0,0,0L6.545,40.953l.9,4.206a1.388,1.388,0,0,0,2.714-.581L9.55,41.728l8.142-1.745,6.164,28.76-2.937,6.165-5.205-4.42L11.508,50.867a1.388,1.388,0,0,0-2.714.581l4.3,20.083a1.388,1.388,0,0,0,.458.768L20.5,78.192a1.388,1.388,0,0,0,2.151-.461l3.916-8.22a1.39,1.39,0,0,0,.1-.888Zm-11.148.969L5.556,23.091,8.27,22.51l2.346,10.947a1.389,1.389,0,0,0,1.356,1.1,1.412,1.412,0,0,0,.292-.031,1.388,1.388,0,0,0,1.066-1.648L10.984,21.927l2.714-.581L17.11,37.269ZM3.035,11.33l.813-.174h0l6.514-1.4h0l.813-.174.62,2.895-4.07.872h0l-4.07.872Zm10.081,7.3-2.714.581-.737-3.438,2.714-.582.152.707ZM4.237,16.939l2.714-.582L7.688,19.8l-2.714.582-.72-3.356ZM4.625,8.15l-.814-3.8,3.8-.814.814,3.8-1.6.342Zm0,0" transform="translate(0 0)" fill="#323e4a"/></g></g></svg>