<svg xmlns="http://www.w3.org/2000/svg" width="124" height="87.461" viewBox="0 0 124 87.461"><g transform="translate(0 -75.435)"><path d="M36.837,108.384a1.82,1.82,0,0,0,1.82-1.82V84.24a5.171,5.171,0,0,1,5.165-5.165h89.428a5.171,5.171,0,0,1,5.165,5.165V97.828a1.82,1.82,0,1,0,3.64,0V84.24a8.815,8.815,0,0,0-8.805-8.805H43.822a8.815,8.815,0,0,0-8.805,8.805v22.323a1.82,1.82,0,0,0,1.82,1.82Z" transform="translate(-26.536)" fill="#d71415"/><path d="M122.18,174.173h-6.661V130.65a1.82,1.82,0,1,0-3.64,0v43.523h-4.523V162.882a1.82,1.82,0,0,0-3.64,0v11.291H73.174a1.82,1.82,0,0,0-1.82,1.82v1.4a.635.635,0,0,1-.634.634H48.4a.635.635,0,0,1-.634-.634v-1.4a1.82,1.82,0,0,0-1.82-1.82H20.283V112.78h83.433V155.6a1.82,1.82,0,0,0,3.64,0V110.96a1.82,1.82,0,0,0-1.82-1.82H18.464a1.82,1.82,0,0,0-1.82,1.82v63.213H12.12V139.386a1.82,1.82,0,0,0-3.64,0v34.787H1.82A1.82,1.82,0,0,0,0,175.993v5.535a6.918,6.918,0,0,0,6.91,6.91H117.09a6.918,6.918,0,0,0,6.91-6.91v-5.535a1.82,1.82,0,0,0-1.82-1.82Zm-1.82,7.355a3.274,3.274,0,0,1-3.27,3.27H6.91a3.274,3.274,0,0,1-3.27-3.27v-3.715H44.152a4.28,4.28,0,0,0,4.253,3.854H70.72a4.28,4.28,0,0,0,4.253-3.854H120.36Z" transform="translate(0 -25.542)" fill="#d71415"/><path d="M176.933,199.559a1.817,1.817,0,0,0,.666,2.481,21.624,21.624,0,1,0-6.029-5.15,1.816,1.816,0,0,0,2.824-2.285,17.775,17.775,0,0,1-3.994-11.3,17.969,17.969,0,1,1,9.013,15.587,1.817,1.817,0,0,0-2.481.667Z" transform="translate(-126.379 -65.369)" fill="#d71415"/><path d="M233.247,228.447a1.814,1.814,0,0,0,1.077-.354l11.88-8.742a1.816,1.816,0,0,0,0-2.926l-11.88-8.742a1.816,1.816,0,0,0-2.893,1.463V226.63a1.817,1.817,0,0,0,1.816,1.817Zm1.817-15.708,7,5.15-7,5.15Z" transform="translate(-175.381 -99.951)" fill="#d71415"/></g></svg>