<svg xmlns="http://www.w3.org/2000/svg" width="123.138" height="92.371" viewBox="0 0 123.138 92.371"><g transform="translate(0 -64.039)"><path d="M117.379,90.533H112.2V85.786a4.134,4.134,0,0,0-4.129-4.129h-1.2V78.294h10.58a5.691,5.691,0,1,0,0-11.381h-10.58V65.841a1.8,1.8,0,0,0-3.6,0v1.072H92.684a5.691,5.691,0,0,0,0,11.381h10.58v3.363h-1.2a4.133,4.133,0,0,0-4.129,4.129v4.747H93.2a4.873,4.873,0,0,0-2.241.548l-.795.414-6.99-6.99a8.377,8.377,0,0,0-5.962-2.47H56.666a1.8,1.8,0,1,0,0,3.6H77.213a4.8,4.8,0,0,1,3.414,1.414l6.187,6.187-9.4,4.891a2.326,2.326,0,0,1-1.068.261H46.788a2.322,2.322,0,0,1-1.068-.261l-9.4-4.891,6.187-6.187a4.8,4.8,0,0,1,3.414-1.414h3.063a1.8,1.8,0,1,0,0-3.6H45.925a8.376,8.376,0,0,0-5.962,2.47l-6.99,6.99-.795-.414a4.872,4.872,0,0,0-2.241-.548h-4.73V85.786a4.134,4.134,0,0,0-4.129-4.129h-1.2V78.294h10.58a5.691,5.691,0,0,0,0-11.381H19.874V65.841a1.8,1.8,0,0,0-3.6,0v1.072H5.691a5.691,5.691,0,0,0,0,11.382h10.58v3.363h-1.2a4.133,4.133,0,0,0-4.129,4.129v4.747H5.759a5.731,5.731,0,0,0,0,11.462H17.34L8.831,114.774a3.324,3.324,0,0,0-.541,2.138l.549,5.987a1.8,1.8,0,0,0,1.792,1.637c.055,0,.11,0,.166-.008a1.8,1.8,0,0,0,1.63-1.958l-.539-5.885L21.669,102h.762l5.487,6.151L17.2,118.386a3.329,3.329,0,0,0-1.024,2.395v21.155a.987.987,0,0,1-1.971.09l-1.082-11.808a1.8,1.8,0,1,0-3.588.329l1.082,11.808a4.591,4.591,0,0,0,9.162-.419V120.905l10.534-10.068,8.962,10.046a5.923,5.923,0,0,0,4.415,1.978h10.7v6.9q-.582.333-1.128.717H43.629a3.979,3.979,0,0,0-3.975,3.975v2.122H36.279v-.444a3.681,3.681,0,0,0-3.677-3.677H29.373A3.681,3.681,0,0,0,25.7,136.13v12.036a3.681,3.681,0,0,0,3.677,3.677H32.6a3.681,3.681,0,0,0,3.677-3.677v-.444h3.376v2.122a3.979,3.979,0,0,0,3.975,3.975h9.636a14.215,14.215,0,0,0,16.368,0h9.636a3.979,3.979,0,0,0,3.975-3.975v-2.122h3.376v.444a3.681,3.681,0,0,0,3.677,3.677h3.229a3.681,3.681,0,0,0,3.677-3.677V136.13a3.681,3.681,0,0,0-3.677-3.677H90.3a3.681,3.681,0,0,0-3.677,3.677v.444H83.244v-2.122a3.979,3.979,0,0,0-3.975-3.975H69.633q-.546-.384-1.128-.717v-6.9H79.443a5.922,5.922,0,0,0,4.415-1.978l8.962-10.046,10.534,10.068v21.031a4.591,4.591,0,0,0,9.162.419l2.332-25.444a3.326,3.326,0,0,0-.541-2.138L105.8,102h11.581a5.731,5.731,0,0,0,0-11.462Zm.068-20.018a2.087,2.087,0,1,1,0,4.175h-10.58V70.515ZM92.684,74.691a2.087,2.087,0,0,1,0-4.175h10.58v4.175Zm-62.23-4.175a2.087,2.087,0,0,1,0,4.175H19.874V70.515ZM5.691,74.691a2.087,2.087,0,1,1,0-4.175h10.58v4.175Zm95.845,11.095a.526.526,0,0,1,.526-.526h6.01a.526.526,0,0,1,.526.526v4.747h-7.06V85.786Zm-86.994,0a.526.526,0,0,1,.526-.526h6.01a.526.526,0,0,1,.526.526v4.747H14.542Zm18.133,62.38a.074.074,0,0,1-.074.074H29.373a.074.074,0,0,1-.074-.074V136.13a.074.074,0,0,1,.074-.074H32.6a.074.074,0,0,1,.074.074Zm3.6-4.048v-3.94h3.376v3.94Zm6.979,5.725v-15.39a.372.372,0,0,1,.371-.371H49.7a14.223,14.223,0,0,0,0,16.133H43.629A.372.372,0,0,1,43.258,149.843Zm7.532-7.7a10.659,10.659,0,1,1,10.659,10.659A10.671,10.671,0,0,1,50.79,142.148Zm39.433-6.018a.074.074,0,0,1,.074-.074h3.229a.074.074,0,0,1,.074.074v12.036a.074.074,0,0,1-.074.074H90.3a.073.073,0,0,1-.074-.074Zm-3.6,4.048v3.94H83.244v-3.94Zm-6.979-5.725v15.39a.372.372,0,0,1-.372.371H73.2a14.223,14.223,0,0,0,0-16.133h6.066A.372.372,0,0,1,79.64,134.453ZM64.9,128.311a14.239,14.239,0,0,0-6.905,0v-5.449H64.9Zm46.349-11.625-2.322,25.341a.987.987,0,0,1-1.97-.09V120.781a3.329,3.329,0,0,0-1.024-2.395L95.22,108.147,100.707,102h.762Zm6.129-18.293H99.9a1.8,1.8,0,0,0-1.344.6L86.769,112.208h-9.02a1.8,1.8,0,0,0,0,3.6h5.806l-2.385,2.674a2.315,2.315,0,0,1-1.726.773H43.695a2.316,2.316,0,0,1-1.727-.773l-2.385-2.674H70.071a1.8,1.8,0,1,0,0-3.6h-33.7L24.582,98.994a1.8,1.8,0,0,0-1.344-.6H5.759a2.128,2.128,0,1,1,0-4.256H29.936a1.255,1.255,0,0,1,.577.141l13.542,7.049a5.94,5.94,0,0,0,2.732.669H76.351a5.94,5.94,0,0,0,2.732-.669l13.542-7.049a1.256,1.256,0,0,1,.577-.141h24.177a2.128,2.128,0,0,1,0,4.256Z" fill="#389beb"/><path d="M233.489,359.826a7.056,7.056,0,1,0,7.056,7.056A7.064,7.064,0,0,0,233.489,359.826Zm0,10.509a3.453,3.453,0,1,1,3.453-3.453A3.457,3.457,0,0,1,233.489,370.335Z" transform="translate(-172.04 -224.734)" fill="#389beb"/></g></svg>