<svg xmlns="http://www.w3.org/2000/svg" width="104.177" height="104.226" viewBox="0 0 104.177 104.226"><g transform="translate(-0.118)"><path d="M101.918,45.612a7.854,7.854,0,0,0-4.353-13.4L73.588,28.732a4.8,4.8,0,0,1-3.615-2.627l-3.9-7.9a1.526,1.526,0,0,0-2.737,1.351l3.9,7.9a7.853,7.853,0,0,0,5.914,4.3l23.977,3.484a4.8,4.8,0,0,1,2.661,8.19L82.437,60.338a7.853,7.853,0,0,0-2.259,6.952l4.1,23.88a4.8,4.8,0,0,1-6.967,5.062L73.445,94.2v-2.48a4.52,4.52,0,0,0-4.515-4.515H68.05V80.378a7.07,7.07,0,0,1,1.75-4.149c4.072-4.037,6.233-7.468,5.987-14.022A63.248,63.248,0,0,0,73.63,48.5V44.432a5.644,5.644,0,0,0-8.259-5.006,6.173,6.173,0,0,0-9.86-4.315,6.174,6.174,0,0,0-11.112.108,6.172,6.172,0,0,0-10.027,4.824v9.544a6.835,6.835,0,0,0-.82.6,15.844,15.844,0,0,0-4.388,7.927,22.861,22.861,0,0,0-.557,4.966c.024,6.439,3.349,10.952,6.6,14.517a1.471,1.471,0,0,1,.387.992v8.623h-.111a4.52,4.52,0,0,0-4.515,4.515V94.2l-3.861,2.03a4.8,4.8,0,0,1-6.967-5.062l4.1-23.88a7.853,7.853,0,0,0-2.259-6.952L4.626,43.427a4.8,4.8,0,0,1,2.661-8.19l23.977-3.484a7.853,7.853,0,0,0,5.914-4.3L47.9,5.729a4.8,4.8,0,0,1,8.611,0l3.7,7.513a1.526,1.526,0,0,0,2.738-1.35l-3.7-7.513a7.854,7.854,0,0,0-14.086,0L34.441,26.1a4.8,4.8,0,0,1-3.615,2.627L6.849,32.216A7.854,7.854,0,0,0,2.5,45.612l17.35,16.912a4.8,4.8,0,0,1,1.381,4.25l-4.1,23.88a7.854,7.854,0,0,0,11.4,8.28l2.441-1.283v2.06a4.52,4.52,0,0,0,4.515,4.515H41.93a1.526,1.526,0,0,0,0-3.052H35.482a1.464,1.464,0,0,1-1.462-1.462V91.722a1.464,1.464,0,0,1,1.462-1.462H68.931a1.464,1.464,0,0,1,1.462,1.462v7.989a1.464,1.464,0,0,1-1.462,1.462H48.985a1.526,1.526,0,1,0,0,3.052H68.931a4.52,4.52,0,0,0,4.515-4.515v-2.06l2.442,1.284a7.854,7.854,0,0,0,11.4-8.279l-4.1-23.881a4.8,4.8,0,0,1,1.381-4.25ZM65.4,44.154a2.6,2.6,0,0,1,5.175.278v9.53a2.6,2.6,0,0,1-5.191,0Zm-9.244-4.7a3.123,3.123,0,0,1,6.191.586L62.334,51.1a3.128,3.128,0,0,1-3.109,2.82,3.086,3.086,0,0,1-1.547-.417,7.115,7.115,0,0,0,.125-2.452A2.809,2.809,0,0,0,56.151,48.8c0-.062.007-9.339.007-9.339Zm-9.3-1.6a3.124,3.124,0,1,1,6.248,0l-.057,10.7H46.858v-10.7Zm-9.434,2.184a3.124,3.124,0,0,1,6.248,0v8.511H37.984c-.188,0-.374.009-.56.024V40.043ZM65,80.378v6.83H38.645V78.585a4.517,4.517,0,0,0-1.184-3.048c-2.858-3.135-5.782-7.069-5.8-12.472a19.819,19.819,0,0,1,.486-4.3,12.9,12.9,0,0,1,3.383-6.255,3.8,3.8,0,0,1,2.457-.9H54.79a3.251,3.251,0,0,1-1.5,3.151c-2.513,1.831-6.568,1.371-8.747,1.125-.348-.039-.648-.073-.9-.094a2.633,2.633,0,0,0-2.787,1.192,2.086,2.086,0,0,0,.232,2.182,18.157,18.157,0,0,0,2.044,1.79,7.832,7.832,0,0,1,1.236,1.616A8.542,8.542,0,0,1,45.621,67.9a1.526,1.526,0,1,0,3.031.363,12,12,0,0,0-3.113-9.211c2.632.235,6.631.294,9.547-1.83A7.663,7.663,0,0,0,56.239,56.2a6.158,6.158,0,0,0,6.443-.286,5.645,5.645,0,0,0,9.65,1.65c.2,1.534.345,3.119.407,4.759.186,4.949-1,7.692-5.086,11.74A10.076,10.076,0,0,0,65,80.378Z" transform="translate(0)" fill="#389beb"/></g></svg>