<svg xmlns="http://www.w3.org/2000/svg" width="111.338" height="88.639" viewBox="0 0 111.338 88.639"><g transform="translate(0.001 -52.195)"><path d="M242.821,296.459a1.631,1.631,0,0,0,0,3.262H246a1.631,1.631,0,0,0,0-3.262Z" transform="translate(-188.746 -191.151)" fill="#389beb"/><path d="M216.709,244.789a1.631,1.631,0,0,0,0,3.262h1.457a1.631,1.631,0,0,0,0-3.262Z" transform="translate(-168.312 -150.716)" fill="#389beb"/><path d="M276.872,244.789a1.631,1.631,0,1,0,0,3.262h1.457a1.631,1.631,0,0,0,0-3.262Z" transform="translate(-215.393 -150.716)" fill="#389beb"/><path d="M330.411,193.2a5.129,5.129,0,0,0,7.316,4.641,5.131,5.131,0,1,0,9.283,0,5.131,5.131,0,1,0,0-9.282,5.131,5.131,0,1,0-9.283,0,5.129,5.129,0,0,0-7.316,4.641Zm11.957,8.7a1.869,1.869,0,1,1,1.87-1.869A1.871,1.871,0,0,1,342.368,201.9Zm-2.185-6.511a5.12,5.12,0,0,0,0-4.37,5.119,5.119,0,0,0,4.37,0,5.119,5.119,0,0,0,0,4.37,5.117,5.117,0,0,0-4.37,0Zm9.011-4.054a1.869,1.869,0,1,1-1.869,1.869A1.871,1.871,0,0,1,349.194,191.335Zm-6.826-6.826a1.869,1.869,0,1,1-1.869,1.869A1.871,1.871,0,0,1,342.368,184.509Zm-4.957,8.7a1.869,1.869,0,1,1-1.869-1.869A1.871,1.871,0,0,1,337.411,193.2Z" transform="translate(-258.567 -100.991)" fill="#389beb"/><path d="M78.455,199.99h1.934v1.933a4.726,4.726,0,1,0,9.451,0V199.99h1.934a4.726,4.726,0,0,0,0-9.451H89.839v-1.933a4.726,4.726,0,1,0-9.451,0v1.933H78.455a4.726,4.726,0,1,0,0,9.451Zm0-6.19h2.028a3.171,3.171,0,0,0,3.167-3.167v-2.028a1.464,1.464,0,1,1,2.928,0v2.028a3.171,3.171,0,0,0,3.167,3.167h2.028a1.464,1.464,0,0,1,0,2.928H89.745a3.171,3.171,0,0,0-3.167,3.167v2.028a1.464,1.464,0,1,1-2.928,0V199.9a3.171,3.171,0,0,0-3.167-3.167H78.455a1.464,1.464,0,1,1,0-2.928Z" transform="translate(-57.698 -103.051)" fill="#389beb"/><path d="M107.69,113.845a1.631,1.631,0,1,0-2.929,1.434l2.033,4.152a12.6,12.6,0,1,1-22.641,11.085l-5.625-11.488a8.881,8.881,0,1,0-16.848-5.6H49.654a8.881,8.881,0,1,0-16.848,5.6l-5.625,11.488A12.6,12.6,0,1,1,4.541,119.431l9.106-18.6a16.245,16.245,0,0,0,28.618-15.21,28.384,28.384,0,0,0,7.044.892H62.026a28.385,28.385,0,0,0,7.043-.892,16.245,16.245,0,0,0,28.618,15.209l3.726,7.609a1.631,1.631,0,0,0,2.929-1.434L99.442,97A16.239,16.239,0,0,0,71.971,81.217a25.755,25.755,0,0,1-9.945,2.037h-.659V81.525A3.869,3.869,0,0,0,57.5,77.66h-.07V53.826a1.631,1.631,0,1,0-3.262,0V77.66h-.34a3.869,3.869,0,0,0-3.864,3.865v1.729h-.659a25.753,25.753,0,0,1-9.947-2.037A16.241,16.241,0,0,0,11.891,97L1.611,118a15.866,15.866,0,1,0,28.5,13.954l4.751-9.7A8.861,8.861,0,0,0,47,122.652h4.863a1.631,1.631,0,1,0,0-3.262H49.35a8.96,8.96,0,0,0,.65-2.7H61.333a8.965,8.965,0,0,0,.65,2.7H59.472a1.631,1.631,0,1,0,0,3.262h4.863a8.861,8.861,0,0,0,12.137-.406l4.751,9.7A15.866,15.866,0,1,0,109.723,118ZM83.917,79.229A12.984,12.984,0,1,1,70.932,92.213,13,13,0,0,1,83.917,79.229Zm-30.689,2.3a.6.6,0,0,1,.6-.6H57.5a.6.6,0,0,1,.6.6v1.729H53.228V81.525Zm-25.812-2.3A12.984,12.984,0,1,1,14.432,92.213,13,13,0,0,1,27.416,79.229Zm8.113,36.751a5.618,5.618,0,0,1,11.224-.365c0,.007,0,.015,0,.022a5.618,5.618,0,1,1-11.226.343ZM70.186,121.6a5.623,5.623,0,0,1-5.607-5.962c0-.007,0-.015,0-.022a5.618,5.618,0,1,1,5.605,5.984Z" transform="translate(0)" fill="#389beb"/></g></svg>