<svg xmlns="http://www.w3.org/2000/svg" width="101.925" height="101.925" viewBox="0 0 101.925 101.925"><g transform="translate(0)"><path d="M38.592,221.012a1.512,1.512,0,0,0,0,2.1l6.224,6.292a1.493,1.493,0,1,0,2.124-2.1l-5.185-5.242,5.185-5.242a1.493,1.493,0,0,0-2.124-2.1Z" transform="translate(-30.57 -171.62)" fill="#389beb"/><path d="M429.237,229.415a1.494,1.494,0,0,0,2.112-.012l6.224-6.292a1.509,1.509,0,0,0,0-2.1l-6.224-6.292a1.493,1.493,0,1,0-2.124,2.1l5.185,5.242-5.185,5.242A1.493,1.493,0,0,0,429.237,229.415Z" transform="translate(-343.433 -171.62)" fill="#389beb"/><path d="M230.11,425.913l-5.241,5.19-5.246-5.19a1.493,1.493,0,1,0-2.1,2.123l6.3,6.23a1.511,1.511,0,0,0,2.1,0l6.292-6.23a1.493,1.493,0,1,0-2.1-2.122Z" transform="translate(-173.864 -340.78)" fill="#389beb"/><path d="M219.621,43.624l5.247-5.186,5.242,5.185a1.493,1.493,0,1,0,2.1-2.123l-6.292-6.224a1.51,1.51,0,0,0-2.1,0l-6.3,6.224a1.493,1.493,0,0,0,2.1,2.124Z" transform="translate(-173.864 -27.914)" fill="#389beb"/><path d="M87,14.931A50.957,50.957,0,0,0,17.526,12.5a1.493,1.493,0,1,0,1.963,2.252,47.976,47.976,0,1,1-4.73,4.73,1.494,1.494,0,0,0-2.252-1.962A50.961,50.961,0,0,0,87,87a50.951,50.951,0,0,0,0-72.066Z" transform="translate(0 0)" fill="#389beb"/><path d="M137.211,136.935c-3.957,2.44-5.88,6.6-5.88,12.73v6.58a2.082,2.082,0,0,0,1.005,1.952,2.955,2.955,0,0,0,1.538.309h18.774a1.493,1.493,0,1,0,0-2.986h-8.421v-3.01a1.494,1.494,0,0,0-2.987,0v3.01h-6.922v-5.854c0-10.429,6.167-11.789,14.238-12.81a7.638,7.638,0,0,0,15.159,0c8.071,1.02,14.238,2.38,14.238,12.81v5.812c0,.013,0,.025,0,.036-.139,0-.289,0-.368,0h-6.553v-3.01a1.494,1.494,0,0,0-2.987,0v3.01h-8.46a1.493,1.493,0,1,0,0,2.986h18c.918,0,3.356,0,3.356-3.028v-5.812c0-6.127-1.923-10.291-5.88-12.73-3.111-1.918-7.16-2.563-11.19-3.069v-2.024c3.911-2.961,6.743-7.623,6.743-11.717V109.934c0-5-3.772-9.512-9.61-11.5-5.13-1.746-10.216-.933-12.918,2-2.771.468-6.711,2.646-6.576,11.273,0,.08,0,.145,0,.194v8.222c0,4.146,2.9,8.874,6.89,11.828v1.913C144.371,134.372,140.322,135.017,137.211,136.935Zm23.672-1.749c0,2.963-2.129,5.374-4.747,5.374s-4.747-2.411-4.747-5.374v-1.465c.291.131.584.255.881.365a9.975,9.975,0,0,0,7.58,0c.348-.129.693-.275,1.034-.433Zm-11.9-31.856a1.494,1.494,0,0,0,1.051-.576,6.8,6.8,0,0,1,5.573-2.253,14.022,14.022,0,0,1,4.433.76c3.5,1.191,7.586,4.178,7.586,8.673v4.708h-.91c-1.824,0-3-1.1-4.483-2.493-1.792-1.68-4.022-3.771-7.875-3.771h-4.125c-3.516,0-4.11,2.888-4.465,4.613-.327,1.594-.55,2.265-1.27,2.5V111.9c0-.061,0-.142,0-.241C144.438,108.047,145.171,103.667,148.982,103.329Zm-4.484,16.8v-1.6c3.267-.422,3.843-3.212,4.2-4.933.421-2.049.635-2.228,1.538-2.228h4.125c2.671,0,4.136,1.373,5.832,2.963,1.65,1.547,3.521,3.3,6.526,3.3h.91v2.5c0,4.2-4.12,9.418-8.819,11.162a7.017,7.017,0,0,1-5.5,0,12.589,12.589,0,0,1-2.577-1.332l0,0C147.2,127.6,144.5,123.531,144.5,120.125Z" transform="translate(-105.187 -78.108)" fill="#389beb"/></g></svg>