<svg xmlns="http://www.w3.org/2000/svg" width="95.387" height="104.088" viewBox="0 0 95.387 104.088"><g transform="translate(-21.326)"><path d="M234.421,205.083h-3.044V188.124c0-1.016-.047-2.062-.138-3.11a1.53,1.53,0,1,0-3.048.267c.084.959.126,1.916.126,2.843v2.613H226.67a5.051,5.051,0,0,0-5.21,4.863v7.764a7.629,7.629,0,0,0-3.617,6.485v13.6a7.641,7.641,0,0,0,6.1,7.474v8.049a8.223,8.223,0,0,1-8.213,8.213H200.094a4.01,4.01,0,0,1-3.794-2.711l-1.655-4.835a5.336,5.336,0,0,0,1.841-5.633l-.456-1.624a5.324,5.324,0,1,0-10.252,2.879l.456,1.624a5.332,5.332,0,0,0,5.118,3.887c.146,0,.292-.008.439-.02l1.614,4.714a7.07,7.07,0,0,0,6.689,4.78h15.634A11.286,11.286,0,0,0,227,238.972v-7.951a5.148,5.148,0,0,0,3.844-2.806h3.576a5.787,5.787,0,0,0,5.78-5.78V210.863A5.787,5.787,0,0,0,234.421,205.083Zm-44.169,32.336a2.249,2.249,0,0,1-1.071-1.362l-.456-1.624a2.264,2.264,0,1,1,4.359-1.224l.456,1.624a2.264,2.264,0,0,1-1.568,2.792A4.113,4.113,0,0,1,190.252,237.419ZM224.52,195.6a2,2,0,0,1,2.15-1.8h1.647v8.862a5.1,5.1,0,0,0-2.074-.439h-.772a7.658,7.658,0,0,0-.951.061Zm3.8,30.343a2.076,2.076,0,0,1-2.074,2.074h-.772a4.573,4.573,0,0,1-4.568-4.568v-13.6a4.573,4.573,0,0,1,4.568-4.568h.772a2.076,2.076,0,0,1,2.074,2.074Zm8.825-3.508a2.723,2.723,0,0,1-2.72,2.72h-3.044V208.143h3.044a2.723,2.723,0,0,1,2.72,2.72Z" transform="translate(-130.743 -146.157)" fill="#389beb"/><path d="M55.343,50.213a1.53,1.53,0,0,0-2.028-.755A29.38,29.38,0,0,0,39.518,62.6a1.506,1.506,0,0,1-1.923.7L36.1,62.652A32.239,32.239,0,0,1,54.49,45.667a1.53,1.53,0,1,0-1.037-2.879,35.336,35.336,0,0,0-23.3,33.166V92.912H27.541a6.223,6.223,0,0,0-6.215,6.216v3.31a1.53,1.53,0,0,0,3.06,0v-3.31a3.159,3.159,0,0,1,3.155-3.155h2.609v17.012H27.541a3.159,3.159,0,0,1-3.155-3.155,1.53,1.53,0,0,0-3.06,0,6.223,6.223,0,0,0,6.215,6.216h3.141a5.139,5.139,0,0,0,4.6,2.862h.772a7.637,7.637,0,0,0,7.628-7.628v-13.6a7.629,7.629,0,0,0-3.617-6.485V83.43a5.051,5.051,0,0,0-5.21-4.863H33.211V75.953A32.024,32.024,0,0,1,34.967,65.5l1.412.611a4.492,4.492,0,0,0,1.787.37,4.59,4.59,0,0,0,4.069-2.471A26.305,26.305,0,0,1,54.589,52.242a1.53,1.53,0,0,0,.755-2.028ZM40.624,111.278a4.573,4.573,0,0,1-4.568,4.568h-.772a2.076,2.076,0,0,1-2.074-2.074V95.184a2.076,2.076,0,0,1,2.074-2.074h.772a4.573,4.573,0,0,1,4.568,4.568ZM34.857,81.627a2,2,0,0,1,2.15,1.8v6.682a7.658,7.658,0,0,0-.951-.061h-.772a5.1,5.1,0,0,0-2.074.439V81.627h1.647Z" transform="translate(0 -33.986)" fill="#389beb"/><path d="M335.625.045a1.53,1.53,0,0,0-.114,3.058,7.9,7.9,0,0,1,7.631,7.925V23.442a7.942,7.942,0,0,1-7.933,7.933H311.163a1.53,1.53,0,0,0,0,3.06h24.046A11.005,11.005,0,0,0,346.2,23.442V11.028A10.953,10.953,0,0,0,335.625.045Z" transform="translate(-229.489 -0.035)" fill="#389beb"/><path d="M205.215,39.747a2.6,2.6,0,0,0,2.758-.287l6.5-5.061h5.888a1.53,1.53,0,0,0,0-3.06h-6.413a1.529,1.529,0,0,0-.94.323l-6.2,4.827v-25.5A7.941,7.941,0,0,1,214.74,3.06h30.024a1.53,1.53,0,0,0,0-3.06H214.74a11.005,11.005,0,0,0-10.993,10.993V37.4A2.6,2.6,0,0,0,205.215,39.747Z" transform="translate(-145.205)" fill="#389beb"/><path d="M322.258,62.368a4.908,4.908,0,1,0,4.908-4.908A4.913,4.913,0,0,0,322.258,62.368Zm6.755,0a1.847,1.847,0,1,1-1.847-1.847A1.849,1.849,0,0,1,329.013,62.368Z" transform="translate(-239.538 -45.737)" fill="#389beb"/><path d="M247.8,62.368A4.908,4.908,0,1,0,252.7,57.46a4.913,4.913,0,0,0-4.908,4.908Zm6.755,0A1.847,1.847,0,1,1,252.7,60.52,1.849,1.849,0,0,1,254.551,62.368Z" transform="translate(-180.267 -45.737)" fill="#389beb"/><path d="M396.721,62.368a4.908,4.908,0,1,0,4.908-4.908A4.913,4.913,0,0,0,396.721,62.368Zm4.908-1.847a1.847,1.847,0,1,1-1.847,1.847A1.849,1.849,0,0,1,401.629,60.52Z" transform="translate(-298.809 -45.737)" fill="#389beb"/></g></svg>