<svg xmlns="http://www.w3.org/2000/svg" width="94.788" height="104.088" viewBox="0 0 94.788 104.088"><g transform="translate(0)"><path d="M241.508,78.54a1.524,1.524,0,0,0-2.433-1.836,2.1,2.1,0,0,1-3.352.007,1.524,1.524,0,0,0-2.426,1.845,5.149,5.149,0,0,0,8.212-.016Z" transform="translate(-190.27 -60.628)" fill="#389beb"/><path d="M210.281,285.99v-4.706a5.87,5.87,0,0,0-5.56-5.867,5.769,5.769,0,0,0-5.978,5.765v4.808l-.963.963a1.524,1.524,0,0,0,2.155,2.155l1.036-1.036a2.777,2.777,0,0,0,.819-1.977v-4.912a2.721,2.721,0,0,1,2.821-2.719,2.8,2.8,0,0,1,2.62,2.821v4.81a2.777,2.777,0,0,0,.819,1.977l5.75,5.75a2.721,2.721,0,1,1-3.847,3.847l-3.465-3.465a2.8,2.8,0,0,0-3.954,0l-3.465,3.465a2.721,2.721,0,0,1-4.048-3.623,1.524,1.524,0,0,0-2.377-1.908,5.769,5.769,0,0,0,8.58,7.686l3.287-3.286,3.287,3.286a5.769,5.769,0,1,0,8.158-8.158Z" transform="translate(-157.118 -219.423)" fill="#389beb"/><path d="M168.884,50.856h31.208a2.647,2.647,0,0,0,2.644-2.644V43.751a18.088,18.088,0,0,0-3.671-10.978,18.4,18.4,0,0,0-9.3-6.493.273.273,0,0,1-.2-.257v-.971a13.1,13.1,0,1,0-10.153.223v.748a.273.273,0,0,1-.2.257,18.393,18.393,0,0,0-9.3,6.493,18.087,18.087,0,0,0-3.671,10.978v4.461A2.647,2.647,0,0,0,168.884,50.856Zm5.29-37.758a10.05,10.05,0,1,1,10.05,10.05,10.061,10.061,0,0,1-10.05-10.05Zm-4.886,30.653a15.062,15.062,0,0,1,3.056-9.142,15.325,15.325,0,0,1,7.745-5.41,3.3,3.3,0,0,0,2.368-3.125,12.87,12.87,0,0,0,4.06-.082v.033a3.3,3.3,0,0,0,2.37,3.175,15.322,15.322,0,0,1,7.744,5.41,15.064,15.064,0,0,1,3.056,9.142v4.057h-4.441v-5.8a1.524,1.524,0,0,0-3.048,0v5.8H176.778V41.775a1.524,1.524,0,1,0-3.048,0v6.033h-4.442V43.751Z" transform="translate(-137.094 0)" fill="#389beb"/><path d="M44.485,306.684a.116.116,0,0,1-.088-.1v-.8a12.068,12.068,0,1,0-9.522.208v.589a.116.116,0,0,1-.088.1,16.9,16.9,0,0,0-8.541,5.964,16.615,16.615,0,0,0-3.372,10.084V326.7a2.647,2.647,0,0,0,2.644,2.644H53.754A2.647,2.647,0,0,0,56.4,326.7v-3.966a16.617,16.617,0,0,0-3.372-10.084A16.894,16.894,0,0,0,44.485,306.684ZM30.373,294.8a9.022,9.022,0,1,1,9.022,9.022,9.032,9.032,0,0,1-9.022-9.022ZM53.35,326.294H49.574v-5.148a1.524,1.524,0,0,0-3.048,0v5.148H32.745v-5.362a1.524,1.524,0,1,0-3.048,0v5.362H25.921v-3.561a13.591,13.591,0,0,1,2.758-8.249,13.828,13.828,0,0,1,6.988-4.882,3.143,3.143,0,0,0,2.248-2.824,11.85,11.85,0,0,0,3.44-.067A3.142,3.142,0,0,0,43.6,309.6a13.826,13.826,0,0,1,6.988,4.882,13.59,13.59,0,0,1,2.757,8.249v3.561Z" transform="translate(-22.873 -225.254)" fill="#389beb"/><path d="M356.222,323.829a1.524,1.524,0,0,0-1.524,1.524v.94h-3.776v-5.148a1.524,1.524,0,0,0-3.048,0v5.148H334.093V320.93a1.524,1.524,0,0,0-3.048,0v5.362h-3.776v-3.561a13.592,13.592,0,0,1,2.757-8.249,13.829,13.829,0,0,1,6.988-4.882,3.143,3.143,0,0,0,2.248-2.824,11.849,11.849,0,0,0,3.44-.067,3.142,3.142,0,0,0,2.25,2.892,13.694,13.694,0,0,1,9.126,9.044,1.524,1.524,0,1,0,2.91-.907,16.738,16.738,0,0,0-11.156-11.055.116.116,0,0,1-.088-.1v-.8a12.068,12.068,0,1,0-9.522.208v.589a.116.116,0,0,1-.089.1,16.9,16.9,0,0,0-8.541,5.964,16.615,16.615,0,0,0-3.372,10.084V326.7a2.647,2.647,0,0,0,2.644,2.644H355.1a2.647,2.647,0,0,0,2.644-2.644v-1.344A1.524,1.524,0,0,0,356.222,323.829Zm-24.5-29.028a9.022,9.022,0,1,1,9.022,9.022A9.032,9.032,0,0,1,331.721,294.8Z" transform="translate(-262.958 -225.252)" fill="#389beb"/></g></svg>