<svg xmlns="http://www.w3.org/2000/svg" width="119.563" height="101.876" viewBox="0 0 119.563 101.876"><g transform="translate(0 -37.896)"><g transform="translate(0 37.896)"><path d="M88.825,202.155a4.11,4.11,0,0,0-4.5-3.665l-8.715.888a1.748,1.748,0,0,0,.354,3.478l8.715-.888a.609.609,0,0,1,.666.543l2.195,21.481a3.509,3.509,0,0,1-3.112,3.841l-.02,0a3.5,3.5,0,0,1-3.843-3.13l-1.262-12.346a2.79,2.79,0,0,0-3.055-2.489L63.9,211.13a3.5,3.5,0,1,1-.712-6.974l4.742-.483a1.748,1.748,0,1,0-.354-3.478l-4.742.483a7,7,0,1,0,1.421,13.93l1.812-.185L47.59,237.883l-4.667-3.609-11.91-9.209a7,7,0,0,0-9.828,1.208L1.511,251.458a7.126,7.126,0,0,0,.933,9.768,6.942,6.942,0,0,0,4.491,1.645,7.171,7.171,0,0,0,.746-.039,6.944,6.944,0,0,0,4.788-2.654l15.5-19.85,5.049,3.941a1.748,1.748,0,0,0,2.151-2.757l-5.843-4.56a2.493,2.493,0,0,0-3.493.43L9.715,258.026a3.506,3.506,0,0,1-5.021.523,3.6,3.6,0,0,1-.427-4.938L23.94,228.424a3.506,3.506,0,0,1,4.922-.6l11.922,9.219,5.458,4.22a2.5,2.5,0,0,0,3.477-.43l21.192-26.9,4.988-.51.495,4.84-2.811,3.527c-8.074,10.132-21.588,27.09-22.226,27.9a3.314,3.314,0,0,1-4.81.7L41.67,246.58a1.748,1.748,0,1,0-2.151,2.757l4.877,3.805a6.8,6.8,0,0,0,9.706-1.291c.632-.8,14.143-17.756,22.216-27.885l.585-.734.187,1.827a7.011,7.011,0,0,0,6.959,6.29c.229,0,.46-.011.692-.034l.027,0a7.009,7.009,0,0,0,6.253-7.676Z" transform="translate(0 -160.995)" fill="#389beb"/><path d="M275.075,57.683a.854.854,0,0,1,.246.755L274.4,63.81a4.35,4.35,0,0,0,6.312,4.586l4.824-2.536a.854.854,0,0,1,.795,0l4.824,2.536a4.35,4.35,0,0,0,6.311-4.586l-.921-5.371a.854.854,0,0,1,.246-.756l3.9-3.8a4.35,4.35,0,0,0-2.411-7.42l-5.393-.784a.854.854,0,0,1-.642-.467l-2.412-4.887a4.35,4.35,0,0,0-7.8,0l-2.412,4.887a.854.854,0,0,1-.642.467l-5.394.784a4.35,4.35,0,0,0-2.411,7.42ZM273.4,50.5a.832.832,0,0,1,.689-.581l5.393-.784a4.35,4.35,0,0,0,3.275-2.379l2.412-4.887a.854.854,0,0,1,1.531,0l2.412,4.887a4.349,4.349,0,0,0,3.275,2.379l5.393.784a.854.854,0,0,1,.473,1.456l-3.9,3.8a4.35,4.35,0,0,0-1.251,3.85l.921,5.372a.854.854,0,0,1-1.239.9l-4.824-2.536a4.35,4.35,0,0,0-4.048,0L279.084,65.3a.854.854,0,0,1-1.239-.9l.921-5.371a4.348,4.348,0,0,0-1.251-3.85l-3.9-3.8a.832.832,0,0,1-.216-.875Z" transform="translate(-206.88 -37.896)" fill="#389beb"/><path d="M419.378,163.548a3.966,3.966,0,0,0-2.2-6.766l-4.6-.668a.471.471,0,0,1-.354-.257l-2.057-4.167a3.967,3.967,0,0,0-7.114,0L401,155.857a.469.469,0,0,1-.354.257l-4.6.668a3.967,3.967,0,0,0-2.2,6.766l3.328,3.243a.47.47,0,0,1,.135.416l-.786,4.58a3.967,3.967,0,0,0,5.755,4.182l4.113-2.162a.471.471,0,0,1,.438,0l4.113,2.162a3.967,3.967,0,0,0,5.755-4.182l-.785-4.58a.469.469,0,0,1,.135-.416Zm-5.768.74a3.966,3.966,0,0,0-1.141,3.511l.786,4.58a.47.47,0,0,1-.683.5l-4.113-2.162a3.968,3.968,0,0,0-3.692,0l-4.113,2.162a.47.47,0,0,1-.682-.5l.786-4.58a3.966,3.966,0,0,0-1.141-3.512l-3.327-3.243a.47.47,0,0,1,.26-.8l4.6-.668a3.966,3.966,0,0,0,2.986-2.17l2.057-4.167a.47.47,0,0,1,.843,0l2.056,4.167a3.966,3.966,0,0,0,2.987,2.17l4.6.668a.47.47,0,0,1,.261.8Z" transform="translate(-301.016 -123.438)" fill="#389beb"/></g></g></svg>