<svg xmlns="http://www.w3.org/2000/svg" width="93.48" height="104.226" viewBox="0 0 93.48 104.226"><g transform="translate(-26.385)"><g transform="translate(26.385 0)"><g transform="translate(0 0)"><path d="M118.6,99.735c-2.988-1.609-4.5-3.966-4.5-7.006V24.317a1.527,1.527,0,1,0-3.054,0V92.73a10.274,10.274,0,0,0,4.166,8.442H53.073a8.655,8.655,0,0,1-8.645-8.645V9.021a9,9,0,0,0-2.261-5.967H102.4a8.655,8.655,0,0,1,8.645,8.645v5.593a1.527,1.527,0,1,0,3.054,0V11.7A11.713,11.713,0,0,0,102.4,0H35.407a9.032,9.032,0,0,0-9.022,9.022v5.585a3.44,3.44,0,0,0,3.436,3.436H41.374V92.526a11.713,11.713,0,0,0,11.7,11.7h64.405a2.386,2.386,0,0,0,1.122-4.491ZM41.374,14.989H29.821a.382.382,0,0,1-.382-.382V9.022a5.967,5.967,0,1,1,11.934,0Z" transform="translate(-26.385 0)" fill="#389beb"/><path d="M232.931,62.427a1.527,1.527,0,1,0,0-3.054H205.683a1.527,1.527,0,0,0,0,3.054Z" transform="translate(-167.956 -47.283)" fill="#389beb"/><path d="M203.107,127.276h-47.74a1.527,1.527,0,0,0,0,3.054h47.74a1.527,1.527,0,1,0,0-3.054Z" transform="translate(-127.886 -101.359)" fill="#389beb"/><path d="M203.107,164.589h-47.74a1.527,1.527,0,0,0,0,3.054h47.74a1.527,1.527,0,1,0,0-3.054Z" transform="translate(-127.886 -131.073)" fill="#389beb"/><path d="M204.634,203.428a1.527,1.527,0,0,0-1.527-1.527h-47.74a1.527,1.527,0,1,0,0,3.054h47.74A1.527,1.527,0,0,0,204.634,203.428Z" transform="translate(-127.886 -160.787)" fill="#389beb"/><path d="M184.367,240.741a1.527,1.527,0,0,0-1.527-1.527H155.367a1.527,1.527,0,0,0,0,3.054H182.84A1.527,1.527,0,0,0,184.367,240.741Z" transform="translate(-127.886 -190.502)" fill="#389beb"/><path d="M227.137,320.21a2.011,2.011,0,0,0,1.984.033l4.189-2.3,4.183,2.31a2,2,0,0,0,2.968-1.748l.026-11.115a11.577,11.577,0,1,0-18.795-9.048,1.527,1.527,0,0,0,3.054,0,8.525,8.525,0,1,1,2.011,5.5,1.527,1.527,0,0,0-2.333,1.972,11.624,11.624,0,0,0,1.758,1.683l-.026,10.987a2.011,2.011,0,0,0,.981,1.724Zm2.1-11.015a11.543,11.543,0,0,0,8.195-.045l-.018,7.571-3.131-1.729a1.992,1.992,0,0,0-1.93,0l-3.133,1.719Z" transform="translate(-181.92 -228.37)" fill="#389beb"/></g></g></g></svg>