<svg xmlns="http://www.w3.org/2000/svg" width="77.205" height="104.088" viewBox="0 0 77.205 104.088"><g transform="translate(0 0)"><path d="M143.091,92.374,129.226,62.638a35.96,35.96,0,0,0,11.553-24.743,1.525,1.525,0,1,0-3.046-.149,33,33,0,1,1-.361-6.808,1.525,1.525,0,0,0,3.012-.472A36.1,36.1,0,1,0,80.2,62.579L66.345,92.467a2.426,2.426,0,0,0,2.368,3.441l9.819-.679,5.827,7.932a2.5,2.5,0,0,0,4.156-.416l5.47-11.8a1.525,1.525,0,1,0-2.766-1.282l-5.026,10.842-2.911-3.963,11.88-25.627a35.862,35.862,0,0,0,4.327.91l-5.3,11.424a1.525,1.525,0,1,0,2.766,1.282L102.7,72.149c.668.037,1.341.058,2.019.058s1.324-.02,1.98-.055L120.942,102.7a2.45,2.45,0,0,0,4.157.407l5.81-7.945,9.821.657a2.426,2.426,0,0,0,2.361-3.446Zm-73.536.42L82.612,64.627a36.259,36.259,0,0,0,3.606,2.465L74.46,92.454Zm11.667.945a5.582,5.582,0,0,0-.571-.7,2.611,2.611,0,0,0-2.254-.858l-.464.032L88.9,68.548a35.886,35.886,0,0,0,3.333,1.428Zm42.039,6.719L109.915,71.836a35.966,35.966,0,0,0,4.334-.9l11.914,25.552Zm7.51-8.36a2.419,2.419,0,0,0-2.12.988l-.433.592L117.177,70a35.908,35.908,0,0,0,3.338-1.419L131.5,92.145Zm4.205.282L123.2,67.132a36.128,36.128,0,0,0,3.609-2.454l13.069,28.029Z" transform="translate(-66.116 0)" fill="#389beb"/><path d="M145.794,39.265a28.121,28.121,0,1,0,28.121,28.121,28.152,28.152,0,0,0-28.121-28.121Zm0,53.192a25.071,25.071,0,1,1,25.071-25.071A25.1,25.1,0,0,1,145.794,92.457Z" transform="translate(-107.192 -31.282)" fill="#389beb"/><path d="M165.059,110.363a1.524,1.524,0,0,0,2.082-.559,18.3,18.3,0,0,1,2.456-3.323,1.525,1.525,0,1,0-2.232-2.078,21.358,21.358,0,0,0-2.866,3.877A1.524,1.524,0,0,0,165.059,110.363Z" transform="translate(-144.335 -82.79)" fill="#389beb"/><path d="M158.584,199.625a1.524,1.524,0,1,0-2.915.893,21.188,21.188,0,0,0,1.929,4.421,1.525,1.525,0,1,0,2.638-1.529A18.126,18.126,0,0,1,158.584,199.625Z" transform="translate(-137.408 -158.18)" fill="#389beb"/><path d="M154.415,154.285v-.022a18.335,18.335,0,0,1,.459-4.085,1.525,1.525,0,1,0-2.972-.681,40.237,40.237,0,0,0-.536,4.788,1.524,1.524,0,1,0,3.049,0Z" transform="translate(-134.034 -118.159)" fill="#389beb"/><path d="M297.663,88.707a18.315,18.315,0,0,1,3.324,2.455,1.524,1.524,0,1,0,2.076-2.233,21.367,21.367,0,0,0-3.879-2.864,1.524,1.524,0,1,0-1.522,2.642Z" transform="translate(-249.979 -68.405)" fill="#389beb"/><path d="M249.851,76.005h.033a18.336,18.336,0,0,1,4.076.457,1.525,1.525,0,1,0,.679-2.973,21.387,21.387,0,0,0-4.754-.534h-.033a1.525,1.525,0,0,0,0,3.049Z" transform="translate(-211.282 -58.123)" fill="#389beb"/><path d="M201.322,82.05a1.519,1.519,0,0,0,.764-.206,18.131,18.131,0,0,1,3.783-1.653,1.525,1.525,0,0,0-.894-2.915,21.191,21.191,0,0,0-4.42,1.931,1.525,1.525,0,0,0,.767,2.843Z" transform="translate(-172.618 -61.511)" fill="#389beb"/><path d="M232.628,265.245a18.331,18.331,0,0,1-4.1-.462,1.525,1.525,0,1,0-.683,2.972,21.37,21.37,0,0,0,4.778.539h.011a1.525,1.525,0,0,0-.011-3.049Z" transform="translate(-194.025 -210.92)" fill="#389beb"/><path d="M343.644,171.389v.045a18.335,18.335,0,0,1-.464,4.105,1.525,1.525,0,1,0,2.971.684,21.37,21.37,0,0,0,.542-4.789v-.045a1.525,1.525,0,0,0-3.049,0Z" transform="translate(-286.82 -135.329)" fill="#389beb"/><path d="M188.169,244.015a18.3,18.3,0,0,1-3.322-2.458,1.525,1.525,0,0,0-2.079,2.23,21.348,21.348,0,0,0,3.876,2.868,1.525,1.525,0,0,0,1.525-2.641Z" transform="translate(-158.666 -192.12)" fill="#389beb"/><path d="M333.276,121.546a1.525,1.525,0,0,0-.552,2.085,18.144,18.144,0,0,1,1.655,3.782,1.525,1.525,0,1,0,2.915-.9,21.2,21.2,0,0,0-1.934-4.419A1.525,1.525,0,0,0,333.276,121.546Z" transform="translate(-278.356 -96.67)" fill="#389beb"/><path d="M324.472,218.838a1.525,1.525,0,0,0-2.083.556,18.33,18.33,0,0,1-2.46,3.32,1.525,1.525,0,0,0,2.23,2.08,21.375,21.375,0,0,0,2.87-3.874A1.524,1.524,0,0,0,324.472,218.838Z" transform="translate(-268 -174.183)" fill="#389beb"/><path d="M281.766,254.4a18.121,18.121,0,0,1-3.785,1.649,1.525,1.525,0,1,0,.89,2.916,21.173,21.173,0,0,0,4.423-1.926,1.525,1.525,0,1,0-1.528-2.639Z" transform="translate(-234.047 -202.513)" fill="#389beb"/><text transform="translate(38 44)" fill="#389beb" font-size="24" font-family="Gilroy-Bold, Gilroy ☞" font-weight="700"><tspan x="-6.576" y="0">5</tspan></text></g></svg>