<svg xmlns="http://www.w3.org/2000/svg" width="124.816" height="101.859" viewBox="0 0 124.816 101.859"><g transform="translate(0 -47.058)"><path d="M145.047,408.294a1.829,1.829,0,0,0-1.829,1.829v2.639a5.629,5.629,0,0,1-5.622,5.622H52.31a5.629,5.629,0,0,1-5.622-5.622v-2.639a1.829,1.829,0,0,0-3.659,0v2.639a9.292,9.292,0,0,0,9.281,9.281H137.6a9.292,9.292,0,0,0,9.281-9.281v-2.639A1.829,1.829,0,0,0,145.047,408.294Z" transform="translate(-32.534 -273.125)" fill="#389beb"/><path d="M44.858,115.958a1.829,1.829,0,0,0,1.829-1.829V61.4h77.843a1.829,1.829,0,1,0,0-3.659H46.688v-1.4a5.629,5.629,0,0,1,5.622-5.623H137.6a5.629,5.629,0,0,1,5.622,5.623v1.4H132.327a1.829,1.829,0,0,0,0,3.659h10.891v52.731a1.829,1.829,0,0,0,3.659,0V56.339a9.292,9.292,0,0,0-9.281-9.281H52.31a9.292,9.292,0,0,0-9.281,9.281v57.789a1.829,1.829,0,0,0,1.829,1.829Z" transform="translate(-32.534)" fill="#389beb"/><path d="M162.242,180.038v-28.28a5.113,5.113,0,0,0-5.108-5.108H91.613a1.829,1.829,0,0,0,0,3.659h65.522a1.451,1.451,0,0,1,1.449,1.449v28.28a1.451,1.451,0,0,1-1.449,1.449h-79a1.451,1.451,0,0,1-1.449-1.449v-28.28a1.451,1.451,0,0,1,1.449-1.449h5.68a1.829,1.829,0,1,0,0-3.659h-5.68a5.113,5.113,0,0,0-5.108,5.108v28.28a5.114,5.114,0,0,0,5.108,5.108h79A5.114,5.114,0,0,0,162.242,180.038Z" transform="translate(-55.216 -75.301)" fill="#389beb"/><path d="M230.21,208.368a4.491,4.491,0,0,0,2.362-.678l5.962-3.671a4.509,4.509,0,0,0,0-7.678l-5.962-3.671a4.509,4.509,0,0,0-6.873,3.839v7.343a4.454,4.454,0,0,0,2.31,3.936A4.5,4.5,0,0,0,230.21,208.368Zm-.852-11.86a.822.822,0,0,1,.435-.742.868.868,0,0,1,.419-.113.833.833,0,0,1,.441.131l5.962,3.671a.85.85,0,0,1,0,1.448l-5.962,3.671a.85.85,0,0,1-1.3-.724Z" transform="translate(-170.648 -109.581)" fill="#389beb"/><path d="M122.077,336.378a10.5,10.5,0,1,0,10.5-10.5A10.508,10.508,0,0,0,122.077,336.378Zm17.333,0a6.837,6.837,0,1,1-6.837-6.837A6.845,6.845,0,0,1,139.41,336.378Z" transform="translate(-92.301 -210.815)" fill="#389beb"/><path d="M26.658,354.6a1.829,1.829,0,0,0-1.829-1.829H4.389a.731.731,0,0,1-.731-.731v-3.115a.731.731,0,0,1,.731-.73H24.829a1.829,1.829,0,1,0,0-3.659H4.389A4.394,4.394,0,0,0,0,348.922v3.115a4.394,4.394,0,0,0,4.389,4.389H24.829A1.83,1.83,0,0,0,26.658,354.6Z" transform="translate(0 -224.917)" fill="#389beb"/><path d="M222.753,344.533a1.829,1.829,0,0,0,0,3.659h40.954a1.829,1.829,0,1,0,0-3.659Z" transform="translate(-167.037 -224.916)" fill="#389beb"/><path d="M287.464,344.533H271.5a1.829,1.829,0,0,0,0,3.659h15.961a.731.731,0,0,1,.731.73v3.115a.731.731,0,0,1-.731.73H222.753a1.829,1.829,0,1,0,0,3.659h64.711a4.394,4.394,0,0,0,4.389-4.389v-3.115A4.394,4.394,0,0,0,287.464,344.533Z" transform="translate(-167.037 -224.916)" fill="#389beb"/></g></svg>