<svg xmlns="http://www.w3.org/2000/svg" width="108" height="107.826" viewBox="0 0 108 107.826"><g transform="translate(0 -0.413)"><g transform="translate(0 0.413)"><g transform="translate(0 0)"><path d="M108,79.538v-57.7a8.865,8.865,0,0,0-8.855-8.855h-13.7a1.583,1.583,0,1,0,0,3.166h13.7a5.7,5.7,0,0,1,5.689,5.689V77.966H3.167V21.839A5.7,5.7,0,0,1,8.855,16.15H40.38a44.8,44.8,0,0,0-.65,9.781H10.3A2.641,2.641,0,0,0,7.663,28.57v41.75A2.641,2.641,0,0,0,10.3,72.957H97.7a2.641,2.641,0,0,0,2.638-2.638V28.57A2.641,2.641,0,0,0,97.7,25.932H68.27a44.8,44.8,0,0,0-.65-9.781h6.325a1.583,1.583,0,0,0,0-3.166H66.814c-.012-.019-.021-.038-.033-.057s-.033-.04-.049-.061c-.03-.039-.059-.079-.093-.116l-10.7-11.5a2.646,2.646,0,0,0-3.873,0l-10.7,11.5c-.033.036-.061.075-.091.113-.017.022-.035.041-.051.064s-.021.038-.033.056H8.855A8.865,8.865,0,0,0,0,21.839v57.7s0,.009,0,.014v.325a8.865,8.865,0,0,0,8.856,8.854H45.234v8.8H33.527a2.641,2.641,0,0,0-2.638,2.638V105.6a2.641,2.641,0,0,0,2.638,2.638H74.473a2.641,2.641,0,0,0,2.638-2.638v-5.435a2.641,2.641,0,0,0-2.638-2.638H62.766v-8.8H99.144A8.865,8.865,0,0,0,108,79.875V79.55S108,79.542,108,79.538ZM71.659,69.792H36.341A4.439,4.439,0,0,1,33.3,62.777a1.583,1.583,0,1,0-2.559-1.864,7.595,7.595,0,0,0-.045,8.878H10.828V29.1H39.986c.016.131.03.262.047.394a21.091,21.091,0,0,0-4.345,11.576A2.636,2.636,0,0,0,39.3,43.719l4.52-1.806c.3.58.612,1.16.949,1.737a1.605,1.605,0,0,0,.091.135,12.573,12.573,0,0,0-1.5,7.569c.011.087.029.172.048.257a6.268,6.268,0,0,0-1.839,2.926,6.588,6.588,0,0,0-.826.042,1.583,1.583,0,0,0,.369,3.144,3.126,3.126,0,0,1,1.314.127A1.583,1.583,0,0,0,44.5,56.317l0-.05a3.089,3.089,0,0,1,1.41-2.59,2.629,2.629,0,0,0,1.182-.243l.273-.126a10.842,10.842,0,0,0,2.218,5.38,2.643,2.643,0,0,0,3.915.306L54,58.512l.506.482a2.638,2.638,0,0,0,1.818.727c.066,0,.133,0,.2-.008a2.658,2.658,0,0,0,1.9-1.025,10.838,10.838,0,0,0,2.218-5.38l.273.126a2.627,2.627,0,0,0,1.183.243,3.089,3.089,0,0,1,1.41,2.577l0,.064A1.583,1.583,0,0,0,65.57,57.85a3.094,3.094,0,0,1,3.891,2,1.579,1.579,0,0,0,1.549,1.1l.1,0a4.439,4.439,0,0,1,.548,8.844ZM46.442,50.119a9.9,9.9,0,0,1,1.723-5.684H59.841a9.753,9.753,0,0,1,1.718,5.685c-.142-.026-.287-.046-.432-.062a2.629,2.629,0,0,0-3.586,2.331,7.616,7.616,0,0,1-1.288,3.9l-.433-.412a2.636,2.636,0,0,0-3.639,0l-.433.412a7.623,7.623,0,0,1-1.288-3.9,2.627,2.627,0,0,0-3.585-2.332C46.729,50.072,46.584,50.092,46.442,50.119ZM68.015,29.1H97.172V69.792H77.309a7.6,7.6,0,0,0-5.275-11.954,6.233,6.233,0,0,0-5.517-3.3h-.089a6.258,6.258,0,0,0-1.839-2.923,2.584,2.584,0,0,0,.049-.26,12.573,12.573,0,0,0-1.5-7.569,1.6,1.6,0,0,0,.091-.135c.344-.588.664-1.178.965-1.768l4.6,1.837a2.64,2.64,0,0,0,3.611-2.651,21.033,21.033,0,0,0-4.425-11.676C67.993,29.293,68,29.2,68.015,29.1Zm-1.327,6.531.007-.023c.027-.093.054-.187.08-.283q.165-.58.311-1.154c.023-.089.046-.178.069-.27a18.792,18.792,0,0,1,2.013,6.56l-3.6-1.44C65.88,38.19,66.278,37.046,66.688,35.628ZM54,3.822l7.844,8.425H46.156ZM43.765,15.413H64.235c.775,3.6,2.564,15.143-3.292,25.855H47.057c-.443-.811-.837-1.626-1.2-2.442a44.572,44.572,0,0,1-2.5-8.64A42.021,42.021,0,0,1,43.765,15.413ZM42.5,39.03l-3.573,1.428a18.811,18.811,0,0,1,1.952-6.44A37.224,37.224,0,0,0,42.5,39.03Zm31.446,61.663v4.379H34.055v-4.379h39.89ZM48.4,97.527v-8.7H59.6v8.7Zm54.377-13.2c-1.351,1.187-3.061,1.238-4.766,1.238h-73.3c-4.034,0-8.077.035-12.1.109-2.878.053-6.345.194-8.287-2.355l-.044-.057a4.839,4.839,0,0,1-.832-1.6c-.009-.029-.02-.057-.029-.086-.039-.125-.073-.252-.1-.38l-.014-.062H100.9c1.26,0,2.538.029,3.792,0A6.2,6.2,0,0,1,102.776,84.325Z" transform="translate(0 -0.413)" fill="#389beb"/></g></g><g transform="translate(46.889 16.713)"><path d="M229.4,77.685a7.111,7.111,0,1,0,7.111,7.11A7.119,7.119,0,0,0,229.4,77.685Zm0,11.055a3.945,3.945,0,1,1,3.945-3.945A3.949,3.949,0,0,1,229.4,88.74Z" transform="translate(-222.29 -77.685)" fill="#389beb"/></g><g transform="translate(10.095 19.42)"><path d="M50.924,91.048a1.806,1.806,0,0,0-1.273-.526,1.725,1.725,0,0,0-.346.035,1.888,1.888,0,0,0-.34.1,1.92,1.92,0,0,0-.309.166,1.85,1.85,0,0,0-.271.224,1.775,1.775,0,0,0-.222.272,1.81,1.81,0,0,0-.165.308,1.848,1.848,0,0,0-.1.335,1.771,1.771,0,0,0-.036.353,1.8,1.8,0,0,0,.526,1.268,1.746,1.746,0,0,0,.271.221,1.613,1.613,0,0,0,.311.167,1.7,1.7,0,0,0,.335.1,1.717,1.717,0,0,0,.351.036,1.794,1.794,0,0,0,1.27-3.061Z" transform="translate(-47.859 -90.522)" fill="#389beb"/></g><g transform="translate(16.146 19.42)"><path d="M79.606,91.048a1.8,1.8,0,0,0-1.272-.526,1.734,1.734,0,0,0-.347.035,1.89,1.89,0,0,0-.338.1,1.829,1.829,0,0,0-.309.166,1.73,1.73,0,0,0-.27.223,1.791,1.791,0,0,0,0,2.534,1.617,1.617,0,0,0,.271.222,1.549,1.549,0,0,0,.312.167,1.7,1.7,0,0,0,.335.1,1.767,1.767,0,0,0,.353.036,1.793,1.793,0,0,0,1.268-3.061Z" transform="translate(-76.544 -90.522)" fill="#389beb"/></g><g transform="translate(22.197 19.421)"><path d="M108.293,91.051a1.9,1.9,0,0,0-.274-.226,1.849,1.849,0,0,0-.312-.165,1.778,1.778,0,0,0-.331-.1,1.793,1.793,0,1,0-.35,3.552,1.713,1.713,0,0,0,.347-.035,1.687,1.687,0,0,0,.333-.1,1.573,1.573,0,0,0,.313-.166,1.733,1.733,0,0,0,.273-.223,1.791,1.791,0,0,0,0-2.536Z" transform="translate(-105.231 -90.526)" fill="#389beb"/></g></g></svg>