<svg xmlns="http://www.w3.org/2000/svg" width="100.331" height="104.138" viewBox="0 0 100.331 104.138"><g transform="translate(-9.357)"><path d="M90.873,47.724A42.369,42.369,0,0,0,66.48,55.392a1.526,1.526,0,0,0,1.748,2.5A39.5,39.5,0,0,1,76.1,53.623a66.853,66.853,0,0,0-4.018,12.232,66.56,66.56,0,0,0-15.836,5.288,39.8,39.8,0,0,1,7.127-9.251,1.526,1.526,0,1,0-2.12-2.194,42.627,42.627,0,1,0,29.62-11.975Zm34.579,23.4a66.631,66.631,0,0,0-15.788-5.264,66.838,66.838,0,0,0-4.013-12.216A39.817,39.817,0,0,1,125.453,71.12Zm-.507,20.759h5.474a39.326,39.326,0,0,1-2.726,12.992,57.381,57.381,0,0,1-17.334,6.715,111.616,111.616,0,0,0,1.926-19.708h6.159a1.526,1.526,0,1,0,0-3.051h-6.159a111.613,111.613,0,0,0-1.926-19.708,57.377,57.377,0,0,1,17.335,6.716,39.327,39.327,0,0,1,2.726,12.993h-5.474a1.526,1.526,0,1,0,0,3.051ZM92.4,129.9V116.717a93.726,93.726,0,0,0,13.951-1.244,57.234,57.234,0,0,1-4.778,12.988A39.4,39.4,0,0,1,92.4,129.9Zm-12.227-1.439a57.642,57.642,0,0,1-4.779-12.988,93.75,93.75,0,0,0,13.954,1.244V129.9A39.408,39.408,0,0,1,80.172,128.461Zm-6.812-24a1.526,1.526,0,0,0-3.028.378c.289,2.314.65,4.572,1.076,6.756a57.4,57.4,0,0,1-17.355-6.72,39.328,39.328,0,0,1-2.726-12.993H69.464c.027,2.126.107,4.261.245,6.366a1.525,1.525,0,0,0,1.521,1.426c.034,0,.067,0,.1,0a1.526,1.526,0,0,0,1.423-1.622c-.133-2.039-.212-4.107-.238-6.166H89.348v21.786a90.185,90.185,0,0,1-14.695-1.415C74.13,109.756,73.7,107.148,73.36,104.458ZM92.4,63.99V50.807a39.407,39.407,0,0,1,9.172,1.438,57.22,57.22,0,0,1,4.779,12.988A93.778,93.778,0,0,0,92.4,63.99Zm14.687,4.465a107.746,107.746,0,0,1,2.147,20.373H92.4V67.042A90.214,90.214,0,0,1,107.086,68.455ZM89.348,88.828H72.513A107.749,107.749,0,0,1,74.66,68.455a90.216,90.216,0,0,1,14.688-1.413ZM92.4,113.665V91.879h16.834a107.743,107.743,0,0,1-2.147,20.373A90.192,90.192,0,0,1,92.4,113.665ZM80.18,52.236A39.537,39.537,0,0,1,89.347,50.8V63.99A93.786,93.786,0,0,0,75.4,65.232,57.223,57.223,0,0,1,80.18,52.236ZM71.387,69.12a111.618,111.618,0,0,0-1.926,19.708H51.327a39.437,39.437,0,0,1,2.691-12.971A57.332,57.332,0,0,1,71.387,69.12ZM56.293,109.585a66.635,66.635,0,0,0,15.814,5.271A68.285,68.285,0,0,0,76.1,127.07a39.818,39.818,0,0,1-19.808-17.484Zm49.36,17.481a66.838,66.838,0,0,0,4.013-12.216,66.622,66.622,0,0,0,15.788-5.266A39.817,39.817,0,0,1,105.653,127.067Z" transform="translate(-30.977 -38.016)" fill="#389beb"/><path d="M339.837,39.871A51.461,51.461,0,0,0,304.551,3.139l.492-.218a1.526,1.526,0,1,0-1.236-2.79l-4.566,2.023a1.526,1.526,0,0,0-.543,2.385l3.328,3.9a1.526,1.526,0,1,0,2.321-1.98l-.228-.267A48.4,48.4,0,0,1,336.876,40.61a1.526,1.526,0,0,0,2.96-.739Z" transform="translate(-230.194 0)" fill="#389beb"/><path d="M46.422,328.282a1.526,1.526,0,1,0-2.389,1.9l.222.279a48.292,48.292,0,0,1-31.869-37.329,1.526,1.526,0,0,0-3.006.521,51.342,51.342,0,0,0,34.325,39.843l-.492.2a1.526,1.526,0,1,0,1.137,2.832l4.635-1.861a1.526,1.526,0,0,0,.626-2.365Z" transform="translate(0 -232.495)" fill="#389beb"/></g></svg>